<svg width="600" height="600" viewBox="0 0 600 600" fill="none" xmlns="http://www.w3.org/2000/svg">
<g clip-path="url(#clip0_27_98)">
<rect width="600" height="600" fill="white"/>
<g clip-path="url(#clip1_27_98)">
<path d="M639.384 -19.0318H-26.1449V176.209H639.384V-19.0318Z" fill="#4A6B75"/>
<path d="M593.673 -22.8257L498.567 134.107L726.167 180.599L733.639 -22.8257H593.673Z" fill="#798789"/>
<path d="M-129.354 -24.8694L-121.811 180.599L103.199 133.757L13.1662 -24.8694H-129.354Z" fill="#798789"/>
<g opacity="0.4">
<path opacity="0.4" d="M37.6897 81.4647C39.1088 85.1451 41.2376 87.2171 44.4024 87.0846H45.112C47.1847 87.176 49.2245 86.3766 50.9306 84.8045C51.2215 84.549 51.5195 84.2841 51.8247 84.057C52.4805 83.5358 53.0329 82.8123 53.4354 81.9472C54.8483 79.127 55.5287 75.767 55.3726 72.382C55.3599 69.7576 54.4702 67.2775 52.9458 65.6172C50.6619 63.081 47.7061 61.8833 44.7501 62.2964C42.9832 62.4572 41.5143 63.5925 40.0384 64.7279C39.1656 65.3967 38.4523 66.3806 37.9806 67.5662C36.1428 72.1171 35.8447 76.7246 37.6897 81.4647Z" fill="#006482"/>
<path opacity="0.4" d="M75.752 137.172C76.9653 129.726 75.7094 121.362 83.678 120.312C91.6467 119.262 92.5124 129.026 92.6118 137.219C92.6969 144.334 92.2499 156.823 85.1185 158.034C76.6957 159.463 76.3551 144.485 75.752 137.172Z" fill="#78C8C8"/>
<path opacity="0.4" d="M162.378 87.7942C162.024 98.4948 157.227 102.468 152.799 102.856C147.761 103.254 142.545 96.1579 142.971 87.0751C143.34 79.1372 147.74 73.4038 152.118 72.8172C157.283 72.0887 162.691 77.1031 162.378 87.7942Z" fill="#00A0B4"/>
<path opacity="0.4" d="M129.155 126.509C128.914 134.4 125.373 137.333 122.102 137.598C118.384 137.891 114.531 132.65 114.843 125.951C115.12 120.085 118.391 115.856 121.598 115.421C125.416 114.882 129.404 118.581 129.155 126.509Z" fill="#006482"/>
<path opacity="0.4" d="M171.88 73.2051C172.128 65.3145 175.669 62.3815 178.976 62.126C182.694 61.8233 186.547 67.0648 186.235 73.7727C185.958 79.6292 182.687 83.8583 179.479 84.2935C175.626 84.8044 171.638 81.0957 171.88 73.2051Z" fill="#78C8C8"/>
<path opacity="0.4" d="M121.123 81.1998C120.676 95.5618 114.24 100.898 108.294 101.371C101.524 101.901 94.5205 92.3829 95.0881 80.1874C95.5848 69.5152 101.474 61.8328 107.378 61.038C114.311 60.1014 121.57 66.8472 121.123 81.1998Z" fill="#006482"/>
<path opacity="0.4" d="M31.6865 98.0217C31.353 108.741 26.542 112.724 22.1 113.074C17.0477 113.481 11.8181 106.366 12.2438 97.2554C12.6128 89.2891 17.0265 83.5556 21.4188 82.9879C26.5988 82.2594 32.02 87.2928 31.6865 98.0217Z" fill="#AADCDC"/>
<path opacity="0.4" d="M212.049 0.675787C213.71 -9.47604 211.993 -20.8862 222.864 -22.3148C233.734 -23.7435 234.926 -10.4316 235.04 0.742017C235.154 10.4113 234.543 27.4509 224.822 29.0593C213.334 31.0461 212.865 10.5627 212.049 0.675787Z" fill="#00A0B4"/>
<path opacity="0.4" d="M256.399 38.1136C256.511 39.0229 257.024 39.7519 257.697 39.9585C258.527 40.1288 277.502 39.6274 278.495 39.4476C279.119 38.2422 279.426 36.7949 279.368 35.332C279.368 31.8125 279.368 14.5175 279.368 11.4237C279.469 10.333 279.129 9.25255 278.474 8.58532C275.841 7.58244 257.747 8.93539 256.519 9.8342C256.228 10.8182 256.044 36.2687 256.399 38.1136Z" fill="#78C8C8"/>
<path opacity="0.4" d="M452.543 149.443C452.652 150.352 453.167 151.08 453.841 151.279C454.672 151.449 473.646 150.957 474.632 150.777C475.261 149.57 475.57 148.119 475.512 146.652C475.512 143.133 475.512 125.79 475.512 122.744C475.609 121.642 475.261 120.554 474.597 119.886C471.957 118.884 453.87 120.237 452.642 121.135C452.373 122.138 452.146 147.589 452.543 149.443Z" fill="#78C8C8"/>
<path opacity="0.4" d="M322.348 152.906C322.419 126.812 322.44 72.363 322.348 70.5938C322.262 69.4395 322.092 68.4745 321.808 68.3042C318.935 68.3102 316.064 68.5218 313.208 68.9381C312.934 70.6188 312.81 72.337 312.839 74.0566C312.839 77.491 312.839 129.13 312.839 152.896L322.348 152.906Z" fill="#006482"/>
<path opacity="0.4" d="M27.0317 47.8492C26.457 45.0673 26.4276 42.1354 26.9465 39.3341C27.4432 35.7294 29.7281 32.8438 32.3465 32.8438C34.4398 32.8438 35.8944 34.3765 37.0581 36.3728C38.7411 39.3964 38.8923 43.4741 37.4413 46.7044C37.2142 47.1585 37.0369 47.6505 36.8311 48.133C35.8028 50.5569 33.9447 52.1495 31.864 52.3905C30.3688 52.5974 28.9122 51.6738 28.089 49.9968C27.6987 49.3251 27.3865 48.5777 27.0317 47.8492Z" fill="#78C8C8"/>
<path opacity="0.4" d="M253.794 138.903C253.22 136.122 253.19 133.19 253.709 130.388C254.206 126.774 256.491 123.889 259.109 123.879C261.203 123.879 262.657 125.412 263.821 127.408C265.505 130.435 265.656 134.516 264.204 137.749C263.977 138.194 263.8 138.695 263.594 139.168C262.568 141.596 260.709 143.19 258.627 143.426C257.133 143.633 255.678 142.713 254.852 141.042C254.461 140.379 254.149 139.632 253.794 138.903Z" fill="#006482"/>
<path opacity="0.4" d="M249.565 39.9585C249.232 50.6591 244.435 54.6044 240.007 54.9829C234.969 55.3802 229.754 48.2844 230.179 39.2016C230.548 31.2637 234.948 25.5303 239.326 24.9437C244.492 24.253 249.899 29.2674 249.565 39.9585Z" fill="#006482"/>
<path opacity="0.4" d="M212.972 91.9287L237.963 66.9796L212.518 65.5037L212.972 91.9287Z" fill="#006482"/>
<path opacity="0.4" d="M79.7823 62.5234C79.5907 68.7016 76.8163 71.0385 74.2617 71.1993C71.3524 71.4264 68.3367 67.3391 68.585 62.0882C68.7979 57.4995 71.3382 54.1976 73.8644 53.857C76.8517 53.4502 79.9739 56.3547 79.7823 62.5234Z" fill="#006482"/>
<path opacity="0.4" d="M240.433 122.507C240.241 128.685 237.474 131.022 234.919 131.183C232.003 131.41 228.994 127.323 229.243 122.072C229.463 117.483 232.003 114.181 234.529 113.841C237.517 113.434 240.639 116.339 240.433 122.507Z" fill="#00A0B4"/>
<path opacity="0.4" d="M342.202 59.7513C342.003 65.9294 339.236 68.2663 336.681 68.4272C333.765 68.6542 330.756 64.567 331.005 59.3161C331.225 54.7274 333.765 51.4255 336.291 51.0849C339.271 50.678 342.394 53.5826 342.202 59.7513Z" fill="#006482"/>
<path opacity="0.4" d="M364.369 132.432C364.178 138.61 361.403 140.947 358.849 141.108C355.939 141.335 352.924 137.248 353.172 131.997C353.385 127.408 355.925 124.106 358.458 123.766C361.439 123.359 364.561 126.263 364.369 132.432Z" fill="#006482"/>
<path opacity="0.4" d="M369.159 52.5419C368.968 58.72 366.2 61.0569 363.646 61.2178C360.729 61.4448 357.721 57.3576 357.969 52.1067C358.189 47.518 360.729 44.2161 363.255 43.8755C366.236 43.4686 369.358 46.3732 369.159 52.5419Z" fill="#006482"/>
<path opacity="0.4" d="M388.29 27.0441C388.098 33.2222 385.323 35.5591 382.769 35.7199C379.86 35.947 376.844 31.8503 377.092 26.6088C377.305 22.0202 379.845 18.7088 382.372 18.3682C385.359 17.9708 388.481 20.8659 388.29 27.0441Z" fill="#006482"/>
<path opacity="0.4" d="M415.9 113.264C415.708 119.442 412.934 121.779 410.379 121.94C407.47 122.167 404.454 118.07 404.702 112.819C404.915 108.24 407.456 104.928 409.982 104.588C412.969 104.19 416.091 107.086 415.9 113.264Z" fill="#006482"/>
<path opacity="0.4" d="M208.601 42.882C208.409 49.0602 205.635 51.3971 203.08 51.5579C200.171 51.7944 197.155 47.6978 197.404 42.4468C197.616 37.8582 200.157 34.5562 202.683 34.2156C205.663 33.7899 208.792 36.7134 208.601 42.882Z" fill="#006482"/>
<path opacity="0.4" d="M297.264 76.5165C297.072 82.6852 294.298 85.0315 291.743 85.1829C288.834 85.4194 285.818 81.3228 286.066 76.0718C286.279 71.4831 288.82 68.1812 291.346 67.8406C294.362 67.4338 297.455 70.3383 297.264 76.5165Z" fill="#006482"/>
<path opacity="0.4" d="M315.238 39.7599C315.046 45.938 312.272 48.2749 309.717 48.4357C306.808 48.6628 303.792 44.5756 304.04 39.3246C304.253 34.736 306.794 31.434 309.327 31.0934C312.307 30.6866 315.429 33.5912 315.238 39.7599Z" fill="#006482"/>
<path opacity="0.4" d="M19.5384 21.6417C19.2049 32.3328 14.4081 36.3065 9.98024 36.6282C4.94217 37.0256 -0.28039 29.9392 0.145362 20.8564C0.521444 12.9091 4.92088 7.18506 9.29904 6.59847C14.4648 5.92673 19.8719 10.9506 19.5384 21.6417Z" fill="#006482"/>
<path opacity="0.4" d="M570.774 94.5873C571.101 83.934 575.904 79.913 580.325 79.563C585.363 79.1656 590.586 86.2615 590.16 95.3442C589.791 103.282 585.392 109.016 581.006 109.602C575.848 110.293 570.448 105.278 570.774 94.5873Z" fill="#78C8C8"/>
<path opacity="0.4" d="M503.988 46.3732C502.363 56.3169 504.045 67.4905 493.401 68.8908C482.757 70.291 481.6 57.2535 481.473 46.307C481.352 36.8458 481.955 20.1185 491.478 18.5006C502.732 16.5895 503.186 36.6282 503.988 46.3732Z" fill="#AADCDC"/>
<path opacity="0.4" d="M443.552 37.8203C443.886 27.1292 448.683 23.1555 453.11 22.8054C458.148 22.4081 463.364 29.4945 462.938 38.5772C462.569 46.5246 458.17 52.2486 453.792 52.8352C448.626 53.5353 443.219 48.5209 443.552 37.8203Z" fill="#006482"/>
<path opacity="0.4" d="M526.333 47.5653C526.666 36.8742 531.463 32.9005 535.891 32.5504C540.929 32.1436 546.152 39.2395 545.726 48.3222C545.35 56.2696 540.957 61.9936 536.572 62.5802C531.406 63.2803 525.999 58.2564 526.333 47.5653Z" fill="#006482"/>
<path opacity="0.4" d="M562.451 47.9816C562.791 33.4871 567.652 28.1132 572.144 27.6401C577.253 27.1008 582.539 36.685 582.078 48.9656C581.744 59.6945 577.274 67.4338 572.832 68.2285C567.595 69.1746 562.11 62.3909 562.451 47.9816Z" fill="#AADCDC"/>
<path opacity="0.4" d="M395.456 56.1561C395.79 45.4649 400.587 41.4913 405.015 41.1412C410.053 40.7438 415.268 47.8302 414.842 56.913C414.473 64.8603 410.074 70.5843 405.696 71.1709C400.53 71.8711 395.123 66.8472 395.456 56.1561Z" fill="#00A0B4"/>
<path opacity="0.4" d="M342.5 110.217C342.323 118.013 339.697 120.908 337.277 121.164C334.517 121.448 331.665 116.282 331.899 109.668C332.105 103.878 334.51 99.7058 336.901 99.2611C339.726 98.7691 342.684 102.421 342.5 110.217Z" fill="#AADCDC"/>
<path opacity="0.4" d="M487.476 89.6107C487.142 100.302 482.345 104.276 477.918 104.626C472.88 105.023 467.664 97.9366 468.09 88.8444C468.459 80.9065 472.858 75.1825 477.236 74.5864C482.402 73.9052 487.809 78.9196 487.476 89.6107Z" fill="#006482"/>
<path opacity="0.4" d="M384.834 93.7263C384.5 104.417 379.704 108.391 375.276 108.741C370.238 109.139 365.022 102.052 365.441 92.96C365.817 85.0221 370.216 79.2981 374.595 78.702C379.76 78.0113 385.189 82.9879 384.834 93.7263Z" fill="#006482"/>
<path opacity="0.4" d="M540.879 117.143C540.546 127.843 535.749 131.817 531.321 132.167C526.283 132.564 521.068 125.469 521.493 116.386C521.862 108.448 526.262 102.724 530.64 102.128C535.806 101.437 541.213 106.452 540.879 117.143Z" fill="#006482"/>
<path opacity="0.4" d="M134.208 37.7162C133.874 48.4074 129.077 52.3811 124.65 52.7311C119.604 53.1285 114.389 46.0421 114.815 36.9594C115.184 29.012 119.583 23.288 123.968 22.7014C129.134 22.0013 134.534 27.0251 134.208 37.7162Z" fill="#00A0B4"/>
<path opacity="0.4" d="M397.465 137.087C397.131 147.778 392.334 151.752 387.906 152.102C382.868 152.499 377.653 145.413 378.071 136.321C378.448 128.383 382.847 122.659 387.225 122.063C392.391 121.372 397.798 126.386 397.465 137.087Z" fill="#AADCDC"/>
<path opacity="0.4" d="M210.836 120.53C210.51 129.158 205.713 132.366 201.285 132.65C196.24 132.971 191.024 127.247 191.45 119.915C191.819 113.51 196.219 108.893 200.604 108.41C205.77 107.852 211.17 111.901 210.836 120.53Z" fill="#AADCDC"/>
<path opacity="0.4" d="M93.2716 25.0951C92.938 33.7236 88.1483 36.931 83.7205 37.2148C78.647 37.5743 73.4599 31.8125 73.8856 24.4801C74.2546 18.0749 78.647 13.4578 83.0322 12.9753C88.2051 12.4171 93.6051 16.4665 93.2716 25.0951Z" fill="#78C8C8"/>
<path opacity="0.4" d="M69.6424 112.781C69.167 123.472 62.362 127.446 56.0822 127.796C48.9295 128.193 41.5215 121.107 42.1246 112.015C42.6568 104.077 48.8941 98.3529 55.11 97.7568C62.4401 97.0661 70.132 102.081 69.6424 112.781Z" fill="#AADCDC"/>
<path opacity="0.4" d="M303.515 116.49C303.047 127.181 296.235 131.155 289.955 131.505C282.802 131.902 275.401 124.816 276.005 115.733C276.53 107.786 282.774 102.062 288.99 101.475C296.32 100.775 303.991 105.799 303.515 116.49Z" fill="#AADCDC"/>
<path opacity="0.4" d="M170.893 23.8651C172.114 16.4192 170.851 8.0555 178.819 7.01478C186.788 5.97405 187.654 15.7285 187.753 23.9124C187.838 31.0272 187.391 43.5159 180.26 44.727C171.802 46.1556 171.461 31.1407 170.893 23.8651Z" fill="#006482"/>
<path opacity="0.4" d="M249.601 89.4783C250.821 82.0418 249.558 73.6687 257.534 72.5806C265.51 71.4926 266.361 81.2944 266.461 89.4877C266.546 96.6025 266.099 109.091 258.967 110.302C250.545 111.769 250.204 96.7539 249.601 89.4783Z" fill="#AADCDC"/>
<path opacity="0.4" d="M161.044 129.877C162.258 122.432 161.002 114.068 168.97 113.018C176.939 111.967 177.798 121.731 177.897 129.925C177.982 137.04 177.535 149.528 170.411 150.739C161.981 152.168 161.669 137.144 161.044 129.877Z" fill="#006482"/>
<path opacity="0.4" d="M555.688 139.982C556.909 132.546 555.646 124.182 563.622 123.132C571.597 122.081 572.449 131.845 572.52 140.039C572.605 147.154 572.158 159.642 565.027 160.853C556.632 162.282 556.292 147.258 555.688 139.982Z" fill="#006482"/>
<path opacity="0.4" d="M427.097 82.0418C428.317 74.5959 427.054 66.2322 435.023 65.1915C442.992 64.1507 443.857 73.9052 443.957 82.0891C444.042 89.2039 443.595 101.693 436.463 102.904C428.041 104.342 427.7 89.3269 427.097 82.0418Z" fill="#AADCDC"/>
</g>
<path d="M604.471 144.902C575.47 141.506 538.756 137.636 498.586 134.419L491.774 225.246H604.471V144.902Z" fill="#64645A"/>
<path d="M498.586 208.188V134.391C436.405 129.433 351.134 127.967 286.795 130.237C256.163 131.326 221.379 129.064 189.249 130.237C159.772 131.316 130.019 132.669 103.218 134.022L98.7832 208.188H498.586Z" fill="#3C3C32"/>
<path d="M103.218 213.865V134.069C81.9305 135.157 61.835 136.293 43.3574 137.409C23.7728 138.601 5.68538 139.793 -10.032 140.872V213.865H103.218Z" fill="#64645A"/>
<path d="M303.279 191.508L-25.6429 206.371V461.87H620.082V204.914L303.279 191.508Z" fill="#4E5033"/>
<path d="M556.566 259.553C556.446 256.96 556.261 254.907 556.786 252.693L557.9 252.845V258.89L556.566 259.553Z" fill="#82783C"/>
<path d="M553.785 257.963H552.742C552.309 256.289 552.955 254.671 552.642 252.939L553.842 252.381C554.218 254.406 553.678 256.118 553.785 257.963Z" fill="#82783C"/>
<path d="M604.471 359.652L294.409 312.762L-8.61279 366.464V605.557H604.471V359.652Z" fill="#4E5033"/>
<path d="M190.653 462.627L191.789 463.138C191.888 465.834 191.973 468.351 192.058 470.811C191.909 470.981 191.817 471.171 191.704 471.189C191.418 471.219 191.131 471.219 190.845 471.189C190.696 470.574 190.594 469.94 190.54 469.297C190.54 467.216 190.604 465.153 190.653 462.627Z" fill="#82783C"/>
<path d="M187.609 470.924C187.311 470.461 187.02 470.215 186.999 469.978C186.899 468.623 186.851 467.262 186.857 465.901C186.929 465.133 187.055 464.376 187.233 463.639L188.198 464.311C188.432 469.401 188.432 469.401 187.609 470.924Z" fill="#82783C"/>
<path d="M195.798 471.01L194.549 471.36C193.733 469.193 194.436 467.131 194.301 465.011L195.181 464.671C195.848 466.762 195.606 468.843 195.798 471.01Z" fill="#82783C"/>
<path d="M300.689 381.999C425.402 381.999 526.501 354.762 526.501 321.164C526.501 287.565 425.402 260.328 300.689 260.328C175.977 260.328 74.8772 287.565 74.8772 321.164C74.8772 354.762 175.977 381.999 300.689 381.999Z" fill="#64420E"/>
<path d="M295.339 676.856C375.446 676.856 440.386 646.226 440.386 608.443C440.386 570.659 375.446 540.029 295.339 540.029C215.232 540.029 150.292 570.659 150.292 608.443C150.292 646.226 215.232 676.856 295.339 676.856Z" fill="#64420E"/>
<path d="M296.29 278.749L-95.5231 356.558L-90.4424 399.606L292.919 320.303L689.131 391.082L694.311 351.383L296.29 278.749Z" fill="#64420E"/>
<path d="M295.942 312.762L282.666 317.067L282.431 326.699L312.362 327.058L311.943 316.405L295.942 312.762Z" fill="#BFCED9"/>
<path d="M653.837 208.292C595.296 198.358 476.241 184.639 307.451 183.211C161.986 182 98.8328 194.829 -60.3276 205.454L-55.1406 230.743C-42.2474 228.52 -27.7718 226.259 -11.6925 224.121C80.4616 211.708 218.732 201.414 296.148 202.256C349.842 202.824 466.754 207.592 538.883 216.836C592.188 223.676 620.976 231.339 658.094 238.729L653.837 208.292Z" fill="#797B5F"/>
<path d="M689.933 375.433L428.372 324.996V318.723L689.877 369.841L689.933 375.433Z" fill="#BFCED9"/>
<path d="M-99.071 378.886L162.49 328.449V322.176L-99.0143 373.295L-99.071 378.886Z" fill="#BFCED9"/>
<path d="M501.857 547.191L503 547.702C503.092 550.398 503.184 552.915 503.269 555.375C503.113 555.536 503.021 555.734 502.907 555.753C502.624 555.778 502.339 555.778 502.056 555.753C501.906 555.138 501.801 554.504 501.744 553.861C501.744 551.78 501.808 549.736 501.857 547.191Z" fill="#82783C"/>
<path d="M498.82 555.479C498.522 555.025 498.231 554.779 498.21 554.533C498.106 553.178 498.059 551.817 498.068 550.455C498.138 549.696 498.264 548.948 498.444 548.222L499.402 548.894C499.636 553.965 499.636 553.965 498.82 555.479Z" fill="#82783C"/>
<path d="M507.009 555.564L505.753 555.924C504.937 553.748 505.639 551.694 505.511 549.575L506.391 549.225C507.058 551.316 506.817 553.407 507.009 555.564Z" fill="#82783C"/>
<path d="M114.976 253.602L116.111 254.113C116.211 256.809 116.296 259.326 116.381 261.786C116.232 261.956 116.14 262.145 116.026 262.173C115.74 262.198 115.453 262.198 115.168 262.173C115.019 261.558 114.916 260.924 114.862 260.281C114.855 258.152 114.926 256.09 114.976 253.602Z" fill="#82783C"/>
<path d="M111.932 261.861C111.634 261.398 111.343 261.161 111.322 260.915C111.221 259.563 111.174 258.205 111.18 256.847C111.252 256.088 111.378 255.341 111.556 254.614L112.521 255.286C112.727 260.338 112.727 260.338 111.932 261.861Z" fill="#82783C"/>
<path d="M120.12 261.946L118.872 262.296C118.056 260.13 118.758 258.067 118.623 255.957L119.503 255.607C120.17 257.698 119.929 259.78 120.12 261.946Z" fill="#82783C"/>
<path d="M87.813 403.485L86.8337 402.956C86.9969 399.55 87.4369 396.134 87.075 392.548L88.2955 392.179C88.3383 395.959 88.177 399.737 87.813 403.485Z" fill="#82783C"/>
<path d="M84.5276 397.052C84.705 399.076 84.8682 400.959 85.0527 403.088H83.74C83.6407 400.931 83.5555 398.963 83.4633 396.758L84.5276 397.052Z" fill="#82783C"/>
<path d="M563.62 455.843L562.641 455.314C562.804 451.908 563.244 448.492 562.882 444.906L564.102 444.537C564.145 448.317 563.984 452.095 563.62 455.843Z" fill="#82783C"/>
<path d="M560.334 449.448C560.512 451.472 560.675 453.355 560.859 455.484H559.547C559.447 453.327 559.362 451.359 559.27 449.154L560.334 449.448Z" fill="#82783C"/>
<path d="M429.65 302.298L324.971 302.194L325.681 339.433L431.189 339.291L429.65 302.298ZM332.287 334.39L331.478 307.161L424.313 306.953L424.988 334.618L332.287 334.39Z" fill="#BFCED9"/>
<path d="M160.056 339.291L265.565 339.433L266.274 302.194L161.596 302.298L160.056 339.291ZM166.272 334.618L166.946 306.953L259.781 307.161L258.973 334.39L166.272 334.618Z" fill="#BFCED9"/>
<path d="M348.593 303.736L354.809 304.058L350.907 277.936L229.191 277.084L226.608 304.058L234.683 304.153L235.428 283.906L346.266 283.735L348.593 303.736Z" fill="#BFCED9"/>
<path d="M519.987 354.969L521.13 355.479C521.222 358.176 521.307 360.693 521.399 363.152C521.243 363.323 521.151 363.512 521.037 363.531C520.754 363.56 520.469 363.56 520.186 363.531C520.035 362.916 519.93 362.282 519.874 361.639C519.874 359.567 519.937 357.495 519.987 354.969Z" fill="#828C00"/>
<path d="M516.95 363.266C516.652 362.802 516.354 362.556 516.34 362.32C516.232 360.965 516.185 359.604 516.198 358.242C516.268 357.487 516.392 356.743 516.567 356.019L517.532 356.69C517.766 361.743 517.766 361.743 516.95 363.266Z" fill="#828C00"/>
<path d="M525.132 363.351L523.883 363.701C523.067 361.535 523.769 359.472 523.634 357.362L524.514 357.012C525.188 359.103 524.94 361.185 525.132 363.351Z" fill="#828C00"/>
<path d="M263.336 557.541V566.066L324.85 565.943V558.109L263.336 557.541Z" fill="#BFCED9"/>
</g>
</g>
<defs>
<clipPath id="clip0_27_98">
<rect width="600" height="600" fill="white"/>
</clipPath>
<clipPath id="clip1_27_98">
<rect width="600" height="600" fill="white" transform="translate(0.437988)"/>
</clipPath>
</defs>
</svg>
