<svg width="601" height="600" viewBox="0 0 601 600" fill="none" xmlns="http://www.w3.org/2000/svg">
<g clip-path="url(#clip0_27_6)">
<rect width="600" height="600" transform="translate(0.562012)" fill="white"/>
<g clip-path="url(#clip1_27_6)">
<path d="M639.946 -19.0318H-25.5828V176.209H639.946V-19.0318Z" fill="#008CB4"/>
<path d="M594.235 -22.8257L499.129 134.107L726.729 180.599L734.201 -22.8257H594.235Z" fill="#00A0B4"/>
<path d="M-128.792 -24.8694L-121.249 180.599L103.761 133.757L13.7284 -24.8694H-128.792Z" fill="#00A0B4"/>
<g opacity="0.4">
<path opacity="0.4" d="M38.2517 81.4647C39.6709 85.1451 41.7996 87.2171 44.9644 87.0846H45.674C47.7467 87.176 49.7866 86.3766 51.4926 84.8045C51.7835 84.549 52.0815 84.2841 52.3867 84.057C53.0425 83.5358 53.5949 82.8123 53.9974 81.9472C55.4103 79.127 56.0907 75.767 55.9346 72.382C55.9219 69.7576 55.0322 67.2775 53.5078 65.6172C51.2239 63.081 48.2682 61.8833 45.3121 62.2964C43.5452 62.4572 42.0764 63.5925 40.6004 64.7279C39.7277 65.3967 39.0143 66.3806 38.5426 67.5662C36.7048 72.1171 36.4068 76.7246 38.2517 81.4647Z" fill="#006482"/>
<path opacity="0.4" d="M76.314 137.172C77.5274 129.726 76.2714 121.362 84.2401 120.312C92.2087 119.262 93.0744 129.026 93.1738 137.219C93.2589 144.334 92.8119 156.823 85.6805 158.034C77.2577 159.463 76.9171 144.485 76.314 137.172Z" fill="#78C8C8"/>
<path opacity="0.4" d="M162.94 87.7942C162.586 98.4948 157.789 102.468 153.361 102.856C148.323 103.254 143.107 96.1579 143.533 87.0751C143.902 79.1372 148.302 73.4038 152.68 72.8172C157.846 72.0887 163.253 77.1031 162.94 87.7942Z" fill="#00A0B4"/>
<path opacity="0.4" d="M129.718 126.509C129.476 134.4 125.936 137.333 122.664 137.598C118.946 137.891 115.093 132.65 115.405 125.951C115.682 120.085 118.953 115.856 122.161 115.421C125.978 114.882 129.966 118.581 129.718 126.509Z" fill="#006482"/>
<path opacity="0.4" d="M172.442 73.2051C172.69 65.3145 176.231 62.3815 179.538 62.126C183.256 61.8233 187.109 67.0648 186.797 73.7727C186.52 79.6292 183.249 83.8583 180.042 84.2935C176.188 84.8044 172.201 81.0957 172.442 73.2051Z" fill="#78C8C8"/>
<path opacity="0.4" d="M121.685 81.1998C121.238 95.5618 114.802 100.898 108.856 101.371C102.086 101.901 95.0826 92.3829 95.6503 80.1874C96.147 69.5152 102.037 61.8328 107.94 61.038C114.873 60.1014 122.132 66.8472 121.685 81.1998Z" fill="#006482"/>
<path opacity="0.4" d="M32.2485 98.0217C31.915 108.741 27.104 112.724 22.662 113.074C17.6098 113.481 12.3801 106.366 12.8059 97.2554C13.1748 89.2891 17.5885 83.5556 21.9808 82.9879C27.1608 82.2594 32.5821 87.2928 32.2485 98.0217Z" fill="#AADCDC"/>
<path opacity="0.4" d="M212.612 0.675787C214.272 -9.47604 212.555 -20.8862 223.426 -22.3148C234.297 -23.7435 235.489 -10.4316 235.602 0.742017C235.716 10.4113 235.105 27.4509 225.384 29.0593C213.896 31.0461 213.428 10.5627 212.612 0.675787Z" fill="#00A0B4"/>
<path opacity="0.4" d="M256.961 38.1136C257.073 39.0229 257.586 39.7519 258.259 39.9585C259.09 40.1288 278.064 39.6274 279.057 39.4476C279.682 38.2422 279.989 36.7949 279.93 35.332C279.93 31.8125 279.93 14.5175 279.93 11.4237C280.031 10.333 279.691 9.25255 279.036 8.58532C276.404 7.58244 258.309 8.93539 257.081 9.8342C256.791 10.8182 256.606 36.2687 256.961 38.1136Z" fill="#78C8C8"/>
<path opacity="0.4" d="M453.105 149.443C453.214 150.352 453.729 151.08 454.403 151.279C455.234 151.449 474.208 150.957 475.194 150.777C475.823 149.57 476.132 148.119 476.074 146.652C476.074 143.133 476.074 125.79 476.074 122.744C476.171 121.642 475.823 120.554 475.159 119.886C472.519 118.884 454.432 120.237 453.204 121.135C452.935 122.138 452.708 147.589 453.105 149.443Z" fill="#78C8C8"/>
<path opacity="0.4" d="M322.91 152.906C322.981 126.812 323.002 72.363 322.91 70.5938C322.825 69.4395 322.654 68.4745 322.371 68.3042C319.497 68.3102 316.627 68.5218 313.77 68.9381C313.496 70.6188 313.372 72.337 313.401 74.0566C313.401 77.491 313.401 129.13 313.401 152.896L322.91 152.906Z" fill="#006482"/>
<path opacity="0.4" d="M27.5937 47.8492C27.019 45.0673 26.9897 42.1354 27.5085 39.3341C28.0052 35.7294 30.2901 32.8438 32.9085 32.8438C35.0018 32.8438 36.4564 34.3765 37.6202 36.3728C39.3031 39.3964 39.4543 43.4741 38.0033 46.7044C37.7763 47.1585 37.5989 47.6505 37.3931 48.133C36.3648 50.5569 34.5067 52.1495 32.426 52.3905C30.9308 52.5974 29.4742 51.6738 28.651 49.9968C28.2607 49.3251 27.9485 48.5777 27.5937 47.8492Z" fill="#78C8C8"/>
<path opacity="0.4" d="M254.357 138.903C253.782 136.122 253.753 133.19 254.271 130.388C254.768 126.774 257.053 123.889 259.671 123.879C261.765 123.879 263.219 125.412 264.383 127.408C266.067 130.435 266.219 134.516 264.766 137.749C264.539 138.194 264.362 138.695 264.156 139.168C263.131 141.596 261.271 143.19 259.189 143.426C257.695 143.633 256.24 142.713 255.414 141.042C255.024 140.379 254.711 139.632 254.357 138.903Z" fill="#006482"/>
<path opacity="0.4" d="M250.127 39.9585C249.794 50.6591 244.997 54.6044 240.569 54.9829C235.531 55.3802 230.316 48.2844 230.741 39.2016C231.11 31.2637 235.51 25.5303 239.888 24.9437C245.054 24.253 250.461 29.2674 250.127 39.9585Z" fill="#006482"/>
<path opacity="0.4" d="M213.534 91.9287L238.526 66.9796L213.08 65.5037L213.534 91.9287Z" fill="#006482"/>
<path opacity="0.4" d="M80.3445 62.5234C80.1529 68.7016 77.3784 71.0385 74.8239 71.1993C71.9146 71.4264 68.8988 67.3391 69.1472 62.0882C69.3601 57.4995 71.9004 54.1976 74.4265 53.857C77.4139 53.4502 80.5361 56.3547 80.3445 62.5234Z" fill="#006482"/>
<path opacity="0.4" d="M240.995 122.507C240.804 128.685 238.036 131.022 235.482 131.183C232.565 131.41 229.557 127.323 229.805 122.072C230.025 117.483 232.565 114.181 235.091 113.841C238.079 113.434 241.201 116.339 240.995 122.507Z" fill="#00A0B4"/>
<path opacity="0.4" d="M342.764 59.7513C342.565 65.9294 339.798 68.2663 337.243 68.4272C334.327 68.6542 331.318 64.567 331.567 59.3161C331.787 54.7274 334.327 51.4255 336.853 51.0849C339.833 50.678 342.956 53.5826 342.764 59.7513Z" fill="#006482"/>
<path opacity="0.4" d="M364.932 132.432C364.74 138.61 361.966 140.947 359.411 141.108C356.502 141.335 353.486 137.248 353.734 131.997C353.947 127.408 356.488 124.106 359.021 123.766C362.001 123.359 365.123 126.263 364.932 132.432Z" fill="#006482"/>
<path opacity="0.4" d="M369.721 52.5419C369.53 58.72 366.762 61.0569 364.208 61.2178C361.291 61.4448 358.283 57.3576 358.531 52.1067C358.751 47.518 361.291 44.2161 363.818 43.8755C366.798 43.4686 369.92 46.3732 369.721 52.5419Z" fill="#006482"/>
<path opacity="0.4" d="M388.852 27.0441C388.66 33.2222 385.886 35.5591 383.331 35.7199C380.422 35.947 377.406 31.8503 377.655 26.6088C377.867 22.0202 380.408 18.7088 382.934 18.3682C385.921 17.9708 389.043 20.8659 388.852 27.0441Z" fill="#006482"/>
<path opacity="0.4" d="M416.462 113.264C416.27 119.442 413.496 121.779 410.941 121.94C408.032 122.167 405.016 118.07 405.264 112.819C405.477 108.24 408.018 104.928 410.544 104.588C413.531 104.19 416.653 107.086 416.462 113.264Z" fill="#006482"/>
<path opacity="0.4" d="M209.163 42.882C208.971 49.0602 206.197 51.3971 203.642 51.5579C200.733 51.7944 197.717 47.6978 197.966 42.4468C198.179 37.8582 200.719 34.5562 203.245 34.2156C206.225 33.7899 209.355 36.7134 209.163 42.882Z" fill="#006482"/>
<path opacity="0.4" d="M297.826 76.5165C297.634 82.6852 294.86 85.0315 292.305 85.1829C289.396 85.4194 286.38 81.3228 286.629 76.0718C286.841 71.4831 289.382 68.1812 291.908 67.8406C294.924 67.4338 298.018 70.3383 297.826 76.5165Z" fill="#006482"/>
<path opacity="0.4" d="M315.8 39.7599C315.608 45.938 312.834 48.2749 310.279 48.4357C307.37 48.6628 304.354 44.5756 304.602 39.3246C304.815 34.736 307.356 31.434 309.889 31.0934C312.869 30.6866 315.991 33.5912 315.8 39.7599Z" fill="#006482"/>
<path opacity="0.4" d="M20.1005 21.6417C19.767 32.3328 14.9702 36.3065 10.5424 36.6282C5.50431 37.0256 0.281744 29.9392 0.707496 20.8564C1.08358 12.9091 5.48302 7.18506 9.86117 6.59847C15.027 5.92673 20.434 10.9506 20.1005 21.6417Z" fill="#006482"/>
<path opacity="0.4" d="M571.336 94.5873C571.663 83.934 576.467 79.913 580.887 79.563C585.925 79.1656 591.148 86.2615 590.722 95.3442C590.353 103.282 585.954 109.016 581.569 109.602C576.41 110.293 571.01 105.278 571.336 94.5873Z" fill="#78C8C8"/>
<path opacity="0.4" d="M504.55 46.3732C502.925 56.3169 504.607 67.4905 493.963 68.8908C483.319 70.291 482.163 57.2535 482.035 46.307C481.914 36.8458 482.517 20.1185 492.04 18.5006C503.294 16.5895 503.748 36.6282 504.55 46.3732Z" fill="#AADCDC"/>
<path opacity="0.4" d="M444.114 37.8203C444.448 27.1292 449.245 23.1555 453.673 22.8054C458.711 22.4081 463.926 29.4945 463.5 38.5772C463.131 46.5246 458.732 52.2486 454.354 52.8352C449.188 53.5353 443.781 48.5209 444.114 37.8203Z" fill="#006482"/>
<path opacity="0.4" d="M526.895 47.5653C527.228 36.8742 532.025 32.9005 536.453 32.5504C541.491 32.1436 546.714 39.2395 546.288 48.3222C545.912 56.2696 541.519 61.9936 537.134 62.5802C531.968 63.2803 526.561 58.2564 526.895 47.5653Z" fill="#006482"/>
<path opacity="0.4" d="M563.013 47.9816C563.353 33.4871 568.214 28.1132 572.706 27.6401C577.815 27.1008 583.101 36.685 582.64 48.9656C582.307 59.6945 577.836 67.4338 573.394 68.2285C568.157 69.1746 562.672 62.3909 563.013 47.9816Z" fill="#AADCDC"/>
<path opacity="0.4" d="M396.019 56.1561C396.352 45.4649 401.149 41.4913 405.577 41.1412C410.615 40.7438 415.83 47.8302 415.405 56.913C415.036 64.8603 410.636 70.5843 406.258 71.1709C401.092 71.8711 395.685 66.8472 396.019 56.1561Z" fill="#00A0B4"/>
<path opacity="0.4" d="M343.062 110.217C342.885 118.013 340.259 120.908 337.839 121.164C335.079 121.448 332.227 116.282 332.461 109.668C332.667 103.878 335.072 99.7058 337.463 99.2611C340.288 98.7691 343.247 102.421 343.062 110.217Z" fill="#AADCDC"/>
<path opacity="0.4" d="M488.038 89.6107C487.704 100.302 482.907 104.276 478.48 104.626C473.442 105.023 468.226 97.9366 468.652 88.8444C469.021 80.9065 473.42 75.1825 477.798 74.5864C482.964 73.9052 488.371 78.9196 488.038 89.6107Z" fill="#006482"/>
<path opacity="0.4" d="M385.396 93.7263C385.063 104.417 380.266 108.391 375.838 108.741C370.8 109.139 365.584 102.052 366.003 92.96C366.379 85.0221 370.779 79.2981 375.157 78.702C380.323 78.0113 385.751 82.9879 385.396 93.7263Z" fill="#006482"/>
<path opacity="0.4" d="M541.441 117.143C541.108 127.843 536.311 131.817 531.883 132.167C526.845 132.564 521.63 125.469 522.055 116.386C522.424 108.448 526.824 102.724 531.202 102.128C536.368 101.437 541.775 106.452 541.441 117.143Z" fill="#006482"/>
<path opacity="0.4" d="M134.77 37.7162C134.436 48.4074 129.639 52.3811 125.212 52.7311C120.166 53.1285 114.951 46.0421 115.377 36.9594C115.746 29.012 120.145 23.288 124.53 22.7014C129.696 22.0013 135.096 27.0251 134.77 37.7162Z" fill="#00A0B4"/>
<path opacity="0.4" d="M398.027 137.087C397.693 147.778 392.896 151.752 388.469 152.102C383.431 152.499 378.215 145.413 378.634 136.321C379.01 128.383 383.409 122.659 387.787 122.063C392.953 121.372 398.36 126.386 398.027 137.087Z" fill="#AADCDC"/>
<path opacity="0.4" d="M211.398 120.53C211.072 129.158 206.275 132.366 201.847 132.65C196.802 132.971 191.586 127.247 192.012 119.915C192.381 113.51 196.781 108.893 201.166 108.41C206.332 107.852 211.732 111.901 211.398 120.53Z" fill="#AADCDC"/>
<path opacity="0.4" d="M93.8338 25.0951C93.5003 33.7236 88.7106 36.931 84.2828 37.2148C79.2092 37.5743 74.0221 31.8125 74.4479 24.4801C74.8169 18.0749 79.2092 13.4578 83.5945 12.9753C88.7674 12.4171 94.1673 16.4665 93.8338 25.0951Z" fill="#78C8C8"/>
<path opacity="0.4" d="M70.2044 112.781C69.729 123.472 62.924 127.446 56.6442 127.796C49.4916 128.193 42.0835 121.107 42.6866 112.015C43.2188 104.077 49.4561 98.3529 55.6721 97.7568C63.0021 97.0661 70.694 102.081 70.2044 112.781Z" fill="#AADCDC"/>
<path opacity="0.4" d="M304.077 116.49C303.609 127.181 296.797 131.155 290.517 131.505C283.364 131.902 275.963 124.816 276.567 115.733C277.092 107.786 283.336 102.062 289.552 101.475C296.882 100.775 304.553 105.799 304.077 116.49Z" fill="#AADCDC"/>
<path opacity="0.4" d="M171.456 23.8651C172.676 16.4192 171.413 8.0555 179.382 7.01478C187.35 5.97405 188.216 15.7285 188.315 23.9124C188.401 31.0272 187.953 43.5159 180.822 44.727C172.364 46.1556 172.023 31.1407 171.456 23.8651Z" fill="#006482"/>
<path opacity="0.4" d="M250.163 89.4783C251.383 82.0418 250.12 73.6687 258.096 72.5806C266.072 71.4926 266.923 81.2944 267.023 89.4877C267.108 96.6025 266.661 109.091 259.53 110.302C251.107 111.769 250.766 96.7539 250.163 89.4783Z" fill="#AADCDC"/>
<path opacity="0.4" d="M161.606 129.877C162.82 122.432 161.564 114.068 169.533 113.018C177.501 111.967 178.36 121.731 178.459 129.925C178.544 137.04 178.097 149.528 170.973 150.739C162.543 152.168 162.231 137.144 161.606 129.877Z" fill="#006482"/>
<path opacity="0.4" d="M556.25 139.982C557.471 132.546 556.208 124.182 564.184 123.132C572.159 122.081 573.011 131.845 573.082 140.039C573.167 147.154 572.72 159.642 565.589 160.853C557.194 162.282 556.854 147.258 556.25 139.982Z" fill="#006482"/>
<path opacity="0.4" d="M427.659 82.0418C428.88 74.5959 427.617 66.2322 435.585 65.1915C443.554 64.1507 444.42 73.9052 444.519 82.0891C444.604 89.2039 444.157 101.693 437.026 102.904C428.603 104.342 428.262 89.3269 427.659 82.0418Z" fill="#AADCDC"/>
</g>
<path d="M605.033 144.902C576.032 141.506 539.318 137.636 499.148 134.419L492.336 225.246H605.033V144.902Z" fill="#64645A"/>
<path d="M499.148 208.188V134.391C436.967 129.433 351.696 127.967 287.357 130.237C256.725 131.326 221.941 129.064 189.811 130.237C160.334 131.316 130.581 132.669 103.78 134.022L99.3452 208.188H499.148Z" fill="#3C3C32"/>
<path d="M103.78 213.865V134.069C82.4926 135.157 62.397 136.293 43.9194 137.409C24.3348 138.601 6.24739 139.793 -9.46997 140.872V213.865H103.78Z" fill="#64645A"/>
<path d="M303.841 191.508L-25.0811 206.371V461.87H620.643V204.914L303.841 191.508Z" fill="#828C00"/>
<path d="M557.128 259.553C557.008 256.96 556.823 254.907 557.348 252.693L558.462 252.845V258.89L557.128 259.553Z" fill="#82783C"/>
<path d="M554.347 257.963H553.304C552.871 256.289 553.517 254.671 553.204 252.939L554.404 252.381C554.78 254.406 554.24 256.118 554.347 257.963Z" fill="#82783C"/>
<path d="M605.033 359.652L294.971 312.762L-8.05078 366.464V605.557H605.033V359.652Z" fill="#A0AA1E"/>
<path d="M191.216 462.627L192.351 463.138C192.45 465.834 192.535 468.351 192.621 470.811C192.472 470.981 192.379 471.171 192.266 471.189C191.98 471.219 191.693 471.219 191.407 471.189C191.258 470.574 191.156 469.94 191.102 469.297C191.102 467.216 191.166 465.153 191.216 462.627Z" fill="#82783C"/>
<path d="M188.171 470.924C187.873 470.461 187.582 470.215 187.561 469.978C187.461 468.623 187.413 467.262 187.419 465.901C187.491 465.133 187.617 464.376 187.795 463.639L188.76 464.311C188.994 469.401 188.994 469.401 188.171 470.924Z" fill="#82783C"/>
<path d="M196.36 471.01L195.111 471.36C194.295 469.193 194.998 467.131 194.863 465.011L195.743 464.671C196.41 466.762 196.168 468.843 196.36 471.01Z" fill="#82783C"/>
<path d="M301.251 381.999C425.964 381.999 527.063 354.762 527.063 321.164C527.063 287.565 425.964 260.328 301.251 260.328C176.539 260.328 75.4392 287.565 75.4392 321.164C75.4392 354.762 176.539 381.999 301.251 381.999Z" fill="#A0640A"/>
<path d="M295.901 676.856C376.008 676.856 440.948 646.226 440.948 608.443C440.948 570.659 376.008 540.029 295.901 540.029C215.794 540.029 150.854 570.659 150.854 608.443C150.854 646.226 215.794 676.856 295.901 676.856Z" fill="#A0640A"/>
<path d="M296.852 278.749L-94.9612 356.558L-89.8805 399.606L293.481 320.303L689.693 391.082L694.873 351.383L296.852 278.749Z" fill="#A0640A"/>
<path d="M296.504 312.762L283.228 317.067L282.993 326.699L312.924 327.058L312.505 316.405L296.504 312.762Z" fill="white"/>
<path d="M654.399 208.292C595.858 198.358 476.803 184.639 308.013 183.211C162.548 182 99.3948 194.829 -59.7656 205.454L-54.5785 230.743C-41.6853 228.52 -27.2098 226.259 -11.1305 224.121C81.0236 211.708 219.294 201.414 296.71 202.256C350.404 202.824 467.316 207.592 539.445 216.836C592.75 223.676 621.538 231.339 658.656 238.729L654.399 208.292Z" fill="#A0AA1E"/>
<path d="M690.495 375.433L428.934 324.996V318.723L690.439 369.841L690.495 375.433Z" fill="white"/>
<path d="M-98.509 378.886L163.052 328.449V322.176L-98.4523 373.295L-98.509 378.886Z" fill="white"/>
<path d="M502.419 547.191L503.562 547.702C503.654 550.398 503.746 552.915 503.831 555.375C503.675 555.536 503.583 555.734 503.469 555.753C503.186 555.778 502.901 555.778 502.618 555.753C502.468 555.138 502.363 554.504 502.306 553.861C502.306 551.78 502.37 549.736 502.419 547.191Z" fill="#82783C"/>
<path d="M499.382 555.479C499.084 555.025 498.793 554.779 498.772 554.533C498.668 553.178 498.621 551.817 498.63 550.455C498.7 549.696 498.826 548.948 499.006 548.222L499.964 548.894C500.198 553.965 500.198 553.965 499.382 555.479Z" fill="#82783C"/>
<path d="M507.571 555.564L506.315 555.924C505.499 553.748 506.201 551.694 506.074 549.575L506.953 549.225C507.62 551.316 507.379 553.407 507.571 555.564Z" fill="#82783C"/>
<path d="M115.538 253.602L116.673 254.113C116.773 256.809 116.858 259.326 116.943 261.786C116.794 261.956 116.702 262.145 116.588 262.173C116.302 262.198 116.015 262.198 115.729 262.173C115.581 261.558 115.478 260.924 115.424 260.281C115.417 258.152 115.488 256.09 115.538 253.602Z" fill="#82783C"/>
<path d="M112.494 261.861C112.196 261.398 111.905 261.161 111.884 260.915C111.783 259.563 111.736 258.205 111.742 256.847C111.814 256.088 111.94 255.341 112.118 254.614L113.083 255.286C113.289 260.338 113.289 260.338 112.494 261.861Z" fill="#82783C"/>
<path d="M120.683 261.946L119.434 262.296C118.618 260.13 119.32 258.067 119.185 255.957L120.065 255.607C120.732 257.698 120.491 259.78 120.683 261.946Z" fill="#82783C"/>
<path d="M88.375 403.485L87.3958 402.956C87.559 399.55 87.9989 396.134 87.637 392.548L88.8575 392.179C88.9003 395.959 88.7391 399.737 88.375 403.485Z" fill="#82783C"/>
<path d="M85.0895 397.052C85.2669 399.076 85.4301 400.959 85.6146 403.088H84.3019C84.2025 400.931 84.1174 398.963 84.0251 396.758L85.0895 397.052Z" fill="#82783C"/>
<path d="M564.182 455.843L563.203 455.314C563.366 451.908 563.806 448.492 563.444 444.906L564.664 444.537C564.707 448.317 564.546 452.095 564.182 455.843Z" fill="#82783C"/>
<path d="M560.896 449.448C561.074 451.472 561.237 453.355 561.421 455.484H560.109C560.009 453.327 559.924 451.359 559.832 449.154L560.896 449.448Z" fill="#82783C"/>
<path d="M430.212 302.298L325.533 302.194L326.243 339.433L431.751 339.291L430.212 302.298ZM332.849 334.39L332.04 307.161L424.875 306.953L425.55 334.618L332.849 334.39Z" fill="white"/>
<path d="M160.618 339.291L266.127 339.433L266.836 302.194L162.158 302.298L160.618 339.291ZM166.834 334.618L167.508 306.953L260.344 307.161L259.535 334.39L166.834 334.618Z" fill="white"/>
<path d="M349.155 303.736L355.371 304.058L351.469 277.936L229.753 277.084L227.17 304.058L235.245 304.153L235.99 283.906L346.828 283.735L349.155 303.736Z" fill="white"/>
<path d="M520.549 354.969L521.692 355.479C521.784 358.176 521.869 360.693 521.961 363.152C521.805 363.323 521.713 363.512 521.599 363.531C521.316 363.56 521.031 363.56 520.748 363.531C520.597 362.916 520.492 362.282 520.436 361.639C520.436 359.567 520.499 357.495 520.549 354.969Z" fill="#828C00"/>
<path d="M517.512 363.266C517.214 362.802 516.916 362.556 516.902 362.32C516.794 360.965 516.747 359.604 516.76 358.242C516.83 357.487 516.954 356.743 517.129 356.019L518.094 356.69C518.328 361.743 518.328 361.743 517.512 363.266Z" fill="#828C00"/>
<path d="M525.694 363.351L524.445 363.701C523.629 361.535 524.331 359.472 524.196 357.362L525.076 357.012C525.75 359.103 525.502 361.185 525.694 363.351Z" fill="#828C00"/>
<path d="M263.898 557.541V566.066L325.413 565.943V558.109L263.898 557.541Z" fill="white"/>
</g>
</g>
<defs>
<clipPath id="clip0_27_6">
<rect width="600" height="600" fill="white" transform="translate(0.562012)"/>
</clipPath>
<clipPath id="clip1_27_6">
<rect width="600" height="600" fill="white" transform="translate(1)"/>
</clipPath>
</defs>
</svg>
