<svg width="160" height="46" viewBox="0 0 160 46" fill="none" xmlns="http://www.w3.org/2000/svg">
<path d="M17 12C17 5.37258 22.3726 0 29 0H112.273C128.086 0 143.556 4.61391 156.785 13.2761V13.2761C160.19 15.5053 160.19 20.4947 156.785 22.7239V22.7239C143.556 31.3861 128.086 36 112.273 36H29C22.3726 36 17 30.6274 17 24V12Z" fill="#DFE2E3"/>
<path d="M29 0.5H112.273C127.989 0.5 143.363 5.08552 156.511 13.6944C159.614 15.7262 159.614 20.2738 156.511 22.3056C143.363 30.9145 127.989 35.5 112.273 35.5H29C22.6487 35.5 17.5 30.3513 17.5 24V12C17.5 5.64873 22.6487 0.5 29 0.5Z" stroke="black" stroke-opacity="0.5"/>
<path d="M17 9C17 4.58172 20.5817 1 25 1H110.223C125.267 1 140 5.28639 152.696 13.3572V13.3572C156.096 15.5186 156.096 20.4814 152.696 22.6428V22.6428C140 30.7136 125.267 35 110.223 35H25C20.5817 35 17 31.4183 17 27V9Z" fill="#DFE2E3"/>
<path d="M25 1.25H110.223C125.22 1.25 139.906 5.52285 152.562 13.5682C155.808 15.6314 155.808 20.3686 152.562 22.4318C139.906 30.4771 125.22 34.75 110.223 34.75H25C20.7198 34.75 17.25 31.2802 17.25 27V9C17.25 4.71979 20.7198 1.25 25 1.25Z" stroke="black" stroke-opacity="0.5" stroke-width="0.5"/>
<path d="M27.8008 26.7809H31.3681L101.443 26.5865L107.704 25.7616L117.226 23.5291L123.215 21.341L128.385 18.9364C128.562 18.8539 128.76 18.8253 128.953 18.854L151.504 22.2026C152.213 22.3079 152.584 23.1031 152.21 23.7143L150.913 25.8311C150.888 25.871 150.845 25.8953 150.798 25.8953C150.775 25.8953 150.752 25.9013 150.732 25.9126L147.033 27.9987L138.453 31.6236C138.408 31.6426 138.362 31.6583 138.314 31.6705L128.116 34.3091L119.36 35.6376L111.066 36H43.9443H21.2167C21.1522 36 21.0879 35.9938 21.0247 35.9814L19.5754 35.6978C19.43 35.6694 19.2928 35.609 19.1736 35.5211L17.5315 34.3091L17.0595 33.0026C17.0201 32.8936 17 32.7787 17 32.6628V4.14761C17 3.69281 17.531 3.44497 17.8796 3.73707L24.6556 9.41488C24.99 9.69513 25.1041 10.1599 24.9375 10.5632L24.8065 10.8803L24.5022 12.0578C24.4811 12.1395 24.4704 12.2236 24.4704 12.308V22.8876C24.4704 22.9414 24.4747 22.9951 24.4834 23.0482L24.7703 24.8115C24.7942 24.9581 24.8504 25.0975 24.9349 25.2197L25.326 25.7852C25.4022 25.8954 25.4999 25.9892 25.6131 26.061L26.5037 26.6256C26.6638 26.7271 26.8495 26.7809 27.0391 26.7809H27.8008Z" fill="#C6CDD0" style="mix-blend-mode:multiply"/>
<path d="M117.316 23L28.4161 26.3151L22.6995 30.6762L18 34.1055L19.7185 35.5592L21.2988 36H117.316L123.405 35.3031L133.335 33.3118L141.216 30.5019L149 26.8588L136.152 30.5019L127.808 27.2599L117.316 23Z" fill="#909090" style="mix-blend-mode:multiply"/>
<path d="M113.578 35.0552H21.0245L19.2824 34.8814L18 34L19.7211 35.6193L21.0245 36H113.578H116.309L119 35.6038L113.578 35.0552Z" fill="#454A4A" style="mix-blend-mode:multiply"/>
<path d="M25 16.9772C25 12.5715 28.5715 9 32.9772 9H95.893C107.593 9 119.121 11.8194 129.5 17.2194V17.2194C130.131 17.5481 130.131 18.4519 129.5 18.7806V18.7806C119.121 24.1806 107.593 27 95.8931 27H32.9772C28.5715 27 25 23.4285 25 19.0228V16.9772Z" fill="#DFE2E3"/>
<path d="M32.9772 9.25H95.893C107.553 9.25 119.041 12.0597 129.384 17.4412C129.837 17.6765 129.837 18.3235 129.384 18.5588C119.041 23.9403 107.553 26.75 95.8931 26.75H32.9772C28.7096 26.75 25.25 23.2904 25.25 19.0228V16.9772C25.25 12.7096 28.7096 9.25 32.9772 9.25Z" stroke="black" stroke-opacity="0.5" stroke-width="0.5"/>
<rect x="25" y="12" width="10" height="1" fill="#DFE2E3"/>
<rect x="25.25" y="12.25" width="9.5" height="0.5" stroke="black" stroke-opacity="0.5" stroke-width="0.5"/>
<rect x="25" y="23" width="10" height="0" fill="#DFE2E3"/>
<rect x="25" y="23" width="10" height="0" stroke="black" stroke-opacity="0.5"/>
<path d="M95.1977 9.00001L82.2418 9.00002L75.2186 10.6884C72.7379 11.2848 70.3944 12.351 68.3148 13.8292C66.7507 14.941 65.3549 16.2725 64.1705 17.7825L64 18H126.568C127.634 18 127.96 16.5546 126.997 16.0969L122.206 13.8188C113.558 10.6314 104.414 9 95.1977 9.00001Z" fill="#DFE2E3"/>
<path d="M75.277 10.9315L82.2714 9.25002L95.1977 9.25001C104.381 9.25 113.492 10.8749 122.109 14.0494L126.89 16.3227C127.612 16.666 127.367 17.75 126.568 17.75H64.5156C65.6528 16.3357 66.9799 15.0848 68.4597 14.0329C70.5132 12.5732 72.8274 11.5204 75.277 10.9315Z" stroke="black" stroke-opacity="0.5" stroke-width="0.5"/>
<path d="M83.0403 14L65 18H129L101.002 14H83.0403Z" fill="#909090" style="mix-blend-mode:multiply"/>
<path d="M35 0V36" stroke="black" stroke-opacity="0.5" stroke-width="0.5"/>
<path d="M5.70467 21.9388C3.00812 20.0769 3.09984 16.0626 5.8786 14.3259V14.3259L18 7L18 29L5.8786 22.0589L5.70467 21.9388Z" fill="#DFE2E3"/>
<path d="M5.98875 21.5273C3.58913 19.8705 3.66971 16.299 6.14052 14.7518L17.5 7.88641L17.5 28.1375L6.14535 21.6354L5.98875 21.5273Z" stroke="black" stroke-opacity="0.5"/>
<path d="M4.58459 20.3238C3.26957 19.2294 3.32893 17.1918 4.70542 16.1757L5.33076 15.7141L17 8L17 28L6.16152 21.4471C5.60847 21.1128 5.08134 20.7373 4.58459 20.3238V20.3238Z" fill="#DFE2E3"/>
<path d="M5.47403 15.9191L16.75 8.46495L16.75 27.5567L6.29087 21.2332C5.74854 20.9053 5.23163 20.5371 4.74452 20.1317C3.55418 19.141 3.60791 17.2966 4.85389 16.3768L5.47403 15.9191Z" stroke="black" stroke-opacity="0.5" stroke-width="0.5"/>
<path d="M3.97902 15.9672L17 8V29L5.05595 21.7705L3.63637 20.8852L3 18.918V17.3443L3.97902 15.9672Z" fill="#909090" style="mix-blend-mode:multiply"/>
<mask id="path-23-inside-1_81_788" fill="white">
<path fill-rule="evenodd" clip-rule="evenodd" d="M50.4671 30.4955C48.7997 30.4955 47.8644 32.4159 48.8925 33.7287L58.0189 45.3813H100.674L112.848 33.9537C114.169 32.7132 113.292 30.4955 111.479 30.4955H50.4671ZM62.0359 31.6211C58.2222 31.6211 55.8125 35.7191 57.6664 39.0518L57.9828 39.6204C58.865 41.2064 60.5374 42.1898 62.3522 42.1898H97.8085C99.2913 42.1898 100.698 41.5317 101.648 40.3932L102.122 39.8246C104.839 36.5685 102.524 31.6211 98.283 31.6211H62.0359Z"/>
</mask>
<path fill-rule="evenodd" clip-rule="evenodd" d="M50.4671 30.4955C48.7997 30.4955 47.8644 32.4159 48.8925 33.7287L58.0189 45.3813H100.674L112.848 33.9537C114.169 32.7132 113.292 30.4955 111.479 30.4955H50.4671ZM62.0359 31.6211C58.2222 31.6211 55.8125 35.7191 57.6664 39.0518L57.9828 39.6204C58.865 41.2064 60.5374 42.1898 62.3522 42.1898H97.8085C99.2913 42.1898 100.698 41.5317 101.648 40.3932L102.122 39.8246C104.839 36.5685 102.524 31.6211 98.283 31.6211H62.0359Z" fill="#DFE2E3"/>
<path d="M48.8925 33.7287L48.1053 34.3453L48.1053 34.3453L48.8925 33.7287ZM58.0189 45.3813L57.2316 45.9979L57.5319 46.3813H58.0189V45.3813ZM100.674 45.3813V46.3813H101.07L101.358 46.1104L100.674 45.3813ZM112.848 33.9537L113.532 34.6828L113.532 34.6828L112.848 33.9537ZM57.6664 39.0518L58.5403 38.5657L58.5403 38.5657L57.6664 39.0518ZM57.9828 39.6204L58.8566 39.1343L58.8566 39.1343L57.9828 39.6204ZM101.648 40.3932L100.88 39.7525L100.88 39.7525L101.648 40.3932ZM102.122 39.8246L102.89 40.4653L102.89 40.4653L102.122 39.8246ZM49.6798 33.1121C49.1658 32.4557 49.6334 31.4955 50.4671 31.4955V29.4955C47.966 29.4955 46.5631 32.3762 48.1053 34.3453L49.6798 33.1121ZM58.8061 44.7648L49.6798 33.1121L48.1053 34.3453L57.2316 45.9979L58.8061 44.7648ZM100.674 44.3813H58.0189V46.3813H100.674V44.3813ZM112.164 33.2246L99.9896 44.6522L101.358 46.1104L113.532 34.6828L112.164 33.2246ZM111.479 31.4955C112.385 31.4955 112.824 32.6044 112.164 33.2246L113.532 34.6828C115.515 32.8221 114.198 29.4955 111.479 29.4955V31.4955ZM50.4671 31.4955H111.479V29.4955H50.4671V31.4955ZM58.5403 38.5657C57.0572 35.8995 58.9849 32.6211 62.0359 32.6211V30.6211C57.4595 30.6211 54.5678 35.5387 56.7926 39.5379L58.5403 38.5657ZM58.8566 39.1343L58.5403 38.5657L56.7926 39.5379L57.1089 40.1066L58.8566 39.1343ZM62.3522 41.1898C60.9003 41.1898 59.5624 40.4031 58.8566 39.1343L57.1089 40.1066C58.1676 42.0097 60.1744 43.1898 62.3522 43.1898V41.1898ZM97.8085 41.1898H62.3522V43.1898H97.8085V41.1898ZM100.88 39.7525C100.12 40.6633 98.9948 41.1898 97.8085 41.1898V43.1898C99.5879 43.1898 101.275 42.4 102.415 41.0339L100.88 39.7525ZM101.354 39.1839L100.88 39.7525L102.415 41.0339L102.89 40.4653L101.354 39.1839ZM98.283 32.6211C101.676 32.6211 103.528 36.5791 101.354 39.1839L102.89 40.4653C106.15 36.558 103.372 30.6211 98.283 30.6211V32.6211ZM62.0359 32.6211H98.283V30.6211H62.0359V32.6211Z" fill="black" fill-opacity="0.5" mask="url(#path-23-inside-1_81_788)"/>
<mask id="path-25-inside-2_81_788" fill="white">
<path fill-rule="evenodd" clip-rule="evenodd" d="M114.915 30.6288H47.5854L58.967 44.9766H100.038L114.915 30.6288ZM63.3958 31.5957C59.301 31.5957 56.9424 36.2484 59.3628 39.5512L59.8167 40.1707C60.7585 41.4558 62.2564 42.2152 63.8497 42.2152H96.4038C97.742 42.2152 99.0244 41.6787 99.964 40.7259L100.575 40.1064C103.691 36.9466 101.452 31.5957 97.0146 31.5957H63.3958Z"/>
</mask>
<path fill-rule="evenodd" clip-rule="evenodd" d="M114.915 30.6288H47.5854L58.967 44.9766H100.038L114.915 30.6288ZM63.3958 31.5957C59.301 31.5957 56.9424 36.2484 59.3628 39.5512L59.8167 40.1707C60.7585 41.4558 62.2564 42.2152 63.8497 42.2152H96.4038C97.742 42.2152 99.0244 41.6787 99.964 40.7259L100.575 40.1064C103.691 36.9466 101.452 31.5957 97.0146 31.5957H63.3958Z" fill="#DFE2E3"/>
<path d="M47.5854 30.6288V30.1288H46.5506L47.1937 30.9395L47.5854 30.6288ZM114.915 30.6288L115.262 30.9887L116.153 30.1288H114.915V30.6288ZM58.967 44.9766L58.5752 45.2873L58.7254 45.4766H58.967V44.9766ZM100.038 44.9766V45.4766H100.24L100.385 45.3365L100.038 44.9766ZM59.3628 39.5512L59.7661 39.2557L59.7661 39.2557L59.3628 39.5512ZM59.8167 40.1707L59.4134 40.4662L59.4134 40.4662L59.8167 40.1707ZM99.964 40.7259L99.608 40.3748L99.608 40.3748L99.964 40.7259ZM100.575 40.1064L100.931 40.4575L100.931 40.4575L100.575 40.1064ZM47.5854 31.1288H114.915V30.1288H47.5854V31.1288ZM59.3587 44.6658L47.9772 30.3181L47.1937 30.9395L58.5752 45.2873L59.3587 44.6658ZM100.038 44.4766H58.967V45.4766H100.038V44.4766ZM114.568 30.2689L99.6908 44.6167L100.385 45.3365L115.262 30.9887L114.568 30.2689ZM59.7661 39.2557C57.5877 36.2831 59.7105 32.0957 63.3958 32.0957V31.0957C58.8916 31.0957 56.2971 36.2137 58.9595 39.8468L59.7661 39.2557ZM60.22 39.8751L59.7661 39.2557L58.9595 39.8468L59.4134 40.4662L60.22 39.8751ZM63.8497 41.7152C62.4158 41.7152 61.0676 41.0317 60.22 39.8751L59.4134 40.4662C60.4494 41.8799 62.0971 42.7152 63.8497 42.7152V41.7152ZM96.4038 41.7152H63.8497V42.7152H96.4038V41.7152ZM99.608 40.3748C98.7623 41.2324 97.6082 41.7152 96.4038 41.7152V42.7152C97.8758 42.7152 99.2864 42.1251 100.32 41.0769L99.608 40.3748ZM100.219 39.7554L99.608 40.3748L100.32 41.0769L100.931 40.4575L100.219 39.7554ZM97.0146 32.0957C101.009 32.0957 103.023 36.9116 100.219 39.7554L100.931 40.4575C104.358 36.9817 101.896 31.0957 97.0146 31.0957V32.0957ZM63.3958 32.0957H97.0146V31.0957H63.3958V32.0957Z" fill="black" fill-opacity="0.5" mask="url(#path-25-inside-2_81_788)"/>
<path d="M64.3578 31.25H96.3659C101.368 31.25 103.985 37.1958 100.606 40.8842C99.5165 42.0731 97.9782 42.75 96.3659 42.75H64.3578C62.4572 42.75 60.6794 41.8108 59.6082 40.2409C57.0038 36.4242 59.7372 31.25 64.3578 31.25Z" stroke="black" stroke-opacity="0.5" stroke-width="0.5"/>
<path d="M88 21L91 27.7997V38.0673L88 43V21Z" fill="#DFE2E3"/>
<path d="M90.75 37.9973L88.25 42.1078V22.186L90.75 27.8524V37.9973Z" stroke="black" stroke-opacity="0.5" stroke-width="0.5"/>
<path d="M88 21L90 27.7997V38.0673L88 43V21Z" fill="#DFE2E3"/>
<path d="M89.75 38.0186L88.25 41.7181V22.7359L89.75 27.8357V38.0186Z" stroke="black" stroke-opacity="0.5" stroke-width="0.5"/>
<path d="M60.4495 31.107C61.0163 29.3504 62.5909 28.1125 64.4315 27.9762L77.613 27H92.3278C94.8474 27 97.0447 28.712 97.6608 31.1551V31.1551C97.8835 32.0379 97.8835 32.9621 97.6608 33.8449V33.8449C97.0447 36.288 94.8474 38 92.3278 38H77.613L64.4315 37.0239C62.5909 36.8875 61.0163 35.6496 60.4495 33.893V33.893C60.1573 32.9873 60.1573 32.0127 60.4495 31.107V31.107Z" fill="#DFE2E3"/>
<path d="M92.3278 37.75H77.6222L64.45 36.7745C62.7108 36.6457 61.223 35.476 60.6874 33.8163C60.4113 32.9605 60.4113 32.0395 60.6874 31.1837C61.223 29.524 62.7108 28.3543 64.45 28.2255L77.6222 27.25H92.3278C94.7328 27.25 96.8303 28.8842 97.4184 31.2162C97.6309 32.0589 97.6309 32.9411 97.4184 33.7838C96.8303 36.1158 94.7328 37.75 92.3278 37.75Z" stroke="black" stroke-opacity="0.5" stroke-width="0.5"/>
<path d="M97.7197 33.3483L98 33V33.2577L97.7815 34.2886L96.9077 36.0206L95.2475 37.3402L93.3251 38H91.2279L68.6836 37.3402L63.6154 37.0928L62.7416 36.7629L61.2562 36.0206L60.4765 34.9867L60 33.6868L60.8812 34.7539C61.3691 35.3448 61.9901 35.8116 62.6933 36.1162C63.3016 36.3796 63.9574 36.5155 64.6203 36.5155H91.1065C91.7966 36.5155 92.484 36.4313 93.1537 36.2649C94.9535 35.8176 96.5572 34.7932 97.7197 33.3483Z" fill="#C6CDD0" style="mix-blend-mode:multiply"/>
<path d="M66 22.0514L67.363 21.7009L68.7259 21.3505H71.4519H76.9038H82.3557H85.0816H86.4446L87.8075 21L87.998 21.4941L88 31.8084V42.33L87.8075 43L86.4446 42.6495H85.0816H82.3557H76.9038H71.4519H68.7259L67.363 42.2991L66 41.9486V22.0514Z" fill="#DFE2E3"/>
<path d="M86.4446 21.6005H86.4762L86.5068 21.5926L87.6543 21.2975L87.748 21.5406L87.75 31.8084V31.8084V42.2949L87.6344 42.6973L86.5068 42.4074L86.4762 42.3995H86.4446H85.0816H82.3557H76.9038H71.4519H68.7576L67.4252 42.057L66.25 41.7548V22.2452L67.4252 21.943L68.7576 21.6005H71.4519H76.9038H82.3557H85.0816H86.4446Z" stroke="black" stroke-opacity="0.5" stroke-width="0.5"/>
<path d="M88 42.7462V28.8608L86.9627 29.2743L85.9958 34.604H82.5H77H71.5H68.75C68.1067 33.2684 67.7228 31.8229 67.6188 30.3441L67.3835 27L67.234 28.8452C67.1819 29.488 66.645 29.9832 66 29.9832V41.9688L68.5957 42.6351H86.6744L88 43V42.7462Z" fill="#909090" style="mix-blend-mode:multiply"/>
<path d="M88 21V43" stroke="black" stroke-opacity="0.5" stroke-width="0.5"/>
<path d="M68.25 42.4529V21.5365L68.75 21.356V42.6397L68.25 42.4529Z" stroke="black" stroke-opacity="0.5" stroke-width="0.5"/>
<path d="M86.6471 42.637H86.25V21.3558H86.6424H86.6787L86.7134 21.3455L86.75 21.3347V42.6574L86.7234 42.6489L86.6862 42.637H86.6471Z" stroke="black" stroke-opacity="0.5" stroke-width="0.5"/>
<rect x="79" y="32" width="11" height="1" rx="0.5" fill="#DFE2E3"/>
<rect x="79.25" y="32.25" width="10.5" height="0.5" rx="0.25" stroke="black" stroke-opacity="0.5" stroke-width="0.5"/>
<rect x="79" y="32" width="11" height="1" rx="0.5" fill="#DFE2E3"/>
<rect x="79.25" y="32.25" width="10.5" height="0.5" rx="0.25" stroke="black" stroke-opacity="0.5" stroke-width="0.5"/>
<path d="M91 27V38" stroke="black" stroke-opacity="0.5" stroke-width="0.5"/>
<path d="M66.1046 3H55.6252C55.0588 3 54.7936 3.70091 55.2182 4.07586C55.8924 4.67135 56.761 5 57.6606 5H64.2501C65.0295 5 65.7959 4.79952 66.4755 4.41784C67.1553 4.03603 66.8843 3 66.1046 3Z" fill="#696969"/>
<path d="M99.5305 3H88.8623C87.9751 3 87.7173 4.21139 88.5276 4.57266C89.1596 4.8544 89.8438 5 90.5357 5H97.6006C98.421 5 99.2244 4.76608 99.9165 4.32567C100.523 3.93949 100.25 3 99.5305 3Z" fill="#696969"/>
<path d="M41.1779 4H52.7154C53.2789 4 53.368 3.19041 52.818 3.0678C52.6158 3.02274 52.4093 3 52.2022 3H42.1522C41.7365 3 41.33 3.12208 40.9831 3.35109C40.6903 3.54434 40.8271 4 41.1779 4Z" fill="#696969"/>
<path d="M83.9501 5H68.7628C68.0008 5 67.7287 3.99258 68.387 3.60896C69.0714 3.21013 69.8493 3 70.6415 3H82.3112C82.9873 3 83.6564 3.13741 84.2779 3.40389C85.109 3.76031 84.8544 5 83.9501 5Z" fill="#696969"/>
<line x1="55.5" y1="3.5" x2="66.5" y2="3.5" stroke="black" stroke-opacity="0.5" stroke-linecap="round"/>
<line x1="87.5" y1="3.5" x2="99.5" y2="3.5" stroke="black" stroke-opacity="0.5" stroke-linecap="round"/>
<line x1="41.5" y1="3.5" x2="53.5" y2="3.5" stroke="black" stroke-opacity="0.5" stroke-linecap="round"/>
<line x1="70" y1="3.5" x2="84" y2="3.5" stroke="black" stroke-opacity="0.5"/>
<line x1="70.5" y1="3" x2="70.5" y2="5" stroke="black" stroke-opacity="0.5"/>
<line x1="83.5" y1="3" x2="83.5" y2="5" stroke="black" stroke-opacity="0.5"/>
<path d="M19.9701 9.27859L23.9701 11.9428C24.4573 12.2673 24.75 12.8139 24.75 13.3993V22.6007C24.75 23.1861 24.4573 23.7327 23.9701 24.0572L19.9701 26.7214C18.8071 27.496 17.25 26.6623 17.25 25.2649V10.7351C17.25 9.33772 18.8071 8.50397 19.9701 9.27859Z" stroke="black" stroke-opacity="0.5" stroke-width="0.5"/>
<path d="M21.0074 9.42302L24.0074 11.5351C24.473 11.8629 24.75 12.3966 24.75 12.966V22.0181C24.75 22.5864 24.474 23.1194 24.0099 23.4473L21.0099 25.5671C19.8507 26.3862 18.25 25.5572 18.25 24.1379V10.854C18.25 9.43603 19.848 8.60676 21.0074 9.42302Z" stroke="black" stroke-opacity="0.5" stroke-width="0.5"/>
<path d="M41.1075 21.4469L32.9525 21.0224C32.669 21.0077 32.3859 21.0582 32.1249 21.17L32.0198 21.2151C31.4011 21.4802 31 22.0885 31 22.7616C31 22.9407 31.0286 23.1186 31.0847 23.2886L34.708 34.2756C34.8491 34.7034 35.2588 34.9841 35.7087 34.9611L41.3996 34.6703C41.5783 34.6612 41.7513 34.6042 41.9006 34.5054L48.8964 29.8742L53.9106 26.5491L55.3487 25.4689C55.6561 25.238 55.6258 24.7677 55.2913 24.5782C53.8017 23.7342 52.1895 23.1279 50.5128 22.7813L48.9175 22.4515C46.3434 21.9194 43.7325 21.5835 41.1075 21.4469Z" fill="#DFE2E3" stroke="black" stroke-opacity="0.5" stroke-width="0.5"/>
<path d="M35 34V34C35.3222 33.4857 35.8768 33.1629 36.4832 33.1366L38.3691 33.0548C39.2099 33.0183 40.0522 33.0511 40.8875 33.1528L40.9699 33.1628C41.0559 33.1733 41.1404 33.1933 41.222 33.2224L41.5291 33.332C41.8115 33.4327 42 33.7002 42 34V34" stroke="black" stroke-opacity="0.5" stroke-width="0.5"/>
<path d="M34 33.9304L34.5314 33.2485C34.5602 33.2115 34.6039 33.189 34.6508 33.1871L37.4566 33.0704C38.5827 33.0235 39.7107 33.0634 40.8306 33.1895V33.1895C40.8341 33.1899 40.8375 33.1906 40.8408 33.1916L41.3817 33.3503C41.6893 33.4405 41.9251 33.6883 42 34V34" stroke="black" stroke-opacity="0.5" stroke-width="0.5"/>
<path d="M55 25L53.0151 26.5663L48.2517 29.8846L41.6227 34.4947C41.4701 34.6008 41.291 34.6623 41.1054 34.6723L35 35" stroke="black" stroke-opacity="0.5" stroke-width="0.5"/>
<path d="M65 18L83.1232 14.0232C83.1936 14.0078 83.2655 14 83.3375 14H101.47L130 18" stroke="black" stroke-opacity="0.8" stroke-width="0.5"/>
<path d="M64 18L82.4228 14.0225C82.4921 14.0075 82.5629 14 82.6338 14L101.05 14L130 17.973" stroke="black" stroke-opacity="0.5" stroke-width="0.5" stroke-linejoin="round"/>
<path d="M129.25 18.8492V17.1508L151.77 13.3755C152.171 13.3082 152.58 13.4414 152.864 13.7321L153.458 14.3389C153.753 14.6394 154.008 14.9759 154.218 15.3403C155.146 16.9523 155.167 18.932 154.271 20.5628L154.247 20.607C154.017 21.0261 153.729 21.4106 153.391 21.7492L152.822 22.32C152.565 22.5785 152.198 22.6962 151.838 22.6359L129.25 18.8492Z" stroke="black" stroke-opacity="0.5" stroke-width="0.5"/>
<path d="M131.599 19.2755C130.687 18.6922 130.687 17.3492 131.598 16.7791L151.998 13.3506C152.31 13.2981 152.628 13.3957 152.857 13.6139L153.427 14.1564C153.853 14.5626 154.208 15.0384 154.475 15.5634L154.5 15.6134C155.269 17.1255 155.286 18.9103 154.546 20.4369C154.234 21.0808 153.79 21.6516 153.243 22.1122L152.776 22.5048C152.602 22.6506 152.374 22.7133 152.15 22.6763L131.599 19.2755Z" stroke="black" stroke-opacity="0.5" stroke-width="0.5"/>
<path d="M132.461 18.545C131.673 18.0894 131.674 16.9447 132.46 16.4991L152.245 13.3348C152.518 13.2912 152.796 13.3737 153.001 13.5592L153.586 14.0888C153.97 14.4357 154.29 14.8461 154.535 15.302L154.557 15.3442C155.284 16.7027 155.3 18.3311 154.6 19.7037C154.315 20.2627 153.914 20.7545 153.424 21.1463L152.927 21.5428C152.773 21.6658 152.575 21.7184 152.38 21.6877L132.461 18.545Z" stroke="black" stroke-opacity="0.5" stroke-width="0.5"/>
<path d="M133.286 16.259L152.325 13.0924C152.675 13.0342 153.032 13.1427 153.29 13.3858L153.82 13.8838C154.223 14.263 154.558 14.7082 154.811 15.2002L154.834 15.2445C155.568 16.6698 155.584 18.3582 154.878 19.7974V19.7974C154.582 20.4013 154.161 20.9358 153.644 21.3657L153.206 21.7292C152.999 21.9012 152.728 21.975 152.462 21.9314L133.286 18.785V18.785C132.297 18.2334 132.293 16.8026 133.286 16.259V16.259Z" fill="#FFDD64"/>
<path d="M133.372 18.5457C132.599 18.0809 132.6 16.9531 133.371 16.4983L152.366 13.339C152.639 13.2936 152.918 13.3782 153.119 13.5679L153.648 14.0659C154.031 14.4256 154.349 14.8479 154.589 15.3146L154.612 15.3589C155.309 16.714 155.325 18.319 154.653 19.6873C154.373 20.2596 153.974 20.766 153.484 21.1734L153.047 21.5369C152.895 21.6626 152.697 21.7165 152.503 21.6847L133.372 18.5457Z" stroke="black" stroke-opacity="0.5" stroke-width="0.5"/>
<path d="M25 12L17 7" stroke="black" stroke-opacity="0.5" stroke-width="0.5"/>
<path d="M25 23L17 29" stroke="black" stroke-opacity="0.5" stroke-width="0.5"/>
<path d="M28 9L18 2" stroke="black" stroke-opacity="0.5" stroke-width="0.5"/>
<path d="M28 27L18 34" stroke="black" stroke-opacity="0.5" stroke-width="0.5"/>
<path d="M54 24L41 34" stroke="black" stroke-opacity="0.5" stroke-width="0.5"/>
<path d="M83 9L83 14" stroke="black" stroke-opacity="0.5" stroke-width="0.5"/>
<path d="M88 9L87 14" stroke="black" stroke-opacity="0.5" stroke-width="0.5"/>
<path d="M99 9L101 14" stroke="black" stroke-opacity="0.5" stroke-width="0.5"/>
<path d="M105 10V15" stroke="black" stroke-opacity="0.5" stroke-width="0.5"/>
<path d="M99 9L112 1" stroke="black" stroke-opacity="0.5" stroke-width="0.5"/>
<path d="M35.4615 33.1919L32.5897 21L31.7949 21.2325L31.2564 21.8266L31 22.7306L35.2051 35L41.8974 34.7675L43 33.9151L42.5128 33.5535L41.6667 33.1919L40.0769 33.0627L35.4615 33.1919Z" fill="#909090" style="mix-blend-mode:multiply"/>
<path d="M73.8189 11.3241L82.7444 9H83V14.1038L65 18L67.3432 15.4025L69.516 13.6253L72.1148 12.0759L73.8189 11.3241Z" fill="#C6CDD0" style="mix-blend-mode:multiply"/>
</svg>
