<svg width="466" height="130" viewBox="0 0 466 130" fill="none" xmlns="http://www.w3.org/2000/svg">
<path d="M49.1996 12.9347C49.1996 6.30727 54.5722 0.934692 61.1996 0.934692H319.305C363.936 0.934692 407.604 13.9076 444.996 38.2747C454.68 44.5855 454.68 58.7685 444.996 65.0793C407.604 89.4463 363.936 102.419 319.305 102.419H61.1996C54.5722 102.419 49.1996 97.0467 49.1996 90.4192V12.9347Z" fill="#DFE2E3"/>
<path d="M49.6996 12.9347C49.6996 6.58341 54.8484 1.43469 61.1996 1.43469H319.305C363.839 1.43469 407.412 14.3794 444.723 38.6936C454.104 44.8071 454.104 58.5468 444.723 64.6604C407.412 88.9745 363.839 101.919 319.305 101.919H61.1996C54.8484 101.919 49.6996 96.7705 49.6996 90.4192V12.9347Z" stroke="black" stroke-opacity="0.5"/>
<path d="M49.1996 11.7739C49.1996 7.35565 52.7814 3.77393 57.1996 3.77393H314.297C356.768 3.77393 398.37 15.7997 434.291 38.4598C444.01 44.5911 444.01 58.7629 434.291 64.8943C398.37 87.5543 356.768 99.5801 314.297 99.5801H57.1997C52.7814 99.5801 49.1996 95.9984 49.1996 91.5801V11.7739Z" fill="#DFE2E3"/>
<path d="M49.4496 11.7739C49.4496 7.49372 52.9194 4.02393 57.1996 4.02393H314.297C356.721 4.02393 398.277 16.0364 434.158 38.6712C443.721 44.7045 443.721 58.6496 434.158 64.6828C398.277 87.3177 356.721 99.3301 314.297 99.3301H57.1997C52.9194 99.3301 49.4496 95.8603 49.4496 91.5801V11.7739Z" stroke="black" stroke-opacity="0.5" stroke-width="0.5"/>
<path d="M80.1131 76.4371H90.2101L288.557 75.8996L306.277 73.6199L333.228 67.4499L350.181 61.4024L365.317 54.5285C365.491 54.4493 365.684 54.4218 365.874 54.4493L432.967 64.1773C433.683 64.2811 434.055 65.0862 433.671 65.6985L428.581 73.8083C428.511 73.921 428.387 73.9894 428.254 73.9894C428.189 73.9894 428.125 74.0058 428.068 74.0373L417.599 79.8028L393.188 89.8724C393.143 89.8907 393.098 89.9057 393.051 89.9175L364.054 97.2431L339.27 100.915L315.794 101.916H125.807H61.2971C61.2342 101.916 61.1713 101.91 61.1095 101.899L56.4236 101.003C56.2804 100.976 56.1449 100.918 56.0266 100.832L51.0459 97.2431L49.6036 93.345C49.5625 93.234 49.5415 93.1165 49.5415 92.998V13.8842V12.8228C49.5415 11.9791 50.5218 11.5146 51.1747 12.0488L72.2213 29.2687C72.5648 29.5498 72.682 30.0236 72.509 30.4323L71.6378 32.4916L70.7196 35.9604C70.6975 36.0439 70.6863 36.13 70.6863 36.2163V65.8176C70.6863 65.8727 70.6908 65.9277 70.6999 65.982L71.6001 71.3831C71.6249 71.532 71.6831 71.6735 71.7704 71.7967L73.3179 73.9813C73.3952 74.0905 73.4938 74.1831 73.6076 74.2536L76.8936 76.2874C77.0517 76.3853 77.2339 76.4371 77.4199 76.4371H80.1131Z" fill="#C6CDD0" style="mix-blend-mode:multiply"/>
<path d="M333.081 67.3112L80.7312 76.165L64.5043 87.8126L51.1643 96.9714L56.0424 100.854L60.5283 102.031H333.081L350.365 100.17L378.55 94.8518L400.922 87.347L423.018 77.6172L386.547 87.347L362.862 78.6884L333.081 67.3112Z" fill="#909090" style="mix-blend-mode:multiply"/>
<path d="M323.274 99.5284H60.2605L55.3098 99.1217L51.6656 97.0598L56.5565 100.848L60.2605 101.739H323.274H331.037L338.683 100.812L323.274 99.5284Z" fill="#454A4A" style="mix-blend-mode:multiply"/>
<path d="M70.9175 34.7092C70.9175 30.2909 74.4992 26.7092 78.9175 26.7092H272.302C305.219 26.7092 337.669 34.4944 367.003 49.4293C368.84 50.3647 368.84 52.9894 367.003 53.9248C337.669 68.8596 305.219 76.6449 272.302 76.6449H78.9175C74.4992 76.6449 70.9175 73.0632 70.9175 68.6449V34.7092Z" fill="#DFE2E3"/>
<path d="M71.1675 34.7092C71.1675 30.429 74.6373 26.9592 78.9175 26.9592H272.302C305.18 26.9592 337.591 34.7351 366.889 49.6521C368.544 50.4947 368.544 52.8593 366.889 53.702C337.591 68.6189 305.18 76.3949 272.302 76.3949H78.9175C74.6373 76.3949 71.1675 72.9251 71.1675 68.6449V34.7092Z" stroke="black" stroke-opacity="0.5" stroke-width="0.5"/>
<rect x="70.915" y="35.8747" width="28.4005" height="2.01238" fill="#DFE2E3"/>
<rect x="71.165" y="36.1247" width="27.9005" height="1.51238" stroke="black" stroke-opacity="0.5" stroke-width="0.5"/>
<rect x="70.915" y="65.6122" width="28.4005" height="2.01238" fill="#DFE2E3"/>
<rect x="71.165" y="65.8622" width="27.9005" height="1.51238" stroke="black" stroke-opacity="0.5" stroke-width="0.5"/>
<path d="M270.8 26.7092L234.075 26.7092L214.106 31.4189C207.161 33.0568 200.589 35.994 194.736 40.0755C190.284 43.1805 186.302 46.9104 182.912 51.1502L182.491 51.6771H367.443C368.513 51.6771 368.836 50.2231 367.866 49.7708L347.084 40.0775C322.623 31.2327 296.811 26.7092 270.8 26.7092Z" fill="#DFE2E3"/>
<path d="M214.163 31.6622L234.104 26.9592L270.8 26.9592C296.778 26.9592 322.558 31.4763 346.989 40.3088L367.76 49.9974C368.488 50.3366 368.246 51.4271 367.443 51.4271H183.011L183.107 51.3064C186.482 47.0852 190.447 43.3718 194.879 40.2805C200.706 36.2171 207.249 33.2929 214.163 31.6622Z" stroke="black" stroke-opacity="0.5" stroke-width="0.5"/>
<path d="M235.43 40.1913L183.557 51.5314H367.581L287.078 40.1913H235.43Z" fill="#909090" style="mix-blend-mode:multiply"/>
<path d="M99.0612 1.76825V101.928" stroke="black" stroke-opacity="0.5" stroke-width="0.5"/>
<path d="M11.8668 61.0636C6.15651 56.9587 6.35512 48.3977 12.2497 44.5621L16.2261 41.9746L49.6836 20.9219L49.6836 84.1443L16.2261 64.1972L11.8668 61.0636Z" fill="#DFE2E3"/>
<path d="M12.1587 60.6576C6.73388 56.758 6.92255 48.625 12.5224 44.9812L16.4957 42.3957L16.4988 42.3937L49.1836 21.8273L49.1836 83.2641L16.5006 63.7787L12.1587 60.6576Z" stroke="black" stroke-opacity="0.5"/>
<path d="M13.0659 59.1405C9.25519 56.0625 9.42465 50.2005 13.4068 47.3479L15.1674 46.0866L49.0771 24.332L49.0771 80.7342L17.4975 62.2051C15.9463 61.2949 14.465 60.2706 13.0659 59.1405Z" fill="#DFE2E3"/>
<path d="M13.223 58.946C9.54079 55.9719 9.70454 50.3075 13.5524 47.5511L15.3078 46.2935L48.8271 24.7894L48.8271 80.2976L17.624 61.9894C16.0835 61.0856 14.6124 60.0683 13.223 58.946Z" stroke="black" stroke-opacity="0.5" stroke-width="0.5"/>
<path d="M11.1794 45.5286L49.1694 22.3918V83.3759L14.3214 62.3814L10.1797 59.8106L8.323 54.0978V49.5276L11.1794 45.5286Z" fill="#909090" style="mix-blend-mode:multiply"/>
<mask id="path-23-inside-1_23_58" fill="white">
<path fill-rule="evenodd" clip-rule="evenodd" d="M135.714 87.5051C134.047 87.5051 133.112 89.4256 134.14 90.7383L164.704 129.763H285.793L327.127 90.9633C328.448 89.7229 327.57 87.5051 325.758 87.5051H135.714ZM160.472 90.7007C156.658 90.7007 154.248 94.7986 156.102 98.1313L167.229 118.133C168.112 119.719 169.784 120.703 171.599 120.703H281.961C283.444 120.703 284.85 120.045 285.8 118.906L302.491 98.9041C305.208 95.648 302.892 90.7007 298.652 90.7007H160.472Z"/>
</mask>
<path fill-rule="evenodd" clip-rule="evenodd" d="M135.714 87.5051C134.047 87.5051 133.112 89.4256 134.14 90.7383L164.704 129.763H285.793L327.127 90.9633C328.448 89.7229 327.57 87.5051 325.758 87.5051H135.714ZM160.472 90.7007C156.658 90.7007 154.248 94.7986 156.102 98.1313L167.229 118.133C168.112 119.719 169.784 120.703 171.599 120.703H281.961C283.444 120.703 284.85 120.045 285.8 118.906L302.491 98.9041C305.208 95.648 302.892 90.7007 298.652 90.7007H160.472Z" fill="#DFE2E3"/>
<path d="M134.14 90.7383L134.927 90.1217L134.14 90.7383ZM164.704 129.763L163.917 130.38L164.217 130.763H164.704V129.763ZM285.793 129.763V130.763H286.189L286.477 130.492L285.793 129.763ZM327.127 90.9633L327.811 91.6924V91.6924L327.127 90.9633ZM156.102 98.1313L155.229 98.6175L156.102 98.1313ZM167.229 118.133L168.103 117.647L168.103 117.647L167.229 118.133ZM285.8 118.906L286.568 119.547L285.8 118.906ZM302.491 98.9041L303.258 99.5448V99.5448L302.491 98.9041ZM134.927 90.1217C134.413 89.4654 134.881 88.5051 135.714 88.5051V86.5051C133.213 86.5051 131.81 89.3858 133.353 91.3549L134.927 90.1217ZM165.491 129.146L134.927 90.1217L133.353 91.3549L163.917 130.38L165.491 129.146ZM285.793 128.763H164.704V130.763H285.793V128.763ZM326.442 90.2342L285.109 129.034L286.477 130.492L327.811 91.6924L326.442 90.2342ZM325.758 88.5051C326.664 88.5051 327.103 89.614 326.442 90.2342L327.811 91.6924C329.793 89.8317 328.476 86.5051 325.758 86.5051V88.5051ZM135.714 88.5051H325.758V86.5051H135.714V88.5051ZM156.976 97.6452C155.493 94.979 157.421 91.7007 160.472 91.7007V89.7007C155.895 89.7007 153.004 94.6182 155.229 98.6175L156.976 97.6452ZM168.103 117.647L156.976 97.6452L155.229 98.6175L166.356 118.62L168.103 117.647ZM171.599 119.703C170.147 119.703 168.809 118.916 168.103 117.647L166.356 118.62C167.414 120.523 169.421 121.703 171.599 121.703V119.703ZM281.961 119.703H171.599V121.703H281.961V119.703ZM285.032 118.266C284.272 119.176 283.147 119.703 281.961 119.703V121.703C283.74 121.703 285.428 120.913 286.568 119.547L285.032 118.266ZM301.723 98.2634L285.032 118.266L286.568 119.547L303.258 99.5448L301.723 98.2634ZM298.652 91.7007C302.044 91.7007 303.896 95.6586 301.723 98.2634L303.258 99.5448C306.519 95.6375 303.74 89.7007 298.652 89.7007V91.7007ZM160.472 91.7007H298.652V89.7007H160.472V91.7007Z" fill="black" fill-opacity="0.5" mask="url(#path-23-inside-1_23_58)"/>
<mask id="path-25-inside-2_23_58" fill="white">
<path fill-rule="evenodd" clip-rule="evenodd" d="M326.219 87.8836H135.085L167.395 128.614H283.987L326.219 87.8836ZM161.832 90.6285C157.737 90.6285 155.378 95.2812 157.799 98.584L172.563 118.73C173.504 120.016 175.002 120.775 176.596 120.775H277.517C278.855 120.775 280.137 120.239 281.077 119.286L300.943 99.1392C304.059 95.9795 301.821 90.6285 297.383 90.6285H161.832Z"/>
</mask>
<path fill-rule="evenodd" clip-rule="evenodd" d="M326.219 87.8836H135.085L167.395 128.614H283.987L326.219 87.8836ZM161.832 90.6285C157.737 90.6285 155.378 95.2812 157.799 98.584L172.563 118.73C173.504 120.016 175.002 120.775 176.596 120.775H277.517C278.855 120.775 280.137 120.239 281.077 119.286L300.943 99.1392C304.059 95.9795 301.821 90.6285 297.383 90.6285H161.832Z" fill="#DFE2E3"/>
<path d="M135.085 87.8836V87.3836H134.051L134.694 88.1943L135.085 87.8836ZM326.219 87.8836L326.566 88.2435L327.458 87.3836H326.219V87.8836ZM167.395 128.614L167.004 128.925L167.154 129.114H167.395V128.614ZM283.987 128.614V129.114H284.189L284.334 128.974L283.987 128.614ZM157.799 98.584L157.395 98.8796V98.8796L157.799 98.584ZM172.563 118.73L172.159 119.026L172.563 118.73ZM281.077 119.286L280.721 118.935V118.935L281.077 119.286ZM300.943 99.1392L301.299 99.4903V99.4903L300.943 99.1392ZM135.085 88.3836H326.219V87.3836H135.085V88.3836ZM167.787 128.303L135.477 87.5729L134.694 88.1943L167.004 128.925L167.787 128.303ZM283.987 128.114H167.395V129.114H283.987V128.114ZM325.872 87.5237L283.64 128.254L284.334 128.974L326.566 88.2435L325.872 87.5237ZM158.202 98.2885C156.024 95.3159 158.147 91.1285 161.832 91.1285V90.1285C157.328 90.1285 154.733 95.2465 157.395 98.8796L158.202 98.2885ZM172.966 118.435L158.202 98.2885L157.395 98.8796L172.159 119.026L172.966 118.435ZM176.596 120.275C175.162 120.275 173.814 119.592 172.966 118.435L172.159 119.026C173.195 120.44 174.843 121.275 176.596 121.275V120.275ZM277.517 120.275H176.596V121.275H277.517V120.275ZM280.721 118.935C279.875 119.792 278.721 120.275 277.517 120.275V121.275C278.989 121.275 280.399 120.685 281.433 119.637L280.721 118.935ZM300.587 98.7882L280.721 118.935L281.433 119.637L301.299 99.4903L300.587 98.7882ZM297.383 91.1285C301.377 91.1285 303.392 95.9444 300.587 98.7882L301.299 99.4903C304.727 96.0145 302.265 90.1285 297.383 90.1285V91.1285ZM161.832 91.1285H297.383V90.1285H161.832V91.1285Z" fill="black" fill-opacity="0.5" mask="url(#path-25-inside-2_23_58)"/>
<path d="M156.443 98.9213C153.694 95.119 156.41 89.802 161.103 89.802H297.757C302.839 89.802 305.423 95.9112 301.883 99.5573L282.175 119.857C281.092 120.972 279.604 121.601 278.049 121.601H175.781C173.936 121.601 172.203 120.716 171.122 119.221L156.443 98.9213Z" stroke="black" stroke-opacity="0.5" stroke-width="0.5"/>
<path d="M250.063 60.0761L257.835 79.2893V108.301L250.063 122.239V60.0761Z" fill="#DFE2E3"/>
<path d="M257.585 108.236L250.313 121.277V61.3608L257.585 79.338V108.236Z" stroke="black" stroke-opacity="0.5" stroke-width="0.5"/>
<path d="M249.115 60.0761L256.886 79.2893V108.301L249.115 122.239V60.0761Z" fill="#DFE2E3"/>
<path d="M256.636 108.236L249.365 121.277V61.3608L256.636 79.338V108.236Z" stroke="black" stroke-opacity="0.5" stroke-width="0.5"/>
<path d="M170.315 89.6272C171.917 84.9239 176.183 81.6392 181.139 81.2914L219.754 78.5825H262.999C269.809 78.5825 275.767 83.1623 277.519 89.7429C278.193 92.2757 278.193 94.9409 277.519 97.4737C275.767 104.054 269.809 108.634 262.999 108.634H219.754L181.139 105.925C176.183 105.577 171.917 102.293 170.315 97.5895C169.436 95.0082 169.436 92.2084 170.315 89.6272Z" fill="#DFE2E3"/>
<path d="M170.552 89.7078C172.122 85.0998 176.3 81.8815 181.156 81.5408L219.762 78.8325H262.999C269.696 78.8325 275.555 83.3361 277.278 89.8072C277.941 92.2979 277.941 94.9187 277.278 97.4094C275.555 103.881 269.696 108.384 262.999 108.384H219.762L181.156 105.676C176.3 105.335 172.122 102.117 170.552 97.5088C169.691 94.9798 169.691 92.2368 170.552 89.7078Z" stroke="black" stroke-opacity="0.5" stroke-width="0.5"/>
<path d="M276.882 94.7528L277.884 93.4341V94.2098L277.263 97.3127L274.781 102.526L270.064 106.497L264.603 108.483H258.645L194.601 106.497L180.203 105.753L177.72 104.76L173.5 102.526L171.286 99.4137L169.932 95.5012L172.525 98.828C173.851 100.53 175.568 101.889 177.53 102.789C179.291 103.597 181.206 104.015 183.144 104.015H258.218C260.232 104.015 262.238 103.755 264.185 103.243C269.247 101.91 273.717 98.9212 276.882 94.7528Z" fill="#C6CDD0" style="mix-blend-mode:multiply"/>
<path d="M188.498 63.0761L192.37 62.0761L196.243 61.0761H203.989H219.48H234.972H242.717H246.59L250.463 60.0761L251.004 61.4859L251.01 90.9169V120.94L250.463 122.851L246.59 121.851H242.717H234.972H219.48H203.989H196.243L192.37 120.851L188.498 119.851V63.0761Z" fill="#DFE2E3"/>
<path d="M246.59 61.3261H246.622L246.653 61.3182L250.31 60.3739L250.754 61.5323L250.76 90.917V120.905L250.29 122.549L246.653 121.609L246.622 121.601H246.59H242.717H234.972H219.48H203.989H196.275L192.433 120.609L188.748 119.658V63.2698L192.433 62.3182L196.275 61.3261H203.989H219.48H234.972H242.717H246.59Z" stroke="black" stroke-opacity="0.5" stroke-width="0.5"/>
<path d="M250.472 121.828V81.9635L247.561 83.1506L244.848 98.4519H235.037H219.601H204.165H196.447C194.641 94.6163 193.565 90.4778 193.274 86.2482L192.612 76.6212L192.186 81.9915C192.043 83.7951 190.538 85.1858 188.729 85.1858V119.596L196.014 121.509H246.752L250.472 122.556V121.828Z" fill="#909090" style="mix-blend-mode:multiply"/>
<path d="M249.897 60.5373V122.239" stroke="black" stroke-opacity="0.5" stroke-width="0.5"/>
<path d="M192.627 120.615V62.2537L196.007 61.3851V121.514L192.627 120.615Z" stroke="black" stroke-opacity="0.5" stroke-width="0.5"/>
<path d="M246.596 121.589H244.694V61.3127H246.58H246.611L246.64 61.3054L247.519 61.0872V121.828L246.661 121.598L246.629 121.589H246.596Z" stroke="black" stroke-opacity="0.5" stroke-width="0.5"/>
<rect x="224.821" y="91.4338" width="31.2978" height="4.34887" rx="2.17444" fill="#DFE2E3"/>
<rect x="225.071" y="91.6838" width="30.7978" height="3.84887" rx="1.92444" stroke="black" stroke-opacity="0.5" stroke-width="0.5"/>
<rect x="224.821" y="91.4338" width="31.2978" height="3.53149" rx="1.76574" fill="#DFE2E3"/>
<rect x="225.071" y="91.6838" width="30.7978" height="3.03149" rx="1.51574" stroke="black" stroke-opacity="0.5" stroke-width="0.5"/>
<path d="M258.675 78.8154V108.276" stroke="black" stroke-opacity="0.5" stroke-width="0.5"/>
<path d="M192.699 10.2048H155.726C154.826 10.2048 154.384 11.3003 155.032 11.9247L157.996 14.7815C159.114 15.8594 160.607 16.4617 162.16 16.4617H184.344C185.45 16.4617 186.536 16.1555 187.479 15.5771L193.221 12.0573C194.082 11.5299 193.708 10.2048 192.699 10.2048Z" fill="#696969"/>
<path d="M286.455 10.2048H246.144C245.087 10.2048 244.752 11.6301 245.699 12.1003L253.213 15.8347C254.043 16.2471 254.957 16.4617 255.883 16.4617H278.86C280.104 16.4617 281.317 16.0751 282.331 15.3556L287.033 12.0204C287.828 11.4566 287.429 10.2048 286.455 10.2048Z" fill="#696969"/>
<path d="M117.062 13.3579H153.634C154.813 13.3579 155.021 11.6743 153.877 11.3879L149.871 10.3845C149.394 10.2651 148.905 10.2047 148.413 10.2047H120.268C118.981 10.2047 117.728 10.6187 116.694 11.3855L116.466 11.5547C115.692 12.1288 116.098 13.3579 117.062 13.3579Z" fill="#696969"/>
<path d="M246.564 16.4616H191.791C190.792 16.4616 190.41 15.158 191.252 14.6194L196.67 11.1513C197.635 10.5332 198.758 10.2047 199.904 10.2047H236.407C237.291 10.2047 238.164 10.4 238.964 10.7767L246.99 14.5569C247.956 15.012 247.632 16.4616 246.564 16.4616Z" fill="#696969"/>
<line x1="157.469" y1="12.9842" x2="190.214" y2="12.9842" stroke="black" stroke-opacity="0.5" stroke-linecap="round"/>
<line x1="248.626" y1="12.9842" x2="284.779" y2="12.9842" stroke="black" stroke-opacity="0.5" stroke-linecap="round"/>
<line x1="117.07" y1="11.6644" x2="152.138" y2="11.6644" stroke="black" stroke-opacity="0.5" stroke-linecap="round"/>
<line x1="198.288" y1="12.9842" x2="237.29" y2="12.9842" stroke="black" stroke-opacity="0.5"/>
<line x1="198.755" y1="10.4048" x2="198.755" y2="16.3674" stroke="black" stroke-opacity="0.5"/>
<line x1="237.454" y1="10.4048" x2="237.454" y2="16.3674" stroke="black" stroke-opacity="0.5"/>
<path d="M49.4525 24.5229C49.4525 23.1121 51.0363 22.2812 52.1971 23.0831L69.9121 35.32C70.3852 35.6467 70.6675 36.185 70.6675 36.7599V66.5942C70.6675 67.1691 70.3852 67.7073 69.9121 68.0341L52.1971 80.271C51.0363 81.0729 49.4525 80.242 49.4525 78.8311V24.5229Z" stroke="black" stroke-opacity="0.5" stroke-width="0.5"/>
<path d="M51.4905 25.9231C51.4905 24.5035 53.0917 23.6746 54.2508 24.4942L69.9278 35.5788C70.3917 35.9068 70.6675 36.4396 70.6675 37.0077V66.3486C70.6675 66.9157 70.3927 67.4476 69.9303 67.7758L54.2533 78.901C53.0945 79.7233 51.4905 78.8948 51.4905 77.4738V25.9231Z" stroke="black" stroke-opacity="0.5" stroke-width="0.5"/>
<path d="M116.208 62.3596L93.1994 61.1849C92.4184 61.145 91.6384 61.2817 90.9174 61.5848L90.5482 61.74C88.841 62.4577 87.7305 64.1292 87.7305 65.9812C87.7305 66.4797 87.8115 66.9748 87.9704 67.4473L98.5971 99.0568C98.7398 99.4814 99.1476 99.7593 99.595 99.7368L117.498 98.8395C117.674 98.8307 117.845 98.7754 117.993 98.6794L138.097 85.6238L152.209 76.4441L156.205 73.4997C157.086 72.8501 157 71.5061 156.043 70.9741C151.884 68.6626 147.394 67.005 142.731 66.0593L138.134 65.1269C130.904 63.6607 123.575 62.7357 116.208 62.3596Z" fill="#DFE2E3" stroke="black" stroke-opacity="0.5" stroke-width="0.5"/>
<path d="M98.0475 97.5855L99.0711 96.4084C99.4367 95.988 99.961 95.7391 100.518 95.7217L112.42 95.3497L116.808 95.7346C116.917 95.7442 117.025 95.7627 117.131 95.79L118.684 96.1892C119.321 96.3531 119.766 96.9276 119.766 97.5855V97.5855" stroke="black" stroke-opacity="0.5" stroke-width="0.5"/>
<path d="M97.6906 96.9509L98.7727 95.746C99.1353 95.3423 99.6463 95.1033 100.189 95.0837L112.411 94.6426L117.085 95.0995C117.186 95.1094 117.286 95.1269 117.384 95.1518L119.095 95.5873C119.79 95.7643 120.337 96.3002 120.529 96.9917L120.565 97.1235" stroke="black" stroke-opacity="0.5" stroke-width="0.5"/>
<path d="M156.969 71.9363L151.182 76.2003L137.296 85.2339L117.515 98.0793C117.367 98.1753 117.196 98.2306 117.02 98.2394L98.6616 99.1596" stroke="black" stroke-opacity="0.5" stroke-width="0.5"/>
<path d="M183.142 51.5276L234.896 40.4755C234.965 40.4609 235.035 40.4535 235.105 40.4535H286.889L368.051 51.5276" stroke="black" stroke-opacity="0.8" stroke-width="0.5"/>
<path d="M183.1 51.1275L234.891 39.4779C234.963 39.4617 235.037 39.4535 235.111 39.4535L286.818 39.4535C286.865 39.4535 286.913 39.4569 286.96 39.4636L367.986 51.0486" stroke="black" stroke-opacity="0.5" stroke-width="0.5" stroke-linejoin="round"/>
<path d="M365.087 54.426V48.9281L432.868 38.1195C433.413 38.0326 433.967 38.2079 434.363 38.5926L437.047 41.2008C437.9 42.0297 438.643 42.9643 439.26 43.9817C442.066 48.6154 442.127 54.4094 439.419 59.1012L439.349 59.2227C438.673 60.3933 437.834 61.4614 436.856 62.3945L434.362 64.7741C433.967 65.1514 433.418 65.3223 432.879 65.2363L365.087 54.426Z" stroke="black" stroke-opacity="0.5" stroke-width="0.5"/>
<path d="M374.671 55.4796C371.79 53.7706 371.78 49.5721 374.67 47.895L432.633 38.4582C433.164 38.3718 433.705 38.5344 434.1 38.8993L436.303 40.9312C437.499 42.0347 438.497 43.3351 439.253 44.7759L439.321 44.9062C441.543 49.1376 441.592 54.1794 439.454 58.4534C438.569 60.2214 437.319 61.7814 435.786 63.0302L434.091 64.4117C433.704 64.7269 433.201 64.862 432.709 64.783L374.671 55.4796Z" stroke="black" stroke-opacity="0.5" stroke-width="0.5"/>
<path d="M375.87 55.0833C373.209 53.5904 373.202 49.7379 375.869 48.2704L432.466 39.0259C432.998 38.939 433.54 39.102 433.936 39.4678L436.008 41.383C437.153 42.4411 438.108 43.6876 438.832 45.0684L438.897 45.1936C441.02 49.2445 441.067 54.0689 439.024 58.1605C438.177 59.8548 436.981 61.3502 435.514 62.5478L433.926 63.8432C433.539 64.1593 433.035 64.2946 432.541 64.2151L375.87 55.0833Z" stroke="black" stroke-opacity="0.5" stroke-width="0.5"/>
<path d="M378.389 48.1823L432.588 39.3295C433.196 39.2302 433.815 39.4165 434.268 39.8346L436.222 41.6406C437.338 42.6724 438.27 43.888 438.976 45.2346L439.038 45.3544C441.107 49.3018 441.153 54.003 439.162 57.9901C438.336 59.643 437.169 61.1018 435.737 62.27L434.247 63.4865C433.804 63.8477 433.228 64.0024 432.664 63.9115L378.389 55.166C375.631 53.6549 375.619 49.6712 378.389 48.1823Z" fill="#FFDD64"/>
<path d="M378.472 54.9261C375.933 53.5001 375.927 49.8238 378.472 48.4222L432.628 39.5763C433.16 39.4894 433.702 39.6524 434.098 40.0182L436.052 41.8242C437.148 42.8366 438.062 44.0294 438.754 45.3506L438.817 45.4705C440.849 49.3467 440.894 53.9632 438.938 57.8784C438.128 59.4996 436.983 60.9305 435.579 62.0763L434.089 63.2928C433.701 63.6089 433.197 63.7442 432.704 63.6647L378.472 54.9261Z" stroke="black" stroke-opacity="0.5" stroke-width="0.5"/>
<path d="M71.0495 36.3125L49.2045 20.9958" stroke="black" stroke-opacity="0.5" stroke-width="0.5"/>
<path d="M71.0495 67.1994L49.2045 82.516" stroke="black" stroke-opacity="0.5" stroke-width="0.5"/>
<path d="M80.7891 27.0982L51.2405 6.43945" stroke="black" stroke-opacity="0.5" stroke-width="0.5"/>
<path d="M80.7891 76.4137L51.2405 97.0724" stroke="black" stroke-opacity="0.5" stroke-width="0.5"/>
<path d="M154.58 70.4561L115.774 98.1634" stroke="black" stroke-opacity="0.5" stroke-width="0.5"/>
<path d="M235.092 27.2043L235.092 40.5862" stroke="black" stroke-opacity="0.5" stroke-width="0.5"/>
<path d="M249.594 27.0996L246.225 40.4889" stroke="black" stroke-opacity="0.5" stroke-width="0.5"/>
<path d="M281.682 27.1747L286.87 40.4076" stroke="black" stroke-opacity="0.5" stroke-width="0.5"/>
<path d="M298.674 28.7536V42.2121" stroke="black" stroke-opacity="0.5" stroke-width="0.5"/>
<path d="M281.757 27.4002L317.321 4.01709" stroke="black" stroke-opacity="0.5" stroke-width="0.5"/>
<path d="M99.9142 94.8821L91.9849 61.4656L89.7901 62.1028L88.3034 63.7311L87.5954 66.2091L99.2062 99.838L117.684 99.2008L120.729 96.8645L119.384 95.8733L117.047 94.8821L112.658 94.5281L99.9142 94.8821Z" fill="#909090" style="mix-blend-mode:multiply"/>
<path d="M208.718 33.1117L234.497 26.8359H235.236V40.618L183.245 51.1391L190.013 44.125L196.289 39.3259L203.795 35.1421L208.718 33.1117Z" fill="#C6CDD0" style="mix-blend-mode:multiply"/>
</svg>
