<svg width="1040" height="340" viewBox="0 0 1040 340" fill="none" xmlns="http://www.w3.org/2000/svg">
<path d="M0.161987 93.1366C0.161987 76.1737 11.6966 61.3835 28.1485 57.2512L217.1 9.79111C242.989 3.28847 269.58 0 296.273 0H512H905.68C925.158 0 944.133 6.18163 959.872 17.6547L1008.63 53.1972C1018.19 60.1618 1023.84 71.2733 1023.84 83.0969V222.57C1023.84 240.27 1011.3 255.49 993.932 258.884L895.879 278.04L859.63 303.038H512H229.305L128.121 278.04L30.0678 258.884C12.6968 255.49 0.161987 240.27 0.161987 222.571V93.1366Z" fill="#DFE2E3"/>
<rect x="234.678" y="267.499" width="577.187" height="35.5383" fill="#464A4A"/>
<path d="M21.3903 100.565C21.3903 83.5119 33.0452 68.6677 49.6111 64.6214L231.147 20.2812C256.389 14.116 282.278 11 308.262 11H516.902L898.072 11C915.284 11 932.09 16.225 946.267 25.9837L996.392 60.4865C1006.42 67.3905 1012.41 78.7876 1012.41 90.9641V218.583C1012.41 236.354 999.778 251.616 982.318 254.932L888.535 272.749L839.545 296.282H516.902H225.973L145.268 272.749L51.4849 254.932C34.0254 251.616 21.3903 236.354 21.3903 218.583V100.565Z" fill="#DFE2E3"/>
<path d="M888.442 272.258L888.378 272.27L888.319 272.298L839.431 295.782H516.902H226.045L145.408 272.269L145.385 272.262L145.361 272.258L51.5782 254.441C34.3547 251.169 21.8903 236.114 21.8903 218.583V100.565C21.8903 83.7423 33.3877 69.0987 49.7298 65.1072L231.266 20.7669C256.468 14.6112 282.318 11.5 308.262 11.5H516.902H898.072C915.182 11.5 931.889 16.6942 945.983 26.3956L996.108 60.8983C1006 67.7091 1011.91 78.9521 1011.91 90.9641V218.583C1011.91 236.114 999.449 251.169 982.225 254.441L888.442 272.258Z" stroke="black" stroke-opacity="0.5"/>
<rect x="234.678" y="267.499" width="577.187" height="27.7697" fill="#6D7172"/>
<path d="M73.8291 116.375C73.8291 99.0336 85.8729 84.0188 102.801 80.2563L258.081 45.7423C281.234 40.5962 304.88 38 328.598 38H512H852.652C878.9 38 904.282 47.3854 924.215 64.4612L937.242 75.6204C945.448 82.6498 950.171 92.9149 950.171 103.72V200.283C950.171 217.5 938.294 232.443 921.521 236.328L786.674 267.566H512H246.481L102.901 236.069C85.9251 232.345 73.8291 217.308 73.8291 199.928V116.375Z" fill="#DFE2E3"/>
<path d="M949.671 103.72V200.283C949.671 217.268 937.955 232.008 921.408 235.841L786.617 267.066H512H246.536L103.008 235.581C86.2616 231.907 74.3291 217.073 74.3291 199.928V116.375C74.3291 99.2679 86.2102 84.4561 102.91 80.7443L258.19 46.2304C281.307 41.0922 304.917 38.5 328.598 38.5H512H852.652C878.78 38.5 904.047 47.8427 923.89 64.8409L936.917 76.0001C945.012 82.9346 949.671 93.0609 949.671 103.72Z" stroke="black" stroke-opacity="0.5"/>
<path d="M93.3307 118.09C93.3307 100.813 105.287 85.8362 122.135 82.0091L267.122 49.074C290.743 43.7082 314.891 41 339.114 41H512H852.805C887.995 41 920.871 58.5342 940.474 87.7576V87.7576C941.991 90.0188 942.687 92.7316 942.446 95.4439L933.028 201.604C931.62 217.478 920.205 230.667 904.697 234.338L774.449 265.174H512H258.299L122.236 234.67C105.34 230.882 93.3307 215.882 93.3307 198.566V118.09Z" fill="#DFE2E3"/>
<path d="M941.948 95.3997L932.53 201.559C931.141 217.219 919.88 230.23 904.582 233.852L774.391 264.674H512H258.354L122.346 234.182C105.678 230.445 93.8307 215.648 93.8307 198.566V118.09C93.8307 101.047 105.625 86.272 122.245 82.4967L267.233 49.5616C290.818 44.204 314.928 41.5 339.114 41.5H512H852.805C887.828 41.5 920.548 58.9511 940.059 88.0361C941.512 90.2024 942.179 92.8013 941.948 95.3997Z" stroke="black" stroke-opacity="0.5"/>
<path d="M1000.45 77.7848L958.693 88.0172C957.913 88.2083 957.665 89.1942 958.261 89.7315L1000.02 127.343C1000.66 127.922 1001.69 127.466 1001.69 126.6L1001.69 78.7561C1001.69 78.1074 1001.08 77.6304 1000.45 77.7848Z" fill="#FFDD64"/>
<path d="M1000.33 77.2992L958.574 87.5316C957.404 87.8182 957.032 89.2971 957.927 90.1031L999.686 127.714C1000.65 128.583 1002.19 127.899 1002.19 126.6L1002.19 78.7561C1002.19 77.7831 1001.28 77.0676 1000.33 77.2992Z" stroke="black" stroke-opacity="0.5"/>
<path d="M304.239 39.6277L288.333 20.242C288.029 19.8717 288.03 19.3379 288.336 18.9692L294.267 11.8188C294.453 11.5943 294.728 11.4624 295.02 11.4573L912.389 0.865601L287.809 0.865662L251.054 3.42279L233.95 5.90164L18.2702 60.3787C18.1205 60.4165 17.9816 60.4885 17.8643 60.589L11.1949 66.3056C11.1331 66.3586 11.0779 66.419 11.0307 66.4854L3.27191 77.3962C3.20417 77.4915 3.15365 77.5979 3.12266 77.7106L0.478544 87.3254C0.454789 87.4118 0.442749 87.501 0.442749 87.5906V184.626V228.759C0.442749 228.916 0.479693 229.07 0.550592 229.211L10.2449 248.357C10.3192 248.504 10.4287 248.63 10.5635 248.724L20.1701 255.449C20.2388 255.497 20.3132 255.536 20.3916 255.566L29.4637 258.977C29.5762 259.02 29.6954 259.041 29.8156 259.041H37.4484C37.7708 259.041 38.0735 258.886 38.2613 258.624L172.036 71.9614C172.177 71.7643 172.385 71.6253 172.621 71.5701L243.566 54.9992L284.686 46.671L303.647 43.1782C304.121 43.0908 304.466 42.6772 304.466 42.1948V40.262C304.466 40.0307 304.386 39.8065 304.239 39.6277Z" fill="#E2E7EA" style="mix-blend-mode:multiply"/>
<circle cx="158.89" cy="202.5" r="137.5" fill="#656B6C"/>
<circle cx="158.89" cy="202.5" r="136.5" stroke="black" stroke-opacity="0.5" stroke-width="2"/>
<mask id="mask0_1_256" style="mask-type:alpha" maskUnits="userSpaceOnUse" x="21" y="65" width="276" height="275">
<circle cx="158.89" cy="202.5" r="137" fill="#4E4F50" stroke="black"/>
</mask>
<g mask="url(#mask0_1_256)">
<path d="M142.851 49.1249C143.028 47.6134 144.309 46.474 145.831 46.474H171.95C173.472 46.474 174.752 47.6134 174.929 49.1249L180.957 100.561C181.166 102.344 179.773 103.911 177.977 103.911H139.803C138.008 103.911 136.615 102.344 136.824 100.561L142.851 49.1249Z" fill="#3E3F40"/>
<path d="M144.559 53.4929C144.736 51.9814 146.016 50.842 147.538 50.842H170.242C171.764 50.842 173.045 51.9814 173.222 53.4929L178.519 98.6942C178.728 100.477 177.335 102.043 175.539 102.043H142.241C140.446 102.043 139.053 100.477 139.262 98.6942L144.559 53.4929Z" fill="#484C4D"/>
<path d="M148.268 52.4246H169.513C170.908 52.4246 172.082 53.4691 172.244 54.8546L177.228 97.3907C177.42 99.0252 176.143 100.461 174.497 100.461H143.284C141.638 100.461 140.361 99.0252 140.552 97.3907L145.537 54.8546C145.699 53.4691 146.873 52.4246 148.268 52.4246Z" fill="#656B6C" stroke="#7D7D7D" stroke-width="0.5"/>
<path d="M174.929 355.875C174.752 357.387 173.472 358.526 171.95 358.526H145.831C144.309 358.526 143.028 357.387 142.851 355.875L136.824 304.439C136.615 302.656 138.008 301.089 139.803 301.089H177.977C179.773 301.089 181.166 302.656 180.957 304.439L174.929 355.875Z" fill="#3E3F40"/>
<path d="M173.222 351.507C173.045 353.019 171.764 354.158 170.242 354.158H147.538C146.016 354.158 144.736 353.019 144.559 351.507L139.262 306.306C139.053 304.523 140.446 302.957 142.241 302.957H175.539C177.335 302.957 178.728 304.523 178.519 306.306L173.222 351.507Z" fill="#484C4D"/>
<path d="M169.513 352.575H148.268C146.873 352.575 145.699 351.531 145.537 350.145L140.552 307.609C140.361 305.975 141.638 304.539 143.284 304.539H174.497C176.143 304.539 177.42 305.975 177.228 307.609L172.244 350.145C172.081 351.531 170.908 352.575 169.513 352.575Z" fill="#656B6C" stroke="#7D7D7D" stroke-width="0.5"/>
<path d="M5.51522 218.539C4.00378 218.362 2.86438 217.081 2.86438 215.559L2.86438 189.441C2.86438 187.919 4.00378 186.638 5.51521 186.461L56.9517 180.433C58.7347 180.224 60.3009 181.618 60.3009 183.413L60.3009 221.587C60.3009 223.382 58.7347 224.776 56.9517 224.567L5.51522 218.539Z" fill="#3E3F40"/>
<path d="M9.8832 216.832C8.37176 216.655 7.23236 215.374 7.23236 213.852L7.23236 191.148C7.23236 189.626 8.37176 188.345 9.8832 188.168L55.0845 182.871C56.8676 182.662 58.4337 184.056 58.4337 185.851L58.4337 219.149C58.4337 220.944 56.8676 222.337 55.0845 222.129L9.8832 216.832Z" fill="#484C4D"/>
<path d="M8.81494 213.122L8.81494 191.878C8.81494 190.483 9.85939 189.309 11.2449 189.146L53.781 184.162C55.4155 183.97 56.8511 185.248 56.8511 186.893L56.8511 218.107C56.8511 219.752 55.4155 221.03 53.781 220.838L11.2449 215.854C9.85939 215.691 8.81494 214.517 8.81494 213.122Z" fill="#656B6C" stroke="#7D7D7D" stroke-width="0.5"/>
<path d="M312.265 186.461C313.777 186.638 314.916 187.919 314.916 189.44L314.916 215.559C314.916 217.081 313.777 218.362 312.265 218.539L260.829 224.567C259.046 224.776 257.48 223.382 257.48 221.587L257.48 183.413C257.48 181.618 259.046 180.224 260.829 180.433L312.265 186.461Z" fill="#3E3F40"/>
<path d="M307.897 188.168C309.409 188.345 310.548 189.626 310.548 191.148L310.548 213.852C310.548 215.374 309.409 216.655 307.897 216.832L262.696 222.129C260.913 222.337 259.347 220.944 259.347 219.149L259.347 185.851C259.347 184.056 260.913 182.662 262.696 182.871L307.897 188.168Z" fill="#484C4D"/>
<path d="M308.966 191.878L308.966 213.122C308.966 214.517 307.921 215.691 306.536 215.854L264 220.838C262.365 221.03 260.93 219.752 260.93 218.107L260.93 186.893C260.93 185.248 262.365 183.97 264 184.162L306.536 189.146C307.921 189.309 308.966 190.483 308.966 191.878Z" fill="#656B6C" stroke="#7D7D7D" stroke-width="0.5"/>
<path d="M68.3125 77.6928C67.7101 76.2953 68.2496 74.6682 69.5675 73.9073L92.1872 60.8478C93.5051 60.0869 95.1839 60.4333 96.093 61.6537L127.031 103.185C128.104 104.625 127.68 106.678 126.125 107.576L93.0657 126.663C91.511 127.56 89.5213 126.901 88.8107 125.252L68.3125 77.6928Z" fill="#3E3F40"/>
<path d="M71.9752 80.6219C71.3728 79.2244 71.9123 77.5973 73.2302 76.8364L92.8925 65.4844C94.2104 64.7235 95.8892 65.0699 96.7983 66.2902L123.986 102.787C125.059 104.227 124.635 106.28 123.08 107.178L94.2436 123.827C92.6889 124.724 90.6992 124.064 89.9886 122.416L71.9752 80.6219Z" fill="#484C4D"/>
<path d="M74.6535 77.8421L93.0518 67.2198C94.2598 66.5223 95.7988 66.8399 96.6321 67.9586L122.217 102.304C123.2 103.623 122.812 105.505 121.387 106.328L94.3548 121.935C92.9297 122.758 91.1058 122.153 90.4544 120.642L73.5031 81.3121C72.951 80.031 73.4454 78.5395 74.6535 77.8421Z" fill="#656B6C" stroke="#7D7D7D" stroke-width="0.5"/>
<path d="M249.468 327.307C250.07 328.705 249.531 330.332 248.213 331.093L225.593 344.152C224.276 344.913 222.597 344.567 221.688 343.346L190.749 301.815C189.677 300.375 190.1 298.322 191.655 297.425L224.715 278.337C226.27 277.44 228.259 278.1 228.97 279.748L249.468 327.307Z" fill="#3E3F40"/>
<path d="M245.805 324.378C246.408 325.776 245.868 327.403 244.55 328.164L224.888 339.516C223.57 340.277 221.891 339.93 220.982 338.71L193.794 302.213C192.722 300.773 193.146 298.72 194.7 297.823L223.537 281.174C225.092 280.276 227.081 280.936 227.792 282.584L245.805 324.378Z" fill="#484C4D"/>
<path d="M243.127 327.158L224.729 337.78C223.521 338.478 221.982 338.16 221.149 337.042L195.564 302.696C194.581 301.377 194.969 299.495 196.394 298.672L223.426 283.065C224.851 282.242 226.675 282.847 227.326 284.358L244.278 323.688C244.83 324.969 244.335 326.461 243.127 327.158Z" fill="#656B6C" stroke="#7D7D7D" stroke-width="0.5"/>
<path d="M34.0831 293.078C32.6856 293.68 31.0585 293.141 30.2976 291.823L17.2381 269.203C16.4773 267.885 16.8236 266.206 18.044 265.297L59.5756 234.359C61.0152 233.287 63.0682 233.71 63.9658 235.265L83.0529 268.325C83.9505 269.879 83.2909 271.869 81.6422 272.58L34.0831 293.078Z" fill="#3E3F40"/>
<path d="M37.0122 289.415C35.6147 290.017 33.9876 289.478 33.2267 288.16L21.8747 268.498C21.1138 267.18 21.4602 265.501 22.6806 264.592L59.1776 237.404C60.6173 236.332 62.6703 236.755 63.5679 238.31L80.2168 267.147C81.1144 268.701 80.4548 270.691 78.8062 271.402L37.0122 289.415Z" fill="#484C4D"/>
<path d="M34.2324 286.737L23.6101 268.339C22.9126 267.13 23.2302 265.592 24.3489 264.758L58.694 239.173C60.0137 238.19 61.8956 238.579 62.7184 240.004L78.3252 267.035C79.148 268.461 78.5433 270.285 77.0321 270.936L37.7024 287.887C36.4214 288.439 34.9298 287.945 34.2324 286.737Z" fill="#656B6C" stroke="#7D7D7D" stroke-width="0.5"/>
<path d="M283.698 111.922C285.095 111.32 286.722 111.859 287.483 113.177L300.543 135.797C301.303 137.115 300.957 138.794 299.737 139.703L258.205 170.641C256.765 171.713 254.712 171.29 253.815 169.735L234.728 136.675C233.83 135.121 234.49 133.131 236.138 132.42L283.698 111.922Z" fill="#3E3F40"/>
<path d="M280.768 115.585C282.166 114.982 283.793 115.522 284.554 116.84L295.906 136.502C296.667 137.82 296.321 139.499 295.1 140.408L258.603 167.596C257.163 168.668 255.11 168.245 254.213 166.69L237.564 137.853C236.666 136.299 237.326 134.309 238.975 133.598L280.768 115.585Z" fill="#484C4D"/>
<path d="M283.548 118.263L294.171 136.661C294.868 137.869 294.55 139.408 293.432 140.242L259.087 165.827C257.767 166.81 255.885 166.421 255.062 164.996L239.455 137.964C238.633 136.539 239.237 134.715 240.749 134.064L280.078 117.113C281.359 116.561 282.851 117.055 283.548 118.263Z" fill="#656B6C" stroke="#7D7D7D" stroke-width="0.5"/>
<path d="M18.044 139.703C16.8236 138.794 16.4772 137.115 17.2381 135.797L30.2976 113.177C31.0585 111.859 32.6856 111.32 34.0831 111.922L81.6422 132.42C83.2908 133.131 83.9505 135.121 83.0529 136.675L63.9658 169.735C63.0682 171.29 61.0152 171.713 59.5755 170.641L18.044 139.703Z" fill="#3E3F40"/>
<path d="M22.6805 140.408C21.4602 139.499 21.1138 137.82 21.8746 136.502L33.2267 116.84C33.9876 115.522 35.6147 114.983 37.0122 115.585L78.8061 133.598C80.4548 134.309 81.1144 136.299 80.2168 137.853L63.5678 166.69C62.6702 168.245 60.6173 168.668 59.1776 167.596L22.6805 140.408Z" fill="#484C4D"/>
<path d="M23.6101 136.661L34.2323 118.263C34.9298 117.055 36.4213 116.561 37.7024 117.113L77.0321 134.064C78.5433 134.715 79.148 136.539 78.3252 137.965L62.7184 164.996C61.8956 166.421 60.0137 166.81 58.694 165.827L24.3488 140.242C23.2301 139.408 22.9126 137.87 23.6101 136.661Z" fill="#656B6C" stroke="#7D7D7D" stroke-width="0.5"/>
<path d="M299.737 265.297C300.957 266.206 301.303 267.885 300.543 269.203L287.483 291.823C286.722 293.141 285.095 293.68 283.698 293.078L236.138 272.58C234.49 271.869 233.83 269.879 234.728 268.325L253.815 235.265C254.712 233.71 256.765 233.287 258.205 234.359L299.737 265.297Z" fill="#3E3F40"/>
<path d="M295.1 264.592C296.32 265.501 296.667 267.18 295.906 268.498L284.554 288.16C283.793 289.478 282.166 290.018 280.768 289.415L238.975 271.402C237.326 270.691 236.666 268.701 237.564 267.147L254.213 238.31C255.11 236.755 257.163 236.332 258.603 237.404L295.1 264.592Z" fill="#484C4D"/>
<path d="M294.171 268.339L283.548 286.737C282.851 287.945 281.359 288.439 280.078 287.887L240.749 270.936C239.237 270.285 238.633 268.461 239.455 267.036L255.062 240.004C255.885 238.579 257.767 238.19 259.087 239.173L293.432 264.758C294.55 265.592 294.868 267.131 294.171 268.339Z" fill="#656B6C" stroke="#7D7D7D" stroke-width="0.5"/>
<path d="M96.093 343.346C95.1839 344.567 93.5051 344.913 92.1872 344.152L69.5675 331.093C68.2496 330.332 67.7101 328.705 68.3125 327.307L88.8107 279.748C89.5213 278.099 91.511 277.44 93.0657 278.337L126.125 297.424C127.68 298.322 128.104 300.375 127.031 301.815L96.093 343.346Z" fill="#3E3F40"/>
<path d="M96.7983 338.71C95.8892 339.93 94.2104 340.277 92.8925 339.516L73.2302 328.164C71.9123 327.403 71.3728 325.776 71.9752 324.378L89.9886 282.584C90.6991 280.936 92.6889 280.276 94.2436 281.173L123.08 297.822C124.635 298.72 125.059 300.773 123.986 302.213L96.7983 338.71Z" fill="#484C4D"/>
<path d="M93.0517 337.78L74.6535 327.158C73.4454 326.46 72.9509 324.969 73.5031 323.688L90.4544 284.358C91.1057 282.847 92.9297 282.242 94.3548 283.065L121.387 298.672C122.812 299.495 123.2 301.377 122.217 302.696L96.6321 337.041C95.7987 338.16 94.2598 338.478 93.0517 337.78Z" fill="#656B6C" stroke="#7D7D7D" stroke-width="0.5"/>
<path d="M221.688 61.6536C222.597 60.4333 224.276 60.0869 225.593 60.8478L248.213 73.9072C249.531 74.6681 250.07 76.2952 249.468 77.6927L228.97 125.252C228.259 126.9 226.27 127.56 224.715 126.662L191.655 107.575C190.1 106.678 189.677 104.625 190.749 103.185L221.688 61.6536Z" fill="#3E3F40"/>
<path d="M220.982 66.2902C221.891 65.0698 223.57 64.7234 224.888 65.4843L244.55 76.8363C245.868 77.5972 246.408 79.2243 245.805 80.6218L227.792 122.416C227.081 124.064 225.092 124.724 223.537 123.826L194.7 107.177C193.145 106.28 192.722 104.227 193.794 102.787L220.982 66.2902Z" fill="#484C4D"/>
<path d="M224.729 67.2198L243.127 77.842C244.335 78.5395 244.83 80.031 244.278 81.312L227.326 120.642C226.675 122.153 224.851 122.758 223.426 121.935L196.394 106.328C194.969 105.505 194.581 103.623 195.564 102.304L221.149 67.9585C221.982 66.8398 223.521 66.5223 224.729 67.2198Z" fill="#656B6C" stroke="#7D7D7D" stroke-width="0.5"/>
</g>
<circle cx="158.89" cy="202.5" r="75.945" fill="#C4C4C4"/>
<circle cx="158.89" cy="202.5" r="76.445" stroke="black" stroke-opacity="0.5"/>
<circle cx="158.89" cy="202.5" r="67.8908" fill="#B9BABA"/>
<circle cx="158.89" cy="202.5" r="68.3908" stroke="black" stroke-opacity="0.1"/>
<circle cx="158.89" cy="202.5" r="62.6387" fill="#3C4243"/>
<circle cx="158.89" cy="202.5" r="63.1387" stroke="black" stroke-opacity="0.8"/>
<circle cx="158.89" cy="202.5" r="58.0064" fill="#0E0E0E"/>
<circle cx="158.89" cy="202.5" r="58.5064" stroke="#B6B6B6" stroke-opacity="0.5"/>
<circle cx="158.89" cy="202.5" r="56.5125" fill="#3C4243"/>
<circle cx="158.89" cy="202.5" r="115.109" stroke="black" stroke-opacity="0.5"/>
<rect x="129.226" y="198.792" width="59.3289" height="7.41611" rx="2" fill="#3C4243"/>
<rect x="130.226" y="199.792" width="57.3289" height="5.41611" rx="1" stroke="black" stroke-opacity="0.8" stroke-width="2"/>
<g filter="url(#filter0_d_1_256)">
<path d="M95.2474 194.549C95.2474 193.364 96.2717 192.439 97.4504 192.559L115.055 194.356C116.075 194.46 116.852 195.32 116.852 196.345L116.852 208.655C116.852 209.68 116.075 210.54 115.055 210.644L97.4504 212.441C96.2717 212.561 95.2474 211.636 95.2474 210.451L95.2474 194.549Z" fill="#181818"/>
</g>
<g filter="url(#filter1_d_1_256)">
<path d="M96.2516 195.494C96.2516 194.309 97.2759 193.384 98.4547 193.504L114.051 195.096C115.071 195.2 115.848 196.06 115.848 197.086L115.848 207.914C115.848 208.94 115.071 209.8 114.051 209.904L98.4547 211.496C97.2759 211.616 96.2516 210.691 96.2516 209.506L96.2516 195.494Z" fill="#3C4243"/>
</g>
<g filter="url(#filter2_d_1_256)">
<circle cx="105.886" cy="202.5" r="5.00254" fill="#3C4243"/>
<circle cx="105.886" cy="202.5" r="4.75254" stroke="#FEFEFE" stroke-opacity="0.2" stroke-width="0.5"/>
</g>
<g filter="url(#filter3_d_1_256)">
<path d="M222.604 210.451C222.604 211.636 221.58 212.561 220.401 212.441L202.797 210.644C201.776 210.54 201 209.68 201 208.654L201 196.345C201 195.32 201.776 194.46 202.797 194.356L220.401 192.559C221.58 192.439 222.604 193.364 222.604 194.549L222.604 210.451Z" fill="#181818"/>
</g>
<g filter="url(#filter4_d_1_256)">
<path d="M221.6 209.506C221.6 210.691 220.576 211.616 219.397 211.496L203.801 209.904C202.78 209.8 202.004 208.94 202.004 207.914L202.004 197.086C202.004 196.06 202.78 195.2 203.801 195.096L219.397 193.504C220.576 193.384 221.6 194.309 221.6 195.494L221.6 209.506Z" fill="#3C4243"/>
</g>
<g filter="url(#filter5_d_1_256)">
<circle cx="211.965" cy="202.5" r="5.00254" transform="rotate(-180 211.965 202.5)" fill="#3C4243"/>
<circle cx="211.965" cy="202.5" r="4.75254" transform="rotate(-180 211.965 202.5)" stroke="#FEFEFE" stroke-opacity="0.2" stroke-width="0.5"/>
</g>
<circle cx="902.11" cy="202.5" r="137.5" fill="#656B6C"/>
<circle cx="902.11" cy="202.5" r="136.5" stroke="black" stroke-opacity="0.5" stroke-width="2"/>
<mask id="mask1_1_256" style="mask-type:alpha" maskUnits="userSpaceOnUse" x="764" y="65" width="276" height="275">
<circle cx="902.11" cy="202.5" r="137" fill="#4E4F50" stroke="black"/>
</mask>
<g mask="url(#mask1_1_256)">
<path d="M886.071 49.1249C886.248 47.6134 887.529 46.474 889.05 46.474H915.169C916.691 46.474 917.972 47.6134 918.149 49.1249L924.177 100.561C924.386 102.344 922.992 103.911 921.197 103.911H883.023C881.228 103.911 879.834 102.344 880.043 100.561L886.071 49.1249Z" fill="#3E3F40"/>
<path d="M887.778 53.4929C887.955 51.9814 889.236 50.842 890.758 50.842H913.462C914.984 50.842 916.265 51.9814 916.442 53.4929L921.739 98.6942C921.947 100.477 920.554 102.043 918.759 102.043H885.461C883.666 102.043 882.272 100.477 882.481 98.6942L887.778 53.4929Z" fill="#484C4D"/>
<path d="M891.488 52.4246H912.732C914.127 52.4246 915.301 53.4691 915.464 54.8546L920.448 97.3907C920.64 99.0252 919.362 100.461 917.717 100.461H886.503C884.858 100.461 883.58 99.0252 883.772 97.3907L888.756 54.8546C888.919 53.4691 890.093 52.4246 891.488 52.4246Z" fill="#656B6C" stroke="#7D7D7D" stroke-width="0.5"/>
<path d="M918.149 355.875C917.972 357.387 916.691 358.526 915.169 358.526H889.05C887.529 358.526 886.248 357.387 886.071 355.875L880.043 304.439C879.834 302.656 881.228 301.089 883.023 301.089H921.197C922.992 301.089 924.386 302.656 924.177 304.439L918.149 355.875Z" fill="#3E3F40"/>
<path d="M916.442 351.507C916.265 353.019 914.984 354.158 913.462 354.158H890.758C889.236 354.158 887.955 353.019 887.778 351.507L882.481 306.306C882.272 304.523 883.666 302.957 885.461 302.957H918.759C920.554 302.957 921.947 304.523 921.739 306.306L916.442 351.507Z" fill="#484C4D"/>
<path d="M912.732 352.575H891.488C890.093 352.575 888.919 351.531 888.756 350.145L883.772 307.609C883.58 305.975 884.858 304.539 886.503 304.539H917.717C919.362 304.539 920.64 305.975 920.448 307.609L915.464 350.145C915.301 351.531 914.127 352.575 912.732 352.575Z" fill="#656B6C" stroke="#7D7D7D" stroke-width="0.5"/>
<path d="M748.735 218.539C747.223 218.362 746.084 217.081 746.084 215.559L746.084 189.441C746.084 187.919 747.223 186.638 748.735 186.461L800.171 180.433C801.954 180.224 803.521 181.618 803.521 183.413L803.521 221.587C803.521 223.382 801.954 224.776 800.171 224.567L748.735 218.539Z" fill="#3E3F40"/>
<path d="M753.103 216.832C751.591 216.655 750.452 215.374 750.452 213.852L750.452 191.148C750.452 189.626 751.591 188.345 753.103 188.168L798.304 182.871C800.087 182.662 801.653 184.056 801.653 185.851L801.653 219.149C801.653 220.944 800.087 222.337 798.304 222.129L753.103 216.832Z" fill="#484C4D"/>
<path d="M752.035 213.122L752.035 191.878C752.035 190.483 753.079 189.309 754.465 189.146L797.001 184.162C798.635 183.97 800.071 185.248 800.071 186.893L800.071 218.107C800.071 219.752 798.635 221.03 797.001 220.838L754.465 215.854C753.079 215.691 752.035 214.517 752.035 213.122Z" fill="#656B6C" stroke="#7D7D7D" stroke-width="0.5"/>
<path d="M1055.49 186.461C1057 186.638 1058.14 187.919 1058.14 189.44L1058.14 215.559C1058.14 217.081 1057 218.362 1055.49 218.539L1004.05 224.567C1002.27 224.776 1000.7 223.382 1000.7 221.587L1000.7 183.413C1000.7 181.618 1002.27 180.224 1004.05 180.433L1055.49 186.461Z" fill="#3E3F40"/>
<path d="M1051.12 188.168C1052.63 188.345 1053.77 189.626 1053.77 191.148L1053.77 213.852C1053.77 215.374 1052.63 216.655 1051.12 216.832L1005.92 222.129C1004.13 222.337 1002.57 220.944 1002.57 219.149L1002.57 185.851C1002.57 184.056 1004.13 182.662 1005.92 182.871L1051.12 188.168Z" fill="#484C4D"/>
<path d="M1052.19 191.878L1052.19 213.122C1052.19 214.517 1051.14 215.691 1049.76 215.854L1007.22 220.838C1005.58 221.03 1004.15 219.752 1004.15 218.107L1004.15 186.893C1004.15 185.248 1005.58 183.97 1007.22 184.162L1049.76 189.146C1051.14 189.309 1052.19 190.483 1052.19 191.878Z" fill="#656B6C" stroke="#7D7D7D" stroke-width="0.5"/>
<path d="M811.532 77.6928C810.93 76.2953 811.469 74.6682 812.787 73.9073L835.407 60.8478C836.725 60.0869 838.404 60.4333 839.313 61.6537L870.251 103.185C871.323 104.625 870.9 106.678 869.345 107.576L836.285 126.663C834.731 127.56 832.741 126.901 832.03 125.252L811.532 77.6928Z" fill="#3E3F40"/>
<path d="M815.195 80.6219C814.593 79.2244 815.132 77.5973 816.45 76.8364L836.112 65.4844C837.43 64.7235 839.109 65.0699 840.018 66.2902L867.206 102.787C868.278 104.227 867.855 106.28 866.3 107.178L837.463 123.827C835.909 124.724 833.919 124.064 833.208 122.416L815.195 80.6219Z" fill="#484C4D"/>
<path d="M817.873 77.8421L836.271 67.2198C837.479 66.5223 839.018 66.8399 839.852 67.9586L865.437 102.304C866.42 103.623 866.031 105.505 864.606 106.328L837.575 121.935C836.149 122.758 834.325 122.153 833.674 120.642L816.723 81.3121C816.171 80.031 816.665 78.5395 817.873 77.8421Z" fill="#656B6C" stroke="#7D7D7D" stroke-width="0.5"/>
<path d="M992.688 327.307C993.29 328.705 992.751 330.332 991.433 331.093L968.813 344.152C967.495 344.913 965.816 344.567 964.907 343.346L933.969 301.815C932.897 300.375 933.32 298.322 934.875 297.425L967.935 278.337C969.489 277.44 971.479 278.1 972.19 279.748L992.688 327.307Z" fill="#3E3F40"/>
<path d="M989.025 324.378C989.627 325.776 989.088 327.403 987.77 328.164L968.108 339.516C966.79 340.277 965.111 339.93 964.202 338.71L937.014 302.213C935.942 300.773 936.365 298.72 937.92 297.823L966.757 281.174C968.311 280.276 970.301 280.936 971.012 282.584L989.025 324.378Z" fill="#484C4D"/>
<path d="M986.347 327.158L967.949 337.78C966.74 338.478 965.202 338.16 964.368 337.042L938.783 302.696C937.8 301.377 938.189 299.495 939.614 298.672L966.645 283.065C968.071 282.242 969.895 282.847 970.546 284.358L987.497 323.688C988.049 324.969 987.555 326.461 986.347 327.158Z" fill="#656B6C" stroke="#7D7D7D" stroke-width="0.5"/>
<path d="M777.303 293.078C775.905 293.68 774.278 293.141 773.517 291.823L760.458 269.203C759.697 267.885 760.043 266.206 761.264 265.297L802.795 234.359C804.235 233.287 806.288 233.71 807.185 235.265L826.273 268.325C827.17 269.879 826.511 271.869 824.862 272.58L777.303 293.078Z" fill="#3E3F40"/>
<path d="M780.232 289.415C778.834 290.017 777.207 289.478 776.446 288.16L765.094 268.498C764.333 267.18 764.68 265.501 765.9 264.592L802.397 237.404C803.837 236.332 805.89 236.755 806.788 238.31L823.436 267.147C824.334 268.701 823.674 270.691 822.026 271.402L780.232 289.415Z" fill="#484C4D"/>
<path d="M777.452 286.737L766.83 268.339C766.132 267.13 766.45 265.592 767.569 264.758L801.914 239.173C803.233 238.19 805.115 238.579 805.938 240.004L821.545 267.035C822.368 268.461 821.763 270.285 820.252 270.936L780.922 287.887C779.641 288.439 778.15 287.945 777.452 286.737Z" fill="#656B6C" stroke="#7D7D7D" stroke-width="0.5"/>
<path d="M1026.92 111.922C1028.31 111.32 1029.94 111.859 1030.7 113.177L1043.76 135.797C1044.52 137.115 1044.18 138.794 1042.96 139.703L1001.42 170.641C999.985 171.713 997.932 171.29 997.035 169.735L977.947 136.675C977.05 135.121 977.709 133.131 979.358 132.42L1026.92 111.922Z" fill="#3E3F40"/>
<path d="M1023.99 115.585C1025.39 114.982 1027.01 115.522 1027.77 116.84L1039.13 136.502C1039.89 137.82 1039.54 139.499 1038.32 140.408L1001.82 167.596C1000.38 168.668 998.33 168.245 997.432 166.69L980.784 137.853C979.886 136.299 980.546 134.309 982.194 133.598L1023.99 115.585Z" fill="#484C4D"/>
<path d="M1026.77 118.263L1037.39 136.661C1038.09 137.869 1037.77 139.408 1036.65 140.242L1002.31 165.827C1000.99 166.81 999.105 166.421 998.282 164.996L982.675 137.964C981.852 136.539 982.457 134.715 983.968 134.064L1023.3 117.113C1024.58 116.561 1026.07 117.055 1026.77 118.263Z" fill="#656B6C" stroke="#7D7D7D" stroke-width="0.5"/>
<path d="M761.264 139.703C760.043 138.794 759.697 137.115 760.458 135.797L773.517 113.177C774.278 111.859 775.905 111.32 777.303 111.922L824.862 132.42C826.51 133.131 827.17 135.121 826.273 136.675L807.185 169.735C806.288 171.29 804.235 171.713 802.795 170.641L761.264 139.703Z" fill="#3E3F40"/>
<path d="M765.9 140.408C764.68 139.499 764.333 137.82 765.094 136.502L776.446 116.84C777.207 115.522 778.834 114.983 780.232 115.585L822.026 133.598C823.674 134.309 824.334 136.299 823.436 137.853L806.788 166.69C805.89 168.245 803.837 168.668 802.397 167.596L765.9 140.408Z" fill="#484C4D"/>
<path d="M766.83 136.661L777.452 118.263C778.149 117.055 779.641 116.561 780.922 117.113L820.252 134.064C821.763 134.715 822.368 136.539 821.545 137.965L805.938 164.996C805.115 166.421 803.233 166.81 801.914 165.827L767.569 140.242C766.45 139.408 766.132 137.87 766.83 136.661Z" fill="#656B6C" stroke="#7D7D7D" stroke-width="0.5"/>
<path d="M1042.96 265.297C1044.18 266.206 1044.52 267.885 1043.76 269.203L1030.7 291.823C1029.94 293.141 1028.31 293.68 1026.92 293.078L979.358 272.58C977.709 271.869 977.05 269.879 977.947 268.325L997.034 235.265C997.932 233.71 999.985 233.287 1001.42 234.359L1042.96 265.297Z" fill="#3E3F40"/>
<path d="M1038.32 264.592C1039.54 265.501 1039.89 267.18 1039.13 268.498L1027.77 288.16C1027.01 289.478 1025.39 290.018 1023.99 289.415L982.194 271.402C980.545 270.691 979.886 268.701 980.783 267.147L997.432 238.31C998.33 236.755 1000.38 236.332 1001.82 237.404L1038.32 264.592Z" fill="#484C4D"/>
<path d="M1037.39 268.339L1026.77 286.737C1026.07 287.945 1024.58 288.439 1023.3 287.887L983.968 270.936C982.457 270.285 981.852 268.461 982.675 267.036L998.282 240.004C999.105 238.579 1000.99 238.19 1002.31 239.173L1036.65 264.758C1037.77 265.592 1038.09 267.131 1037.39 268.339Z" fill="#656B6C" stroke="#7D7D7D" stroke-width="0.5"/>
<path d="M839.313 343.346C838.404 344.567 836.725 344.913 835.407 344.152L812.787 331.093C811.469 330.332 810.93 328.705 811.532 327.307L832.03 279.748C832.741 278.099 834.731 277.44 836.285 278.337L869.345 297.424C870.9 298.322 871.323 300.375 870.251 301.815L839.313 343.346Z" fill="#3E3F40"/>
<path d="M840.018 338.71C839.109 339.93 837.43 340.277 836.112 339.516L816.45 328.164C815.132 327.403 814.592 325.776 815.195 324.378L833.208 282.584C833.919 280.936 835.909 280.276 837.463 281.173L866.3 297.822C867.855 298.72 868.278 300.773 867.206 302.213L840.018 338.71Z" fill="#484C4D"/>
<path d="M836.271 337.78L817.873 327.158C816.665 326.46 816.171 324.969 816.723 323.688L833.674 284.358C834.325 282.847 836.149 282.242 837.574 283.065L864.606 298.672C866.031 299.495 866.42 301.377 865.437 302.696L839.852 337.041C839.018 338.16 837.479 338.478 836.271 337.78Z" fill="#656B6C" stroke="#7D7D7D" stroke-width="0.5"/>
<path d="M964.907 61.6536C965.816 60.4333 967.495 60.0869 968.813 60.8478L991.433 73.9072C992.751 74.6681 993.29 76.2952 992.688 77.6927L972.19 125.252C971.479 126.9 969.489 127.56 967.935 126.662L934.875 107.575C933.32 106.678 932.897 104.625 933.969 103.185L964.907 61.6536Z" fill="#3E3F40"/>
<path d="M964.202 66.2902C965.111 65.0698 966.79 64.7234 968.108 65.4843L987.77 76.8363C989.088 77.5972 989.627 79.2243 989.025 80.6218L971.012 122.416C970.301 124.064 968.311 124.724 966.757 123.826L937.92 107.177C936.365 106.28 935.942 104.227 937.014 102.787L964.202 66.2902Z" fill="#484C4D"/>
<path d="M967.949 67.2198L986.347 77.842C987.555 78.5395 988.049 80.031 987.497 81.312L970.546 120.642C969.895 122.153 968.071 122.758 966.645 121.935L939.614 106.328C938.189 105.505 937.8 103.623 938.783 102.304L964.368 67.9585C965.202 66.8398 966.74 66.5223 967.949 67.2198Z" fill="#656B6C" stroke="#7D7D7D" stroke-width="0.5"/>
</g>
<circle cx="902.11" cy="202.5" r="75.945" fill="#C4C4C4"/>
<circle cx="902.11" cy="202.5" r="76.445" stroke="black" stroke-opacity="0.5"/>
<circle cx="902.11" cy="202.5" r="67.8908" fill="#B9BABA"/>
<circle cx="902.11" cy="202.5" r="68.3908" stroke="black" stroke-opacity="0.1"/>
<circle cx="902.11" cy="202.5" r="62.6387" fill="#3C4243"/>
<circle cx="902.11" cy="202.5" r="63.1387" stroke="black" stroke-opacity="0.8"/>
<circle cx="902.11" cy="202.5" r="58.0064" fill="#0E0E0E"/>
<circle cx="902.11" cy="202.5" r="58.5064" stroke="#B6B6B6" stroke-opacity="0.5"/>
<circle cx="902.11" cy="202.5" r="56.5125" fill="#3C4243"/>
<circle cx="902.11" cy="202.5" r="115.109" stroke="black" stroke-opacity="0.5"/>
<rect x="872.446" y="198.792" width="59.3289" height="7.41611" rx="2" fill="#3C4243"/>
<rect x="873.446" y="199.792" width="57.3289" height="5.41611" rx="1" stroke="black" stroke-opacity="0.8" stroke-width="2"/>
<g filter="url(#filter6_d_1_256)">
<path d="M838.467 194.549C838.467 193.364 839.491 192.439 840.67 192.559L858.274 194.356C859.295 194.46 860.071 195.32 860.071 196.345L860.071 208.655C860.071 209.68 859.295 210.54 858.274 210.644L840.67 212.441C839.491 212.561 838.467 211.636 838.467 210.451L838.467 194.549Z" fill="#181818"/>
</g>
<g filter="url(#filter7_d_1_256)">
<path d="M839.471 195.494C839.471 194.309 840.496 193.384 841.674 193.504L857.27 195.096C858.291 195.2 859.067 196.06 859.067 197.086L859.067 207.914C859.067 208.94 858.291 209.8 857.27 209.904L841.674 211.496C840.496 211.616 839.471 210.691 839.471 209.506L839.471 195.494Z" fill="#3C4243"/>
</g>
<g filter="url(#filter8_d_1_256)">
<circle cx="849.106" cy="202.5" r="5.00254" fill="#3C4243"/>
<circle cx="849.106" cy="202.5" r="4.75254" stroke="#FEFEFE" stroke-opacity="0.2" stroke-width="0.5"/>
</g>
<g filter="url(#filter9_d_1_256)">
<path d="M965.824 210.451C965.824 211.636 964.8 212.561 963.621 212.441L946.017 210.644C944.996 210.54 944.22 209.68 944.22 208.654L944.22 196.345C944.22 195.32 944.996 194.46 946.017 194.356L963.621 192.559C964.8 192.439 965.824 193.364 965.824 194.549L965.824 210.451Z" fill="#181818"/>
</g>
<g filter="url(#filter10_d_1_256)">
<path d="M964.82 209.506C964.82 210.691 963.795 211.616 962.617 211.496L947.021 209.904C946 209.8 945.224 208.94 945.224 207.914L945.224 197.086C945.224 196.06 946 195.2 947.021 195.096L962.617 193.504C963.795 193.384 964.82 194.309 964.82 195.494L964.82 209.506Z" fill="#3C4243"/>
</g>
<g filter="url(#filter11_d_1_256)">
<circle cx="955.185" cy="202.5" r="5.00254" transform="rotate(-180 955.185 202.5)" fill="#3C4243"/>
<circle cx="955.185" cy="202.5" r="4.75254" transform="rotate(-180 955.185 202.5)" stroke="#FEFEFE" stroke-opacity="0.2" stroke-width="0.5"/>
</g>
<rect x="324.591" y="41.0193" width="406.818" height="224.155" rx="10" fill="#DFE2E3"/>
<rect x="325.091" y="41.5193" width="405.818" height="223.155" rx="9.5" stroke="black" stroke-opacity="0.5"/>
<path d="M335.053 46.6407C332.311 45.162 333.361 41 336.477 41H719.523C722.639 41 723.689 45.162 720.947 46.6407L653.12 83.2088C647.287 86.3536 640.764 88 634.138 88H421.862C415.236 88 408.713 86.3536 402.88 83.2088L335.053 46.6407Z" fill="#DFE2E3"/>
<path d="M336.477 41.5H719.523C722.12 41.5 722.995 44.9683 720.709 46.2006L652.883 82.7687C647.123 85.8742 640.682 87.5 634.138 87.5H421.862C415.318 87.5 408.877 85.8742 403.117 82.7687L335.291 46.2005C333.005 44.9683 333.88 41.5 336.477 41.5Z" stroke="black" stroke-opacity="0.5"/>
<path d="M342.942 46.6709C340.137 45.236 341.157 41 344.308 41H711.692C714.843 41 715.863 45.236 713.058 46.6709L649.305 79.2822C643.244 82.383 636.532 84 629.723 84H426.277C419.468 84 412.756 82.383 406.695 79.2822L342.942 46.6709Z" fill="#DFE2E3"/>
<path d="M344.308 41.5H711.692C714.318 41.5 715.168 45.03 712.831 46.2257L649.078 78.8371C643.086 81.9018 636.453 83.5 629.723 83.5H426.277C419.547 83.5 412.914 81.9018 406.922 78.8371L343.169 46.2257C340.832 45.03 341.682 41.5 344.308 41.5Z" stroke="black" stroke-opacity="0.5"/>
<path d="M423.935 82.648L423.968 82.6524H424.001H429.707V266.938H392.745V174.795V128.474V76.1287C392.745 74.7211 393.18 73.3503 393.989 72.2033L397.76 73.9814L399.178 74.6719L399.178 74.672L399.187 74.6761L402.209 76.0743L405.615 77.7171L405.615 77.7172L405.628 77.723L409.982 79.6748L410.013 79.6888L410.046 79.6984L416.86 81.6973L416.897 81.708L416.935 81.7131L423.935 82.648Z" stroke="black" stroke-opacity="0.5"/>
<path d="M632.019 82.648L631.986 82.6524H631.953H626.247V266.938H663.21V174.795V128.474V76.1287C663.21 74.7211 662.774 73.3503 661.966 72.2033L658.194 73.9814L656.776 74.6719L656.776 74.672L656.767 74.6761L653.746 76.0743L650.339 77.7171L650.34 77.7172L650.327 77.723L645.972 79.6748L645.941 79.6888L645.908 79.6984L639.094 81.6973L639.057 81.708L639.019 81.7131L632.019 82.648Z" stroke="black" stroke-opacity="0.5"/>
<line x1="326.898" y1="260.834" x2="729.102" y2="260.834" stroke="black" stroke-opacity="0.5"/>
<path d="M528.5 41.0127L528.5 267.438" stroke="black" stroke-opacity="0.5"/>
<circle cx="469.535" cy="148.5" r="33" fill="#ACACAC"/>
<g filter="url(#filter12_dd_1_256)">
<circle cx="469.535" cy="148.5" r="28.8168" fill="url(#paint0_linear_1_256)"/>
</g>
<circle cx="469.535" cy="148.5" r="19" fill="#505151"/>
<circle cx="469.535" cy="148.5" r="13" fill="#272727"/>
<circle cx="469.535" cy="148.5" r="13" fill="#272727"/>
<circle cx="469.535" cy="148.5" r="11.8579" fill="#363636"/>
<circle cx="469.535" cy="148.5" r="10.6987" fill="#202121"/>
<circle cx="586" cy="148.5" r="33" fill="#ACACAC"/>
<g filter="url(#filter13_dd_1_256)">
<circle cx="586" cy="148.5" r="28.8168" fill="url(#paint1_linear_1_256)"/>
</g>
<circle cx="586" cy="148.5" r="19" fill="#505151"/>
<circle cx="586" cy="148.5" r="13" fill="#272727"/>
<circle cx="586" cy="148.5" r="13" fill="#272727"/>
<circle cx="586" cy="148.5" r="11.8579" fill="#363636"/>
<circle cx="586" cy="148.5" r="10.6987" fill="#202121"/>
<rect x="338.542" y="206" width="378.916" height="8.93266" fill="#696969" stroke="#383838" stroke-width="2"/>
<rect x="350.479" y="206.51" width="3.40396" height="7.92629" fill="#696969" stroke="#383838"/>
<rect x="398.113" y="206.51" width="47.0848" height="7.92629" fill="#696969" stroke="#383838"/>
<rect x="515.4" y="206.51" width="26.1998" height="7.92629" fill="#696969" stroke="#383838"/>
<rect x="608.942" y="206.51" width="47.0848" height="7.92629" fill="#696969" stroke="#383838"/>
<rect x="702.072" y="206.51" width="3.40396" height="7.92629" fill="#696969" stroke="#383838"/>
<rect x="338.542" y="221.496" width="378.916" height="8.93266" fill="#696969" stroke="#383838" stroke-width="2"/>
<rect x="350.479" y="222.007" width="3.40396" height="7.92629" fill="#696969" stroke="#383838"/>
<rect x="398.113" y="222.007" width="47.0848" height="7.92629" fill="#696969" stroke="#383838"/>
<rect x="515.4" y="222.007" width="26.1998" height="7.92629" fill="#696969" stroke="#383838"/>
<rect x="608.942" y="222.007" width="47.0848" height="7.92629" fill="#696969" stroke="#383838"/>
<rect x="702.072" y="222.007" width="3.40396" height="7.92629" fill="#696969" stroke="#383838"/>
<rect x="338.542" y="236.993" width="378.916" height="8.93266" fill="#696969" stroke="#383838" stroke-width="2"/>
<rect x="350.479" y="237.503" width="3.40396" height="7.92629" fill="#696969" stroke="#383838"/>
<rect x="398.113" y="237.503" width="47.0848" height="7.92629" fill="#696969" stroke="#383838"/>
<rect x="515.4" y="237.503" width="26.1998" height="7.92629" fill="#696969" stroke="#383838"/>
<rect x="608.942" y="237.503" width="47.0848" height="7.92629" fill="#696969" stroke="#383838"/>
<rect x="702.072" y="237.503" width="3.40396" height="7.92629" fill="#696969" stroke="#383838"/>
<path d="M512.225 18.0973H418.261C417.361 18.0973 416.919 19.1928 417.567 19.8173L429.134 30.9677C430.253 32.0456 431.745 32.6479 433.298 32.6479H490.34C491.447 32.6479 492.532 32.3417 493.476 31.7633L512.748 19.9499C513.608 19.4224 513.235 18.0973 512.225 18.0973Z" fill="#696969"/>
<path d="M729.719 18.0973H626.169C625.113 18.0973 624.778 19.5226 625.724 19.9928L649.927 32.0209C650.756 32.4333 651.67 32.6479 652.597 32.6479H710.431C711.675 32.6479 712.888 32.2614 713.903 31.5418L730.298 19.9129C731.092 19.3491 730.694 18.0973 729.719 18.0973Z" fill="#696969"/>
<path d="M730.846 25.4301H830.658C831.837 25.4301 832.044 23.7465 830.901 23.46L810.206 18.2771C809.729 18.1577 809.24 18.0973 808.748 18.0973H739.688C738.401 18.0973 737.148 18.5113 736.114 19.2781L730.25 23.6269C729.476 24.201 729.882 25.4301 730.846 25.4301Z" fill="#696969"/>
<path d="M638.717 32.6479H500.885C499.886 32.6479 499.505 31.3443 500.346 30.8057L518.721 19.0439C519.687 18.4258 520.81 18.0973 521.956 18.0973H610.952C611.836 18.0973 612.709 18.2926 613.509 18.6693L639.143 30.7432C640.109 31.1983 639.785 32.6479 638.717 32.6479Z" fill="#696969"/>
<line x1="424.437" y1="25.2237" x2="502.911" y2="25.2237" stroke="black" stroke-opacity="0.5"/>
<line x1="639.984" y1="25.2237" x2="718.458" y2="25.2237" stroke="black" stroke-opacity="0.5"/>
<line x1="733.716" y1="22.1544" x2="822.381" y2="22.1544" stroke="black" stroke-opacity="0.5"/>
<line x1="520.526" y1="25.2237" x2="611.226" y2="25.2237" stroke="black" stroke-opacity="0.5"/>
<line x1="520.949" y1="18.5625" x2="520.949" y2="32.4286" stroke="black" stroke-opacity="0.5"/>
<line x1="610.943" y1="18.5625" x2="610.943" y2="32.4286" stroke="black" stroke-opacity="0.5"/>
<line x1="17.4017" y1="60.1599" x2="83.1376" y2="87.5384" stroke="black" stroke-opacity="0.5"/>
<line x1="0.305308" y1="87.521" x2="22.5713" y2="94.1829" stroke="black" stroke-opacity="0.5"/>
<line x1="233.286" y1="5.82603" x2="254.526" y2="15.2601" stroke="black" stroke-opacity="0.5"/>
<line x1="560.207" y1="-2.18557e-08" x2="560.207" y2="17.9036" stroke="black" stroke-opacity="0.5"/>
<line x1="673.323" y1="-2.18557e-08" x2="673.323" y2="17.9036" stroke="black" stroke-opacity="0.5"/>
<line x1="560.207" y1="32.6479" x2="560.207" y2="41.9484" stroke="black" stroke-opacity="0.5"/>
<line x1="673.323" y1="32.6479" x2="673.323" y2="41.9484" stroke="black" stroke-opacity="0.5"/>
<line x1="913.88" y1="0.14087" x2="910.132" y2="12.9035" stroke="black" stroke-opacity="0.5"/>
<line x1="1013.53" y1="57.1952" x2="1001.93" y2="63.7061" stroke="black" stroke-opacity="0.5"/>
<line x1="941.483" y1="7.49956" x2="937.191" y2="21.3483" stroke="black" stroke-opacity="0.5"/>
<line x1="1024.1" y1="83.653" x2="1012.68" y2="90.7686" stroke="black" stroke-opacity="0.5"/>
<line x1="250.937" y1="3.3958" x2="272.178" y2="12.8298" stroke="black" stroke-opacity="0.5"/>
<line x1="1.30988" y1="226.659" x2="22.476" y2="216.89" stroke="black" stroke-opacity="0.5"/>
<line x1="663.216" y1="267.343" x2="663.216" y2="303.038" stroke="black" stroke-opacity="0.5"/>
<line x1="531.418" y1="267.343" x2="531.418" y2="303.038" stroke="black" stroke-opacity="0.5"/>
<path d="M499.77 83.0853L715.76 42.4718H333.624H329.932L324.394 51.7022V253.385L327.163 261.692L336.855 267.692H428.697V83.0853H499.77Z" fill="#E2E7EA" style="mix-blend-mode:multiply"/>
<defs>
<filter id="filter0_d_1_256" x="95.2474" y="192.549" width="21.6044" height="19.9029" filterUnits="userSpaceOnUse" color-interpolation-filters="sRGB">
<feFlood flood-opacity="0" result="BackgroundImageFix"/>
<feColorMatrix in="SourceAlpha" type="matrix" values="0 0 0 0 0 0 0 0 0 0 0 0 0 0 0 0 0 0 127 0" result="hardAlpha"/>
<feOffset/>
<feComposite in2="hardAlpha" operator="out"/>
<feColorMatrix type="matrix" values="0 0 0 0 0 0 0 0 0 0 0 0 0 0 0 0 0 0 0.8 0"/>
<feBlend mode="normal" in2="BackgroundImageFix" result="effect1_dropShadow_1_256"/>
<feBlend mode="normal" in="SourceGraphic" in2="effect1_dropShadow_1_256" result="shape"/>
</filter>
<filter id="filter1_d_1_256" x="96.2516" y="193.494" width="19.5959" height="18.0128" filterUnits="userSpaceOnUse" color-interpolation-filters="sRGB">
<feFlood flood-opacity="0" result="BackgroundImageFix"/>
<feColorMatrix in="SourceAlpha" type="matrix" values="0 0 0 0 0 0 0 0 0 0 0 0 0 0 0 0 0 0 127 0" result="hardAlpha"/>
<feOffset/>
<feComposite in2="hardAlpha" operator="out"/>
<feColorMatrix type="matrix" values="0 0 0 0 0 0 0 0 0 0 0 0 0 0 0 0 0 0 0.8 0"/>
<feBlend mode="normal" in2="BackgroundImageFix" result="effect1_dropShadow_1_256"/>
<feBlend mode="normal" in="SourceGraphic" in2="effect1_dropShadow_1_256" result="shape"/>
</filter>
<filter id="filter2_d_1_256" x="100.884" y="197.497" width="10.0051" height="10.5051" filterUnits="userSpaceOnUse" color-interpolation-filters="sRGB">
<feFlood flood-opacity="0" result="BackgroundImageFix"/>
<feColorMatrix in="SourceAlpha" type="matrix" values="0 0 0 0 0 0 0 0 0 0 0 0 0 0 0 0 0 0 127 0" result="hardAlpha"/>
<feOffset dy="0.5"/>
<feComposite in2="hardAlpha" operator="out"/>
<feColorMatrix type="matrix" values="0 0 0 0 0 0 0 0 0 0 0 0 0 0 0 0 0 0 0.8 0"/>
<feBlend mode="normal" in2="BackgroundImageFix" result="effect1_dropShadow_1_256"/>
<feBlend mode="normal" in="SourceGraphic" in2="effect1_dropShadow_1_256" result="shape"/>
</filter>
<filter id="filter3_d_1_256" x="201" y="192.549" width="21.6044" height="19.9029" filterUnits="userSpaceOnUse" color-interpolation-filters="sRGB">
<feFlood flood-opacity="0" result="BackgroundImageFix"/>
<feColorMatrix in="SourceAlpha" type="matrix" values="0 0 0 0 0 0 0 0 0 0 0 0 0 0 0 0 0 0 127 0" result="hardAlpha"/>
<feOffset/>
<feComposite in2="hardAlpha" operator="out"/>
<feColorMatrix type="matrix" values="0 0 0 0 0 0 0 0 0 0 0 0 0 0 0 0 0 0 0.8 0"/>
<feBlend mode="normal" in2="BackgroundImageFix" result="effect1_dropShadow_1_256"/>
<feBlend mode="normal" in="SourceGraphic" in2="effect1_dropShadow_1_256" result="shape"/>
</filter>
<filter id="filter4_d_1_256" x="202.004" y="193.494" width="19.5959" height="18.0128" filterUnits="userSpaceOnUse" color-interpolation-filters="sRGB">
<feFlood flood-opacity="0" result="BackgroundImageFix"/>
<feColorMatrix in="SourceAlpha" type="matrix" values="0 0 0 0 0 0 0 0 0 0 0 0 0 0 0 0 0 0 127 0" result="hardAlpha"/>
<feOffset/>
<feComposite in2="hardAlpha" operator="out"/>
<feColorMatrix type="matrix" values="0 0 0 0 0 0 0 0 0 0 0 0 0 0 0 0 0 0 0.8 0"/>
<feBlend mode="normal" in2="BackgroundImageFix" result="effect1_dropShadow_1_256"/>
<feBlend mode="normal" in="SourceGraphic" in2="effect1_dropShadow_1_256" result="shape"/>
</filter>
<filter id="filter5_d_1_256" x="206.963" y="197.497" width="10.0051" height="10.5051" filterUnits="userSpaceOnUse" color-interpolation-filters="sRGB">
<feFlood flood-opacity="0" result="BackgroundImageFix"/>
<feColorMatrix in="SourceAlpha" type="matrix" values="0 0 0 0 0 0 0 0 0 0 0 0 0 0 0 0 0 0 127 0" result="hardAlpha"/>
<feOffset dy="0.5"/>
<feComposite in2="hardAlpha" operator="out"/>
<feColorMatrix type="matrix" values="0 0 0 0 0 0 0 0 0 0 0 0 0 0 0 0 0 0 0.8 0"/>
<feBlend mode="normal" in2="BackgroundImageFix" result="effect1_dropShadow_1_256"/>
<feBlend mode="normal" in="SourceGraphic" in2="effect1_dropShadow_1_256" result="shape"/>
</filter>
<filter id="filter6_d_1_256" x="838.467" y="192.549" width="21.6044" height="19.9029" filterUnits="userSpaceOnUse" color-interpolation-filters="sRGB">
<feFlood flood-opacity="0" result="BackgroundImageFix"/>
<feColorMatrix in="SourceAlpha" type="matrix" values="0 0 0 0 0 0 0 0 0 0 0 0 0 0 0 0 0 0 127 0" result="hardAlpha"/>
<feOffset/>
<feComposite in2="hardAlpha" operator="out"/>
<feColorMatrix type="matrix" values="0 0 0 0 0 0 0 0 0 0 0 0 0 0 0 0 0 0 0.8 0"/>
<feBlend mode="normal" in2="BackgroundImageFix" result="effect1_dropShadow_1_256"/>
<feBlend mode="normal" in="SourceGraphic" in2="effect1_dropShadow_1_256" result="shape"/>
</filter>
<filter id="filter7_d_1_256" x="839.471" y="193.494" width="19.5959" height="18.0128" filterUnits="userSpaceOnUse" color-interpolation-filters="sRGB">
<feFlood flood-opacity="0" result="BackgroundImageFix"/>
<feColorMatrix in="SourceAlpha" type="matrix" values="0 0 0 0 0 0 0 0 0 0 0 0 0 0 0 0 0 0 127 0" result="hardAlpha"/>
<feOffset/>
<feComposite in2="hardAlpha" operator="out"/>
<feColorMatrix type="matrix" values="0 0 0 0 0 0 0 0 0 0 0 0 0 0 0 0 0 0 0.8 0"/>
<feBlend mode="normal" in2="BackgroundImageFix" result="effect1_dropShadow_1_256"/>
<feBlend mode="normal" in="SourceGraphic" in2="effect1_dropShadow_1_256" result="shape"/>
</filter>
<filter id="filter8_d_1_256" x="844.104" y="197.497" width="10.0051" height="10.5051" filterUnits="userSpaceOnUse" color-interpolation-filters="sRGB">
<feFlood flood-opacity="0" result="BackgroundImageFix"/>
<feColorMatrix in="SourceAlpha" type="matrix" values="0 0 0 0 0 0 0 0 0 0 0 0 0 0 0 0 0 0 127 0" result="hardAlpha"/>
<feOffset dy="0.5"/>
<feComposite in2="hardAlpha" operator="out"/>
<feColorMatrix type="matrix" values="0 0 0 0 0 0 0 0 0 0 0 0 0 0 0 0 0 0 0.8 0"/>
<feBlend mode="normal" in2="BackgroundImageFix" result="effect1_dropShadow_1_256"/>
<feBlend mode="normal" in="SourceGraphic" in2="effect1_dropShadow_1_256" result="shape"/>
</filter>
<filter id="filter9_d_1_256" x="944.22" y="192.549" width="21.6044" height="19.9029" filterUnits="userSpaceOnUse" color-interpolation-filters="sRGB">
<feFlood flood-opacity="0" result="BackgroundImageFix"/>
<feColorMatrix in="SourceAlpha" type="matrix" values="0 0 0 0 0 0 0 0 0 0 0 0 0 0 0 0 0 0 127 0" result="hardAlpha"/>
<feOffset/>
<feComposite in2="hardAlpha" operator="out"/>
<feColorMatrix type="matrix" values="0 0 0 0 0 0 0 0 0 0 0 0 0 0 0 0 0 0 0.8 0"/>
<feBlend mode="normal" in2="BackgroundImageFix" result="effect1_dropShadow_1_256"/>
<feBlend mode="normal" in="SourceGraphic" in2="effect1_dropShadow_1_256" result="shape"/>
</filter>
<filter id="filter10_d_1_256" x="945.224" y="193.494" width="19.5959" height="18.0128" filterUnits="userSpaceOnUse" color-interpolation-filters="sRGB">
<feFlood flood-opacity="0" result="BackgroundImageFix"/>
<feColorMatrix in="SourceAlpha" type="matrix" values="0 0 0 0 0 0 0 0 0 0 0 0 0 0 0 0 0 0 127 0" result="hardAlpha"/>
<feOffset/>
<feComposite in2="hardAlpha" operator="out"/>
<feColorMatrix type="matrix" values="0 0 0 0 0 0 0 0 0 0 0 0 0 0 0 0 0 0 0.8 0"/>
<feBlend mode="normal" in2="BackgroundImageFix" result="effect1_dropShadow_1_256"/>
<feBlend mode="normal" in="SourceGraphic" in2="effect1_dropShadow_1_256" result="shape"/>
</filter>
<filter id="filter11_d_1_256" x="950.182" y="197.497" width="10.0051" height="10.5051" filterUnits="userSpaceOnUse" color-interpolation-filters="sRGB">
<feFlood flood-opacity="0" result="BackgroundImageFix"/>
<feColorMatrix in="SourceAlpha" type="matrix" values="0 0 0 0 0 0 0 0 0 0 0 0 0 0 0 0 0 0 127 0" result="hardAlpha"/>
<feOffset dy="0.5"/>
<feComposite in2="hardAlpha" operator="out"/>
<feColorMatrix type="matrix" values="0 0 0 0 0 0 0 0 0 0 0 0 0 0 0 0 0 0 0.8 0"/>
<feBlend mode="normal" in2="BackgroundImageFix" result="effect1_dropShadow_1_256"/>
<feBlend mode="normal" in="SourceGraphic" in2="effect1_dropShadow_1_256" result="shape"/>
</filter>
<filter id="filter12_dd_1_256" x="440.218" y="119.183" width="58.6336" height="58.6336" filterUnits="userSpaceOnUse" color-interpolation-filters="sRGB">
<feFlood flood-opacity="0" result="BackgroundImageFix"/>
<feColorMatrix in="SourceAlpha" type="matrix" values="0 0 0 0 0 0 0 0 0 0 0 0 0 0 0 0 0 0 127 0" result="hardAlpha"/>
<feOffset dx="-0.5" dy="-0.5"/>
<feComposite in2="hardAlpha" operator="out"/>
<feColorMatrix type="matrix" values="0 0 0 0 1 0 0 0 0 1 0 0 0 0 1 0 0 0 1 0"/>
<feBlend mode="normal" in2="BackgroundImageFix" result="effect1_dropShadow_1_256"/>
<feColorMatrix in="SourceAlpha" type="matrix" values="0 0 0 0 0 0 0 0 0 0 0 0 0 0 0 0 0 0 127 0" result="hardAlpha"/>
<feOffset dx="0.5" dy="0.5"/>
<feComposite in2="hardAlpha" operator="out"/>
<feColorMatrix type="matrix" values="0 0 0 0 0 0 0 0 0 0 0 0 0 0 0 0 0 0 0.25 0"/>
<feBlend mode="normal" in2="effect1_dropShadow_1_256" result="effect2_dropShadow_1_256"/>
<feBlend mode="normal" in="SourceGraphic" in2="effect2_dropShadow_1_256" result="shape"/>
</filter>
<filter id="filter13_dd_1_256" x="556.683" y="119.183" width="58.6336" height="58.6336" filterUnits="userSpaceOnUse" color-interpolation-filters="sRGB">
<feFlood flood-opacity="0" result="BackgroundImageFix"/>
<feColorMatrix in="SourceAlpha" type="matrix" values="0 0 0 0 0 0 0 0 0 0 0 0 0 0 0 0 0 0 127 0" result="hardAlpha"/>
<feOffset dx="-0.5" dy="-0.5"/>
<feComposite in2="hardAlpha" operator="out"/>
<feColorMatrix type="matrix" values="0 0 0 0 1 0 0 0 0 1 0 0 0 0 1 0 0 0 1 0"/>
<feBlend mode="normal" in2="BackgroundImageFix" result="effect1_dropShadow_1_256"/>
<feColorMatrix in="SourceAlpha" type="matrix" values="0 0 0 0 0 0 0 0 0 0 0 0 0 0 0 0 0 0 127 0" result="hardAlpha"/>
<feOffset dx="0.5" dy="0.5"/>
<feComposite in2="hardAlpha" operator="out"/>
<feColorMatrix type="matrix" values="0 0 0 0 0 0 0 0 0 0 0 0 0 0 0 0 0 0 0.25 0"/>
<feBlend mode="normal" in2="effect1_dropShadow_1_256" result="effect2_dropShadow_1_256"/>
<feBlend mode="normal" in="SourceGraphic" in2="effect2_dropShadow_1_256" result="shape"/>
</filter>
<linearGradient id="paint0_linear_1_256" x1="462.877" y1="120.706" x2="478.363" y2="176.098" gradientUnits="userSpaceOnUse">
<stop stop-color="#E9E9E9"/>
<stop offset="1" stop-color="#9FA3A5"/>
</linearGradient>
<linearGradient id="paint1_linear_1_256" x1="579.342" y1="120.706" x2="594.828" y2="176.098" gradientUnits="userSpaceOnUse">
<stop stop-color="#E9E9E9"/>
<stop offset="1" stop-color="#9FA3A5"/>
</linearGradient>
</defs>
</svg>
