<svg width="421" height="245" viewBox="0 0 421 245" fill="none" xmlns="http://www.w3.org/2000/svg">
<path d="M56.8616 152.605L59.1169 152.413H63.3961H71.9545H89.0714H106.188H114.747H119.026L121.281 152.605L122.932 152.754C123.143 152.773 123.305 152.951 123.305 153.163V153.912V154.662V155.037L121.281 155.239L119.026 155.411H114.747H106.188H89.0714H71.9545H63.3961H59.1169L56.8616 155.239L54.8377 155.037V154.662V153.912V153.163C54.8377 152.951 54.9996 152.773 55.2109 152.754L56.8616 152.605Z" fill="#262B2C"/>
<path d="M7.72745 160.517L13.4013 155.426C13.7683 155.096 14.244 154.914 14.7371 154.914H25.8181H49.5117H96.899H144.286H167.98H179.061C179.554 154.914 180.03 155.096 180.397 155.426L186.071 160.517L191.057 165.295C191.451 165.672 191.674 166.194 191.674 166.739V176.857V198.8V220.742V231.714L186.071 237.632L179.827 242.685H167.98H144.286H96.899H49.5117H25.8181H13.9713L7.72745 237.632L2.12445 231.714V220.742V198.8V176.857V166.739C2.12445 166.194 2.34708 165.672 2.7408 165.295L7.72745 160.517Z" fill="#DFE2E3"/>
<path d="M3.08671 165.656L8.06747 160.884L13.7353 155.798L13.4051 155.43L13.7353 155.798C14.0105 155.551 14.3673 155.414 14.7371 155.414H25.8181H49.5117H96.899H144.286H167.98H179.061C179.431 155.414 179.788 155.551 180.063 155.798L185.731 160.884L190.711 165.656C191.007 165.939 191.174 166.33 191.174 166.739V176.857V198.8V220.742V231.515L185.73 237.264L179.65 242.185H167.98H144.286H96.899H49.5117H25.8181H14.1483L8.06774 237.264L2.62445 231.515V220.742V198.8V176.857V166.739C2.62445 166.33 2.79142 165.939 3.08671 165.656Z" stroke="black" stroke-opacity="0.5"/>
<path d="M10.5265 163.349L15.4496 159.115C16.1753 158.491 17.1007 158.148 18.0578 158.148H28.0493H50.9992H96.899H142.799H165.749H175.74C176.697 158.148 177.623 158.491 178.348 159.115L183.272 163.349L187.404 167.144C188.229 167.902 188.699 168.97 188.699 170.09V178.518V198.888V219.259V229.444L183.372 234.897C183.305 234.965 183.233 235.029 183.157 235.088L177.224 239.629H165.749H142.799H96.899H50.9992H28.0493H16.5743L10.641 235.088C10.5647 235.029 10.4928 234.965 10.4258 234.897L5.09937 229.444V219.259V198.888V178.518V170.09C5.09937 168.97 5.56893 167.902 6.39388 167.144L10.5265 163.349Z" fill="#DFE2E3"/>
<path d="M6.56297 167.328L10.6926 163.536L15.6126 159.305C16.2929 158.72 17.1605 158.398 18.0578 158.398H28.0493H50.9992H96.899H142.799H165.749H175.74C176.638 158.398 177.505 158.72 178.185 159.305L183.102 163.533L183.109 163.539L187.235 167.328C188.008 168.039 188.449 169.04 188.449 170.09V178.518V198.888V219.259V229.342L183.193 234.722C183.135 234.782 183.072 234.838 183.005 234.889L177.139 239.379H165.749H142.799H96.899H50.9992H28.0493H16.659L10.7929 234.889C10.7262 234.838 10.6633 234.782 10.6046 234.722L10.4258 234.897L10.6046 234.722L5.34937 229.342V219.259V198.888V178.518V170.09C5.34937 169.04 5.78958 168.039 6.56297 167.328Z" stroke="black" stroke-opacity="0.5" stroke-width="0.5"/>
<path d="M20.8823 171.971L25.1446 168.817C25.8333 168.307 26.6675 168.032 27.5243 168.032H36.3042H56.5025H96.8991H137.296H157.494H166.274C167.131 168.032 167.965 168.307 168.653 168.817L172.916 171.971L176.172 174.545C177.132 175.303 177.692 176.46 177.692 177.683V183.46V198.888V214.317V222.031L172.916 226.239L167.593 229.745H157.494H137.296H96.8991H56.5025H36.3042H26.205L20.8823 226.239L16.1059 222.031V214.317V198.888V183.46V177.683C16.1059 176.46 16.6659 175.303 17.6258 174.545L20.8823 171.971Z" fill="#DFE2E3"/>
<path d="M17.7808 174.741L21.0342 172.17L25.2934 169.017C25.939 168.54 26.721 168.282 27.5243 168.282H36.3042H56.5025H96.8991H137.296H157.494H166.274C167.077 168.282 167.859 168.54 168.505 169.017L172.761 172.167L172.767 172.172L176.017 174.741C176.917 175.452 177.442 176.536 177.442 177.683V183.46V198.888V214.317V221.918L172.764 226.04L167.518 229.495H157.494H137.296H96.8991H56.5025H36.3042H26.28L21.0345 226.04L16.3559 221.918V214.317V198.888V183.46V177.683C16.3559 176.536 16.8809 175.452 17.7808 174.741Z" stroke="black" stroke-opacity="0.5" stroke-width="0.5"/>
<path d="M22.517 173.199L26.677 170.196C27.3585 169.704 28.1777 169.44 29.0182 169.44H37.6073H57.3712H96.8991H136.427H156.191H164.78C165.62 169.44 166.44 169.704 167.121 170.196L171.281 173.199L174.397 175.601C175.379 176.358 175.955 177.528 175.955 178.769V184.164V198.888V213.613V220.975L171.281 224.991L166.073 228.337H156.191H136.427H96.8991H57.3712H37.6073H27.7253L22.517 224.991L17.8433 220.975V213.613V198.888V184.164V178.769C17.8433 177.528 18.4189 176.358 19.4014 175.601L22.517 173.199Z" fill="#DFE2E3"/>
<path d="M19.554 175.799L22.6666 173.4L26.8233 170.399C27.4622 169.938 28.2302 169.69 29.0182 169.69H37.6073H57.3712H96.8991H136.427H156.191H164.78C165.568 169.69 166.336 169.938 166.975 170.399L171.128 173.397L171.135 173.402L174.244 175.799C175.165 176.509 175.705 177.606 175.705 178.769V184.164V198.888V213.613V220.86L171.131 224.79L165.999 228.087H156.191H136.427H96.8991H57.3712H37.6073H27.7987L22.6668 224.79L18.0933 220.86V213.613V198.888V184.164V178.769C18.0933 177.606 18.6329 176.509 19.554 175.799Z" stroke="black" stroke-opacity="0.5" stroke-width="0.5"/>
<rect x="320.908" y="84.6361" width="97.6063" height="77.3528" rx="2" fill="#DFE2E3"/>
<rect x="321.408" y="85.1361" width="96.6063" height="76.3528" rx="1.5" stroke="black" stroke-opacity="0.5"/>
<rect x="323.053" y="86.6203" width="94.4274" height="73.1391" rx="2" fill="#DFE2E3"/>
<rect x="323.303" y="86.8703" width="93.9274" height="72.6391" rx="1.75" stroke="black" stroke-opacity="0.5" stroke-width="0.5"/>
<rect x="323.053" y="108.094" width="94.4274" height="51.6656" rx="2" fill="#ADB6B9"/>
<rect x="323.303" y="108.344" width="93.9274" height="51.1656" rx="1.75" stroke="black" stroke-opacity="0.5" stroke-width="0.5"/>
<rect x="286.662" y="108.094" width="84.9056" height="33.5639" rx="11" fill="#ADB6B9"/>
<rect x="287.162" y="108.594" width="83.9056" height="32.5639" rx="10.5" stroke="black" stroke-opacity="0.5"/>
<rect x="286.662" y="109.553" width="83.0628" height="30.6453" rx="11" fill="#ADB6B9"/>
<rect x="286.912" y="109.803" width="82.5628" height="30.1453" rx="10.75" stroke="black" stroke-opacity="0.5" stroke-width="0.5"/>
<path d="M316.112 109.553H369.724V140.199H324.049L316.112 109.553Z" fill="#DFE2E3"/>
<path d="M324.243 139.949L316.435 109.803H369.474V139.949H324.243Z" stroke="black" stroke-opacity="0.5" stroke-width="0.5"/>
<path d="M327.808 115.547C327.677 114.925 328.151 114.34 328.787 114.34H352.083C352.635 114.34 353.083 114.788 353.083 115.34V134.412C353.083 134.964 352.635 135.412 352.083 135.412H332.814C332.342 135.412 331.933 135.081 331.836 134.618L327.808 115.547Z" fill="#DFE2E3"/>
<path d="M328.053 115.495C327.954 115.029 328.31 114.59 328.787 114.59H352.083C352.497 114.59 352.833 114.926 352.833 115.34V134.412C352.833 134.826 352.497 135.162 352.083 135.162H332.814C332.46 135.162 332.154 134.913 332.08 134.567L328.053 115.495Z" stroke="black" stroke-opacity="0.5" stroke-width="0.5"/>
<path d="M329.07 116.986C328.941 116.365 329.415 115.783 330.049 115.783H351.177C351.73 115.783 352.177 116.23 352.177 116.783V132.969C352.177 133.521 351.73 133.969 351.177 133.969H333.407C332.933 133.969 332.524 133.636 332.428 133.172L329.07 116.986Z" fill="#DFE2E3"/>
<path d="M329.314 116.935C329.218 116.469 329.573 116.033 330.049 116.033H351.177C351.592 116.033 351.927 116.368 351.927 116.783V132.969C351.927 133.383 351.592 133.719 351.177 133.719H333.407C333.051 133.719 332.745 133.47 332.673 133.121L329.314 116.935Z" stroke="black" stroke-opacity="0.5" stroke-width="0.5"/>
<rect x="360.286" y="84.6361" width="58.2283" height="77.3528" rx="2" fill="#DFE2E3"/>
<rect x="360.786" y="85.1361" width="57.2283" height="76.3528" rx="1.5" stroke="black" stroke-opacity="0.5"/>
<rect x="361.921" y="86.0943" width="56.5932" height="74.4364" rx="2" fill="#DFE2E3"/>
<rect x="362.171" y="86.3443" width="56.0932" height="73.9364" rx="1.75" stroke="black" stroke-opacity="0.5" stroke-width="0.5"/>
<path d="M360.286 108.094H418.459L420.336 109.66V116.485V124.876V133.267V137.462V140.061L418.495 141.658H360.286V108.094Z" fill="#DFE2E3"/>
<path d="M360.536 108.344H418.369L420.086 109.777V116.485V124.876V133.267V137.462V139.947L418.402 141.408H360.536V108.344Z" stroke="black" stroke-opacity="0.5" stroke-width="0.5"/>
<rect x="360.536" y="109.816" width="59.5496" height="30.1199" stroke="black" stroke-opacity="0.5" stroke-width="0.5"/>
<rect x="413.958" y="84.8861" width="1.42776" height="76.4307" rx="0.71388" stroke="black" stroke-opacity="0.5" stroke-width="0.5"/>
<path d="M337.476 7.99192C337.611 5.88592 339.358 4.24655 341.468 4.24655H360.825C362.935 4.24655 364.682 5.88592 364.817 7.99192L368.307 62.6999C368.454 65.0045 366.624 66.9545 364.315 66.9545H337.978C335.669 66.9545 333.84 65.0045 333.987 62.6999L337.476 7.99192Z" fill="#DFE2E3"/>
<path d="M337.975 8.02374C338.093 6.181 339.622 4.74655 341.468 4.74655H360.825C362.671 4.74655 364.2 6.181 364.318 8.02375L367.808 62.7317C367.936 64.7483 366.335 66.4545 364.315 66.4545H337.978C335.958 66.4545 334.357 64.7483 334.486 62.7317L337.975 8.02374Z" stroke="black" stroke-opacity="0.5"/>
<path d="M338.47 51.9202L341.419 5.25629H339.717L338.47 7.18426L334.16 62.3013L335.635 65.5902L341.419 66.6449L339.717 52.4873L338.47 51.9202Z" fill="#C6CDD0" style="mix-blend-mode:multiply"/>
<path d="M341.765 5.06732L337.418 66.2534" stroke="black" stroke-opacity="0.5" stroke-width="0.5" stroke-linecap="round"/>
<path d="M343.593 5.06732L339.245 66.2534" stroke="black" stroke-opacity="0.5" stroke-width="0.5" stroke-linecap="round"/>
<path d="M342.007 61.5294C342.007 59.3203 343.798 57.5294 346.007 57.5294H356.286C358.495 57.5294 360.286 59.3202 360.286 61.5294V85.6361H342.007V61.5294Z" fill="#DFE2E3"/>
<path d="M342.507 61.5294C342.507 59.5964 344.074 58.0294 346.007 58.0294H356.286C358.219 58.0294 359.786 59.5964 359.786 61.5294V85.1361H342.507V61.5294Z" stroke="black" stroke-opacity="0.5"/>
<path d="M360.966 71.1077C360.587 76.2506 356.303 80.2293 351.147 80.2293C345.99 80.2293 341.706 76.2506 341.327 71.1077L340 53.1355L341.037 52.0153L351.301 52.0153L361.294 52.0153L362.293 53.1355L360.966 71.1077Z" fill="#DFE2E3"/>
<path d="M360.717 71.0893C360.347 76.1016 356.173 79.9793 351.147 79.9793C346.121 79.9793 341.946 76.1016 341.576 71.0893L340.258 53.2256L341.147 52.2653L351.301 52.2653L361.182 52.2653L362.036 53.2228L360.717 71.0893Z" stroke="black" stroke-opacity="0.5" stroke-width="0.5"/>
<path d="M360.024 71.0133C359.712 75.6866 355.83 79.3178 351.147 79.3178C346.463 79.3178 342.581 75.6866 342.269 71.0133L341.004 52.0622L361.29 52.0622L360.024 71.0133Z" fill="#DFE2E3"/>
<path d="M359.775 70.9966C359.471 75.5386 355.699 79.0678 351.147 79.0678C346.594 79.0678 342.822 75.5386 342.518 70.9966L341.271 52.3122L361.022 52.3122L359.775 70.9966Z" stroke="black" stroke-opacity="0.5" stroke-width="0.5"/>
<path d="M16.4737 220.484V175.91C16.4737 175.23 16.1291 174.598 15.5587 174.229L5.50425 167.736C4.15867 166.867 2.3885 167.854 2.4196 169.455L3.09853 204.415V230.523C3.09853 230.988 3.26086 231.439 3.55754 231.797L7.27674 236.293C7.3423 236.372 7.41386 236.446 7.49081 236.515L13.3684 241.726C13.7343 242.051 14.2064 242.23 14.6954 242.23H97.0885H175.241C176.726 242.23 177.45 240.418 176.374 239.394L168.188 230.096C167.808 229.664 167.262 229.417 166.687 229.417H27.1931C26.7411 229.417 26.3023 229.264 25.9485 228.983L17.229 222.05C16.7518 221.67 16.4737 221.094 16.4737 220.484Z" fill="#C6CDD0" style="mix-blend-mode:multiply"/>
<path d="M385.605 160.984H401.578V171.904L404.578 177.364H382.605L385.605 171.904V160.984Z" fill="#DFE2E3"/>
<path d="M386.105 171.904V161.484H401.078V171.904V172.032L401.14 172.144L403.733 176.864H383.45L386.043 172.144L386.105 172.032V171.904Z" stroke="black" stroke-opacity="0.5"/>
<rect x="384.81" y="166.895" width="17.5451" height="2.74634" fill="#DFE2E3"/>
<rect x="385.06" y="167.145" width="17.0451" height="2.24634" stroke="black" stroke-opacity="0.5" stroke-width="0.5"/>
<rect x="386.086" y="169.157" width="14.9931" height="2.74634" fill="#DFE2E3"/>
<rect x="386.336" y="169.407" width="14.4931" height="2.24634" stroke="black" stroke-opacity="0.5" stroke-width="0.5"/>
<path d="M2.04046 101.166C2.08713 98.991 3.86383 97.252 6.03954 97.252H77.3531C83.1634 97.252 88.9003 98.5503 94.1445 101.052L127.96 117.183C128.119 117.259 128.267 117.355 128.401 117.47L158.631 143.4C159.509 144.153 159.567 145.493 158.756 146.319L154.3 150.86C153.941 151.225 153.457 151.438 152.946 151.457L86.1788 153.912L4.8805 149.762C2.72021 149.651 1.03898 147.844 1.08538 145.681L2.04046 101.166Z" fill="#DFE2E3"/>
<path d="M2.54034 101.177C2.58118 99.2737 4.13579 97.752 6.03954 97.752H77.3531C83.0889 97.752 88.7523 99.0337 93.9293 101.503L127.745 117.634C127.864 117.691 127.975 117.763 128.076 117.85L158.305 143.779C158.964 144.345 159.007 145.349 158.399 145.969L153.943 150.509C153.674 150.783 153.311 150.944 152.927 150.958L86.1824 153.412L4.906 149.262C3.01574 149.166 1.54466 147.584 1.58526 145.692L2.54034 101.177Z" stroke="black" stroke-opacity="0.5"/>
<path d="M68.658 88.8204L24.8068 98.2361H73.7553L68.658 88.8204Z" fill="#DFE2E3"/>
<path d="M72.916 97.7361H29.5171L68.3967 89.3879L72.916 97.7361Z" stroke="black" stroke-opacity="0.5" stroke-linecap="round"/>
<path d="M4.19493 103.823C4.2439 101.65 6.01988 99.9134 8.19391 99.9134H76.1941C81.7578 99.9134 87.2572 101.104 92.3229 103.405L124.564 118.049C124.725 118.123 124.876 118.217 125.013 118.33L155.265 143.398C156.176 144.153 156.237 145.529 155.395 146.36L152.487 149.233C152.126 149.591 151.641 149.797 151.132 149.81L84.6364 151.489L7.10263 147.72C4.93663 147.615 3.24902 145.803 3.29787 143.635L4.19493 103.823Z" fill="#DFE2E3"/>
<path d="M4.44486 103.829C4.49077 101.791 6.15576 100.163 8.19391 100.163H76.1941C81.7222 100.163 87.1863 101.346 92.2195 103.632L124.46 118.277C124.602 118.341 124.734 118.424 124.853 118.523L155.106 143.59C155.903 144.251 155.956 145.455 155.219 146.183L152.312 149.055C151.995 149.368 151.571 149.549 151.126 149.56L84.6393 151.239L7.11477 147.47C5.08415 147.372 3.50201 145.673 3.54781 143.64L4.44486 103.829Z" stroke="black" stroke-opacity="0.5" stroke-width="0.5"/>
<path d="M15.7887 112.534C15.7887 110.51 17.3004 108.805 19.3097 108.563L73.2583 102.056C80.5236 101.18 87.8888 102.365 94.5121 105.477L124.264 119.455C124.405 119.522 124.538 119.604 124.66 119.702L154.379 143.401C155.327 144.157 155.39 145.575 154.514 146.412L152.111 148.706C151.751 149.05 151.274 149.248 150.776 149.259L84.9289 150.769C84.819 150.771 84.709 150.765 84.6 150.749L19.2226 141.402C17.2522 141.121 15.7887 139.433 15.7887 137.442V112.534Z" fill="#DFE2E3"/>
<path d="M16.0387 112.534C16.0387 110.636 17.4559 109.038 19.3397 108.811L73.2883 102.304C80.5069 101.434 87.8249 102.612 94.4058 105.704L124.157 119.681C124.281 119.74 124.397 119.812 124.504 119.897L154.224 143.597C155.053 144.258 155.108 145.498 154.341 146.231L151.939 148.525C151.623 148.826 151.206 148.999 150.77 149.009L84.9232 150.519C84.827 150.521 84.7307 150.515 84.6354 150.502L19.258 141.155C17.4107 140.891 16.0387 139.309 16.0387 137.442V112.534Z" stroke="black" stroke-opacity="0.5" stroke-width="0.5"/>
<path d="M16.6525 113.33C16.6525 111.306 18.1633 109.602 20.1718 109.359L73.8739 102.858C81.3693 101.95 88.9668 103.238 95.7445 106.564L123.929 120.398C124.05 120.457 124.165 120.529 124.272 120.612L153.548 143.268C154.544 144.039 154.588 145.527 153.64 146.356L151.484 148.24C151.13 148.549 150.679 148.724 150.209 148.734L85.5511 150.091C85.4422 150.093 85.3333 150.086 85.2255 150.071L20.0851 140.736C18.1153 140.454 16.6525 138.767 16.6525 136.777L16.6525 113.33Z" fill="#DFE2E3"/>
<path d="M16.9025 113.33C16.9025 111.433 18.3188 109.835 20.2018 109.607L73.904 103.106C81.3513 102.204 88.9001 103.484 95.6344 106.789L123.819 120.622C123.925 120.674 124.026 120.737 124.119 120.809L153.395 143.466C154.266 144.141 154.305 145.443 153.475 146.168L151.319 148.052C151.01 148.322 150.615 148.475 150.204 148.484L85.5459 149.841C85.4506 149.843 85.3553 149.837 85.2609 149.823L20.1206 140.489C18.2739 140.224 16.9025 138.642 16.9025 136.777V113.33Z" stroke="black" stroke-opacity="0.5" stroke-width="0.5"/>
<path d="M52.9711 112.142H86.4375V140.246H52.9711V112.142Z" fill="#DFE2E3"/>
<path d="M53.2211 112.392H86.1875V139.996H53.2211V112.392Z" stroke="black" stroke-opacity="0.5" stroke-width="0.5"/>
<path d="M59.3936 120.085L69.2728 117.085V135.303L59.3936 132.303V120.085Z" fill="#656B6C"/>
<path d="M59.6436 132.118V120.271L69.0228 117.422V134.966L59.6436 132.118Z" stroke="black" stroke-opacity="0.5" stroke-width="0.5"/>
<path d="M59.3936 120.085H69.2728V132.303H59.3936V120.085Z" fill="#656B6C"/>
<path d="M59.6436 120.335H69.0228V132.053H59.6436V120.335Z" stroke="black" stroke-opacity="0.5" stroke-width="0.5"/>
<circle cx="88.6231" cy="125.874" r="21.8062" fill="#DFE2E3"/>
<circle cx="88.6231" cy="125.874" r="21.3062" stroke="black" stroke-opacity="0.8"/>
<rect x="257.885" y="7.01126" width="38.0957" height="129.036" rx="19.0479" transform="rotate(90 257.885 7.01126)" fill="#DFE2E3"/>
<rect x="257.385" y="7.51126" width="37.0957" height="128.036" rx="18.5479" transform="rotate(90 257.385 7.51126)" stroke="black" stroke-opacity="0.5"/>
<rect x="257.885" y="8.42862" width="35.261" height="129.036" rx="17.6305" transform="rotate(90 257.885 8.42862)" fill="#DFE2E3"/>
<rect x="257.635" y="8.67862" width="34.761" height="128.536" rx="17.3805" transform="rotate(90 257.635 8.67862)" stroke="black" stroke-opacity="0.5" stroke-width="0.5"/>
<path d="M162.358 8.44559H226.248L219.227 43.6956H168.376L162.358 8.44559Z" fill="#DFE2E3"/>
<path d="M168.587 43.4456L162.654 8.69559H225.943L219.022 43.4456H168.587Z" stroke="black" stroke-opacity="0.5" stroke-width="0.5"/>
<path d="M169.983 14.4846C169.872 13.871 170.343 13.3065 170.967 13.3065H217.603C218.239 13.3065 218.713 13.8914 218.582 14.5131L213.612 38.0413C213.515 38.5038 213.106 38.8347 212.634 38.8347H175.226C174.743 38.8347 174.328 38.4887 174.242 38.0128L169.983 14.4846Z" fill="#DFE2E3"/>
<path d="M170.229 14.4401C170.145 13.9799 170.499 13.5565 170.967 13.5565H217.603C218.08 13.5565 218.436 13.9952 218.337 14.4615L213.368 37.9897C213.294 38.3365 212.988 38.5847 212.634 38.5847H175.226C174.864 38.5847 174.553 38.3252 174.488 37.9683L170.229 14.4401Z" stroke="black" stroke-opacity="0.5" stroke-width="0.5"/>
<path d="M171.16 15.4558C171.046 14.8407 171.518 14.2725 172.143 14.2725H216.425C217.063 14.2725 217.538 14.8618 217.402 15.4851L212.703 37.0813C212.603 37.5409 212.196 37.8687 211.726 37.8687H176.172C175.69 37.8687 175.277 37.5255 175.189 37.0521L171.16 15.4558Z" fill="#DFE2E3"/>
<path d="M171.406 15.41C171.32 14.9487 171.674 14.5225 172.143 14.5225H216.425C216.904 14.5225 217.26 14.9644 217.158 15.432L212.458 37.0282C212.383 37.3729 212.078 37.6187 211.726 37.6187H176.172C175.81 37.6187 175.501 37.3613 175.434 37.0062L171.406 15.41Z" stroke="black" stroke-opacity="0.5" stroke-width="0.5"/>
<path d="M129.725 17.4374C134.992 8.34258 146.63 5.23249 155.732 10.4874C164.851 15.7523 167.969 27.4173 162.692 36.5293L105.559 135.181C100.292 144.276 88.6536 147.386 79.5518 142.131C70.4327 136.866 67.3154 125.201 72.5925 116.089L129.725 17.4374Z" fill="#DFE2E3"/>
<path d="M130.158 17.6879C135.287 8.83189 146.619 5.80344 155.482 10.9204C164.362 16.0471 167.397 27.4059 162.259 36.2787L105.126 134.931C99.9973 143.787 88.6647 146.815 79.8018 141.698C70.9221 136.571 67.8866 125.213 73.0252 116.34L130.158 17.6879Z" stroke="black" stroke-opacity="0.5"/>
<path d="M115.266 38.8048L118.87 38.1827L95.702 78.2056L95.4015 72.2311L115.266 38.8048Z" fill="#DFE2E3"/>
<path d="M95.9084 72.3568L115.578 39.2584L117.902 38.8573L96.1164 76.4917L95.9084 72.3568Z" stroke="black" stroke-opacity="0.5" stroke-linecap="round"/>
<path d="M144.724 71.1536L141.12 71.7757L148.284 59.4163L148.418 64.9584L144.724 71.1536Z" fill="#DFE2E3"/>
<path d="M147.915 64.8263L144.413 70.7L142.089 71.101L147.827 61.2018L147.915 64.8263Z" stroke="black" stroke-opacity="0.5" stroke-linecap="round"/>
<rect x="141.151" y="5.50909" width="29.877" height="145.518" rx="14.9385" transform="rotate(30 141.151 5.50909)" fill="#DFE2E3"/>
<rect x="141.243" y="5.8506" width="29.377" height="145.018" rx="14.6885" transform="rotate(30 141.243 5.8506)" stroke="black" stroke-opacity="0.5" stroke-width="0.5"/>
<rect x="141.839" y="7.03775" width="27.1567" height="143.558" rx="13.5784" transform="rotate(30 141.839 7.03775)" fill="#DFE2E3"/>
<rect x="141.931" y="7.37926" width="26.6567" height="143.058" rx="13.3284" transform="rotate(30 141.931 7.37926)" stroke="black" stroke-opacity="0.5" stroke-width="0.5"/>
<path d="M84.1423 103.293C84.3007 103.017 84.6068 102.861 84.9232 102.894L116.841 106.245C117.561 106.32 117.964 107.112 117.603 107.739L102.539 133.865C98.2366 141.326 88.6989 143.885 81.2401 139.579C73.7968 135.281 71.2362 125.77 75.5159 118.316L84.1423 103.293Z" fill="#DFE2E3"/>
<path d="M84.3591 103.418C84.4682 103.228 84.6791 103.12 84.8971 103.143L116.815 106.494C117.355 106.55 117.657 107.144 117.386 107.614L102.322 133.74C98.089 141.082 88.7043 143.599 81.3651 139.362C74.0411 135.134 71.5216 125.775 75.7327 118.441L84.3591 103.418Z" stroke="black" stroke-opacity="0.5" stroke-width="0.5"/>
<path d="M84.5465 104.221C84.698 103.957 84.9903 103.807 85.2929 103.838L115.614 106.928C116.335 107.002 116.741 107.794 116.379 108.423L101.911 133.514C97.8199 140.609 88.7508 143.042 81.6584 138.947C74.5806 134.861 72.1458 125.817 76.2155 118.729L84.5465 104.221Z" fill="#DFE2E3"/>
<path d="M84.7633 104.345C84.8656 104.167 85.0631 104.066 85.2675 104.087L115.588 107.177C116.129 107.232 116.434 107.827 116.162 108.298L101.694 133.39C97.6724 140.365 88.7562 142.756 81.7834 138.731C74.825 134.713 72.4312 125.821 76.4323 118.854L84.7633 104.345Z" stroke="black" stroke-opacity="0.5" stroke-width="0.5"/>
<path d="M84.0486 105.083C84.1954 104.827 84.4792 104.682 84.7725 104.713L115.095 107.849C115.815 107.923 116.22 108.716 115.858 109.343L101.913 133.517C97.8206 140.611 88.7516 143.042 81.6592 138.948C74.5808 134.861 72.1454 125.816 76.215 118.728L84.0486 105.083Z" fill="#DFE2E3"/>
<path d="M84.2654 105.208C84.363 105.038 84.5517 104.941 84.7468 104.961L115.069 108.098C115.61 108.153 115.913 108.748 115.642 109.218L101.696 133.392C97.6731 140.366 88.757 142.757 81.7842 138.731C74.8251 134.713 72.4309 125.821 76.4318 118.852L84.2654 105.208Z" stroke="black" stroke-opacity="0.5" stroke-width="0.5"/>
<path d="M81.8588 108.863C81.9883 108.637 82.242 108.512 82.5001 108.547L112.51 112.624C113.152 112.712 113.5 113.422 113.177 113.983L101.914 133.511C97.8213 140.608 88.749 143.041 81.6541 138.945C74.577 134.859 72.1395 125.817 76.2036 118.728L81.8588 108.863Z" fill="#DFE2E3"/>
<path d="M82.0757 108.987C82.1546 108.849 82.3091 108.773 82.4664 108.794L112.476 112.872C112.942 112.935 113.195 113.451 112.96 113.858L101.698 133.386C97.6737 140.363 88.7544 142.755 81.7791 138.728C74.8214 134.711 72.4249 125.822 76.4204 118.852L82.0757 108.987Z" stroke="black" stroke-opacity="0.5" stroke-width="0.5"/>
<circle cx="89.0713" cy="126.094" r="14.6816" fill="#DFE2E3"/>
<circle cx="89.0713" cy="126.094" r="14.4316" stroke="black" stroke-opacity="0.5" stroke-width="0.5"/>
<mask id="mask0_19_227" style="mask-type:alpha" maskUnits="userSpaceOnUse" x="74" y="111" width="30" height="30">
<circle cx="89.0713" cy="126.094" r="14.6816" fill="#DFE2E3"/>
<circle cx="89.0713" cy="126.094" r="14.4316" stroke="black" stroke-opacity="0.5" stroke-width="0.5"/>
</mask>
<g mask="url(#mask0_19_227)">
<circle cx="102.753" cy="126.094" r="2.87238" fill="#0C0D0D"/>
<circle cx="75.3898" cy="126.094" r="2.87238" fill="#0C0D0D"/>
<circle cx="89.0714" cy="112.412" r="2.87238" fill="#0C0D0D"/>
<circle cx="89.0714" cy="139.775" r="2.87238" fill="#0C0D0D"/>
</g>
<circle cx="89.0713" cy="126.094" r="10.2618" fill="#656B6C"/>
<circle cx="89.0713" cy="126.094" r="10.0118" stroke="black" stroke-opacity="0.5" stroke-width="0.5"/>
<circle cx="89.0713" cy="126.094" r="9.20958" fill="#DFE2E3"/>
<circle cx="89.0713" cy="126.094" r="8.95958" stroke="black" stroke-opacity="0.8" stroke-width="0.5"/>
<circle cx="89.0713" cy="126.094" r="5.94911" fill="#DFE2E3"/>
<circle cx="89.0713" cy="126.094" r="5.69911" stroke="black" stroke-opacity="0.2" stroke-width="0.5"/>
<path d="M124.198 34.0126C124.046 34.2924 124.074 34.6351 124.269 34.8868L143.898 60.277C144.341 60.8496 145.226 60.7769 145.57 60.1398L159.876 33.5907C163.961 26.0087 161.124 16.5503 153.539 12.469C145.971 8.39623 136.534 11.2179 132.443 18.7769L124.198 34.0126Z" fill="#DFE2E3"/>
<path d="M124.418 34.1316C124.313 34.3244 124.333 34.5605 124.467 34.7339L144.096 60.1241C144.428 60.5536 145.092 60.499 145.35 60.0212L159.655 33.4722C163.676 26.0118 160.884 16.705 153.421 12.6892C145.974 8.6817 136.688 11.4581 132.663 18.8958L124.418 34.1316Z" stroke="black" stroke-opacity="0.5" stroke-width="0.5"/>
<path d="M125.199 33.8689C125.055 34.1363 125.081 34.4639 125.266 34.7051L143.834 58.8739C144.276 59.4489 145.164 59.3773 145.508 58.7391L159.247 33.241C163.132 26.0314 160.434 17.0376 153.222 13.1569C146.025 9.28407 137.051 11.9673 133.162 19.1551L125.199 33.8689Z" fill="#DFE2E3"/>
<path d="M125.419 33.9879C125.322 34.1686 125.339 34.3898 125.464 34.5527L144.032 58.7216C144.364 59.1528 145.029 59.0992 145.287 58.6205L159.027 33.1224C162.846 26.0344 160.194 17.1923 153.104 13.377C146.028 9.56954 137.206 12.2075 133.382 19.2741L125.419 33.9879Z" stroke="black" stroke-opacity="0.5" stroke-width="0.5"/>
<path d="M125.671 32.9919C125.531 33.2513 125.557 33.5691 125.737 33.8027L144.345 57.9484C144.787 58.5222 145.674 58.45 146.017 57.8121L159.25 33.2415C163.134 26.0312 160.435 17.038 153.223 13.1572C146.025 9.28412 137.051 11.9672 133.16 19.1553L125.671 32.9919Z" fill="#DFE2E3"/>
<path d="M125.891 33.1109C125.798 33.2834 125.815 33.4947 125.935 33.6501L144.543 57.7958C144.874 58.2262 145.539 58.172 145.797 57.6936L159.03 33.123C162.848 26.0342 160.195 17.1927 153.105 13.3774C146.028 9.56958 137.205 12.2074 133.38 19.2743L125.891 33.1109Z" stroke="black" stroke-opacity="0.5" stroke-width="0.5"/>
<path d="M127.735 29.1424C127.611 29.3714 127.638 29.6528 127.804 29.854L147.048 53.2391C147.46 53.7392 148.247 53.6624 148.554 53.0923L159.246 33.2457C163.131 26.0333 160.432 17.0366 153.218 13.1545C146.022 9.28209 137.049 11.9614 133.154 19.1456L127.735 29.1424Z" fill="#DFE2E3"/>
<path d="M127.955 29.2616C127.879 29.4011 127.896 29.5726 127.997 29.6951L147.241 53.0802C147.54 53.4431 148.111 53.3874 148.334 52.9737L159.026 33.1271C162.846 26.0363 160.192 17.1913 153.099 13.3746C146.025 9.56753 137.203 12.2017 133.374 19.2647L127.955 29.2616Z" stroke="black" stroke-opacity="0.5" stroke-width="0.5"/>
<circle cx="146.247" cy="26.0591" r="14.6816" transform="rotate(-178.285 146.247 26.0591)" fill="#DFE2E3"/>
<circle cx="146.247" cy="26.0591" r="14.4316" transform="rotate(-178.285 146.247 26.0591)" stroke="black" stroke-opacity="0.5" stroke-width="0.5"/>
<mask id="mask1_19_227" style="mask-type:alpha" maskUnits="userSpaceOnUse" x="131" y="11" width="30" height="30">
<circle cx="146.247" cy="26.0591" r="14.6816" transform="rotate(-178.285 146.247 26.0591)" fill="#DFE2E3"/>
<circle cx="146.247" cy="26.0591" r="14.4316" transform="rotate(-178.285 146.247 26.0591)" stroke="black" stroke-opacity="0.5" stroke-width="0.5"/>
</mask>
<g mask="url(#mask1_19_227)">
<circle cx="132.571" cy="25.6498" r="2.87238" transform="rotate(-178.285 132.571 25.6498)" fill="#0C0D0D"/>
<circle cx="159.922" cy="26.4685" r="2.87238" transform="rotate(-178.285 159.922 26.4685)" fill="#0C0D0D"/>
<circle cx="145.838" cy="39.7345" r="2.87238" transform="rotate(-178.285 145.838 39.7345)" fill="#0C0D0D"/>
<circle cx="146.656" cy="12.3837" r="2.87238" transform="rotate(-178.285 146.656 12.3837)" fill="#0C0D0D"/>
</g>
<circle cx="146.247" cy="26.0591" r="10.2618" transform="rotate(-178.285 146.247 26.0591)" fill="#656B6C"/>
<circle cx="146.247" cy="26.0591" r="10.0118" transform="rotate(-178.285 146.247 26.0591)" stroke="black" stroke-opacity="0.5" stroke-width="0.5"/>
<circle cx="146.247" cy="26.0592" r="9.20958" transform="rotate(-178.285 146.247 26.0592)" fill="#DFE2E3"/>
<circle cx="146.247" cy="26.0592" r="8.95958" transform="rotate(-178.285 146.247 26.0592)" stroke="black" stroke-opacity="0.8" stroke-width="0.5"/>
<circle cx="146.247" cy="26.0592" r="5.94911" transform="rotate(-178.285 146.247 26.0592)" fill="#DFE2E3"/>
<circle cx="146.247" cy="26.0592" r="5.69911" transform="rotate(-178.285 146.247 26.0592)" stroke="black" stroke-opacity="0.2" stroke-width="0.5"/>
<path d="M316.375 115.026C321.711 124.081 318.704 135.746 309.657 141.094C300.592 146.452 288.9 143.438 283.554 134.367L225.678 36.1493C220.342 27.0946 223.348 15.4292 232.396 10.0814C241.461 4.72353 253.153 7.73692 258.499 16.8088L316.375 115.026Z" fill="#DFE2E3"/>
<path d="M315.944 115.28C321.14 124.097 318.213 135.456 309.402 140.664C300.576 145.881 289.19 142.946 283.985 134.113L226.108 35.8955C220.913 27.0784 223.84 15.7193 232.65 10.5119C241.477 5.29461 252.862 8.2289 258.068 17.0626L315.944 115.28Z" stroke="black" stroke-opacity="0.5"/>
<path d="M313.78 107.068L312.552 110.513L266.959 33.1377L272.311 35.8101L313.78 107.068Z" fill="#DFE2E3"/>
<path d="M271.954 36.1907L313.231 107.119L312.44 109.338L268.248 34.3401L271.954 36.1907Z" stroke="black" stroke-opacity="0.5" stroke-linecap="round"/>
<path d="M242.337 67.8919L242.768 63.18L284.319 133.715L279.426 131.11L242.337 67.8919Z" fill="#DFE2E3"/>
<path d="M279.785 130.735L242.85 67.7775L243.125 64.7708L282.988 132.44L279.785 130.735Z" stroke="black" stroke-opacity="0.5" stroke-linecap="round"/>
<rect x="321.154" y="130.838" width="29.877" height="145.518" rx="14.9385" transform="rotate(149.414 321.154 130.838)" fill="#DFE2E3"/>
<rect x="320.812" y="130.75" width="29.377" height="145.018" rx="14.6885" transform="rotate(149.414 320.812 130.75)" stroke="black" stroke-opacity="0.5" stroke-width="0.5"/>
<rect x="319.485" y="130.686" width="27.1567" height="143.558" rx="13.5784" transform="rotate(149.414 319.485 130.686)" fill="#DFE2E3"/>
<rect x="319.142" y="130.598" width="26.6567" height="143.058" rx="13.3284" transform="rotate(149.414 319.142 130.598)" stroke="black" stroke-opacity="0.5" stroke-width="0.5"/>
<path d="M263.973 33.1541C264.136 33.4275 264.122 33.7711 263.937 34.0303L245.343 60.1882C244.924 60.7781 244.036 60.7409 243.667 60.1181L228.307 34.1648C223.921 26.7529 226.376 17.1882 233.79 12.8057C241.189 8.43238 250.732 10.873 255.123 18.2616L263.973 33.1541Z" fill="#DFE2E3"/>
<path d="M263.758 33.2818C263.87 33.4702 263.86 33.7069 263.733 33.8855L245.139 60.0433C244.825 60.4857 244.159 60.4579 243.883 59.9908L228.522 34.0375C224.206 26.7444 226.622 17.3331 233.917 13.0209C241.198 8.71773 250.588 11.1192 254.908 18.3893L263.758 33.2818Z" stroke="black" stroke-opacity="0.5" stroke-width="0.5"/>
<path d="M262.966 33.0506C263.122 33.312 263.109 33.6404 262.933 33.8887L245.351 58.7835C244.932 59.3758 244.042 59.3399 243.673 58.716L228.921 33.79C224.75 26.7422 227.085 17.6474 234.135 13.4802C241.171 9.32162 250.245 11.6424 254.42 18.6683L262.966 33.0506Z" fill="#DFE2E3"/>
<path d="M262.752 33.1783C262.856 33.3549 262.848 33.5767 262.729 33.7445L245.146 58.6393C244.833 59.0835 244.165 59.0566 243.888 58.5886L229.136 33.6627C225.036 26.7338 227.331 17.7923 234.262 13.6954C241.179 9.60698 250.1 11.8887 254.205 18.796L262.752 33.1783Z" stroke="black" stroke-opacity="0.5" stroke-width="0.5"/>
<path d="M262.46 32.1933C262.61 32.4469 262.598 32.7654 262.427 33.0061L244.803 57.8793C244.385 58.4705 243.496 58.4339 243.127 57.8103L228.918 33.7908C224.748 26.7421 227.084 17.6478 234.134 13.4807C241.17 9.32176 250.245 11.6424 254.421 18.6686L262.46 32.1933Z" fill="#DFE2E3"/>
<path d="M262.245 32.3211C262.345 32.4897 262.337 32.7015 262.223 32.8615L244.599 57.7348C244.285 58.1781 243.619 58.1507 243.342 57.683L229.133 33.6635C225.034 26.7337 227.33 17.7928 234.261 13.6959C241.179 9.60711 250.101 11.8886 254.206 18.7963L262.245 32.3211Z" stroke="black" stroke-opacity="0.5" stroke-width="0.5"/>
<path d="M260.243 28.4297C260.376 28.6536 260.36 28.9358 260.203 29.1435L241.913 53.2823C241.522 53.7985 240.732 53.7534 240.402 53.196L228.922 33.7947C224.75 26.744 227.086 17.6462 234.139 13.4776C241.174 9.31951 250.247 11.6365 254.427 18.6585L260.243 28.4297Z" fill="#DFE2E3"/>
<path d="M260.028 28.5576C260.109 28.694 260.1 28.866 260.004 28.9925L241.714 53.1313C241.43 53.5059 240.857 53.4732 240.618 53.0687L229.138 33.6674C225.036 26.7356 227.333 17.7912 234.266 13.6928C241.183 9.60482 250.103 11.8827 254.212 18.7864L260.028 28.5576Z" stroke="black" stroke-opacity="0.5" stroke-width="0.5"/>
<circle cx="241.691" cy="26.2501" r="14.6816" transform="rotate(119.414 241.691 26.2501)" fill="#DFE2E3"/>
<circle cx="241.691" cy="26.2501" r="14.4316" transform="rotate(119.414 241.691 26.2501)" stroke="black" stroke-opacity="0.5" stroke-width="0.5"/>
<mask id="mask2_19_227" style="mask-type:alpha" maskUnits="userSpaceOnUse" x="227" y="11" width="30" height="30">
<circle cx="241.691" cy="26.2501" r="14.6816" transform="rotate(119.414 241.691 26.2501)" fill="#DFE2E3"/>
<circle cx="241.691" cy="26.2501" r="14.4316" transform="rotate(119.414 241.691 26.2501)" stroke="black" stroke-opacity="0.5" stroke-width="0.5"/>
</mask>
<g mask="url(#mask2_19_227)">
<circle cx="234.972" cy="38.1681" r="2.87238" transform="rotate(119.414 234.972 38.1681)" fill="#0C0D0D"/>
<circle cx="248.41" cy="14.3322" r="2.87238" transform="rotate(119.414 248.41 14.3322)" fill="#0C0D0D"/>
<circle cx="253.609" cy="32.9693" r="2.87238" transform="rotate(119.414 253.609 32.9693)" fill="#0C0D0D"/>
<circle cx="229.773" cy="19.5309" r="2.87238" transform="rotate(119.414 229.773 19.5309)" fill="#0C0D0D"/>
</g>
<circle cx="241.691" cy="26.2501" r="10.2618" transform="rotate(119.414 241.691 26.2501)" fill="#656B6C"/>
<circle cx="241.691" cy="26.2501" r="10.0118" transform="rotate(119.414 241.691 26.2501)" stroke="black" stroke-opacity="0.5" stroke-width="0.5"/>
<circle cx="241.691" cy="26.2501" r="9.20958" transform="rotate(119.414 241.691 26.2501)" fill="#DFE2E3"/>
<circle cx="241.691" cy="26.2501" r="8.95958" transform="rotate(119.414 241.691 26.2501)" stroke="black" stroke-opacity="0.8" stroke-width="0.5"/>
<circle cx="241.691" cy="26.2501" r="5.94911" transform="rotate(119.414 241.691 26.2501)" fill="#DFE2E3"/>
<circle cx="241.691" cy="26.2501" r="5.69911" transform="rotate(119.414 241.691 26.2501)" stroke="black" stroke-opacity="0.2" stroke-width="0.5"/>
<path d="M304.651 102.071C304.482 101.802 304.17 101.658 303.855 101.703L272.097 106.333C271.381 106.437 271.01 107.244 271.396 107.856L287.497 133.357C292.095 140.639 301.728 142.813 309.008 138.211C316.273 133.618 318.449 124.011 313.874 116.736L304.651 102.071Z" fill="#DFE2E3"/>
<path d="M304.44 102.204C304.323 102.018 304.108 101.919 303.891 101.951L272.133 106.58C271.596 106.659 271.318 107.264 271.607 107.723L287.708 133.223C292.233 140.389 301.711 142.528 308.874 137.999C316.022 133.48 318.164 124.028 313.662 116.869L304.44 102.204Z" stroke="black" stroke-opacity="0.5" stroke-width="0.5"/>
<path d="M304.285 103.014C304.123 102.757 303.825 102.618 303.523 102.661L273.351 106.966C272.633 107.069 272.26 107.877 272.647 108.49L288.11 132.981C292.483 139.906 301.642 141.973 308.564 137.596C315.472 133.229 317.542 124.094 313.191 117.176L304.285 103.014Z" fill="#DFE2E3"/>
<path d="M304.073 103.147C303.964 102.973 303.762 102.88 303.559 102.909L273.386 107.214C272.848 107.291 272.568 107.897 272.858 108.357L288.322 132.848C292.62 139.656 301.625 141.687 308.431 137.385C315.222 133.092 317.257 124.111 312.98 117.309L304.073 103.147Z" stroke="black" stroke-opacity="0.5" stroke-width="0.5"/>
<path d="M304.817 103.856C304.66 103.606 304.37 103.472 304.078 103.514L273.907 107.865C273.189 107.969 272.817 108.777 273.204 109.389L288.108 132.984C292.482 139.907 301.641 141.973 308.564 137.597C315.472 133.229 317.543 124.094 313.192 117.175L304.817 103.856Z" fill="#DFE2E3"/>
<path d="M304.605 103.989C304.501 103.823 304.308 103.734 304.114 103.762L273.942 108.113C273.404 108.19 273.125 108.796 273.415 109.256L288.32 132.85C292.62 139.657 301.624 141.688 308.43 137.386C315.222 133.092 317.258 124.11 312.98 117.308L304.605 103.989Z" stroke="black" stroke-opacity="0.5" stroke-width="0.5"/>
<path d="M307.156 107.544C307.018 107.323 306.759 107.209 306.503 107.254L276.681 112.533C276.043 112.646 275.724 113.37 276.069 113.917L288.107 132.978C292.481 139.905 301.644 141.972 308.569 137.594C315.476 133.227 317.549 124.095 313.203 117.174L307.156 107.544Z" fill="#DFE2E3"/>
<path d="M306.945 107.677C306.86 107.543 306.703 107.473 306.547 107.5L276.725 112.779C276.262 112.861 276.03 113.386 276.281 113.784L288.318 132.844C292.619 139.654 301.627 141.686 308.435 137.382C315.226 133.089 317.264 124.111 312.991 117.307L306.945 107.677Z" stroke="black" stroke-opacity="0.5" stroke-width="0.5"/>
<circle cx="300.751" cy="125.184" r="14.6816" transform="rotate(-58.8717 300.751 125.184)" fill="#DFE2E3"/>
<circle cx="300.751" cy="125.184" r="14.4316" transform="rotate(-58.8717 300.751 125.184)" stroke="black" stroke-opacity="0.5" stroke-width="0.5"/>
<mask id="mask3_19_227" style="mask-type:alpha" maskUnits="userSpaceOnUse" x="286" y="110" width="30" height="30">
<circle cx="300.751" cy="125.184" r="14.6816" transform="rotate(-58.8717 300.751 125.184)" fill="#DFE2E3"/>
<circle cx="300.751" cy="125.184" r="14.4316" transform="rotate(-58.8717 300.751 125.184)" stroke="black" stroke-opacity="0.5" stroke-width="0.5"/>
</mask>
<g mask="url(#mask3_19_227)">
<circle cx="307.824" cy="113.472" r="2.87238" transform="rotate(-58.8717 307.824 113.472)" fill="#0C0D0D"/>
<circle cx="293.678" cy="136.895" r="2.87238" transform="rotate(-58.8717 293.678 136.895)" fill="#0C0D0D"/>
<circle cx="289.039" cy="118.111" r="2.87238" transform="rotate(-58.8717 289.039 118.111)" fill="#0C0D0D"/>
<circle cx="312.462" cy="132.257" r="2.87238" transform="rotate(-58.8717 312.462 132.257)" fill="#0C0D0D"/>
</g>
<circle cx="300.751" cy="125.184" r="10.2618" transform="rotate(-58.8717 300.751 125.184)" fill="#656B6C"/>
<circle cx="300.751" cy="125.184" r="10.0118" transform="rotate(-58.8717 300.751 125.184)" stroke="black" stroke-opacity="0.5" stroke-width="0.5"/>
<circle cx="300.751" cy="125.184" r="9.20958" transform="rotate(-58.8717 300.751 125.184)" fill="#DFE2E3"/>
<circle cx="300.751" cy="125.184" r="8.95958" transform="rotate(-58.8717 300.751 125.184)" stroke="black" stroke-opacity="0.8" stroke-width="0.5"/>
<circle cx="300.751" cy="125.184" r="5.94911" transform="rotate(-58.8717 300.751 125.184)" fill="#DFE2E3"/>
<circle cx="300.751" cy="125.184" r="5.69911" transform="rotate(-58.8717 300.751 125.184)" stroke="black" stroke-opacity="0.2" stroke-width="0.5"/>
<path d="M181.293 157.333L166.825 170.143L165.664 169.646L179.205 155.595L181.293 157.333Z" stroke="black" stroke-opacity="0.5" stroke-width="0.5" stroke-linecap="round"/>
<path d="M14.1959 242.091L27.3313 227.957L28.5372 228.354L17.8223 242.279L14.1959 242.091Z" stroke="black" stroke-opacity="0.5" stroke-width="0.5" stroke-linecap="round"/>
<path d="M12.8018 157.031L27.1244 170.004L28.2902 169.52L14.9092 155.317L12.8018 157.031Z" stroke="black" stroke-opacity="0.5" stroke-width="0.5" stroke-linecap="round"/>
<path d="M190.337 232.249L175.492 221.424L175.695 220.26L191.473 229.952L190.337 232.249Z" stroke="black" stroke-opacity="0.5" stroke-width="0.5" stroke-linecap="round"/>
<path d="M175.728 177.568L175.309 176.801L190.654 166.154L190.92 168.864L175.728 177.568Z" stroke="black" stroke-opacity="0.5" stroke-width="0.5" stroke-linecap="round"/>
<path d="M18.0836 220.847L18.8997 221.608L3.68155 232.702L2.68937 230.255L18.0836 220.847Z" stroke="black" stroke-opacity="0.5" stroke-width="0.5" stroke-linecap="round"/>
<path d="M18.4251 177.245L18.7927 176.453L2.78811 166.826L2.69839 169.548L18.4251 177.245Z" stroke="black" stroke-opacity="0.5" stroke-width="0.5" stroke-linecap="round"/>
<path d="M165.86 228.216L166.639 227.645L180.351 241.759L177.467 242.471L165.86 228.216Z" stroke="black" stroke-opacity="0.5" stroke-width="0.5" stroke-linecap="round"/>
<rect x="69.5107" y="169.438" width="54.7768" height="58.9023" fill="#DFE2E3"/>
<rect x="69.7607" y="169.688" width="54.2768" height="58.4023" stroke="black" stroke-opacity="0.5" stroke-width="0.5"/>
<path d="M15.9367 136.977L2.90899 144.241C1.87101 144.819 1.41373 146.071 1.83429 147.183C1.99701 147.613 2.27997 147.987 2.64944 148.261L3.40016 148.817C3.77873 149.097 4.21801 149.284 4.68245 149.363L5.91428 149.573C6.7752 149.72 7.65724 149.484 8.3301 148.927L18.0519 140.883C18.5472 140.474 18.5073 139.702 17.9725 139.346C17.8486 139.263 17.7456 139.153 17.6716 139.023L17.0321 137.904C16.9737 137.802 16.9429 137.686 16.9429 137.568C16.9429 137.052 16.3878 136.726 15.9367 136.977Z" stroke="black" stroke-opacity="0.5" stroke-width="0.5" stroke-linecap="round"/>
<path d="M18.9825 108.879L7.90962 98.6273C7.06051 97.8411 5.83496 97.6134 4.76013 98.0421L4.56055 98.1217C3.72557 98.4547 3.08392 99.1446 2.81222 100.002L2.49631 100.998C2.40333 101.291 2.356 101.597 2.356 101.905L2.356 102.449C2.356 103.512 2.91843 104.496 3.8345 105.035L15.9088 112.14C16.4674 112.469 17.1858 112.179 17.3604 111.555C17.4017 111.408 17.4768 111.272 17.5797 111.158L18.441 110.208C18.5201 110.121 18.6206 110.055 18.7326 110.019C19.2235 109.859 19.3614 109.23 18.9825 108.879Z" stroke="black" stroke-opacity="0.5" stroke-width="0.5" stroke-linecap="round"/>
<path d="M53.6324 145.186L56.3866 151.96" stroke="black" stroke-opacity="0.5" stroke-width="0.5" stroke-linecap="round"/>
<path d="M17.1996 107.432L16.1812 108.026C15.4048 108.479 14.7773 109.148 14.3754 109.952V109.952C14.0544 110.594 13.8873 111.302 13.8873 112.02V137.115C13.8873 137.717 13.996 138.314 14.2083 138.877L14.4214 139.443C14.792 140.427 15.463 141.268 16.3392 141.849L16.7385 142.113" stroke="black" stroke-opacity="0.5" stroke-width="0.5" stroke-linecap="round"/>
<path d="M100.939 68.3243L132.813 87.5443" stroke="black" stroke-opacity="0.5" stroke-width="0.5" stroke-linecap="round"/>
<path d="M256.458 87.4326L288.576 68.6214" stroke="black" stroke-opacity="0.5" stroke-width="0.5" stroke-linecap="round"/>
<path d="M162.483 8.81L171.992 14.051C172.202 14.1668 172.12 14.4863 171.88 14.4863V14.4863C171.788 14.4863 171.705 14.5407 171.668 14.625L171.606 14.7665C171.493 15.0219 171.184 15.1233 170.942 14.9841L167.788 13.1683C162.984 10.4029 157.556 8.9032 152.014 8.81V8.81" stroke="black" stroke-opacity="0.5" stroke-width="0.5" stroke-linecap="round"/>
<path d="M225.948 8.81L216.439 14.051C216.229 14.1668 216.311 14.4863 216.551 14.4863V14.4863C216.643 14.4863 216.726 14.5407 216.763 14.625L216.826 14.7665C216.938 15.0219 217.247 15.1233 217.489 14.9841L220.643 13.1683C225.447 10.4029 230.875 8.9032 236.417 8.81V8.81" stroke="black" stroke-opacity="0.5" stroke-width="0.5" stroke-linecap="round"/>
<path d="M175.166 37.3246L168.43 42.5121L168.614 43.4726L170.338 43.4397L176.083 37.9457C176.196 37.8377 176.12 37.6471 175.963 37.6471C175.9 37.6471 175.842 37.6129 175.812 37.5579L175.749 37.445C175.633 37.2351 175.356 37.178 175.166 37.3246Z" stroke="black" stroke-opacity="0.5" stroke-width="0.5" stroke-linecap="round"/>
<path d="M212.455 37.0276L219.199 42.5121L219.011 43.4397H217.291L211.234 37.6471L211.657 37.6383C212.027 37.6306 212.351 37.3835 212.455 37.0276Z" stroke="black" stroke-opacity="0.5" stroke-width="0.5" stroke-linecap="round"/>
<path d="M167.954 11.7932V11.7932C167.44 12.4787 167.236 13.348 167.392 14.1906L171.796 38.0216C171.988 39.0591 172.677 39.9366 173.639 40.3696V40.3696" stroke="black" stroke-opacity="0.5" stroke-width="0.5" stroke-linecap="round"/>
<path d="M220.271 11.8478V11.8478C220.768 12.5459 220.95 13.42 220.773 14.2585L215.775 37.9719C215.557 39.0044 214.847 39.8644 213.874 40.2732V40.2732" stroke="black" stroke-opacity="0.5" stroke-width="0.5" stroke-linecap="round"/>
<path d="M173.558 40.3508H213.781" stroke="black" stroke-opacity="0.5" stroke-width="0.5" stroke-linecap="round"/>
<path d="M185.683 37.7406V44.6062" stroke="black" stroke-opacity="0.5" stroke-width="0.5" stroke-linecap="round"/>
<path d="M185.683 7.51208V14.3776" stroke="black" stroke-opacity="0.5" stroke-width="0.5" stroke-linecap="round"/>
<path d="M202.923 37.7406V44.6062" stroke="black" stroke-opacity="0.5" stroke-width="0.5" stroke-linecap="round"/>
<path d="M202.923 7.51208V14.3776" stroke="black" stroke-opacity="0.5" stroke-width="0.5" stroke-linecap="round"/>
<path d="M312.683 108.807H315.27C315.904 108.807 316.532 108.927 317.12 109.161L321.493 110.903C321.971 111.093 322.432 111.324 322.87 111.592L329.579 115.702C329.758 115.811 329.744 116.076 329.554 116.165L329.517 116.183C329.447 116.216 329.403 116.286 329.403 116.362V116.362C329.403 116.518 329.233 116.613 329.101 116.531L322.459 112.433C322.039 112.173 321.598 111.949 321.141 111.761L317.269 110.167C316.584 109.886 315.846 109.76 315.107 109.798L313.161 109.899" stroke="black" stroke-opacity="0.5" stroke-width="0.5" stroke-linecap="round"/>
<path d="M332.582 132.767L332.529 132.997C332.17 134.532 331.389 135.936 330.274 137.05V137.05C329.249 138.076 327.976 138.82 326.58 139.212L324.532 139.787C324.093 139.911 323.638 139.973 323.181 139.973H310.367" stroke="black" stroke-opacity="0.5" stroke-width="0.5" stroke-linecap="round"/>
<path d="M333.508 133.689L333.33 134.193C332.86 135.527 332.097 136.739 331.097 137.739V137.739C329.949 138.886 328.526 139.719 326.964 140.158L325.169 140.661C324.729 140.785 324.275 140.847 323.818 140.847H311.004" stroke="black" stroke-opacity="0.5" stroke-width="0.5" stroke-linecap="round"/>
<path d="M360.061 108.527L350.901 116.085" stroke="black" stroke-opacity="0.5" stroke-width="0.5" stroke-linecap="round"/>
<path d="M351.817 116.87L360.127 109.934" stroke="black" stroke-opacity="0.5" stroke-width="0.5" stroke-linecap="round"/>
<path d="M351.817 133.392L360.192 139.87" stroke="black" stroke-opacity="0.5" stroke-width="0.5" stroke-linecap="round"/>
<path d="M351.064 133.948L360.192 141.506" stroke="black" stroke-opacity="0.5" stroke-width="0.5" stroke-linecap="round"/>
<path d="M322.236 111.291V111.291C321.941 111.881 321.873 112.559 322.044 113.195L328.465 137.121C328.664 137.864 329.074 138.533 329.644 139.05V139.05" stroke="black" stroke-opacity="0.5" stroke-width="0.5" stroke-linecap="round"/>
<path d="M341.935 108.595V115.976" stroke="black" stroke-opacity="0.5" stroke-width="0.5" stroke-linecap="round"/>
<path d="M341.935 133.689V141.07" stroke="black" stroke-opacity="0.5" stroke-width="0.5" stroke-linecap="round"/>
<path d="M340.91 20.7874H364.988" stroke="black" stroke-opacity="0.5" stroke-width="0.5" stroke-linecap="round"/>
<path d="M335.135 50.2043H366.949" stroke="black" stroke-opacity="0.5" stroke-width="0.5" stroke-linecap="round"/>
<path d="M18.2631 108.296L7.943 98.4101C7.18049 97.6797 6.05691 97.4722 5.08375 97.8819C4.45613 98.1462 3.95445 98.6421 3.68293 99.2666L3.13739 100.521C2.87997 101.113 2.73965 101.75 2.72419 102.395L1.72546 144.092C1.68516 145.774 2.49413 147.364 3.87798 148.322L4.04345 148.437C4.79518 148.957 5.67522 149.262 6.58785 149.317L54.6374 152.221L108.909 153.306C108.951 153.307 108.993 153.305 109.035 153.3C110.048 153.169 110.006 151.689 108.987 151.615L85.3366 149.912L20.6717 140.41C19.462 140.232 18.379 139.564 17.6778 138.562C17.1551 137.815 16.8747 136.926 16.8747 136.014V113.426C16.8747 112.599 17.1561 111.797 17.6726 111.152L17.8376 110.945C17.9198 110.843 18.0146 110.751 18.1199 110.672C18.8907 110.094 18.9589 108.962 18.2631 108.296Z" fill="#C6CDD0" style="mix-blend-mode:multiply"/>
<path d="M139.234 13.4435H133.971L129.187 19.344L79.2729 105.777L77.8377 107.691L73.8509 110.561L70.9804 114.069L67.9505 121.405V130.016L70.9804 137.193L74.9672 143.093L83.1002 147.08H88.2032L92.3495 140.542H85.0138L77.8377 135.757L74.9672 130.016L73.8509 125.232L74.9672 121.405L83.1002 105.777L86.1301 103.385L125.2 36.5668L126.955 31.3043L133.971 18.2277L139.234 13.4435Z" fill="#C6CDD0" style="mix-blend-mode:multiply"/>
<path d="M163.1 8.80267H151.987L163.1 11.4175L168.657 43.4493H218.666L211.802 37.5659H175.521L171.054 15.5577L172.47 14.686L163.1 8.80267Z" fill="#C6CDD0" style="mix-blend-mode:multiply"/>
<path d="M225.521 18.8288L231.633 15.2971L229.596 17.4705L227.83 21.2739L226.879 26.0282L227.83 31.0542L230.682 35.8085L243.587 58.4933H244.945L246.575 59.7158L274.422 106.308L273.607 107.938V108.753L288.006 132.932L293.847 137.551L298.737 139.045H304.306L309.74 136.6V137.551L300.639 142.984H294.934L288.006 139.045L283.523 132.932L279.584 130.759L242.636 68.0019L243.587 65.1493L224.57 33.4993L223.619 24.2623L225.521 18.8288Z" fill="#C6CDD0" style="mix-blend-mode:multiply"/>
<path d="M16.7289 239.386L14.4455 242.096H179.83C180.162 242.02 180.285 241.611 180.049 241.365L178.158 239.386H166.016H28.2595H16.7289Z" fill="#454A4A" style="mix-blend-mode:multiply"/>
<path d="M166.016 228.026H28.2596L22.5063 224.731L18.1326 220.716L2.57703 230.34L3.58328 232.707L14.3622 242.218L16.6564 239.25L36.9292 239.4L57.133 239.383L97.5405 239.351L178.356 239.286L166.729 227.49L166.016 228.026Z" fill="#919191" style="mix-blend-mode:multiply"/>
<circle cx="168.949" cy="221.716" r="1" fill="#DFE2E3"/>
<circle cx="168.949" cy="221.716" r="1.25" stroke="black" stroke-opacity="0.6" stroke-width="0.5"/>
<circle cx="23.8068" cy="221.716" r="1" fill="#DFE2E3"/>
<circle cx="23.8068" cy="221.716" r="1.25" stroke="black" stroke-opacity="0.6" stroke-width="0.5"/>
<circle cx="168.949" cy="176.912" r="1" fill="#DFE2E3"/>
<circle cx="168.949" cy="176.912" r="1.25" stroke="black" stroke-opacity="0.6" stroke-width="0.5"/>
<circle cx="148.095" cy="146.275" r="1" fill="#DFE2E3"/>
<circle cx="148.095" cy="146.275" r="1.25" stroke="black" stroke-opacity="0.6" stroke-width="0.5"/>
<circle cx="105.526" cy="147.47" r="1" fill="#DFE2E3"/>
<circle cx="105.526" cy="147.47" r="1.25" stroke="black" stroke-opacity="0.6" stroke-width="0.5"/>
<circle cx="116.709" cy="120.085" r="1" fill="#DFE2E3"/>
<circle cx="116.709" cy="120.085" r="1.25" stroke="black" stroke-opacity="0.6" stroke-width="0.5"/>
<circle cx="90.3254" cy="101.467" r="1" fill="#DFE2E3"/>
<circle cx="90.3254" cy="101.467" r="1.25" stroke="black" stroke-opacity="0.6" stroke-width="0.5"/>
<circle cx="114.194" cy="104.067" r="1" fill="#DFE2E3"/>
<circle cx="114.194" cy="104.067" r="1.25" stroke="black" stroke-opacity="0.6" stroke-width="0.5"/>
<circle cx="140.12" cy="59.1106" r="1" fill="#DFE2E3"/>
<circle cx="140.12" cy="59.1106" r="1.25" stroke="black" stroke-opacity="0.6" stroke-width="0.5"/>
<circle cx="125.616" cy="40.1734" r="1" fill="#DFE2E3"/>
<circle cx="125.616" cy="40.1734" r="1.25" stroke="black" stroke-opacity="0.6" stroke-width="0.5"/>
<circle cx="174.558" cy="17.1157" r="1" fill="#DFE2E3"/>
<circle cx="174.558" cy="17.1157" r="1.25" stroke="black" stroke-opacity="0.6" stroke-width="0.5"/>
<circle cx="213.781" cy="17.1157" r="1" fill="#DFE2E3"/>
<circle cx="213.781" cy="17.1157" r="1.25" stroke="black" stroke-opacity="0.6" stroke-width="0.5"/>
<circle cx="262.783" cy="40.3696" r="1" fill="#DFE2E3"/>
<circle cx="262.783" cy="40.3696" r="1.25" stroke="black" stroke-opacity="0.6" stroke-width="0.5"/>
<circle cx="249.501" cy="59.0579" r="1" fill="#DFE2E3"/>
<circle cx="249.501" cy="59.0579" r="1.25" stroke="black" stroke-opacity="0.6" stroke-width="0.5"/>
<circle cx="275.329" cy="103.571" r="1" fill="#DFE2E3"/>
<circle cx="275.329" cy="103.571" r="1.25" stroke="black" stroke-opacity="0.6" stroke-width="0.5"/>
<circle cx="298.231" cy="100.222" r="1" fill="#DFE2E3"/>
<circle cx="298.231" cy="100.222" r="1.25" stroke="black" stroke-opacity="0.6" stroke-width="0.5"/>
<circle cx="349.487" cy="118.426" r="1" fill="#DFE2E3"/>
<circle cx="349.487" cy="118.426" r="1.25" stroke="black" stroke-opacity="0.6" stroke-width="0.5"/>
<circle cx="349.487" cy="131.353" r="1" fill="#DFE2E3"/>
<circle cx="349.487" cy="131.353" r="1.25" stroke="black" stroke-opacity="0.6" stroke-width="0.5"/>
<circle cx="178.057" cy="35.0112" r="1" fill="#DFE2E3"/>
<circle cx="178.057" cy="35.0112" r="1.25" stroke="black" stroke-opacity="0.6" stroke-width="0.5"/>
<circle cx="209.89" cy="35.0112" r="1" fill="#DFE2E3"/>
<circle cx="209.89" cy="35.0112" r="1.25" stroke="black" stroke-opacity="0.6" stroke-width="0.5"/>
<circle cx="70.7043" cy="105.659" r="1" fill="#DFE2E3"/>
<circle cx="70.7043" cy="105.659" r="1.25" stroke="black" stroke-opacity="0.6" stroke-width="0.5"/>
<circle cx="20.0457" cy="112.412" r="1" fill="#DFE2E3"/>
<circle cx="20.0457" cy="112.412" r="1.25" stroke="black" stroke-opacity="0.6" stroke-width="0.5"/>
<circle cx="20.0457" cy="137.416" r="1" fill="#DFE2E3"/>
<circle cx="20.0457" cy="137.416" r="1.25" stroke="black" stroke-opacity="0.6" stroke-width="0.5"/>
<circle cx="70.7043" cy="145.186" r="1" fill="#DFE2E3"/>
<circle cx="70.7043" cy="145.186" r="1.25" stroke="black" stroke-opacity="0.6" stroke-width="0.5"/>
<circle cx="150.714" cy="143.964" r="1" fill="#DFE2E3"/>
<circle cx="150.714" cy="143.964" r="1.25" stroke="black" stroke-opacity="0.6" stroke-width="0.5"/>
<circle cx="23.8068" cy="176.912" r="1" fill="#DFE2E3"/>
<circle cx="23.8068" cy="176.912" r="1.25" stroke="black" stroke-opacity="0.6" stroke-width="0.5"/>
<rect x="19.5985" y="242.096" width="14.2809" height="2.04333" fill="#262B2C"/>
<rect x="160.586" y="242.096" width="14.2809" height="2.04333" fill="#262B2C"/>
</svg>
