<svg width="519" height="343" viewBox="0 0 519 343" fill="none" xmlns="http://www.w3.org/2000/svg">
<path d="M170.284 111.893C170.284 111.341 170.731 110.893 171.284 110.893H345.728C346.061 110.893 346.371 111.058 346.557 111.334L355.517 124.614C355.965 125.278 355.489 126.173 354.688 126.173H171.284C170.731 126.173 170.284 125.725 170.284 125.173L170.284 111.893Z" fill="#DFE2E3"/>
<path d="M171.284 111.393H345.728C345.895 111.393 346.05 111.476 346.143 111.613L355.103 124.893C355.327 125.225 355.089 125.673 354.688 125.673H171.284C171.007 125.673 170.784 125.449 170.784 125.173L170.784 111.893C170.784 111.617 171.007 111.393 171.284 111.393Z" stroke="black" stroke-opacity="0.5"/>
<path d="M171.983 113.334C171.983 112.781 172.431 112.334 172.983 112.334H344.801C345.133 112.334 345.443 112.498 345.629 112.773L354.429 125.757C354.879 126.421 354.403 127.318 353.601 127.318H172.984C172.431 127.318 171.984 126.871 171.984 126.318L171.983 113.334Z" fill="#DFE2E3"/>
<path d="M172.983 112.584H344.801C345.05 112.584 345.283 112.707 345.422 112.913L354.222 125.898C354.56 126.396 354.203 127.068 353.601 127.068H172.984C172.569 127.068 172.234 126.733 172.234 126.318L172.233 113.334C172.233 112.919 172.569 112.584 172.983 112.584Z" stroke="black" stroke-opacity="0.5" stroke-width="0.5"/>
<rect x="151.58" y="112.346" width="19.2127" height="10.3649" fill="#DFE2E3"/>
<rect x="151.83" y="112.596" width="18.7127" height="9.86495" stroke="black" stroke-opacity="0.5" stroke-width="0.5"/>
<rect x="162.522" y="111.896" width="2.30888" height="11.265" fill="#DFE2E3"/>
<rect x="162.772" y="112.146" width="1.80888" height="10.765" stroke="black" stroke-opacity="0.8" stroke-width="0.5"/>
<rect x="166.111" y="111.896" width="2.30888" height="11.265" fill="#DFE2E3"/>
<rect x="166.361" y="112.146" width="1.80888" height="10.765" stroke="black" stroke-opacity="0.8" stroke-width="0.5"/>
<path d="M129.646 112.37C129.285 111.703 129.767 110.893 130.525 110.893H151.094C151.646 110.893 152.094 111.341 152.094 111.893V125.173C152.094 125.725 151.646 126.173 151.094 126.173H137.725C137.358 126.173 137.021 125.972 136.846 125.649L129.646 112.37Z" fill="#DFE2E3"/>
<path d="M130.525 111.393H151.094C151.37 111.393 151.594 111.617 151.594 111.893V125.173C151.594 125.449 151.37 125.673 151.094 125.673H137.725C137.542 125.673 137.373 125.572 137.285 125.411L130.086 112.131C129.905 111.798 130.146 111.393 130.525 111.393Z" stroke="black" stroke-opacity="0.5"/>
<path d="M112.753 134.643L149.8 122.706L183.197 119.794H252.994H322.79H356.098L376.35 129.645L392.587 137.154V159.105V176.006L379.524 184.712L356.806 198.417H306.942H221.297L134.938 178.011L112.753 134.643Z" fill="#DFE2E3"/>
<path d="M376.132 130.095L376.14 130.099L392.087 137.474V159.105V175.739L379.256 184.29L356.666 197.917H306.942H221.355L135.278 177.578L113.466 134.938L149.9 123.199L183.219 120.294H252.994H322.79H355.983L376.132 130.095Z" stroke="black" stroke-opacity="0.5"/>
<path d="M203.045 140.726L203.957 143.309L206.101 152.535H147.196L145.427 153.331V155.188L152.206 175.439L152.667 175.861L154.191 176.021L213.532 176.593L215.812 188.296L194.23 181.913L135.566 177.961L117.632 143.309L185.112 119.753L203.045 140.726Z" fill="#E2E7EA" style="mix-blend-mode:multiply"/>
<path d="M137.84 147.573L122.026 145.796L137.07 175.647L148.797 176.713L137.84 147.573Z" fill="#909090" style="mix-blend-mode:multiply"/>
<path d="M137.84 147.573L122.026 145.796L137.07 175.647L148.797 176.713L137.84 147.573Z" stroke="black" stroke-opacity="0.5" stroke-width="0.5"/>
<path d="M321.459 190.04H296.959V198.04H325.959L321.459 190.04Z" fill="#909090" style="mix-blend-mode:multiply"/>
<path d="M321.459 190.04H296.959V198.04H325.959L321.459 190.04Z" stroke="black" stroke-opacity="0.5" stroke-width="0.5" stroke-linecap="round"/>
<path d="M296.959 190.04V188.04H347.459L356.459 182.54L391.459 176.04L356.459 198.04H349.959L336.459 190.04H296.959Z" fill="#909090" style="mix-blend-mode:multiply"/>
<path d="M296.959 190.04V188.04H347.459L356.459 182.54L391.459 176.04L356.459 198.04H349.959L336.459 190.04H296.959Z" stroke="black" stroke-opacity="0.5" stroke-width="0.5" stroke-linecap="round"/>
<path d="M194.459 181.917L135.959 177.417L178.959 187.917L200.459 193.167L211.209 195.792L221.319 198.417H296.959V187.917H215.459L194.459 181.917Z" fill="#909090" style="mix-blend-mode:multiply"/>
<path d="M194.459 181.917L135.959 177.417L178.959 187.917L200.459 193.167L211.209 195.792L221.319 198.417H296.959V187.917H215.459L194.459 181.917Z" stroke="black" stroke-opacity="0.5" stroke-width="0.5" stroke-linecap="round"/>
<path d="M185.042 120.231L202.595 140.761" stroke="black" stroke-opacity="0.5" stroke-width="0.5"/>
<path d="M181.014 121.576L198.37 141.93" stroke="black" stroke-opacity="0.5" stroke-width="0.5"/>
<path d="M182.763 120.754L117.69 142.752" stroke="black" stroke-opacity="0.6"/>
<path d="M236.168 62.3353L248.743 56.8725C248.868 56.8179 249.004 56.7897 249.141 56.7897H280.676C280.915 56.7897 281.147 56.8758 281.329 57.0323L289.624 64.1838L298.093 72.3097C298.29 72.4983 298.401 72.7589 298.401 73.0313V99.3329C298.401 99.8852 297.953 100.333 297.401 100.333H259.505H232.813C232.535 100.333 232.27 100.217 232.081 100.014L227.79 95.4035L220.873 87.8856C220.703 87.701 220.609 87.4594 220.609 87.2085V70.7573C220.609 70.379 220.823 70.0331 221.161 69.8635L236.168 62.3353Z" fill="#DFE2E3"/>
<path d="M281.002 57.411L289.288 64.5538L297.747 72.6705C297.845 72.7648 297.901 72.8951 297.901 73.0313V99.3329C297.901 99.6091 297.677 99.8329 297.401 99.8329H259.505H232.813C232.674 99.8329 232.542 99.7752 232.447 99.6735L228.158 95.0649L228.156 95.0628L221.241 87.5471C221.156 87.4548 221.109 87.3339 221.109 87.2085V70.7573C221.109 70.5682 221.216 70.3952 221.385 70.3104L236.379 62.7884L248.942 57.3311C249.005 57.3038 249.073 57.2897 249.141 57.2897H280.676C280.796 57.2897 280.911 57.3327 281.002 57.411Z" stroke="black" stroke-opacity="0.5"/>
<path d="M195.372 73.0651L197.475 70.5582C197.665 70.3317 197.946 70.2009 198.241 70.2009L245.815 70.2009H297.401C297.953 70.2009 298.401 70.6486 298.401 71.2009V93.1953C298.401 93.7475 297.953 94.1953 297.401 94.1953H245.815H198.184C197.922 94.1953 197.67 94.0926 197.484 93.9094L195.372 91.8396L193.51 89.9139C193.33 89.7274 193.229 89.4782 193.229 89.2188L193.229 82.1981V75.8763C193.229 75.6331 193.318 75.3981 193.479 75.2155L195.372 73.0651Z" fill="#DFE2E3"/>
<path d="M195.747 73.3955L195.748 73.3956L195.755 73.3865L197.858 70.8796C197.953 70.7663 198.094 70.7009 198.241 70.7009L245.815 70.7009H297.401C297.677 70.7009 297.901 70.9248 297.901 71.2009V93.1953C297.901 93.4714 297.677 93.6953 297.401 93.6953H245.815H198.184C198.053 93.6953 197.927 93.6439 197.834 93.5523L195.727 91.4873L193.87 89.5664C193.78 89.4731 193.729 89.3485 193.729 89.2188L193.729 82.1981V75.8763C193.729 75.7547 193.774 75.6372 193.854 75.5459L195.747 73.3955Z" stroke="black" stroke-opacity="0.5"/>
<path d="M297.406 73.2177H367.389C367.941 73.2177 368.389 73.6654 368.389 74.2177V96.5183C368.389 97.0706 367.941 97.5183 367.389 97.5183H297.406V73.2177Z" fill="#DFE2E3"/>
<path d="M297.906 73.7177H367.389C367.665 73.7177 367.889 73.9415 367.889 74.2177V96.5183C367.889 96.7944 367.665 97.0183 367.389 97.0183H297.906V73.7177Z" stroke="black" stroke-opacity="0.5"/>
<path d="M237.286 69.94C237.286 68.2831 238.629 66.94 240.286 66.94H252.113H259.526H263.233L266.939 71.1141V75.2882V83.6365V100.333H237.286V69.94Z" fill="#DFE2E3"/>
<path d="M237.786 99.8329V69.94C237.786 68.5593 238.905 67.44 240.286 67.44H252.113H259.526H263.008L266.439 71.3041V75.2882V83.6365V99.8329H237.786Z" stroke="black" stroke-opacity="0.5"/>
<path d="M241.747 103.992H268.258H294.951L311.925 111.566H222.675L241.747 103.992Z" fill="#DFE2E3"/>
<path d="M268.258 104.492H294.844L309.577 111.066H225.288L241.843 104.492H268.258Z" stroke="black" stroke-opacity="0.5"/>
<rect x="237.603" y="70.9477" width="29.3361" height="28.527" rx="14.2635" fill="#DFE2E3"/>
<rect x="238.103" y="71.4477" width="28.3361" height="27.527" rx="13.7635" stroke="black" stroke-opacity="0.5"/>
<path d="M244.354 92.9433C237.176 82.1839 251.59 70.2264 260.839 79.2685L263.31 81.6843L266.229 85.2159L294.284 111.567H249.757V105.12C249.757 104.072 249.631 103.028 249.381 102.01V102.01C249.032 100.587 248.445 99.2331 247.646 98.0049L244.354 92.9433V92.9433Z" fill="#DFE2E3"/>
<path d="M244.354 92.9433L244.77 92.6659C237.925 82.406 251.67 71.0038 260.489 79.626L262.941 82.0233L265.844 85.5345L265.864 85.5588L265.887 85.5803L293.021 111.067H250.257V105.12C250.257 104.032 250.126 102.948 249.866 101.891C249.504 100.414 248.895 99.0076 248.065 97.7323L244.773 92.6707L244.354 92.9433Z" stroke="black" stroke-opacity="0.5"/>
<path d="M332.676 142.658L354.962 150.729L352.554 155.471L352.318 155.937L352.794 156.153L356.323 157.751L359.608 182.52L347.582 189.786H215.766L187.407 182.376L181.574 148.398L198.977 141.084H312.937L322.424 144.93L322.57 144.99L322.724 144.954L332.676 142.658Z" stroke="black" stroke-opacity="0.5"/>
<path d="M204.62 142.575L188.19 149.48L194.629 182.631L215.996 188.295H347.542L357.138 182.311L353.877 160.053L351.491 158.785L352.828 156.461L352.33 156.125L348.612 163.862L326.501 157.195L322.104 150.534L318.842 146.003L309.633 142.575H204.62Z" fill="#DFE2E3"/>
<path d="M351.972 157.448L352.43 156.494L352.495 156.538L351.972 157.448ZM348.838 163.97L351.254 158.942L351.374 159.006L353.648 160.214L356.867 182.185L347.471 188.045H216.029L194.845 182.43L188.474 149.632L204.671 142.825H309.588L318.683 146.211L321.896 150.671L321.902 150.68L326.292 157.333L326.342 157.409L326.429 157.435L348.54 164.101L348.745 164.163L348.838 163.97Z" stroke="black" stroke-opacity="0.5" stroke-width="0.5"/>
<rect x="147.687" y="212.828" width="223.637" height="52.022" fill="#DFE2E3"/>
<rect x="148.187" y="213.328" width="222.637" height="51.022" stroke="black" stroke-opacity="0.5"/>
<rect x="147.687" y="212.828" width="223.637" height="52.022" fill="#7E8080"/>
<rect x="148.187" y="213.328" width="222.637" height="51.022" stroke="black" stroke-opacity="0.5"/>
<rect x="219.459" y="264.54" width="80" height="3" fill="#7E8080"/>
<rect x="219.959" y="265.04" width="79" height="2" stroke="black" stroke-opacity="0.5"/>
<rect x="219.459" y="266.54" width="80" height="4" rx="1" fill="#7E8080"/>
<rect x="219.959" y="267.04" width="79" height="3" rx="0.5" stroke="black" stroke-opacity="0.5"/>
<rect width="83.5525" height="4" rx="1" transform="matrix(1 0 0 -1 217.182 212.729)" fill="#C6CDD0"/>
<rect x="0.5" y="-0.5" width="82.5525" height="3" rx="0.5" transform="matrix(1 0 0 -1 217.182 211.729)" stroke="black" stroke-opacity="0.5"/>
<rect width="68.3783" height="4" rx="1" transform="matrix(1 0 0 -1 224.77 207.03)" fill="#C6CDD0"/>
<rect x="0.5" y="-0.5" width="67.3783" height="3" rx="0.5" transform="matrix(1 0 0 -1 224.77 206.03)" stroke="black" stroke-opacity="0.5"/>
<path d="M219.459 269.54H299.459L295.929 276.54H222.988L219.459 269.54Z" fill="#7E8080"/>
<path d="M223.296 276.04L220.271 270.04H298.647L295.622 276.04H223.296Z" stroke="black" stroke-opacity="0.5"/>
<mask id="path-54-inside-1_35_23652" fill="white">
<path fill-rule="evenodd" clip-rule="evenodd" d="M220.459 197.365C219.907 197.365 219.459 197.813 219.459 198.365V200.365C219.459 200.406 219.461 200.446 219.466 200.485H219.459L219.467 200.496C219.515 200.859 219.758 201.162 220.087 201.294L222.988 205.03H295.929L298.831 201.294C299.16 201.162 299.403 200.859 299.45 200.496L299.459 200.485H299.452C299.456 200.446 299.459 200.406 299.459 200.365V198.365C299.459 197.813 299.011 197.365 298.459 197.365H220.459Z"/>
</mask>
<path fill-rule="evenodd" clip-rule="evenodd" d="M220.459 197.365C219.907 197.365 219.459 197.813 219.459 198.365V200.365C219.459 200.406 219.461 200.446 219.466 200.485H219.459L219.467 200.496C219.515 200.859 219.758 201.162 220.087 201.294L222.988 205.03H295.929L298.831 201.294C299.16 201.162 299.403 200.859 299.45 200.496L299.459 200.485H299.452C299.456 200.446 299.459 200.406 299.459 200.365V198.365C299.459 197.813 299.011 197.365 298.459 197.365H220.459Z" fill="#C6CDD0"/>
<path d="M219.466 200.485V201.485H220.592L220.459 200.366L219.466 200.485ZM219.459 200.485V199.485H217.416L218.669 201.098L219.459 200.485ZM219.467 200.496L220.459 200.366L220.424 200.097L220.257 199.883L219.467 200.496ZM220.087 201.294L220.877 200.68L220.71 200.466L220.459 200.366L220.087 201.294ZM222.988 205.03L222.198 205.643L222.499 206.03H222.988V205.03ZM295.929 205.03V206.03H296.419L296.719 205.643L295.929 205.03ZM298.831 201.294L298.459 200.366L298.207 200.466L298.041 200.68L298.831 201.294ZM299.45 200.496L298.661 199.882L298.494 200.097L298.459 200.366L299.45 200.496ZM299.459 200.485L300.249 201.098L301.502 199.485H299.459V200.485ZM299.452 200.485L298.459 200.366L298.325 201.485H299.452V200.485ZM220.459 198.365V196.365C219.354 196.365 218.459 197.261 218.459 198.365H220.459ZM220.459 200.365V198.365H218.459V200.365H220.459ZM220.459 200.366C220.459 200.366 220.459 200.366 220.459 200.365H218.459C218.459 200.445 218.464 200.525 218.473 200.604L220.459 200.366ZM219.459 201.485H219.466V199.485H219.459V201.485ZM220.257 199.883L220.249 199.872L218.669 201.098L218.677 201.109L220.257 199.883ZM220.459 200.366L220.459 200.366L218.476 200.625C218.571 201.356 219.057 201.958 219.715 202.222L220.459 200.366ZM223.778 204.416L220.877 200.68L219.297 201.907L222.198 205.643L223.778 204.416ZM295.929 204.03H222.988V206.03H295.929V204.03ZM298.041 200.68L295.14 204.416L296.719 205.643L299.621 201.907L298.041 200.68ZM298.459 200.366L298.459 200.366L299.203 202.222C299.86 201.958 300.347 201.356 300.442 200.625L298.459 200.366ZM298.669 199.871L298.661 199.882L300.24 201.109L300.249 201.098L298.669 199.871ZM299.452 201.485H299.459V199.485H299.452V201.485ZM298.459 200.365C298.459 200.366 298.459 200.366 298.459 200.366L300.445 200.604C300.454 200.525 300.459 200.445 300.459 200.365H298.459ZM298.459 198.365V200.365H300.459V198.365H298.459ZM298.459 198.365H300.459C300.459 197.261 299.563 196.365 298.459 196.365V198.365ZM220.459 198.365H298.459V196.365H220.459V198.365Z" fill="black" fill-opacity="0.5" mask="url(#path-54-inside-1_35_23652)"/>
<path d="M239.967 205.03H278.951L277.231 202.024H241.687L239.967 205.03Z" fill="#7E8080"/>
<path d="M241.976 202.524L240.829 204.53H278.089L276.941 202.524H241.976Z" stroke="black" stroke-opacity="0.5"/>
<path d="M217.182 209.609H300.735L297.049 205.984H220.869L217.182 209.609Z" fill="#C6CDD0"/>
<path d="M221.073 206.484L218.404 209.109H299.513L296.844 206.484H221.073Z" stroke="black" stroke-opacity="0.5"/>
<path d="M225.459 275.54H293.459L290.459 278.54H228.459L225.459 275.54Z" fill="#2F3536"/>
<path d="M228.666 278.04L226.666 276.04H292.252L290.252 278.04H228.666Z" stroke="black" stroke-opacity="0.5"/>
<rect x="147.459" y="212.54" width="224" height="4" fill="#DFE2E3"/>
<rect x="147.709" y="212.79" width="223.5" height="3.5" stroke="black" stroke-opacity="0.5" stroke-width="0.5"/>
<rect x="147.459" y="212.54" width="224" height="4" fill="#DFE2E3"/>
<rect x="147.709" y="212.79" width="223.5" height="3.5" stroke="black" stroke-opacity="0.5" stroke-width="0.5"/>
<rect x="147.459" y="260.54" width="224" height="4" fill="#7E8080"/>
<rect x="147.709" y="260.79" width="223.5" height="3.5" stroke="black" stroke-opacity="0.5" stroke-width="0.5"/>
<path d="M148.459 264.04L179.459 264.334V270.54H148.459V264.04Z" fill="#DFE2E3"/>
<path d="M179.209 264.581V270.29H148.709V264.292L179.209 264.581Z" stroke="black" stroke-opacity="0.5" stroke-width="0.5"/>
<rect x="198.205" y="70.6958" width="2.22544" height="22.9883" fill="#DFE2E3"/>
<rect x="198.455" y="70.9458" width="1.72544" height="22.4883" stroke="black" stroke-opacity="0.5" stroke-width="0.5"/>
<rect x="202.398" y="78.5613" width="32.9476" height="13.6125" fill="#3C4243"/>
<rect x="206.134" y="79.5129" width="25.4761" height="11.7094" fill="#F9F9F9"/>
<line x1="194.061" y1="77.5498" x2="237.286" y2="77.5498" stroke="black" stroke-opacity="0.5" stroke-width="0.5"/>
<line x1="266.939" y1="77.5498" x2="297.406" y2="77.5498" stroke="black" stroke-opacity="0.5" stroke-width="0.5"/>
<line x1="298.401" y1="77.5498" x2="367.39" y2="77.5498" stroke="black" stroke-opacity="0.5" stroke-width="0.5"/>
<line x1="318.702" y1="74.2106" x2="318.702" y2="96.5139" stroke="black" stroke-opacity="0.5" stroke-width="0.5"/>
<line x1="337.235" y1="74.2106" x2="337.235" y2="96.5139" stroke="black" stroke-opacity="0.5" stroke-width="0.5"/>
<line x1="320.272" y1="74.2106" x2="320.272" y2="96.5139" stroke="black" stroke-opacity="0.5" stroke-width="0.5"/>
<line x1="338.804" y1="74.2106" x2="338.804" y2="96.5139" stroke="black" stroke-opacity="0.5" stroke-width="0.5"/>
<line x1="366.159" y1="74.2106" x2="366.159" y2="96.5139" stroke="black" stroke-opacity="0.5" stroke-width="0.5"/>
<line x1="298.401" y1="93.478" x2="367.39" y2="93.478" stroke="black" stroke-opacity="0.5" stroke-width="0.5"/>
<rect x="202.398" y="78.5613" width="1.45823" height="13.6125" fill="#707172"/>
<rect x="233.887" y="78.5613" width="1.45823" height="13.6125" fill="#707172"/>
<path d="M292.374 70.9612V89.0471H281.696L276.794 95.5843" stroke="black" stroke-opacity="0.5" stroke-width="0.5"/>
<path d="M241.13 60.9072H285.191" stroke="black" stroke-opacity="0.5" stroke-width="0.5"/>
<path d="M237.921 61.9222L286.624 61.9222" stroke="black" stroke-opacity="0.5" stroke-width="0.5"/>
<path d="M236.831 62.5789H286.624" stroke="black" stroke-opacity="0.5" stroke-width="0.5"/>
<rect x="266.939" y="64.2228" width="14.4382" height="1.70759" rx="0.853796" fill="#3C4243"/>
<rect x="266.939" y="66.4304" width="14.4382" height="1.70759" rx="0.853796" fill="#3C4243"/>
<rect x="245.815" y="64.8444" width="14.4382" height="1.08598" rx="0.54299" fill="#656B6C"/>
<rect x="298.401" y="83.7063" width="68.9893" height="3.32347" fill="#3C4243"/>
<rect x="338.554" y="74.2106" width="28.8359" height="3.32347" fill="#3C4243"/>
<path d="M247.834 95.4367L245.747 91.8656C240.496 82.8831 251.842 73.4509 259.714 80.2546V80.2546L265.204 86.6019L268.478 89.7402C268.921 90.1646 268.881 90.8839 268.394 91.2565L252.552 103.374C251.962 103.825 251.102 103.497 250.963 102.767L250.767 101.742C250.456 100.115 249.837 98.5619 248.943 97.1672L247.834 95.4367Z" fill="#656B6C"/>
<path d="M245.963 91.7394C240.857 83.0061 251.879 73.8358 259.537 80.432L265.015 86.7655L265.022 86.7743L265.031 86.7824L268.305 89.9207C268.638 90.239 268.608 90.7784 268.242 91.0579L252.401 103.175C251.958 103.514 251.313 103.268 251.208 102.72L251.012 101.695C250.696 100.036 250.065 98.4538 249.154 97.0323L248.048 95.3061L245.963 91.7394Z" stroke="black" stroke-opacity="0.5" stroke-width="0.5"/>
<path d="M269.219 91.7327L252.842 104.151C252.501 104.41 252.362 104.857 252.497 105.263L252.713 105.913C252.849 106.322 253.231 106.598 253.662 106.598H267.366L283.081 105.944C283.966 105.907 284.37 104.822 283.724 104.216L270.508 91.8007C270.152 91.4667 269.608 91.438 269.219 91.7327Z" fill="#656B6C"/>
<path d="M252.993 104.35L269.37 91.9319C269.661 91.7108 270.07 91.7324 270.337 91.9829L283.553 104.398C284.037 104.853 283.734 105.666 283.071 105.694L267.361 106.348H253.662C253.339 106.348 253.052 106.141 252.95 105.835L252.734 105.184C252.633 104.879 252.737 104.544 252.993 104.35Z" stroke="black" stroke-opacity="0.5" stroke-width="0.5"/>
<path d="M196.396 124.406C195.783 123.771 196.233 122.711 197.115 122.711H235.247C236.13 122.711 236.58 123.771 235.966 124.406L232.804 127.68C232.616 127.876 232.356 127.986 232.085 127.986H200.278C200.006 127.986 199.747 127.876 199.558 127.68L196.396 124.406Z" fill="#DFE2E3"/>
<path d="M197.115 122.961H235.247C235.909 122.961 236.246 123.756 235.787 124.232L232.624 127.507C232.483 127.653 232.288 127.736 232.085 127.736H200.278C200.074 127.736 199.879 127.653 199.738 127.507L196.576 124.232C196.116 123.756 196.453 122.961 197.115 122.961Z" stroke="black" stroke-opacity="0.5" stroke-width="0.5"/>
<path d="M291.537 124.265C291.094 123.601 291.571 122.711 292.369 122.711H318.155C318.954 122.711 319.43 123.601 318.988 124.265L316.809 127.54C316.624 127.818 316.311 127.986 315.976 127.986H294.548C294.213 127.986 293.901 127.818 293.715 127.54L291.537 124.265Z" fill="#DFE2E3"/>
<path d="M292.369 122.961H318.155C318.754 122.961 319.111 123.628 318.78 124.127L316.601 127.401C316.462 127.61 316.227 127.736 315.976 127.736H294.548C294.297 127.736 294.063 127.61 293.924 127.401L291.745 124.127C291.413 123.628 291.77 122.961 292.369 122.961Z" stroke="black" stroke-opacity="0.5" stroke-width="0.5"/>
<path d="M237.272 126.338C236.719 126.987 237.181 127.986 238.033 127.986H289.853C290.68 127.986 291.149 127.039 290.649 126.381L288.162 123.106C287.973 122.857 287.679 122.711 287.366 122.711H240.82C240.527 122.711 240.249 122.84 240.059 123.063L237.272 126.338Z" fill="#DFE2E3"/>
<path d="M238.033 127.736H289.853C290.473 127.736 290.825 127.026 290.45 126.532L287.963 123.258C287.821 123.071 287.6 122.961 287.366 122.961H240.82C240.6 122.961 240.392 123.058 240.249 123.225L237.462 126.5C237.048 126.987 237.394 127.736 238.033 127.736Z" stroke="black" stroke-opacity="0.5" stroke-width="0.5"/>
<rect x="203.867" y="136.788" width="34.5427" height="2.00712" rx="1" fill="#3C4243"/>
<rect x="240.624" y="136.788" width="34.5427" height="2.00712" rx="1" fill="#3C4243"/>
<rect x="277.382" y="136.788" width="34.5427" height="2.00712" rx="1" fill="#3C4243"/>
<path d="M203.384 141.1L215.587 190.167" stroke="black" stroke-opacity="0.5" stroke-width="0.5"/>
<path d="M311.924 141.469L311.924 188.074" stroke="black" stroke-opacity="0.5" stroke-width="0.5"/>
<path d="M236.215 141.469L236.215 188.074" stroke="black" stroke-opacity="0.5" stroke-width="0.5"/>
<path d="M278.951 141.469L278.951 188.074" stroke="black" stroke-opacity="0.5" stroke-width="0.5"/>
<path d="M312.886 141.469L312.886 188.074" stroke="black" stroke-opacity="0.5" stroke-width="0.5"/>
<path d="M237.177 141.469L237.177 188.074" stroke="black" stroke-opacity="0.5" stroke-width="0.5"/>
<path d="M279.913 141.469L279.913 188.074" stroke="black" stroke-opacity="0.5" stroke-width="0.5"/>
<path d="M204.454 141.1L216.658 190.167" stroke="black" stroke-opacity="0.5" stroke-width="0.5"/>
<path d="M117.827 142.275L190.129 149.023" stroke="black" stroke-opacity="0.5" stroke-width="0.5" stroke-linecap="round"/>
<path d="M117.569 143.405L188.434 150.049" stroke="black" stroke-opacity="0.5" stroke-width="0.5" stroke-linecap="round"/>
<path d="M134.942 176.841L194.635 181.947" stroke="black" stroke-opacity="0.5" stroke-width="0.5" stroke-linecap="round"/>
<path d="M137.072 178.01L196.765 183.116" stroke="black" stroke-opacity="0.5" stroke-width="0.5" stroke-linecap="round"/>
<path d="M312.155 140.646L356.032 120.215" stroke="black" stroke-opacity="0.5" stroke-width="0.5" stroke-linecap="round"/>
<path d="M314.349 142.154L358.501 121.175" stroke="black" stroke-opacity="0.5" stroke-width="0.5" stroke-linecap="round"/>
<path d="M332.723 142.839L319.011 146.267" stroke="black" stroke-opacity="0.5" stroke-width="0.5" stroke-linecap="round"/>
<path d="M326.415 157.648L332.86 142.565" stroke="black" stroke-opacity="0.5" stroke-width="0.5" stroke-linecap="round"/>
<path d="M353.29 160.116L392.506 137.629" stroke="black" stroke-opacity="0.5" stroke-width="0.5" stroke-linecap="round"/>
<path d="M351.096 158.745L389.763 136.532" stroke="black" stroke-opacity="0.5" stroke-width="0.5" stroke-linecap="round"/>
<path d="M356.173 182.764L392.188 175.999" stroke="black" stroke-opacity="0.5" stroke-width="0.5" stroke-linecap="round"/>
<path d="M356.571 181.272L391.989 175.004" stroke="black" stroke-opacity="0.5" stroke-width="0.5" stroke-linecap="round"/>
<path d="M347.405 188.101L357.367 197.588" stroke="black" stroke-opacity="0.5" stroke-width="0.5" stroke-linecap="round"/>
<path d="M345.624 188.085L356.472 198.383" stroke="black" stroke-opacity="0.5" stroke-width="0.5" stroke-linecap="round"/>
<path d="M215.521 190.01L221.905 197.724" stroke="black" stroke-opacity="0.5" stroke-width="0.5" stroke-linecap="round"/>
<path d="M216.547 189.972L222.247 196.698" stroke="black" stroke-opacity="0.5" stroke-width="0.5" stroke-linecap="round"/>
<path d="M322.714 145.011L329.039 151.467L351.467 158.402" stroke="black" stroke-opacity="0.5" stroke-width="0.5" stroke-linecap="round"/>
<path d="M145.125 155.161C144.69 153.865 145.654 152.524 147.021 152.524H220.3C221.57 152.524 222.518 153.692 222.258 154.935L218.097 174.776C217.902 175.702 217.086 176.366 216.139 176.366H153.679C152.82 176.366 152.056 175.817 151.783 175.002L145.125 155.161Z" fill="#DFE2E3"/>
<path d="M147.021 152.774H220.3C221.411 152.774 222.241 153.796 222.013 154.884L217.852 174.725C217.682 175.535 216.967 176.116 216.139 176.116H153.679C152.927 176.116 152.259 175.635 152.02 174.922L145.362 155.081C144.982 153.947 145.825 152.774 147.021 152.774Z" stroke="black" stroke-opacity="0.5" stroke-width="0.5"/>
<path d="M219.114 152.867L214.086 176.279" stroke="black" stroke-opacity="0.5" stroke-width="0.5" stroke-linecap="round"/>
<rect x="188.929" y="157.383" width="27.3311" height="2" rx="1" fill="#656B6C"/>
<rect x="187.781" y="161.383" width="27.3311" height="2" rx="1" fill="#656B6C"/>
<rect x="186.755" y="165.383" width="27.3311" height="2" rx="1" fill="#656B6C"/>
<rect x="185.596" y="169.383" width="27.3311" height="2" rx="1" fill="#656B6C"/>
<path d="M376.917 155.808C376.917 154.754 377.47 153.778 378.373 153.236L388.249 147.309C388.915 146.909 389.763 147.389 389.763 148.166V165.915C389.763 166.586 389.116 167.066 388.474 166.872L379.05 164.027C377.783 163.645 376.917 162.478 376.917 161.155L376.917 155.808Z" fill="#DFE2E3"/>
<path d="M378.502 153.45L388.377 147.523C388.877 147.223 389.513 147.583 389.513 148.166V165.915C389.513 166.418 389.028 166.778 388.547 166.633L379.122 163.788C377.961 163.437 377.167 162.368 377.167 161.155V155.808C377.167 154.842 377.673 153.947 378.502 153.45Z" stroke="black" stroke-opacity="0.5" stroke-width="0.5"/>
<path d="M386.335 148.848V165.964" stroke="black" stroke-opacity="0.5" stroke-width="0.5" stroke-linecap="round"/>
<path d="M336.386 189.477L350.009 197.917" stroke="black" stroke-opacity="0.5" stroke-width="0.5" stroke-linecap="round"/>
<path d="M322.522 190.258L325.876 196.552" stroke="black" stroke-opacity="0.5" stroke-width="0.5" stroke-linecap="round"/>
<path d="M321.36 189.692L325.797 198.224" stroke="black" stroke-opacity="0.5" stroke-width="0.5" stroke-linecap="round"/>
<path d="M325.893 189.678L325.893 198.224" stroke="black" stroke-opacity="0.5" stroke-width="0.5" stroke-linecap="round"/>
<rect x="147.459" y="212.54" width="53" height="52" fill="#C6CDD0"/>
<rect x="147.959" y="213.04" width="52" height="51" stroke="black" stroke-opacity="0.5"/>
<rect x="170.459" y="216.54" width="31" height="2" fill="#DFE2E3"/>
<rect x="170.709" y="216.79" width="30.5" height="1.5" stroke="black" stroke-opacity="0.5" stroke-width="0.5"/>
<rect x="170.459" y="262.54" width="31" height="2" fill="#DFE2E3"/>
<rect x="170.709" y="262.79" width="30.5" height="1.5" stroke="black" stroke-opacity="0.5" stroke-width="0.5"/>
<rect x="148.459" y="207.54" width="31" height="6" fill="#DFE2E3"/>
<rect x="148.709" y="207.79" width="30.5" height="5.5" stroke="black" stroke-opacity="0.5" stroke-width="0.5"/>
<path d="M118.862 212.318L133 205.531H160.959L170.836 221.801V238.071V254.341L160.959 270.611H132.055L118.862 251.486V238.071V212.318Z" fill="#C6CDD0"/>
<path d="M170.336 254.201L160.677 270.111H132.317L119.362 251.331V238.071V212.633L133.114 206.031H160.677L170.336 221.941V238.071V254.201Z" stroke="black" stroke-opacity="0.5"/>
<mask id="path-156-inside-2_35_23652" fill="white">
<path d="M101.122 174.704L141.941 225.401L140.521 239.187L145.982 254.532L117.98 254.532C106.311 254.532 95.3665 248.877 88.6159 239.359L76.3988 222.135L101.122 174.704Z"/>
</mask>
<path d="M101.122 174.704L141.941 225.401L140.521 239.187L145.982 254.532L117.98 254.532C106.311 254.532 95.3665 248.877 88.6159 239.359L76.3988 222.135L101.122 174.704Z" fill="#DFE2E3"/>
<path d="M105.715 237.227L105.471 237.281L105.58 237.769L105.824 237.715L105.715 237.227ZM105.824 237.715L110.454 236.684L110.345 236.196L105.715 237.227L105.824 237.715ZM141.941 225.401L142.438 225.452L142.459 225.247L142.33 225.087L141.941 225.401ZM101.122 174.704L101.511 174.39L101.032 173.795L100.679 174.473L101.122 174.704ZM76.3988 222.135L75.9554 221.904L75.8141 222.175L75.9909 222.424L76.3988 222.135ZM88.6159 239.359L88.2081 239.648L88.2081 239.648L88.6159 239.359ZM117.98 254.532L117.98 254.032H117.98L117.98 254.532ZM145.982 254.532L145.982 255.032L146.691 255.032L146.453 254.364L145.982 254.532ZM140.521 239.187L140.024 239.136L140.012 239.248L140.05 239.355L140.521 239.187ZM142.33 225.087L101.511 174.39L100.733 175.018L141.551 225.714L142.33 225.087ZM100.679 174.473L75.9554 221.904L76.8422 222.366L101.565 174.935L100.679 174.473ZM75.9909 222.424L88.2081 239.648L89.0237 239.07L76.8066 221.845L75.9909 222.424ZM117.98 255.032L145.982 255.032L145.982 254.032L117.98 254.032L117.98 255.032ZM146.453 254.364L140.992 239.019L140.05 239.355L145.511 254.699L146.453 254.364ZM141.018 239.238L142.438 225.452L141.443 225.349L140.024 239.136L141.018 239.238ZM88.2081 239.648C95.0524 249.298 106.149 255.032 117.98 255.032L117.98 254.032C106.473 254.032 95.6806 248.455 89.0237 239.07L88.2081 239.648Z" fill="black" fill-opacity="0.5" mask="url(#path-156-inside-2_35_23652)"/>
<path d="M103.32 214.964L87.2295 214.964L82.5471 217.708L78.5339 224.621L86.172 235.754L93.6541 235.754L102.457 235.754L116.983 254.008L143.133 254.008L126.203 236.499L123.316 236.499L110.502 222.602L109.058 223.234L103.32 214.964Z" fill="#909090" style="mix-blend-mode:multiply"/>
<path d="M103.32 214.964L87.2295 214.964L82.5471 217.708L78.5339 224.621L86.172 235.754L93.6541 235.754L102.457 235.754L116.983 254.008L143.133 254.008L126.203 236.499L123.316 236.499L110.502 222.602L109.058 223.234L103.32 214.964Z" stroke="black" stroke-opacity="0.5" stroke-width="0.5" stroke-linecap="round"/>
<path d="M90.9702 236.478V236.478C95.6132 244.099 103.407 249.259 112.237 250.555L114.176 250.84" stroke="black" stroke-opacity="0.5" stroke-width="0.5" stroke-linecap="round"/>
<path d="M103.108 236.543L117.322 254.345" stroke="black" stroke-opacity="0.5" stroke-width="0.5" stroke-linecap="round"/>
<path d="M92.3792 211.087L104.527 211.087" stroke="black" stroke-opacity="0.5" stroke-width="0.5"/>
<path d="M82.953 129.529L58.9035 129.735L50.7127 151.147L37.0412 178.463L35.7793 185.62L36.2134 193.919L9.55751 259.003L2.23854 300.511L4.1514 304.011L27.4496 308.119L82.7152 218.352L89.9191 214.562L114.19 172.576L111.726 168.102L111.13 134.497L82.953 129.529Z" fill="#DFE2E3"/>
<path d="M111.226 168.111L111.229 168.235L111.288 168.343L113.616 172.57L89.5585 214.187L82.4824 217.91L82.3612 217.973L82.2894 218.09L27.2019 307.568L4.47489 303.56L2.7614 300.425L10.0406 259.143L36.6761 194.108L36.7186 194.004L36.7127 193.892L36.2816 185.65L37.5209 178.622L51.1598 151.371L51.1708 151.348L51.1796 151.325L59.2487 130.232L82.9114 130.029L110.637 134.918L111.226 168.111Z" stroke="black" stroke-opacity="0.5"/>
<path d="M80.1618 134.677L59.4791 131.041L51.1508 152.422L37.265 179.425L35.8797 187.304L36.6374 194.545L10.4081 259.991L3.22179 300.864L5.57039 304.831L26.2531 308.468L32.5682 263.888L66.5456 198.588L63.4567 192.153L79.0471 158.342L80.1618 134.677Z" fill="#909090" style="mix-blend-mode:multiply"/>
<path d="M80.1618 134.677L59.4791 131.041L51.1508 152.422L37.265 179.425L35.8797 187.304L36.6374 194.545L10.4081 259.991L3.22179 300.864L5.57039 304.831L26.2531 308.468L32.5682 263.888L66.5456 198.588L63.4567 192.153L79.0471 158.342L80.1618 134.677Z" stroke="black" stroke-opacity="0.5" stroke-width="0.5" stroke-linecap="round"/>
<path d="M73.6411 231.015L62.8083 229.105L48.7641 254.045L44.2492 279.65" stroke="black" stroke-opacity="0.5" stroke-width="0.5" stroke-linecap="round"/>
<path d="M73.3807 232.492L63.3404 230.722L50.2413 254.306L46.2474 276.956" stroke="black" stroke-opacity="0.5" stroke-width="0.5" stroke-linecap="round"/>
<path d="M79.9162 157.995L87.2452 165.38" stroke="black" stroke-opacity="0.5" stroke-width="0.5" stroke-linecap="round"/>
<path d="M78.8446 158.314L85.5943 166.105" stroke="black" stroke-opacity="0.5" stroke-width="0.5" stroke-linecap="round"/>
<path d="M67.3489 183.196L76.9176 184.883" stroke="black" stroke-opacity="0.5" stroke-width="0.5" stroke-linecap="round"/>
<path d="M66.5471 184.87L76.7719 186.673" stroke="black" stroke-opacity="0.5" stroke-width="0.5" stroke-linecap="round"/>
<path d="M66.5096 185.079L83.0726 217.948" stroke="black" stroke-opacity="0.5" stroke-width="0.5" stroke-linecap="round"/>
<path d="M51.375 151.449L78.5406 157.252L111.124 168.36" stroke="black" stroke-opacity="0.5" stroke-width="0.5" stroke-linecap="round"/>
<path d="M26.1653 307.439L32.4154 263.354L66.2365 198.238L63.2524 192.127L79.033 157.339" stroke="black" stroke-opacity="0.5" stroke-width="0.5" stroke-linecap="round"/>
<path d="M58.8665 131.16L78.9626 134.703L110.908 135.368" stroke="black" stroke-opacity="0.5" stroke-width="0.5" stroke-linecap="round"/>
<path d="M79.1199 156.846L79.4065 135.065" stroke="black" stroke-opacity="0.5" stroke-width="0.5" stroke-linecap="round"/>
<path d="M113.747 172.616L85.5508 163.565L75.5613 185.666L89.5317 213.118" stroke="black" stroke-opacity="0.5" stroke-width="0.5" stroke-linecap="round"/>
<path d="M113.194 173.796L86.2752 165.216L76.5093 186.048L90.0174 212.078" stroke="black" stroke-opacity="0.5" stroke-width="0.5" stroke-linecap="round"/>
<path d="M76.0658 135.491L61.669 132.953C60.7188 132.785 59.7845 133.32 59.4476 134.224L54.1045 148.563C53.6739 149.718 54.3814 150.984 55.5912 151.223L74.989 155.053C76.2078 155.294 77.3488 154.377 77.376 153.135L77.7181 137.505C77.7397 136.518 77.038 135.663 76.0658 135.491Z" stroke="black" stroke-opacity="0.5" stroke-width="0.5" stroke-linecap="round"/>
<path d="M74.9364 136.308L62.1274 134.049C61.1777 133.882 60.2437 134.416 59.9064 135.319L55.2634 147.755C54.8324 148.909 55.5377 150.175 56.7461 150.415L74.1333 153.881C75.3667 154.127 76.5183 153.187 76.5243 151.929L76.5891 138.287C76.5938 137.313 75.8958 136.477 74.9364 136.308Z" stroke="black" stroke-opacity="0.5" stroke-width="0.5" stroke-linecap="round"/>
<rect x="7.91357" y="277.058" width="21.5" height="25.5" rx="1.75" transform="rotate(10 7.91357 277.058)" stroke="black" stroke-opacity="0.5" stroke-width="0.5"/>
<path d="M42.4979 186.792L47.1231 175.163C47.4736 174.282 48.3948 173.768 49.3288 173.933L59.7448 175.769C60.9395 175.98 61.6731 177.197 61.3011 178.352L57.6875 189.571C57.5761 189.917 57.561 190.287 57.644 190.641L59.0949 196.828C59.1992 197.272 59.1482 197.739 58.9504 198.151L27.8578 262.846C27.7954 262.976 27.7472 263.112 27.7141 263.253L24.7417 275.826C24.4979 276.858 23.4918 277.52 22.4481 277.336L14.7646 275.981C13.7527 275.802 13.0406 274.886 13.1175 273.862L14.0824 260.997C14.1004 260.757 14.1615 260.522 14.2628 260.304L44.0912 196.061C44.2888 195.636 44.3305 195.154 44.2089 194.701L42.4246 188.049C42.3129 187.633 42.3387 187.192 42.4979 186.792Z" stroke="black" stroke-opacity="0.5" stroke-width="0.5" stroke-linecap="round"/>
<path d="M43.7576 187.496L48.1883 175.886C48.5302 174.991 49.4598 174.463 50.4041 174.63L59.753 176.278C60.9403 176.488 61.6738 177.692 61.3152 178.843L57.8167 190.07C57.7157 190.394 57.6989 190.739 57.7679 191.071L59.0534 197.265C59.14 197.682 59.091 198.117 58.9133 198.504L29.279 263.182C29.223 263.304 29.1794 263.431 29.149 263.562L26.2427 276.083C26.0023 277.118 24.994 277.785 23.9472 277.6L15.6517 276.137C14.6345 275.958 13.9212 275.034 14.0057 274.004L15.0528 261.235C15.0723 260.998 15.1338 260.767 15.2345 260.551L45.1346 196.62C45.3263 196.211 45.3733 195.748 45.268 195.308L43.6811 188.675C43.5874 188.283 43.6141 187.872 43.7576 187.496Z" stroke="black" stroke-opacity="0.5" stroke-width="0.5" stroke-linecap="round"/>
<path d="M53.6648 188.913L53.4823 189.084L53.9024 188.991L53.6648 188.913ZM51.9556 187.089L51.7294 187.195L51.7462 187.231L51.7732 187.259L51.9556 187.089ZM54.7649 185.553L55.0025 185.631L55.0317 185.542L54.995 185.455L54.7649 185.553ZM47.2966 177.782L51.7294 187.195L52.1818 186.982L47.749 177.569L47.2966 177.782ZM51.7732 187.259L53.4823 189.084L53.8472 188.742L52.1381 186.918L51.7732 187.259ZM49.8701 174.674L54.5349 185.651L54.995 185.455L50.3303 174.479L49.8701 174.674ZM54.5274 185.475L53.4272 188.835L53.9024 188.991L55.0025 185.631L54.5274 185.475Z" fill="black" fill-opacity="0.5"/>
<path d="M58.1249 186.653L53.6933 185.872L51.9556 187.089L13.6767 271.727" stroke="black" stroke-opacity="0.5" stroke-width="0.5"/>
<path d="M57.6908 189.115L53.7516 188.421L14.4593 275.927" stroke="black" stroke-opacity="0.5" stroke-width="0.5"/>
<path d="M59.9406 183.419L66.6112 184.596" stroke="black" stroke-opacity="0.5" stroke-width="0.5" stroke-linecap="round"/>
<path d="M38.0518 179.56L44.7223 180.736" stroke="black" stroke-opacity="0.5" stroke-width="0.5" stroke-linecap="round"/>
<path d="M9.76482 259.36L14.1965 260.142" stroke="black" stroke-opacity="0.5" stroke-width="0.5" stroke-linecap="round"/>
<rect x="55.6214" y="195.157" width="2.5" height="20.5" rx="1.25" transform="rotate(26.148 55.6214 195.157)" stroke="black" stroke-opacity="0.5" stroke-width="0.5"/>
<ellipse cx="99.3184" cy="193.367" rx="12" ry="15.5" fill="#DFE2E3"/>
<path d="M111.068 193.367C111.068 201.852 105.752 208.617 99.3184 208.617C92.8848 208.617 87.5684 201.852 87.5684 193.367C87.5684 184.881 92.8848 178.117 99.3184 178.117C105.752 178.117 111.068 184.881 111.068 193.367Z" stroke="black" stroke-opacity="0.5" stroke-width="0.5"/>
<ellipse cx="99.8184" cy="194.367" rx="11.5" ry="15.5" fill="#DFE2E3"/>
<path d="M110.818 194.367C110.818 198.551 109.56 202.319 107.549 205.029C105.538 207.74 102.799 209.367 99.8184 209.367C96.8378 209.367 94.0993 207.74 92.0883 205.029C90.0773 202.319 88.8184 198.551 88.8184 194.367C88.8184 190.183 90.0773 186.415 92.0883 183.705C94.0993 180.994 96.8378 179.367 99.8184 179.367C102.799 179.367 105.538 180.994 107.549 183.705C109.56 186.415 110.818 190.183 110.818 194.367Z" stroke="black" stroke-opacity="0.5"/>
<ellipse cx="99.8184" cy="194.367" rx="9.5" ry="13.5" fill="#DFE2E3"/>
<path d="M109.068 194.367C109.068 198.049 108.018 201.373 106.331 203.769C104.645 206.166 102.338 207.617 99.8184 207.617C97.2985 207.617 94.992 206.166 93.3054 203.769C91.6192 201.373 90.5684 198.049 90.5684 194.367C90.5684 190.684 91.6192 187.361 93.3054 184.965C94.992 182.568 97.2985 181.117 99.8184 181.117C102.338 181.117 104.645 182.568 106.331 184.965C108.018 187.361 109.068 190.684 109.068 194.367Z" stroke="black" stroke-opacity="0.5" stroke-width="0.5"/>
<ellipse cx="99.3184" cy="194.367" rx="9" ry="13.5" fill="#DFE2E3"/>
<path d="M108.068 194.367C108.068 198.052 107.072 201.378 105.474 203.774C103.876 206.172 101.694 207.617 99.3184 207.617C96.9427 207.617 94.7614 206.172 93.1625 203.774C91.5648 201.378 90.5684 198.052 90.5684 194.367C90.5684 190.681 91.5648 187.356 93.1625 184.96C94.7614 182.561 96.9427 181.117 99.3184 181.117C101.694 181.117 103.876 182.561 105.474 184.96C107.072 187.356 108.068 190.681 108.068 194.367Z" stroke="black" stroke-opacity="0.5" stroke-width="0.5"/>
<ellipse cx="96.8184" cy="185.867" rx="1.5" ry="2" fill="#DFE2E3"/>
<path d="M98.0684 185.867C98.0684 186.37 97.9151 186.816 97.6791 187.131C97.4432 187.446 97.1363 187.617 96.8184 187.617C96.5006 187.617 96.1937 187.446 95.9578 187.131C95.7218 186.816 95.5684 186.37 95.5684 185.867C95.5684 185.363 95.7218 184.917 95.9578 184.603C96.1937 184.288 96.5006 184.117 96.8184 184.117C97.1363 184.117 97.4432 184.288 97.6791 184.603C97.9151 184.917 98.0684 185.363 98.0684 185.867Z" stroke="black" stroke-opacity="0.5" stroke-width="0.5"/>
<ellipse cx="93.8184" cy="197.867" rx="1.5" ry="2" fill="#DFE2E3"/>
<path d="M95.0684 197.867C95.0684 198.37 94.9151 198.816 94.6791 199.131C94.4432 199.446 94.1363 199.617 93.8184 199.617C93.5006 199.617 93.1937 199.446 92.9578 199.131C92.7218 198.816 92.5684 198.37 92.5684 197.867C92.5684 197.363 92.7218 196.917 92.9578 196.603C93.1937 196.288 93.5006 196.117 93.8184 196.117C94.1363 196.117 94.4432 196.288 94.6791 196.603C94.9151 196.917 95.0684 197.363 95.0684 197.867Z" stroke="black" stroke-opacity="0.5" stroke-width="0.5"/>
<ellipse cx="102.818" cy="202.867" rx="1.5" ry="2" fill="#DFE2E3"/>
<path d="M104.068 202.867C104.068 203.37 103.915 203.816 103.679 204.131C103.443 204.446 103.136 204.617 102.818 204.617C102.501 204.617 102.194 204.446 101.958 204.131C101.722 203.816 101.568 203.37 101.568 202.867C101.568 202.363 101.722 201.917 101.958 201.603C102.194 201.288 102.501 201.117 102.818 201.117C103.136 201.117 103.443 201.288 103.679 201.603C103.915 201.917 104.068 202.363 104.068 202.867Z" stroke="black" stroke-opacity="0.5" stroke-width="0.5"/>
<ellipse cx="105.818" cy="192.867" rx="1.5" ry="2" fill="#DFE2E3"/>
<path d="M107.068 192.867C107.068 193.37 106.915 193.816 106.679 194.131C106.443 194.446 106.136 194.617 105.818 194.617C105.501 194.617 105.194 194.446 104.958 194.131C104.722 193.816 104.568 193.37 104.568 192.867C104.568 192.363 104.722 191.917 104.958 191.603C105.194 191.288 105.501 191.117 105.818 191.117C106.136 191.117 106.443 191.288 106.679 191.603C106.915 191.917 107.068 192.363 107.068 192.867Z" stroke="black" stroke-opacity="0.5" stroke-width="0.5"/>
<path d="M140.56 254.237L105.591 218.543" stroke="black" stroke-opacity="0.5" stroke-width="0.5"/>
<path d="M85.4751 216.534H107.116" stroke="black" stroke-opacity="0.5" stroke-width="0.5"/>
<path d="M86.6774 215.534H108.319" stroke="black" stroke-opacity="0.5" stroke-width="0.5"/>
<path d="M84.2729 217.534H105.914" stroke="black" stroke-opacity="0.5" stroke-width="0.5"/>
<path d="M83.0705 218.534H104.712" stroke="black" stroke-opacity="0.5" stroke-width="0.5"/>
<path d="M125.983 236.392L134.167 244.775" stroke="black" stroke-opacity="0.5" stroke-width="0.5" stroke-linecap="round"/>
<path d="M136.481 217.86L132.173 223.017C129.975 225.648 128.819 228.995 128.924 232.422L129.052 236.597L110.959 236.597" stroke="black" stroke-opacity="0.5" stroke-width="0.5" stroke-linecap="round"/>
<path d="M86.17 234.971L86.0327 235.43L87.0471 236.096L87.1844 236.137H103.677H117.235L117.29 236.131L120.225 235.464L120.42 235.221V234.554L120.115 234.31L117.207 234.971H103.17H86.17Z" stroke="black" stroke-opacity="0.5" stroke-width="0.5" stroke-linejoin="bevel"/>
<path d="M84.5526 232.971L84.4153 233.43L85.4296 234.096L85.5669 234.137H102.06H115.617L115.673 234.131L118.608 233.464L118.803 233.221V232.554L118.497 232.31L115.589 232.971H101.553H84.5526Z" stroke="black" stroke-opacity="0.5" stroke-width="0.5" stroke-linejoin="bevel"/>
<path d="M82.7093 230.971L82.572 231.43L83.5864 232.096L83.7237 232.137H100.216H113.774L113.83 232.131L116.765 231.464L116.959 231.221V230.554L116.654 230.31L113.746 230.971H99.7093H82.7093Z" stroke="black" stroke-opacity="0.5" stroke-width="0.5" stroke-linejoin="bevel"/>
<path d="M81.5524 228.971L81.4151 229.43L82.4295 230.096L82.5668 230.137H99.0596H112.617L112.673 230.131L115.608 229.464L115.802 229.221V228.554L115.497 228.31L112.589 228.971H98.5524H81.5524Z" stroke="black" stroke-opacity="0.5" stroke-width="0.5" stroke-linejoin="bevel"/>
<path d="M78.7531 224.757L78.6158 225.215L79.6302 225.882L79.7675 225.923H96.2603H109.818L109.873 225.917L112.809 225.25L113.003 225.007V224.34L112.698 224.096L109.79 224.757H95.7531H78.7531Z" stroke="black" stroke-opacity="0.5" stroke-width="0.5" stroke-linejoin="bevel"/>
<path d="M79.2956 226.09L79.1583 226.549L80.1727 227.216L80.31 227.257H96.8028H110.361L110.416 227.25L113.351 226.584L113.546 226.34V225.673L113.24 225.429L110.333 226.09H96.2956H79.2956Z" stroke="black" stroke-opacity="0.5" stroke-width="0.5" stroke-linejoin="bevel"/>
<path d="M80.4979 227.423L80.3606 227.882L81.375 228.549L81.5123 228.59H98.0051H111.563L111.618 228.584L114.553 227.917L114.748 227.673V227.007L114.443 226.763L111.535 227.423H97.4979H80.4979Z" stroke="black" stroke-opacity="0.5" stroke-width="0.5" stroke-linejoin="bevel"/>
<path d="M85.17 233.887H120.17" stroke="black" stroke-opacity="0.5" stroke-width="0.5" stroke-linecap="round" stroke-linejoin="bevel"/>
<path d="M83.5526 231.887H118.553" stroke="black" stroke-opacity="0.5" stroke-width="0.5" stroke-linecap="round" stroke-linejoin="bevel"/>
<path d="M81.7093 229.887H116.709" stroke="black" stroke-opacity="0.5" stroke-width="0.5" stroke-linecap="round" stroke-linejoin="bevel"/>
<path d="M78.7531 223.84H111.597" stroke="black" stroke-opacity="0.5" stroke-width="0.5"/>
<path d="M81.0524 228.554L115.203 228.426" stroke="black" stroke-opacity="0.5" stroke-width="0.5" stroke-linecap="round"/>
<path d="M78.2531 224.34L112.404 224.212" stroke="black" stroke-opacity="0.5" stroke-width="0.5" stroke-linecap="round"/>
<path d="M93.9175 224.381L95.1406 224.381L105.596 236.991L104.396 236.991L93.9175 224.381Z" fill="#C4C4C4"/>
<path d="M93.9175 224.131L93.3847 224.131L93.7252 224.541L104.203 237.15L104.278 237.241L104.396 237.241L105.596 237.241L106.128 237.241L105.789 236.831L95.333 224.221L95.258 224.131L95.1406 224.131L93.9175 224.131Z" stroke="black" stroke-opacity="0.5" stroke-width="0.5"/>
<path d="M145.326 222.54H169.459V254.54H145.326V254.54C128.501 250.891 127.996 227.075 144.651 222.716L145.326 222.54Z" fill="#DFE2E3"/>
<path d="M168.959 254.04H145.38C129.12 250.465 128.649 227.421 144.777 223.2L145.39 223.04H168.959V254.04Z" stroke="black" stroke-opacity="0.5"/>
<path d="M147.387 222.54H170.459V254.54H147.387V254.54C130.741 250.764 130.222 227.238 146.685 222.732L147.387 222.54Z" fill="#DFE2E3"/>
<path d="M170.209 254.29H147.415C131.05 250.552 130.548 227.408 146.751 222.973L147.42 222.79H170.209V254.29Z" stroke="black" stroke-opacity="0.5" stroke-width="0.5"/>
<circle cx="144.459" cy="233.54" r="2" fill="#DFE2E3"/>
<circle cx="144.459" cy="233.54" r="1.75" stroke="black" stroke-opacity="0.5" stroke-width="0.5"/>
<circle cx="144.459" cy="243.54" r="2" fill="#DFE2E3"/>
<circle cx="144.459" cy="243.54" r="1.75" stroke="black" stroke-opacity="0.5" stroke-width="0.5"/>
<circle cx="152.459" cy="233.54" r="2" fill="#DFE2E3"/>
<circle cx="152.459" cy="233.54" r="1.75" stroke="black" stroke-opacity="0.5" stroke-width="0.5"/>
<circle cx="152.459" cy="243.54" r="2" fill="#DFE2E3"/>
<circle cx="152.459" cy="243.54" r="1.75" stroke="black" stroke-opacity="0.5" stroke-width="0.5"/>
<rect x="131.459" y="267.54" width="53" height="3" fill="#DFE2E3"/>
<rect x="131.709" y="267.79" width="52.5" height="2.5" stroke="black" stroke-opacity="0.5" stroke-width="0.5"/>
<path d="M135.959 208.04H184.459V205.04H133.459C132.978 205.04 132.774 205.651 133.159 205.94L135.959 208.04Z" fill="#DFE2E3"/>
<path d="M133.309 205.74L136.042 207.79H184.209V205.29H133.459C133.218 205.29 133.117 205.595 133.309 205.74Z" stroke="black" stroke-opacity="0.5" stroke-width="0.5"/>
<path d="M105.749 207.618L142.092 202.552L149.828 211.86L145.826 218.678L108.505 223.537L102.621 215.133L105.749 207.618Z" fill="#DFE2E3"/>
<path d="M102.905 215.102L105.925 207.846L141.989 202.819L149.524 211.885L145.672 218.446L108.623 223.27L102.905 215.102Z" stroke="black" stroke-opacity="0.5" stroke-width="0.5"/>
<path d="M106.623 208.315L141.885 203.53L148.746 212.142L144.952 217.981L109.201 222.663L103.703 214.851L106.623 208.315Z" fill="#DFE2E3"/>
<path d="M103.989 214.823L106.795 208.544L141.778 203.797L148.439 212.157L144.805 217.748L109.319 222.395L103.989 214.823Z" stroke="black" stroke-opacity="0.5" stroke-width="0.5"/>
<path d="M120.824 211.522L114.473 212.782C114.081 212.86 113.773 213.164 113.69 213.555L112.983 216.885C112.838 217.566 113.417 218.183 114.106 218.082L124.738 216.523C125.59 216.398 125.897 215.327 125.24 214.77L121.665 211.74C121.432 211.543 121.122 211.463 120.824 211.522Z" stroke="black" stroke-opacity="0.5" stroke-width="0.5"/>
<path d="M131.211 215.028L137.588 213.912C137.982 213.842 138.297 213.545 138.389 213.156L139.17 209.843C139.33 209.165 138.765 208.535 138.074 208.621L127.409 209.942C126.555 210.047 126.225 211.111 126.869 211.682L130.375 214.792C130.603 214.994 130.911 215.081 131.211 215.028Z" stroke="black" stroke-opacity="0.5" stroke-width="0.5"/>
<circle cx="145.886" cy="213.579" r="2" transform="rotate(11.9801 145.886 213.579)" fill="#DFE2E3"/>
<circle cx="145.886" cy="213.579" r="1.75" transform="rotate(11.9801 145.886 213.579)" stroke="black" stroke-opacity="0.5" stroke-width="0.5"/>
<circle cx="105.867" cy="214.288" r="2" transform="rotate(11.9801 105.867 214.288)" fill="#DFE2E3"/>
<circle cx="105.867" cy="214.288" r="1.75" transform="rotate(11.9801 105.867 214.288)" stroke="black" stroke-opacity="0.5" stroke-width="0.5"/>
<circle cx="111.588" cy="211.413" r="2" transform="rotate(11.9801 111.588 211.413)" fill="#DFE2E3"/>
<circle cx="111.588" cy="211.413" r="1.75" transform="rotate(11.9801 111.588 211.413)" stroke="black" stroke-opacity="0.5" stroke-width="0.5"/>
<circle cx="113.96" cy="198.366" r="2" transform="rotate(17.8593 113.96 198.366)" fill="#DFE2E3"/>
<circle cx="113.96" cy="198.366" r="1.75" transform="rotate(17.8593 113.96 198.366)" stroke="black" stroke-opacity="0.5" stroke-width="0.5"/>
<circle cx="139.186" cy="216.247" r="2" transform="rotate(11.9801 139.186 216.247)" fill="#DFE2E3"/>
<circle cx="139.186" cy="216.247" r="1.75" transform="rotate(11.9801 139.186 216.247)" stroke="black" stroke-opacity="0.5" stroke-width="0.5"/>
<circle cx="125.312" cy="228.637" r="2" transform="rotate(11.9801 125.312 228.637)" fill="#DFE2E3"/>
<circle cx="125.312" cy="228.637" r="1.75" transform="rotate(11.9801 125.312 228.637)" stroke="black" stroke-opacity="0.5" stroke-width="0.5"/>
<path d="M137.897 217.507L110.023 221.201L106.045 215.859" stroke="black" stroke-opacity="0.5" stroke-width="0.5"/>
<path d="M106.312 209.782L141.469 205.486L146.301 211.623" stroke="black" stroke-opacity="0.5" stroke-width="0.5"/>
<path d="M141.781 204.019L141.469 205.486" stroke="black" stroke-opacity="0.5" stroke-width="0.5"/>
<path d="M158.459 270.04H163.459L163.098 272.204C163.018 272.686 162.6 273.04 162.112 273.04H159.806C159.317 273.04 158.9 272.686 158.819 272.204L158.459 270.04Z" fill="#DFE2E3"/>
<path d="M159.066 272.163L158.754 270.29H163.164L162.851 272.163C162.791 272.525 162.478 272.79 162.112 272.79H159.806C159.439 272.79 159.126 272.525 159.066 272.163Z" stroke="black" stroke-opacity="0.5" stroke-width="0.5"/>
<path d="M158.459 205.54H163.459L163.098 203.375C163.018 202.893 162.6 202.54 162.112 202.54H159.806C159.317 202.54 158.9 202.893 158.819 203.375L158.459 205.54Z" fill="#DFE2E3"/>
<path d="M159.066 203.416L158.754 205.29H163.164L162.851 203.416C162.791 203.055 162.478 202.79 162.112 202.79H159.806C159.439 202.79 159.126 203.055 159.066 203.416Z" stroke="black" stroke-opacity="0.5" stroke-width="0.5"/>
<path d="M165.459 270.04H170.459L170.098 272.204C170.018 272.686 169.6 273.04 169.112 273.04H166.806C166.317 273.04 165.9 272.686 165.819 272.204L165.459 270.04Z" fill="#DFE2E3"/>
<path d="M166.066 272.163L165.754 270.29H170.164L169.851 272.163C169.791 272.525 169.478 272.79 169.112 272.79H166.806C166.439 272.79 166.126 272.525 166.066 272.163Z" stroke="black" stroke-opacity="0.5" stroke-width="0.5"/>
<path d="M165.459 205.54H170.459L170.098 203.375C170.018 202.893 169.6 202.54 169.112 202.54H166.806C166.317 202.54 165.9 202.893 165.819 203.375L165.459 205.54Z" fill="#DFE2E3"/>
<path d="M166.066 203.416L165.754 205.29H170.164L169.851 203.416C169.791 203.055 169.478 202.79 169.112 202.79H166.806C166.439 202.79 166.126 203.055 166.066 203.416Z" stroke="black" stroke-opacity="0.5" stroke-width="0.5"/>
<path d="M172.459 270.04H177.459L177.098 272.204C177.018 272.686 176.6 273.04 176.112 273.04H173.806C173.317 273.04 172.9 272.686 172.819 272.204L172.459 270.04Z" fill="#DFE2E3"/>
<path d="M173.066 272.163L172.754 270.29H177.164L176.851 272.163C176.791 272.525 176.478 272.79 176.112 272.79H173.806C173.439 272.79 173.126 272.525 173.066 272.163Z" stroke="black" stroke-opacity="0.5" stroke-width="0.5"/>
<path d="M195.459 264.54H200.459L200.098 266.704C200.018 267.186 199.6 267.54 199.112 267.54H196.806C196.317 267.54 195.9 267.186 195.819 266.704L195.459 264.54Z" fill="#DFE2E3"/>
<path d="M196.066 266.663L195.754 264.79H200.164L199.851 266.663C199.791 267.025 199.478 267.29 199.112 267.29H196.806C196.439 267.29 196.126 267.025 196.066 266.663Z" stroke="black" stroke-opacity="0.5" stroke-width="0.5"/>
<path d="M195.459 213.04H200.459L200.098 210.875C200.018 210.393 199.6 210.04 199.112 210.04H196.806C196.317 210.04 195.9 210.393 195.819 210.875L195.459 213.04Z" fill="#DFE2E3"/>
<path d="M196.066 210.916L195.754 212.79H200.164L199.851 210.916C199.791 210.555 199.478 210.29 199.112 210.29H196.806C196.439 210.29 196.126 210.555 196.066 210.916Z" stroke="black" stroke-opacity="0.5" stroke-width="0.5"/>
<path d="M188.459 264.54H192.459L192.22 265.736C192.126 266.203 191.716 266.54 191.239 266.54H189.679C189.202 266.54 188.791 266.203 188.698 265.736L188.459 264.54Z" fill="#DFE2E3"/>
<path d="M188.943 265.687L188.764 264.79H192.154L191.974 265.687C191.904 266.037 191.596 266.29 191.239 266.29H189.679C189.321 266.29 189.013 266.037 188.943 265.687Z" stroke="black" stroke-opacity="0.5" stroke-width="0.5"/>
<path d="M188.459 213.04H192.459L192.22 211.843C192.126 211.376 191.716 211.04 191.239 211.04H189.679C189.202 211.04 188.791 211.376 188.698 211.843L188.459 213.04Z" fill="#DFE2E3"/>
<path d="M188.943 211.893L188.764 212.79H192.154L191.974 211.893C191.904 211.542 191.596 211.29 191.239 211.29H189.679C189.321 211.29 189.013 211.542 188.943 211.893Z" stroke="black" stroke-opacity="0.5" stroke-width="0.5"/>
<path d="M172.459 205.54H177.459L177.098 203.375C177.018 202.893 176.6 202.54 176.112 202.54H173.806C173.317 202.54 172.9 202.893 172.819 203.375L172.459 205.54Z" fill="#DFE2E3"/>
<path d="M173.066 203.416L172.754 205.29H177.164L176.851 203.416C176.791 203.055 176.478 202.79 176.112 202.79H173.806C173.439 202.79 173.126 203.055 173.066 203.416Z" stroke="black" stroke-opacity="0.5" stroke-width="0.5"/>
<rect width="53" height="52" transform="matrix(-1 0 0 1 370.227 212.54)" fill="#C6CDD0"/>
<rect x="-0.5" y="0.5" width="52" height="51" transform="matrix(-1 0 0 1 369.227 212.54)" stroke="black" stroke-opacity="0.5"/>
<rect width="31" height="2" transform="matrix(-1 0 0 1 347.227 216.54)" fill="#DFE2E3"/>
<rect x="-0.25" y="0.25" width="30.5" height="1.5" transform="matrix(-1 0 0 1 346.727 216.54)" stroke="black" stroke-opacity="0.5" stroke-width="0.5"/>
<rect width="31" height="2" transform="matrix(-1 0 0 1 347.227 262.54)" fill="#DFE2E3"/>
<rect x="-0.25" y="0.25" width="30.5" height="1.5" transform="matrix(-1 0 0 1 346.727 262.54)" stroke="black" stroke-opacity="0.5" stroke-width="0.5"/>
<rect width="31" height="6" transform="matrix(-1 0 0 1 369.227 207.54)" fill="#DFE2E3"/>
<rect x="-0.25" y="0.25" width="30.5" height="5.5" transform="matrix(-1 0 0 1 368.727 207.54)" stroke="black" stroke-opacity="0.5" stroke-width="0.5"/>
<rect width="31" height="6" transform="matrix(-1 0 0 1 369.227 264.393)" fill="#DFE2E3"/>
<rect x="-0.25" y="0.25" width="30.5" height="5.5" transform="matrix(-1 0 0 1 368.727 264.393)" stroke="black" stroke-opacity="0.5" stroke-width="0.5"/>
<path d="M398.824 212.318L384.686 205.531H356.727L346.85 221.801V238.071V254.341L356.727 270.611H385.631L398.824 251.486V238.071V212.318Z" fill="#C6CDD0"/>
<path d="M347.35 254.201L357.009 270.111H385.369L398.324 251.331V238.071V212.633L384.572 206.031H357.009L347.35 221.941V238.071V254.201Z" stroke="black" stroke-opacity="0.5"/>
<mask id="path-297-inside-3_35_23652" fill="white">
<path d="M416.564 174.704L375.745 225.4L377.165 239.187L371.704 254.532L399.706 254.532C411.375 254.532 422.319 248.877 429.07 239.359L441.287 222.135L416.564 174.704Z"/>
</mask>
<path d="M416.564 174.704L375.745 225.4L377.165 239.187L371.704 254.532L399.706 254.532C411.375 254.532 422.319 248.877 429.07 239.359L441.287 222.135L416.564 174.704Z" fill="#DFE2E3"/>
<path d="M411.971 237.227L412.215 237.281L412.106 237.769L411.862 237.715L411.971 237.227ZM411.862 237.715L407.232 236.684L407.341 236.196L411.971 237.227L411.862 237.715ZM375.745 225.4L375.248 225.452L375.227 225.247L375.356 225.087L375.745 225.4ZM416.564 174.704L416.174 174.39L416.654 173.795L417.007 174.473L416.564 174.704ZM441.287 222.135L441.731 221.904L441.872 222.175L441.695 222.424L441.287 222.135ZM429.07 239.359L429.478 239.648L429.478 239.648L429.07 239.359ZM399.706 254.532L399.706 254.032H399.706L399.706 254.532ZM371.704 254.532L371.704 255.032L370.995 255.032L371.232 254.364L371.704 254.532ZM377.165 239.187L377.662 239.136L377.674 239.248L377.636 239.355L377.165 239.187ZM375.356 225.087L416.174 174.39L416.953 175.018L376.135 225.714L375.356 225.087ZM417.007 174.473L441.731 221.904L440.844 222.366L416.12 174.935L417.007 174.473ZM441.695 222.424L429.478 239.648L428.662 239.07L440.879 221.845L441.695 222.424ZM399.706 255.032L371.704 255.032L371.704 254.032L399.706 254.032L399.706 255.032ZM371.232 254.364L376.694 239.019L377.636 239.355L372.175 254.699L371.232 254.364ZM376.668 239.238L375.248 225.452L376.243 225.349L377.662 239.136L376.668 239.238ZM429.478 239.648C422.633 249.298 411.537 255.032 399.706 255.032L399.706 254.032C411.213 254.032 422.005 248.455 428.662 239.07L429.478 239.648Z" fill="black" fill-opacity="0.5" mask="url(#path-297-inside-3_35_23652)"/>
<path d="M414.704 215.448L431.204 214.809L435.704 218.309L439.09 224.428L430.763 236.427H414.704L401.204 253.08L399.499 245.488L381.704 248.917L406.193 223.611L409.131 222.877L412.152 218.309L414.704 215.448Z" fill="#909090" style="mix-blend-mode:multiply"/>
<path d="M414.704 215.448L431.204 214.809L435.704 218.309L439.09 224.428L430.763 236.427H414.704L401.204 253.08L399.499 245.488L381.704 248.917L406.193 223.611L409.131 222.877L412.152 218.309L414.704 215.448Z" stroke="black" stroke-opacity="0.5" stroke-width="0.5" stroke-linecap="round"/>
<path d="M426.716 236.478V236.478C422.073 244.099 414.278 249.259 405.449 250.555L403.509 250.84" stroke="black" stroke-opacity="0.5" stroke-width="0.5" stroke-linecap="round"/>
<path d="M414.578 236.543L400.364 254.345" stroke="black" stroke-opacity="0.5" stroke-width="0.5" stroke-linecap="round"/>
<path d="M425.307 211.087L413.159 211.087" stroke="black" stroke-opacity="0.5" stroke-width="0.5"/>
<path d="M434.733 129.529L458.782 129.735L466.973 151.147L480.645 178.463L481.907 185.62L481.472 193.919L508.128 259.003L515.447 300.511L513.534 304.011L490.236 308.119L434.971 218.352L427.767 214.562L403.496 172.576L405.959 168.102L406.556 134.497L434.733 129.529Z" fill="#DFE2E3"/>
<path d="M406.459 168.111L406.457 168.235L406.397 168.343L404.07 172.57L428.127 214.187L435.203 217.91L435.325 217.973L435.396 218.09L490.484 307.568L513.211 303.56L514.924 300.425L507.645 259.143L481.01 194.108L480.967 194.004L480.973 193.892L481.404 185.65L480.165 178.622L466.526 151.371L466.515 151.348L466.506 151.325L458.437 130.232L434.774 130.029L407.049 134.918L406.459 168.111Z" stroke="black" stroke-opacity="0.5"/>
<path d="M444.045 231.015L454.878 229.105L468.922 254.045L473.437 279.65" stroke="black" stroke-opacity="0.5" stroke-width="0.5" stroke-linecap="round"/>
<path d="M444.305 232.492L454.345 230.722L467.445 254.306L471.438 276.956" stroke="black" stroke-opacity="0.5" stroke-width="0.5" stroke-linecap="round"/>
<path d="M437.77 157.995L430.441 165.38" stroke="black" stroke-opacity="0.5" stroke-width="0.5" stroke-linecap="round"/>
<path d="M438.841 158.314L432.092 166.105" stroke="black" stroke-opacity="0.5" stroke-width="0.5" stroke-linecap="round"/>
<path d="M450.337 183.196L440.768 184.883" stroke="black" stroke-opacity="0.5" stroke-width="0.5" stroke-linecap="round"/>
<path d="M451.139 184.87L440.914 186.673" stroke="black" stroke-opacity="0.5" stroke-width="0.5" stroke-linecap="round"/>
<path d="M451.176 185.079L434.613 217.948" stroke="black" stroke-opacity="0.5" stroke-width="0.5" stroke-linecap="round"/>
<path d="M466.311 151.449L439.145 157.252L406.562 168.36" stroke="black" stroke-opacity="0.5" stroke-width="0.5" stroke-linecap="round"/>
<path d="M491.521 307.439L485.27 263.354L451.449 198.238L454.433 192.127L438.653 157.339" stroke="black" stroke-opacity="0.5" stroke-width="0.5" stroke-linecap="round"/>
<path d="M458.819 131.16L438.723 134.703L406.778 135.368" stroke="black" stroke-opacity="0.5" stroke-width="0.5" stroke-linecap="round"/>
<path d="M438.566 156.846L438.279 135.065" stroke="black" stroke-opacity="0.5" stroke-width="0.5" stroke-linecap="round"/>
<path d="M403.938 172.616L432.135 163.565L442.125 185.666L428.154 213.118" stroke="black" stroke-opacity="0.5" stroke-width="0.5" stroke-linecap="round"/>
<path d="M404.492 173.796L431.411 165.216L441.177 186.048L427.668 212.078" stroke="black" stroke-opacity="0.5" stroke-width="0.5" stroke-linecap="round"/>
<path d="M441.62 135.491L456.017 132.953C456.967 132.785 457.901 133.32 458.238 134.224L463.581 148.563C464.012 149.718 463.304 150.984 462.095 151.223L442.697 155.053C441.478 155.294 440.337 154.377 440.31 153.135L439.968 137.505C439.946 136.518 440.648 135.663 441.62 135.491Z" fill="#DFE2E3" stroke="black" stroke-opacity="0.5" stroke-width="0.5" stroke-linecap="round"/>
<path d="M442.749 136.308L455.558 134.049C456.508 133.882 457.442 134.416 457.779 135.319L462.422 147.755C462.853 148.909 462.148 150.175 460.94 150.415L443.553 153.881C442.319 154.127 441.168 153.187 441.162 151.929L441.097 138.287C441.092 137.313 441.79 136.477 442.749 136.308Z" fill="#DFE2E3" stroke="black" stroke-opacity="0.5" stroke-width="0.5" stroke-linecap="round"/>
<rect width="22" height="26" rx="2" transform="matrix(-0.984808 0.173648 0.173648 0.984808 509.975 276.768)" fill="#DFE2E3"/>
<rect x="-0.20279" y="0.289614" width="21.5" height="25.5" rx="1.75" transform="matrix(-0.984808 0.173648 0.173648 0.984808 509.522 276.808)" stroke="black" stroke-opacity="0.5" stroke-width="0.5"/>
<path d="M475.188 186.792L470.563 175.163C470.212 174.282 469.291 173.768 468.357 173.933L457.941 175.769C456.746 175.98 456.013 177.197 456.385 178.352L459.998 189.571C460.11 189.917 460.125 190.287 460.042 190.641L458.591 196.828C458.487 197.272 458.538 197.739 458.735 198.151L489.828 262.846C489.89 262.976 489.939 263.112 489.972 263.253L492.944 275.826C493.188 276.858 494.194 277.52 495.238 277.336L502.921 275.981C503.933 275.802 504.645 274.886 504.568 273.862L503.603 260.997C503.585 260.757 503.524 260.522 503.423 260.304L473.595 196.061C473.397 195.636 473.355 195.154 473.477 194.701L475.261 188.049C475.373 187.633 475.347 187.192 475.188 186.792Z" fill="#DFE2E3" stroke="black" stroke-opacity="0.5" stroke-width="0.5" stroke-linecap="round"/>
<path d="M473.928 187.496L469.498 175.886C469.156 174.991 468.226 174.463 467.282 174.63L457.933 176.278C456.746 176.488 456.012 177.692 456.371 178.843L459.869 190.07C459.97 190.394 459.987 190.739 459.918 191.071L458.632 197.265C458.546 197.682 458.595 198.117 458.773 198.504L488.407 263.182C488.463 263.304 488.506 263.431 488.537 263.562L491.443 276.083C491.684 277.118 492.692 277.785 493.739 277.6L502.034 276.137C503.051 275.958 503.765 275.034 503.68 274.004L502.633 261.235C502.614 260.998 502.552 260.767 502.451 260.551L472.551 196.62C472.36 196.211 472.313 195.748 472.418 195.308L474.005 188.675C474.098 188.283 474.072 187.872 473.928 187.496Z" fill="#DFE2E3" stroke="black" stroke-opacity="0.5" stroke-width="0.5" stroke-linecap="round"/>
<path d="M464.021 188.913L464.204 189.084L463.783 188.991L464.021 188.913ZM465.73 187.089L465.956 187.195L465.94 187.231L465.913 187.259L465.73 187.089ZM462.921 185.553L462.683 185.631L462.654 185.542L462.691 185.455L462.921 185.553ZM470.389 177.782L465.956 187.195L465.504 186.982L469.937 177.569L470.389 177.782ZM465.913 187.259L464.204 189.084L463.839 188.742L465.548 186.918L465.913 187.259ZM467.816 174.674L463.151 185.651L462.691 185.455L467.356 174.479L467.816 174.674ZM463.159 185.475L464.259 188.835L463.783 188.991L462.683 185.631L463.159 185.475Z" fill="black" fill-opacity="0.5"/>
<path d="M459.561 186.653L463.993 185.872L465.73 187.089L504.009 271.727" stroke="black" stroke-opacity="0.5" stroke-width="0.5"/>
<path d="M459.995 189.115L463.934 188.421L503.227 275.927" stroke="black" stroke-opacity="0.5" stroke-width="0.5"/>
<path d="M457.745 183.419L451.075 184.596" stroke="black" stroke-opacity="0.5" stroke-width="0.5" stroke-linecap="round"/>
<path d="M479.634 179.56L472.964 180.736" stroke="black" stroke-opacity="0.5" stroke-width="0.5" stroke-linecap="round"/>
<path d="M507.921 259.36L503.489 260.142" stroke="black" stroke-opacity="0.5" stroke-width="0.5" stroke-linecap="round"/>
<rect width="3" height="21" rx="1.5" transform="matrix(-0.897659 0.440691 0.440691 0.897659 462.179 194.823)" fill="#DFE2E3"/>
<rect x="-0.114242" y="0.334587" width="2.5" height="20.5" rx="1.25" transform="matrix(-0.897659 0.440691 0.440691 0.897659 461.814 194.907)" stroke="black" stroke-opacity="0.5" stroke-width="0.5"/>
<ellipse rx="12" ry="15.5" transform="matrix(-1 0 0 1 418.367 193.367)" fill="#DFE2E3"/>
<path d="M406.617 193.367C406.617 201.852 411.934 208.617 418.367 208.617C424.801 208.617 430.117 201.852 430.117 193.367C430.117 184.881 424.801 178.117 418.367 178.117C411.934 178.117 406.617 184.881 406.617 193.367Z" stroke="black" stroke-opacity="0.5" stroke-width="0.5"/>
<ellipse rx="11.5" ry="15.5" transform="matrix(-1 0 0 1 417.867 194.367)" fill="#DFE2E3"/>
<path d="M406.867 194.367C406.867 198.551 408.126 202.319 410.137 205.029C412.148 207.74 414.887 209.367 417.867 209.367C420.848 209.367 423.587 207.74 425.598 205.029C427.609 202.319 428.867 198.551 428.867 194.367C428.867 190.183 427.609 186.415 425.598 183.705C423.587 180.994 420.848 179.367 417.867 179.367C414.887 179.367 412.148 180.994 410.137 183.705C408.126 186.415 406.867 190.183 406.867 194.367Z" stroke="black" stroke-opacity="0.5"/>
<ellipse rx="9.5" ry="13.5" transform="matrix(-1 0 0 1 417.867 194.367)" fill="#DFE2E3"/>
<path d="M408.617 194.367C408.617 198.049 409.668 201.373 411.354 203.769C413.041 206.166 415.347 207.617 417.867 207.617C420.387 207.617 422.694 206.166 424.38 203.769C426.067 201.373 427.117 198.049 427.117 194.367C427.117 190.684 426.067 187.361 424.38 184.965C422.694 182.568 420.387 181.117 417.867 181.117C415.347 181.117 413.041 182.568 411.354 184.965C409.668 187.361 408.617 190.684 408.617 194.367Z" stroke="black" stroke-opacity="0.5" stroke-width="0.5"/>
<ellipse rx="9" ry="13.5" transform="matrix(-1 0 0 1 418.367 194.367)" fill="#DFE2E3"/>
<path d="M409.617 194.367C409.617 198.052 410.614 201.377 412.211 203.774C413.81 206.172 415.992 207.617 418.367 207.617C420.743 207.617 422.924 206.172 424.523 203.774C426.121 201.377 427.117 198.052 427.117 194.367C427.117 190.681 426.121 187.356 424.523 184.96C422.924 182.561 420.743 181.117 418.367 181.117C415.992 181.117 413.81 182.561 412.211 184.96C410.614 187.356 409.617 190.681 409.617 194.367Z" stroke="black" stroke-opacity="0.5" stroke-width="0.5"/>
<ellipse rx="1.5" ry="2" transform="matrix(-1 0 0 1 420.867 185.867)" fill="#DFE2E3"/>
<path d="M419.617 185.867C419.617 186.37 419.771 186.816 420.007 187.131C420.243 187.446 420.55 187.617 420.867 187.617C421.185 187.617 421.492 187.446 421.728 187.131C421.964 186.816 422.117 186.37 422.117 185.867C422.117 185.363 421.964 184.917 421.728 184.603C421.492 184.288 421.185 184.117 420.867 184.117C420.55 184.117 420.243 184.288 420.007 184.603C419.771 184.917 419.617 185.363 419.617 185.867Z" stroke="black" stroke-opacity="0.5" stroke-width="0.5"/>
<ellipse rx="1.5" ry="2" transform="matrix(-1 0 0 1 423.867 197.867)" fill="#DFE2E3"/>
<path d="M422.617 197.867C422.617 198.37 422.771 198.816 423.007 199.131C423.243 199.446 423.55 199.617 423.867 199.617C424.185 199.617 424.492 199.446 424.728 199.131C424.964 198.816 425.117 198.37 425.117 197.867C425.117 197.363 424.964 196.917 424.728 196.603C424.492 196.288 424.185 196.117 423.867 196.117C423.55 196.117 423.243 196.288 423.007 196.603C422.771 196.917 422.617 197.363 422.617 197.867Z" stroke="black" stroke-opacity="0.5" stroke-width="0.5"/>
<ellipse rx="1.5" ry="2" transform="matrix(-1 0 0 1 414.867 202.867)" fill="#DFE2E3"/>
<path d="M413.617 202.867C413.617 203.37 413.771 203.816 414.007 204.131C414.243 204.446 414.55 204.617 414.867 204.617C415.185 204.617 415.492 204.446 415.728 204.131C415.964 203.816 416.117 203.37 416.117 202.867C416.117 202.363 415.964 201.917 415.728 201.603C415.492 201.288 415.185 201.117 414.867 201.117C414.55 201.117 414.243 201.288 414.007 201.603C413.771 201.917 413.617 202.363 413.617 202.867Z" stroke="black" stroke-opacity="0.5" stroke-width="0.5"/>
<ellipse rx="1.5" ry="2" transform="matrix(-1 0 0 1 411.867 192.867)" fill="#DFE2E3"/>
<path d="M410.617 192.867C410.617 193.37 410.771 193.816 411.007 194.131C411.243 194.446 411.55 194.617 411.867 194.617C412.185 194.617 412.492 194.446 412.728 194.131C412.964 193.816 413.117 193.37 413.117 192.867C413.117 192.363 412.964 191.917 412.728 191.603C412.492 191.288 412.185 191.117 411.867 191.117C411.55 191.117 411.243 191.288 411.007 191.603C410.771 191.917 410.617 192.363 410.617 192.867Z" stroke="black" stroke-opacity="0.5" stroke-width="0.5"/>
<path d="M377.126 254.237L412.094 218.543" stroke="black" stroke-opacity="0.5" stroke-width="0.5"/>
<path d="M432.211 216.534H410.57" stroke="black" stroke-opacity="0.5" stroke-width="0.5"/>
<path d="M431.008 215.534H409.367" stroke="black" stroke-opacity="0.5" stroke-width="0.5"/>
<path d="M433.413 217.534H411.772" stroke="black" stroke-opacity="0.5" stroke-width="0.5"/>
<path d="M434.615 218.534H412.974" stroke="black" stroke-opacity="0.5" stroke-width="0.5"/>
<path d="M391.703 236.392L383.519 244.775" stroke="black" stroke-opacity="0.5" stroke-width="0.5" stroke-linecap="round"/>
<path d="M381.205 217.86L385.512 223.017C387.711 225.648 388.867 228.995 388.762 232.422L388.633 236.597L406.727 236.597" stroke="black" stroke-opacity="0.5" stroke-width="0.5" stroke-linecap="round"/>
<path d="M431.516 234.971L431.653 235.429L430.639 236.096L430.501 236.137H414.009H400.451L400.396 236.131L397.46 235.464L397.266 235.221V234.554L397.571 234.31L400.479 234.971H414.516H431.516Z" stroke="black" stroke-opacity="0.5" stroke-width="0.5" stroke-linejoin="bevel"/>
<path d="M433.133 232.971L433.271 233.429L432.256 234.096L432.119 234.137H415.626H402.068L402.013 234.131L399.078 233.464L398.883 233.221V232.554L399.189 232.31L402.096 232.971H416.133H433.133Z" stroke="black" stroke-opacity="0.5" stroke-width="0.5" stroke-linejoin="bevel"/>
<path d="M434.977 230.971L435.114 231.429L434.099 232.096L433.962 232.137H417.469H403.912L403.856 232.131L400.921 231.464L400.727 231.221V230.554L401.032 230.31L403.94 230.971H417.977H434.977Z" stroke="black" stroke-opacity="0.5" stroke-width="0.5" stroke-linejoin="bevel"/>
<path d="M436.133 228.971L436.271 229.43L435.256 230.096L435.119 230.137H418.626H405.068L405.013 230.131L402.078 229.464L401.883 229.221V228.554L402.189 228.31L405.097 228.971H419.133H436.133Z" stroke="black" stroke-opacity="0.5" stroke-width="0.5" stroke-linejoin="bevel"/>
<path d="M438.933 224.757L439.07 225.215L438.056 225.882L437.918 225.923H421.426H407.868L407.812 225.917L404.877 225.25L404.683 225.007V224.34L404.988 224.096L407.896 224.757H421.933H438.933Z" stroke="black" stroke-opacity="0.5" stroke-width="0.5" stroke-linejoin="bevel"/>
<path d="M438.39 226.09L438.528 226.549L437.513 227.216L437.376 227.257H420.883H407.325L407.27 227.25L404.335 226.584L404.14 226.34V225.673L404.446 225.429L407.353 226.09H421.39H438.39Z" stroke="black" stroke-opacity="0.5" stroke-width="0.5" stroke-linejoin="bevel"/>
<path d="M437.188 227.423L437.325 227.882L436.311 228.549L436.174 228.59H419.681H406.123L406.068 228.584L403.133 227.917L402.938 227.673V227.007L403.243 226.763L406.151 227.423H420.188H437.188Z" stroke="black" stroke-opacity="0.5" stroke-width="0.5" stroke-linejoin="bevel"/>
<path d="M432.516 233.887H397.516" stroke="black" stroke-opacity="0.5" stroke-width="0.5" stroke-linecap="round" stroke-linejoin="bevel"/>
<path d="M434.133 231.887H399.133" stroke="black" stroke-opacity="0.5" stroke-width="0.5" stroke-linecap="round" stroke-linejoin="bevel"/>
<path d="M435.977 229.887H400.977" stroke="black" stroke-opacity="0.5" stroke-width="0.5" stroke-linecap="round" stroke-linejoin="bevel"/>
<path d="M438.933 223.84H406.089" stroke="black" stroke-opacity="0.5" stroke-width="0.5"/>
<path d="M436.633 228.554L402.482 228.426" stroke="black" stroke-opacity="0.5" stroke-width="0.5" stroke-linecap="round"/>
<path d="M439.433 224.34L405.282 224.212" stroke="black" stroke-opacity="0.5" stroke-width="0.5" stroke-linecap="round"/>
<path d="M423.768 224.381L422.545 224.381L412.09 236.991L413.29 236.991L423.768 224.381Z" fill="#C4C4C4"/>
<path d="M423.768 224.131L424.301 224.131L423.961 224.541L413.483 237.15L413.408 237.241L413.29 237.241L412.09 237.241L411.558 237.241L411.897 236.831L422.353 224.221L422.428 224.131L422.545 224.131L423.768 224.131Z" stroke="black" stroke-opacity="0.5" stroke-width="0.5"/>
<path d="M372.36 222.54H348.227V254.54H372.36V254.54C389.185 250.891 389.69 227.075 373.035 222.716L372.36 222.54Z" fill="#DFE2E3"/>
<path d="M348.727 254.04H372.306C388.566 250.465 389.037 227.421 372.908 223.2L372.295 223.04H348.727V254.04Z" stroke="black" stroke-opacity="0.5"/>
<path d="M370.299 222.54H347.227V254.54H370.299V254.54C386.944 250.764 387.464 227.238 371.001 222.732L370.299 222.54Z" fill="#DFE2E3"/>
<path d="M347.477 254.29H370.271C386.636 250.552 387.138 227.408 370.935 222.973L370.265 222.79H347.477V254.29Z" stroke="black" stroke-opacity="0.5" stroke-width="0.5"/>
<circle r="2" transform="matrix(-1 0 0 1 373.227 233.54)" fill="#DFE2E3"/>
<circle r="1.75" transform="matrix(-1 0 0 1 373.227 233.54)" stroke="black" stroke-opacity="0.5" stroke-width="0.5"/>
<circle r="2" transform="matrix(-1 0 0 1 373.227 243.54)" fill="#DFE2E3"/>
<circle r="1.75" transform="matrix(-1 0 0 1 373.227 243.54)" stroke="black" stroke-opacity="0.5" stroke-width="0.5"/>
<circle r="2" transform="matrix(-1 0 0 1 365.227 233.54)" fill="#DFE2E3"/>
<circle r="1.75" transform="matrix(-1 0 0 1 365.227 233.54)" stroke="black" stroke-opacity="0.5" stroke-width="0.5"/>
<circle r="2" transform="matrix(-1 0 0 1 365.227 243.54)" fill="#DFE2E3"/>
<circle r="1.75" transform="matrix(-1 0 0 1 365.227 243.54)" stroke="black" stroke-opacity="0.5" stroke-width="0.5"/>
<rect width="53" height="3" transform="matrix(-1 0 0 1 386.227 267.54)" fill="#DFE2E3"/>
<rect x="-0.25" y="0.25" width="52.5" height="2.5" transform="matrix(-1 0 0 1 385.727 267.54)" stroke="black" stroke-opacity="0.5" stroke-width="0.5"/>
<path d="M381.727 208.04H333.227V205.04H384.227C384.708 205.04 384.912 205.651 384.527 205.94L381.727 208.04Z" fill="#DFE2E3"/>
<path d="M384.377 205.74L381.644 207.79H333.477V205.29H384.227C384.467 205.29 384.569 205.595 384.377 205.74Z" stroke="black" stroke-opacity="0.5" stroke-width="0.5"/>
<path d="M411.937 207.618L375.594 202.552L367.857 211.86L371.86 218.678L409.181 223.537L415.065 215.133L411.937 207.618Z" fill="#DFE2E3"/>
<path d="M414.781 215.102L411.761 207.846L375.697 202.819L368.162 211.885L372.013 218.446L409.063 223.269L414.781 215.102Z" stroke="black" stroke-opacity="0.5" stroke-width="0.5"/>
<path d="M411.063 208.315L375.801 203.53L368.939 212.142L372.734 217.981L408.485 222.663L413.983 214.851L411.063 208.315Z" fill="#DFE2E3"/>
<path d="M413.697 214.823L410.891 208.544L375.908 203.797L369.247 212.157L372.881 217.748L408.367 222.395L413.697 214.823Z" stroke="black" stroke-opacity="0.5" stroke-width="0.5"/>
<path d="M396.862 211.522L403.213 212.782C403.605 212.86 403.913 213.164 403.996 213.555L404.703 216.885C404.847 217.566 404.269 218.183 403.58 218.082L392.947 216.523C392.096 216.398 391.789 215.327 392.446 214.77L396.021 211.74C396.254 211.543 396.563 211.463 396.862 211.522Z" stroke="black" stroke-opacity="0.5" stroke-width="0.5"/>
<path d="M386.475 215.028L380.098 213.911C379.704 213.842 379.389 213.545 379.297 213.156L378.516 209.843C378.356 209.165 378.921 208.535 379.612 208.621L390.277 209.942C391.131 210.047 391.461 211.111 390.817 211.682L387.311 214.792C387.083 214.994 386.775 215.081 386.475 215.028Z" stroke="black" stroke-opacity="0.5" stroke-width="0.5"/>
<circle r="2" transform="matrix(-0.97822 0.207572 0.207572 0.97822 371.8 213.579)" fill="#DFE2E3"/>
<circle r="1.75" transform="matrix(-0.97822 0.207572 0.207572 0.97822 371.8 213.579)" stroke="black" stroke-opacity="0.5" stroke-width="0.5"/>
<circle r="2" transform="matrix(-0.97822 0.207572 0.207572 0.97822 411.819 214.288)" fill="#DFE2E3"/>
<circle r="1.75" transform="matrix(-0.97822 0.207572 0.207572 0.97822 411.819 214.288)" stroke="black" stroke-opacity="0.5" stroke-width="0.5"/>
<circle r="2" transform="matrix(-0.97822 0.207572 0.207572 0.97822 406.097 211.413)" fill="#DFE2E3"/>
<circle r="1.75" transform="matrix(-0.97822 0.207572 0.207572 0.97822 406.097 211.413)" stroke="black" stroke-opacity="0.5" stroke-width="0.5"/>
<circle r="2" transform="matrix(-0.951813 0.30668 0.30668 0.951813 403.726 198.366)" fill="#DFE2E3"/>
<circle r="1.75" transform="matrix(-0.951813 0.30668 0.30668 0.951813 403.726 198.366)" stroke="black" stroke-opacity="0.5" stroke-width="0.5"/>
<circle r="2" transform="matrix(-0.97822 0.207572 0.207572 0.97822 378.5 216.247)" fill="#DFE2E3"/>
<circle r="1.75" transform="matrix(-0.97822 0.207572 0.207572 0.97822 378.5 216.247)" stroke="black" stroke-opacity="0.5" stroke-width="0.5"/>
<circle r="2" transform="matrix(-0.97822 0.207572 0.207572 0.97822 392.374 228.637)" fill="#DFE2E3"/>
<circle r="1.75" transform="matrix(-0.97822 0.207572 0.207572 0.97822 392.374 228.637)" stroke="black" stroke-opacity="0.5" stroke-width="0.5"/>
<path d="M379.789 217.507L407.663 221.201L411.641 215.859" stroke="black" stroke-opacity="0.5" stroke-width="0.5"/>
<path d="M411.374 209.782L376.216 205.486L371.385 211.623" stroke="black" stroke-opacity="0.5" stroke-width="0.5"/>
<path d="M375.905 204.019L376.216 205.486" stroke="black" stroke-opacity="0.5" stroke-width="0.5"/>
<path d="M359.227 270.04H354.227L354.588 272.204C354.668 272.686 355.085 273.04 355.574 273.04H357.88C358.369 273.04 358.786 272.686 358.866 272.204L359.227 270.04Z" fill="#DFE2E3"/>
<path d="M358.62 272.163L358.932 270.29H354.522L354.834 272.163C354.895 272.525 355.208 272.79 355.574 272.79H357.88C358.247 272.79 358.56 272.525 358.62 272.163Z" stroke="black" stroke-opacity="0.5" stroke-width="0.5"/>
<path d="M359.227 205.54H354.227L354.588 203.375C354.668 202.893 355.085 202.54 355.574 202.54H357.88C358.369 202.54 358.786 202.893 358.866 203.375L359.227 205.54Z" fill="#DFE2E3"/>
<path d="M358.62 203.416L358.932 205.29H354.522L354.834 203.416C354.895 203.055 355.208 202.79 355.574 202.79H357.88C358.247 202.79 358.56 203.055 358.62 203.416Z" stroke="black" stroke-opacity="0.5" stroke-width="0.5"/>
<path d="M352.227 270.04H347.227L347.588 272.204C347.668 272.686 348.085 273.04 348.574 273.04H350.88C351.369 273.04 351.786 272.686 351.866 272.204L352.227 270.04Z" fill="#DFE2E3"/>
<path d="M351.62 272.163L351.932 270.29H347.522L347.834 272.163C347.895 272.525 348.208 272.79 348.574 272.79H350.88C351.247 272.79 351.56 272.525 351.62 272.163Z" stroke="black" stroke-opacity="0.5" stroke-width="0.5"/>
<path d="M352.227 205.54H347.227L347.588 203.375C347.668 202.893 348.085 202.54 348.574 202.54H350.88C351.369 202.54 351.786 202.893 351.866 203.375L352.227 205.54Z" fill="#DFE2E3"/>
<path d="M351.62 203.416L351.932 205.29H347.522L347.834 203.416C347.895 203.055 348.208 202.79 348.574 202.79H350.88C351.247 202.79 351.56 203.055 351.62 203.416Z" stroke="black" stroke-opacity="0.5" stroke-width="0.5"/>
<path d="M345.227 270.04H340.227L340.588 272.204C340.668 272.686 341.085 273.04 341.574 273.04H343.88C344.369 273.04 344.786 272.686 344.866 272.204L345.227 270.04Z" fill="#DFE2E3"/>
<path d="M344.62 272.163L344.932 270.29H340.522L340.834 272.163C340.895 272.525 341.208 272.79 341.574 272.79H343.88C344.247 272.79 344.56 272.525 344.62 272.163Z" stroke="black" stroke-opacity="0.5" stroke-width="0.5"/>
<path d="M322.227 264.54H317.227L317.588 266.704C317.668 267.186 318.085 267.54 318.574 267.54H320.88C321.369 267.54 321.786 267.186 321.866 266.704L322.227 264.54Z" fill="#DFE2E3"/>
<path d="M321.62 266.663L321.932 264.79H317.522L317.834 266.663C317.895 267.025 318.208 267.29 318.574 267.29H320.88C321.247 267.29 321.56 267.025 321.62 266.663Z" stroke="black" stroke-opacity="0.5" stroke-width="0.5"/>
<path d="M322.227 213.04H317.227L317.588 210.875C317.668 210.393 318.085 210.04 318.574 210.04H320.88C321.369 210.04 321.786 210.393 321.866 210.875L322.227 213.04Z" fill="#DFE2E3"/>
<path d="M321.62 210.916L321.932 212.79H317.522L317.834 210.916C317.895 210.555 318.208 210.29 318.574 210.29H320.88C321.247 210.29 321.56 210.555 321.62 210.916Z" stroke="black" stroke-opacity="0.5" stroke-width="0.5"/>
<path d="M329.227 264.54H325.227L325.466 265.736C325.56 266.203 325.97 266.54 326.447 266.54H328.007C328.484 266.54 328.894 266.203 328.988 265.736L329.227 264.54Z" fill="#DFE2E3"/>
<path d="M328.743 265.687L328.922 264.79H325.532L325.711 265.687C325.782 266.037 326.089 266.29 326.447 266.29H328.007C328.365 266.29 328.673 266.037 328.743 265.687Z" stroke="black" stroke-opacity="0.5" stroke-width="0.5"/>
<path d="M329.227 213.04H325.227L325.466 211.843C325.56 211.376 325.97 211.04 326.447 211.04H328.007C328.484 211.04 328.894 211.376 328.988 211.843L329.227 213.04Z" fill="#DFE2E3"/>
<path d="M328.743 211.893L328.922 212.79H325.532L325.711 211.893C325.782 211.542 326.089 211.29 326.447 211.29H328.007C328.365 211.29 328.673 211.542 328.743 211.893Z" stroke="black" stroke-opacity="0.5" stroke-width="0.5"/>
<path d="M345.227 205.54H340.227L340.588 203.375C340.668 202.893 341.085 202.54 341.574 202.54H343.88C344.369 202.54 344.786 202.893 344.866 203.375L345.227 205.54Z" fill="#DFE2E3"/>
<path d="M344.62 203.416L344.932 205.29H340.522L340.834 203.416C340.895 203.055 341.208 202.79 341.574 202.79H343.88C344.247 202.79 344.56 203.055 344.62 203.416Z" stroke="black" stroke-opacity="0.5" stroke-width="0.5"/>
<path d="M441.279 185.784L431.331 164.729L438.524 156.807L451.206 184.477L434.869 217.452L428.157 214.104L427.306 212.227L441.279 185.784Z" fill="#E2E7EA" style="mix-blend-mode:multiply"/>
<path d="M438.032 156.897L431.331 164.729M431.331 164.729L441.279 185.784L427.306 212.227L428.157 214.104L434.869 217.452L451.206 184.477L438.524 156.807L431.331 164.729Z" stroke="black" stroke-opacity="0.5" stroke-width="0.5" stroke-linecap="round"/>
<circle cx="315.959" cy="148.04" r="1.5" fill="#DFE2E3"/>
<circle cx="315.959" cy="148.04" r="1.25" stroke="black" stroke-opacity="0.5" stroke-width="0.5"/>
<circle cx="308.959" cy="146.04" r="1.5" fill="#DFE2E3"/>
<circle cx="308.959" cy="146.04" r="1.25" stroke="black" stroke-opacity="0.5" stroke-width="0.5"/>
<circle cx="308.959" cy="185.04" r="1.5" fill="#DFE2E3"/>
<circle cx="308.959" cy="185.04" r="1.25" stroke="black" stroke-opacity="0.5" stroke-width="0.5"/>
<circle cx="315.959" cy="185.04" r="1.5" fill="#DFE2E3"/>
<circle cx="315.959" cy="185.04" r="1.25" stroke="black" stroke-opacity="0.5" stroke-width="0.5"/>
<circle cx="353.959" cy="181.04" r="1.5" fill="#DFE2E3"/>
<circle cx="353.959" cy="181.04" r="1.25" stroke="black" stroke-opacity="0.5" stroke-width="0.5"/>
<circle cx="207.959" cy="145.04" r="1.5" fill="#DFE2E3"/>
<circle cx="207.959" cy="145.04" r="1.25" stroke="black" stroke-opacity="0.5" stroke-width="0.5"/>
<circle cx="201.959" cy="147.04" r="1.5" fill="#DFE2E3"/>
<circle cx="201.959" cy="147.04" r="1.25" stroke="black" stroke-opacity="0.5" stroke-width="0.5"/>
<circle cx="190.959" cy="151.04" r="1.5" fill="#DFE2E3"/>
<circle cx="190.959" cy="151.04" r="1.25" stroke="black" stroke-opacity="0.5" stroke-width="0.5"/>
<circle cx="196.959" cy="180.04" r="1.5" fill="#DFE2E3"/>
<circle cx="196.959" cy="180.04" r="1.25" stroke="black" stroke-opacity="0.5" stroke-width="0.5"/>
<circle cx="211.959" cy="185.04" r="1.5" fill="#DFE2E3"/>
<circle cx="211.959" cy="185.04" r="1.25" stroke="black" stroke-opacity="0.5" stroke-width="0.5"/>
<circle cx="232.959" cy="145.04" r="1.5" fill="#DFE2E3"/>
<circle cx="232.959" cy="145.04" r="1.25" stroke="black" stroke-opacity="0.5" stroke-width="0.5"/>
<circle cx="275.137" cy="145.04" r="1.5" fill="#DFE2E3"/>
<circle cx="275.137" cy="145.04" r="1.25" stroke="black" stroke-opacity="0.5" stroke-width="0.5"/>
<circle cx="240.586" cy="145.04" r="1.5" fill="#DFE2E3"/>
<circle cx="240.586" cy="145.04" r="1.25" stroke="black" stroke-opacity="0.5" stroke-width="0.5"/>
<circle cx="282.764" cy="145.04" r="1.5" fill="#DFE2E3"/>
<circle cx="282.764" cy="145.04" r="1.25" stroke="black" stroke-opacity="0.5" stroke-width="0.5"/>
<circle cx="232.959" cy="185.04" r="1.5" fill="#DFE2E3"/>
<circle cx="232.959" cy="185.04" r="1.25" stroke="black" stroke-opacity="0.5" stroke-width="0.5"/>
<circle cx="275.137" cy="185.04" r="1.5" fill="#DFE2E3"/>
<circle cx="275.137" cy="185.04" r="1.25" stroke="black" stroke-opacity="0.5" stroke-width="0.5"/>
<circle cx="240.586" cy="185.04" r="1.5" fill="#DFE2E3"/>
<circle cx="240.586" cy="185.04" r="1.25" stroke="black" stroke-opacity="0.5" stroke-width="0.5"/>
<circle cx="282.764" cy="185.04" r="1.5" fill="#DFE2E3"/>
<circle cx="282.764" cy="185.04" r="1.25" stroke="black" stroke-opacity="0.5" stroke-width="0.5"/>
<circle cx="217.959" cy="185.04" r="1.5" fill="#DFE2E3"/>
<circle cx="217.959" cy="185.04" r="1.25" stroke="black" stroke-opacity="0.5" stroke-width="0.5"/>
<circle cx="351.959" cy="163.04" r="1.5" fill="#DFE2E3"/>
<circle cx="351.959" cy="163.04" r="1.25" stroke="black" stroke-opacity="0.5" stroke-width="0.5"/>
<path d="M252.703 174.685C254.469 174.685 256.059 174.233 257.179 172.78C258.272 171.363 258.843 169.082 258.843 165.617H257.843C257.843 169.016 257.274 171.019 256.387 172.17C255.527 173.285 254.298 173.685 252.703 173.685V174.685ZM258.843 165.617C258.843 162.163 258.272 159.883 257.18 158.463C256.06 157.008 254.471 156.549 252.703 156.549V157.549C254.296 157.549 255.526 157.954 256.387 159.073C257.275 160.227 257.843 162.231 257.843 165.617H258.843ZM252.703 156.549C250.958 156.549 249.376 157.009 248.257 158.463C247.165 159.883 246.587 162.162 246.587 165.617H247.587C247.587 162.232 248.162 160.227 249.05 159.073C249.911 157.953 251.137 157.549 252.703 157.549V156.549ZM246.587 165.617C246.587 169.084 247.165 171.363 248.257 172.78C249.377 174.232 250.96 174.685 252.703 174.685V173.685C251.135 173.685 249.91 173.286 249.049 172.17C248.162 171.019 247.587 169.014 247.587 165.617H246.587ZM252.703 171.885C252.169 171.885 251.75 171.803 251.414 171.634C251.086 171.468 250.803 171.201 250.565 170.768C250.07 169.865 249.795 168.288 249.795 165.617H248.795C248.795 168.298 249.061 170.105 249.688 171.248C250.011 171.838 250.434 172.259 250.963 172.526C251.485 172.79 252.074 172.885 252.703 172.885V171.885ZM249.795 165.617C249.795 162.958 250.07 161.387 250.564 160.488C250.802 160.056 251.086 159.789 251.414 159.624C251.749 159.455 252.169 159.373 252.703 159.373V158.373C252.074 158.373 251.485 158.468 250.964 158.731C250.434 158.998 250.011 159.418 249.688 160.006C249.061 161.147 248.795 162.948 248.795 165.617H249.795ZM252.703 159.373C253.244 159.373 253.671 159.455 254.013 159.625C254.347 159.792 254.635 160.059 254.877 160.491C255.379 161.389 255.659 162.959 255.659 165.617H256.659C256.659 162.947 256.388 161.145 255.75 160.003C255.421 159.415 254.992 158.995 254.458 158.73C253.932 158.468 253.338 158.373 252.703 158.373V159.373ZM255.659 165.617C255.659 168.287 255.379 169.863 254.876 170.765C254.635 171.198 254.347 171.466 254.013 171.633C253.67 171.803 253.244 171.885 252.703 171.885V172.885C253.338 172.885 253.932 172.79 254.458 172.528C254.993 172.261 255.422 171.841 255.75 171.251C256.388 170.107 256.659 168.299 256.659 165.617H255.659ZM266.172 173.945H265.672V174.445H266.172V173.945ZM268.332 173.945V174.445H268.832V173.945H268.332ZM268.332 157.289H268.832V156.789H268.332V157.289ZM266.916 157.289V156.789H266.865L266.815 156.799L266.916 157.289ZM262.044 158.297L261.943 157.807L261.544 157.89V158.297H262.044ZM262.044 160.049H261.544V160.654L262.138 160.54L262.044 160.049ZM266.172 159.257H266.672V158.652L266.078 158.766L266.172 159.257ZM266.172 174.445H268.332V173.445H266.172V174.445ZM268.832 173.945V157.289H267.832V173.945H268.832ZM268.332 156.789H266.916V157.789H268.332V156.789ZM266.815 156.799L261.943 157.807L262.145 158.787L267.017 157.779L266.815 156.799ZM261.544 158.297V160.049H262.544V158.297H261.544ZM262.138 160.54L266.266 159.748L266.078 158.766L261.95 159.558L262.138 160.54ZM265.672 159.257V173.945H266.672V159.257H265.672Z" fill="black" fill-opacity="0.5"/>
<path d="M236.2 152.141H280.055L287.019 184.398V239.964L278.191 334.47H238.774L231.012 239.964L229.689 184.398L236.2 152.141Z" fill="#DFE2E3"/>
<path d="M230.191 184.442L236.609 152.641H279.651L286.519 184.451V239.941L277.736 333.97H239.235L231.512 239.937L230.191 184.442Z" stroke="black" stroke-opacity="0.5"/>
<path d="M236.765 152.62L242.893 155.797L237.9 180.308L239.035 208.451L236.765 222.522L242.893 294.013L239.035 334.638L231.545 237.501L221.332 232.508V189.84L229.956 185.301L236.765 152.62Z" fill="#909090" fill-opacity="0.5" style="mix-blend-mode:multiply"/>
<path d="M249.984 294.76H242.484L238.484 333.26L239.984 335.26H277.984L274.484 294.76H266.984V304.26L264.984 306.26H251.984L249.984 304.26V294.76Z" fill="#E2E7EA" style="mix-blend-mode:multiply"/>
<path d="M249.984 294.76H242.484L238.484 333.26L239.984 335.26H277.984L274.484 294.76H266.984V304.26L264.984 306.26H251.984L249.984 304.26V294.76Z" stroke="black" stroke-opacity="0.5" stroke-width="0.5" stroke-linecap="round"/>
<path d="M221.13 189.892L240.08 178.548H259.031H277.981L296.931 189.892V232.517L277.981 242.727L259.031 239.323L240.08 242.727L221.13 232.517V189.892Z" fill="#DFE2E3"/>
<path d="M259.119 238.831L259.031 238.815L258.942 238.831L240.164 242.204L221.63 232.218V190.176L240.218 179.048H259.031H277.843L296.431 190.176V232.218L277.898 242.204L259.119 238.831Z" stroke="black" stroke-opacity="0.5"/>
<path d="M221.971 190.631L238.081 180.6V208.868L236.561 222.85L238.081 241.848L221.971 231.665V190.631Z" fill="#909090" fill-opacity="0.5" style="mix-blend-mode:multiply"/>
<path d="M230.296 185.194V208.631L222.683 233.154M231.436 208.631H238.065" stroke="black" stroke-opacity="0.5" stroke-width="0.5"/>
<path d="M286.717 185.194V208.631L294.33 233.154M285.577 208.631H278.948" stroke="black" stroke-opacity="0.5" stroke-width="0.5"/>
<path d="M238.518 208.591L231.182 237.012" stroke="black" stroke-opacity="0.5" stroke-width="0.5"/>
<path d="M278.496 208.591L285.832 237.012" stroke="black" stroke-opacity="0.5" stroke-width="0.5"/>
<path d="M242.264 155.078H273.776L278.78 178.896V208.691L280.78 222.159L275.364 294.558H242.264L236.536 222.159L237.847 208.691L237.586 178.896L242.264 155.078Z" fill="#DFE2E3"/>
<path d="M278.53 208.691V208.709L278.533 208.727L280.529 222.168L275.132 294.308H242.495L236.787 222.161L238.096 208.715L238.097 208.702L238.097 208.688L237.836 178.92L242.469 155.328H273.573L278.53 178.922V208.691Z" stroke="black" stroke-opacity="0.5" stroke-width="0.5"/>
<path d="M243.628 160.298C243.786 159.33 244.622 158.62 245.602 158.62H270.263C271.204 158.62 272.017 159.276 272.217 160.195L275.347 174.586C275.618 175.833 274.669 177.011 273.393 177.011H243.255C242.021 177.011 241.082 175.906 241.281 174.689L243.628 160.298Z" fill="#DFE2E3"/>
<path d="M245.602 159.12H270.263C270.968 159.12 271.579 159.612 271.729 160.301L274.859 174.692C275.062 175.627 274.35 176.511 273.393 176.511H243.255C242.33 176.511 241.625 175.682 241.774 174.77L244.122 160.378C244.24 159.653 244.867 159.12 245.602 159.12Z" stroke="black" stroke-opacity="0.5"/>
<path d="M245.351 162.411C245.52 161.456 246.35 160.76 247.32 160.76H268.856C269.784 160.76 270.589 161.397 270.803 162.3L273.403 173.3C273.7 174.556 272.747 175.76 271.457 175.76H245.37C244.126 175.76 243.184 174.636 243.401 173.411L245.351 162.411Z" fill="#DFE2E3"/>
<path d="M247.32 161.01H268.856C269.668 161.01 270.373 161.568 270.559 162.357L273.16 173.357C273.419 174.456 272.586 175.51 271.457 175.51H245.37C244.281 175.51 243.457 174.526 243.647 173.454L245.597 162.454C245.745 161.619 246.472 161.01 247.32 161.01Z" stroke="black" stroke-opacity="0.5" stroke-width="0.5"/>
<path d="M242.57 294.126L239.42 333.878" stroke="black" stroke-opacity="0.5" stroke-width="0.5"/>
<path d="M275.017 294.126L278.167 333.878" stroke="black" stroke-opacity="0.5" stroke-width="0.5"/>
<path d="M238.652 208.731H278.047" stroke="black" stroke-opacity="0.5" stroke-width="0.5"/>
<path d="M236.708 222.278L280.555 222.278" stroke="black" stroke-opacity="0.8" stroke-width="0.5"/>
<path d="M237.146 224.054H280.171" stroke="black" stroke-opacity="0.5" stroke-width="0.5"/>
<path d="M237.097 220.501H280.086" stroke="black" stroke-opacity="0.5" stroke-width="0.5"/>
<path d="M237.345 218.724H279.838" stroke="black" stroke-opacity="0.5" stroke-width="0.5"/>
<path d="M248.118 206.076C247.932 204.864 248.869 203.771 250.095 203.771H267.222C268.448 203.771 269.385 204.864 269.199 206.076L267.815 215.061C267.664 216.037 266.825 216.757 265.838 216.757H251.479C250.492 216.757 249.652 216.037 249.502 215.061L248.118 206.076Z" fill="#DFE2E3"/>
<path d="M250.095 204.021H267.222C268.295 204.021 269.115 204.978 268.951 206.038L267.568 215.023C267.436 215.877 266.702 216.507 265.838 216.507H251.479C250.615 216.507 249.881 215.877 249.749 215.023L248.365 206.038C248.202 204.978 249.022 204.021 250.095 204.021Z" stroke="black" stroke-opacity="0.5" stroke-width="0.5"/>
<path d="M251.42 203.771H265.896L263.751 216.757H253.565L251.42 203.771Z" fill="#DFE2E3"/>
<path d="M253.778 216.507L251.715 204.021H265.601L263.539 216.507H253.778Z" stroke="black" stroke-opacity="0.5" stroke-width="0.5"/>
<path d="M250.317 214.884C250.317 214.332 250.765 213.884 251.317 213.884H265.999C266.552 213.884 266.999 214.332 266.999 214.884V302.728C266.999 304.937 265.209 306.728 262.999 306.728H254.317C252.108 306.728 250.317 304.937 250.317 302.728V214.884Z" fill="#DFE2E3"/>
<path d="M251.317 214.134H265.999C266.414 214.134 266.749 214.47 266.749 214.884V302.728C266.749 304.799 265.071 306.478 262.999 306.478H254.317C252.246 306.478 250.567 304.799 250.567 302.728V214.884C250.567 214.47 250.903 214.134 251.317 214.134Z" stroke="black" stroke-opacity="0.5" stroke-width="0.5"/>
<path d="M253.374 213.884H263.943V306.728H253.374V213.884Z" fill="#DFE2E3"/>
<path d="M253.624 214.134H263.693V306.478H253.624V214.134Z" stroke="black" stroke-opacity="0.5" stroke-width="0.5"/>
<path d="M240.516 335.046L242.48 307.467H275.342L277.306 335.046H240.516Z" stroke="black" stroke-opacity="0.5" stroke-width="0.5"/>
<path d="M231.796 236.299H285.765" stroke="black" stroke-opacity="0.8" stroke-linecap="round"/>
<rect x="257.496" y="219.016" width="2.32407" height="21.8013" rx="1" fill="#DFE2E3"/>
<rect x="257.746" y="219.266" width="1.82407" height="21.3013" rx="0.75" stroke="black" stroke-opacity="0.8" stroke-width="0.5"/>
</svg>
