<svg width="191" height="64" viewBox="0 0 191 64" fill="none" xmlns="http://www.w3.org/2000/svg">
<path d="M1.36084 24.3372C1.36084 17.4733 6.01993 11.485 12.6732 9.79758L33.8084 4.43722C42.8084 2.1546 52.0574 1 61.3424 1H93.3608H158.675C165.713 1 172.568 3.2505 178.236 7.42278L182.917 10.8683C184.454 11.999 185.361 13.7929 185.361 15.7005V23.4827C185.361 37.1056 175.726 48.8265 162.361 51.463V51.463L155.845 56H93.3608H42.548L24.3608 51.463L13.4578 49.3122C6.42823 47.9255 1.36084 41.7609 1.36084 34.5958V24.3372Z" fill="#DFE2E3"/>
<path d="M162.264 50.9724L162.361 51.463L162.075 51.0526L155.688 55.5H93.3608H42.6094L24.4819 50.9778L24.4698 50.9748L24.4576 50.9724L13.5546 48.8217C6.75932 47.4812 1.86084 41.522 1.86084 34.5958V24.3372C1.86084 17.7021 6.36463 11.9134 12.7962 10.2822L33.9313 4.92188C42.8912 2.64944 52.0988 1.5 61.3424 1.5H93.3608H158.675C165.607 1.5 172.357 3.7164 177.94 7.82547L182.621 11.271C184.029 12.3075 184.861 13.9519 184.861 15.7005V23.4827C184.861 36.8668 175.395 48.3822 162.264 50.9724Z" stroke="black" stroke-opacity="0.5"/>
<rect x="43.3608" y="49" width="104" height="7" fill="#464A4A"/>
<path d="M4.36084 29.285C4.36084 20.2106 10.5742 12.3161 19.3946 10.1838L23.5683 9.17484C40.5366 5.07279 57.932 3 75.3892 3H93.8608L156.481 3C163.648 3 170.65 5.15831 176.573 9.19383V9.19383C180.82 12.087 183.361 16.893 183.361 22.0315V26.1848C183.361 37.4354 175.351 47.092 164.294 49.1709L160.986 49.7929L152.137 54H93.8608H41.313L26.7358 49.7929L20.3809 48.598C11.0909 46.8513 4.36084 38.7378 4.36084 29.285V29.285Z" fill="#DFE2E3"/>
<path d="M160.893 49.3015L160.83 49.3135L160.771 49.3414L152.024 53.5H93.8608H41.3837L26.8745 49.3125L26.8516 49.3059L26.8282 49.3015L20.4733 48.1067C11.4197 46.4043 4.86084 38.4973 4.86084 29.285C4.86084 20.4414 10.9161 12.7479 19.5121 10.6698L23.6858 9.66084C40.6157 5.56809 57.9716 3.5 75.3892 3.5H93.8608H156.481C163.548 3.5 170.451 5.62807 176.292 9.60704C180.402 12.4071 182.861 17.0584 182.861 22.0315V26.1848C182.861 37.1949 175.022 46.645 164.201 48.6795L160.893 49.3015Z" stroke="black" stroke-opacity="0.5"/>
<rect x="43.3608" y="49" width="104" height="5" fill="#6D7172"/>
<path d="M14.3608 29.4484C14.3608 22.0012 19.541 15.5564 26.814 13.9551L32.4071 12.7236C46.6675 9.5838 61.2265 8 75.8285 8H93.3608H152.674C158.767 8 164.662 10.1642 169.308 14.1067V14.1067C171.245 15.7498 172.361 18.1609 172.361 20.7004V26.0843C172.361 35.536 165.831 43.7342 156.619 45.8481L142.883 49H93.3608H45.4892L26.8565 44.951C19.5632 43.3662 14.3608 36.9119 14.3608 29.4484V29.4484Z" fill="#DFE2E3"/>
<path d="M171.861 20.7004V26.0843C171.861 35.3029 165.492 43.2989 156.507 45.3608L142.827 48.5H93.3608H45.5429L26.9627 44.4624C19.8992 42.9275 14.8608 36.6767 14.8608 29.4484C14.8608 22.2359 19.8777 15.9943 26.9215 14.4434L32.5146 13.2119C46.7397 10.0799 61.2626 8.5 75.8285 8.5H93.3608H152.674C158.649 8.5 164.429 10.6221 168.985 14.4879C170.809 16.036 171.861 18.3077 171.861 20.7004Z" stroke="black" stroke-opacity="0.5"/>
<path d="M17.3608 29.4476C17.3608 21.9844 22.5132 15.5095 29.7858 13.8333L32.9924 13.0943C47.6804 9.709 62.7049 8 77.778 8H92.8301L152.487 8.4908C159.986 8.5525 166.975 12.2959 171.183 18.5035V18.5035C171.297 18.673 171.346 18.8786 171.32 19.0816L170.273 27.1088C169.084 36.2192 162.4 43.6528 153.466 45.7987L140.139 49H92.8301H47.098L29.8304 45.0721C22.5364 43.413 17.3608 36.9279 17.3608 29.4476V29.4476Z" fill="#DFE2E3"/>
<path d="M170.824 19.0169L169.777 27.0441C168.615 35.9491 162.082 43.215 153.349 45.3126L140.08 48.5H92.8301H47.1541L29.9413 44.5846C22.8749 42.9772 17.8608 36.6945 17.8608 29.4476C17.8608 22.2173 22.8525 15.9444 29.898 14.3205L33.1047 13.5815C47.7559 10.2047 62.7427 8.5 77.778 8.5H92.828H92.8301L152.483 8.99079C159.818 9.05113 166.654 12.7124 170.769 18.784C170.815 18.8523 170.835 18.9351 170.824 19.0169Z" stroke="black" stroke-opacity="0.5"/>
<path d="M180.127 15.2969L175.228 16.4757C174.441 16.6649 174.193 17.6611 174.799 18.197L179.698 22.5297C180.344 23.1005 181.361 22.6423 181.361 21.7806L181.361 16.2691C181.361 15.6222 180.756 15.1456 180.127 15.2969Z" fill="#FFDD64"/>
<path d="M180.01 14.8108L175.111 15.9895C173.931 16.2734 173.559 17.7677 174.468 18.5715L179.367 22.9043C180.335 23.7605 181.861 23.0731 181.861 21.7806L181.861 16.2691C181.861 15.2988 180.953 14.5838 180.01 14.8108Z" stroke="black" stroke-opacity="0.5"/>
<path d="M55.9278 7.97479L53.5526 5.04442C53.2538 4.6758 53.2552 4.14795 53.556 3.78093L53.9602 3.28763C54.1463 3.06053 54.4228 2.92669 54.7163 2.92159L165.361 1L53.0395 1.00001L46.4295 1.46553L43.3536 1.91679L4.75497 11.7861C4.60434 11.8246 4.46476 11.8977 4.34733 11.9996L3.37022 12.8474C3.30878 12.9007 3.25407 12.9613 3.20731 13.0279L1.95199 14.8149C1.88531 14.9098 1.83565 15.0156 1.80524 15.1275L1.39582 16.6347C1.3726 16.7201 1.36084 16.8083 1.36084 16.8968V34.453V42.2945C1.36084 42.4498 1.39701 42.603 1.46648 42.7418L3.03201 45.8718C3.10552 46.0187 3.21411 46.1453 3.34819 46.2403L4.82343 47.2858C4.89227 47.3345 4.96701 47.3744 5.04585 47.4044L6.43856 47.9346C6.55218 47.9778 6.67274 48 6.79432 48H7.59086C7.91529 48 8.21956 47.8426 8.40702 47.5778L32.0404 14.1955C32.1811 13.9968 32.3895 13.8562 32.6264 13.8001L45.0829 10.8548L52.4778 9.33871L55.6431 8.74846C55.8702 8.70611 56.0349 8.5079 56.0349 8.27686C56.0349 8.16688 55.9971 8.06023 55.9278 7.97479Z" fill="#E2E7EA" style="mix-blend-mode:multiply"/>
<ellipse cx="29.3608" cy="37.5" rx="25" ry="24.5" fill="#656B6C"/>
<path d="M53.3608 37.5C53.3608 50.4597 42.6348 61 29.3608 61C16.0869 61 5.36084 50.4597 5.36084 37.5C5.36084 24.5403 16.0869 14 29.3608 14C42.6348 14 53.3608 24.5403 53.3608 37.5Z" stroke="black" stroke-opacity="0.5" stroke-width="2"/>
<mask id="mask0_81_430" style="mask-type:alpha" maskUnits="userSpaceOnUse" x="4" y="12" width="51" height="51">
<circle cx="29.6108" cy="37.5007" r="24.2844" fill="#4E4F50" stroke="black"/>
</mask>
<g mask="url(#mask0_81_430)">
<path d="M26.4651 12.0278C26.6422 10.5163 27.9229 9.37695 29.4447 9.37695H29.7769C31.2986 9.37695 32.5793 10.5164 32.7565 12.0278L33.2666 16.3807C33.4755 18.1638 32.0822 19.7299 30.2869 19.7299H28.9346C27.1394 19.7299 25.746 18.1638 25.955 16.3807L26.4651 12.0278Z" fill="#3E3F40"/>
<path d="M26.7893 12.6744C26.957 11.2432 28.1698 10.1643 29.6107 10.1643V10.1643C31.0517 10.1643 32.2645 11.2432 32.4322 12.6744L32.8271 16.0442C33.036 17.8272 31.6427 19.3933 29.8475 19.3933H29.374C27.5788 19.3933 26.1855 17.8272 26.3944 16.0442L26.7893 12.6744Z" fill="#484C4D"/>
<path d="M32.0372 12.8131L32.3911 15.8331C32.5826 17.4675 31.3054 18.9032 29.6598 18.9032H29.562C27.9164 18.9032 26.6392 17.4675 26.8307 15.8331L27.1846 12.8131C27.3288 11.5823 28.3717 10.6545 29.6109 10.6545C30.8501 10.6545 31.8929 11.5823 32.0372 12.8131Z" fill="#656B6C" stroke="#7D7D7D" stroke-width="0.5"/>
<path d="M32.7564 62.9736C32.5793 64.485 31.2985 65.6244 29.7768 65.6244H29.4446C27.9228 65.6244 26.6421 64.485 26.465 62.9736L25.9549 58.6206C25.7459 56.8376 27.1393 55.2715 28.9345 55.2715H30.2869C32.0821 55.2715 33.4754 56.8376 33.2665 58.6206L32.7564 62.9736Z" fill="#3E3F40"/>
<path d="M32.4321 62.3269C32.2644 63.7582 31.0517 64.8371 29.6107 64.8371V64.8371C28.1697 64.8371 26.957 63.7582 26.7892 62.3269L26.3944 58.9572C26.1854 57.1741 27.5787 55.608 29.374 55.608H29.8474C31.6426 55.608 33.036 57.1741 32.827 58.9572L32.4321 62.3269Z" fill="#484C4D"/>
<path d="M27.1848 62.1883L26.8309 59.1683C26.6393 57.5338 27.9165 56.0982 29.5622 56.0982H29.6599C31.3055 56.0982 32.5827 57.5338 32.3912 59.1683L32.0373 62.1883C31.8931 63.4191 30.8502 64.3469 29.611 64.3469C28.3719 64.3469 27.329 63.4191 27.1848 62.1883Z" fill="#656B6C" stroke="#7D7D7D" stroke-width="0.5"/>
<path d="M4.13789 40.6464C2.62645 40.4693 1.48706 39.1886 1.48706 37.6668L1.48706 37.3346C1.48706 35.8128 2.62646 34.5321 4.1379 34.355L8.49084 33.8449C10.2739 33.6359 11.84 35.0293 11.84 36.8245L11.84 38.1769C11.84 39.9721 10.2739 41.3654 8.49084 41.1565L4.13789 40.6464Z" fill="#3E3F40"/>
<path d="M4.78453 40.3221C3.35333 40.1544 2.27441 38.9417 2.27441 37.5007V37.5007C2.27441 36.0597 3.35333 34.847 4.78453 34.6792L8.1543 34.2844C9.93734 34.0754 11.5035 35.4687 11.5035 37.264L11.5035 37.7374C11.5035 39.5326 9.93734 40.9259 8.1543 40.717L4.78453 40.3221Z" fill="#484C4D"/>
<path d="M4.92321 35.0744L7.94324 34.7205C9.57768 34.529 11.0133 35.8062 11.0133 37.4518L11.0133 37.5495C11.0133 39.1952 9.57769 40.4724 7.94324 40.2809L4.92321 39.927C3.69245 39.7827 2.76465 38.7398 2.76465 37.5007C2.76465 36.2615 3.69245 35.2186 4.92321 35.0744Z" fill="#656B6C" stroke="#7D7D7D" stroke-width="0.5"/>
<path d="M55.0838 34.355C56.5952 34.5321 57.7346 35.8128 57.7346 37.3346L57.7346 37.6668C57.7346 39.1885 56.5952 40.4693 55.0838 40.6464L50.7308 41.1565C48.9478 41.3654 47.3817 39.9721 47.3817 38.1769L47.3817 36.8245C47.3817 35.0293 48.9478 33.6359 50.7308 33.8449L55.0838 34.355Z" fill="#3E3F40"/>
<path d="M54.4369 34.6792C55.8681 34.8469 56.947 36.0597 56.947 37.5007V37.5007C56.947 38.9417 55.8681 40.1544 54.4369 40.3221L51.0671 40.717C49.2841 40.9259 47.718 39.5326 47.718 37.7374L47.718 37.264C47.718 35.4687 49.2841 34.0754 51.0671 34.2843L54.4369 34.6792Z" fill="#484C4D"/>
<path d="M54.2985 39.927L51.2784 40.2809C49.644 40.4724 48.2084 39.1952 48.2084 37.5495L48.2084 37.4518C48.2084 35.8062 49.644 34.529 51.2784 34.7205L54.2985 35.0744C55.5292 35.2186 56.457 36.2615 56.457 37.5007C56.457 38.7399 55.5292 39.7827 54.2985 39.927Z" fill="#656B6C" stroke="#7D7D7D" stroke-width="0.5"/>
<path d="M14.15 17.0134C13.5477 15.6159 14.0871 13.9888 15.405 13.2279L15.6927 13.0618C17.0106 12.3009 18.6894 12.6473 19.5985 13.8677L22.2168 17.3824C23.2892 18.8221 22.8656 20.875 21.3109 21.7726L20.1397 22.4488C18.585 23.3464 16.5953 22.6868 15.8847 21.0382L14.15 17.0134Z" fill="#3E3F40"/>
<path d="M14.7543 17.4112C14.184 16.0879 14.6948 14.5472 15.9427 13.8267V13.8267C17.1906 13.1062 18.7803 13.4342 19.6412 14.5898L21.6681 17.3106C22.7405 18.7503 22.3169 20.8033 20.7622 21.7009L20.3522 21.9376C18.7975 22.8352 16.8078 22.1756 16.0972 20.527L14.7543 17.4112Z" fill="#484C4D"/>
<path d="M19.3682 14.9074L21.1847 17.3459C22.1678 18.6656 21.7795 20.5475 20.3544 21.3703L20.2697 21.4192C18.8446 22.242 17.0207 21.6373 16.3693 20.1261L15.1658 17.3337C14.6753 16.1957 15.1146 14.8708 16.1877 14.2512C17.2609 13.6316 18.6279 13.9137 19.3682 14.9074Z" fill="#656B6C" stroke="#7D7D7D" stroke-width="0.5"/>
<path d="M45.0714 57.988C45.6737 59.3855 45.1343 61.0126 43.8164 61.7735L43.5287 61.9396C42.2108 62.7005 40.532 62.3541 39.6229 61.1337L37.0047 57.619C35.9322 56.1793 36.3558 54.1263 37.9105 53.2287L39.0817 52.5525C40.6364 51.6549 42.6261 52.3146 43.3367 53.9632L45.0714 57.988Z" fill="#3E3F40"/>
<path d="M44.4674 57.5902C45.0377 58.9135 44.5269 60.4542 43.279 61.1747V61.1747C42.031 61.8952 40.4413 61.5672 39.5805 60.4116L37.5536 57.6907C36.4812 56.251 36.9047 54.1981 38.4595 53.3005L38.8695 53.0637C40.4242 52.1661 42.4139 52.8258 43.1245 54.4744L44.4674 57.5902Z" fill="#484C4D"/>
<path d="M39.8532 60.094L38.0367 57.6555C37.0536 56.3358 37.4419 54.4539 38.8671 53.6311L38.9517 53.5822C40.3769 52.7594 42.2008 53.3641 42.8521 54.8753L44.0556 57.6677C44.5461 58.8057 44.1069 60.1306 43.0337 60.7502C41.9606 61.3698 40.5935 61.0877 39.8532 60.094Z" fill="#656B6C" stroke="#7D7D7D" stroke-width="0.5"/>
<path d="M9.12346 52.9614C7.72595 53.5637 6.09885 53.0243 5.33796 51.7064L5.17188 51.4187C4.41099 50.1008 4.75738 48.422 5.97776 47.5129L9.49248 44.8946C10.9322 43.8222 12.9851 44.2458 13.8827 45.8005L14.5589 46.9717C15.4565 48.5264 14.7969 50.5161 13.1483 51.2267L9.12346 52.9614Z" fill="#3E3F40"/>
<path d="M9.52136 52.3572C8.19804 52.9276 6.65731 52.4168 5.93681 51.1689V51.1689C5.21631 49.9209 5.54432 48.3312 6.69992 47.4704L9.42078 45.4435C10.8605 44.371 12.9134 44.7946 13.811 46.3493L14.0478 46.7593C14.9454 48.314 14.2857 50.3038 12.6371 51.0143L9.52136 52.3572Z" fill="#484C4D"/>
<path d="M7.01773 47.7433L9.4562 45.9268C10.7759 44.9437 12.6578 45.332 13.4806 46.7571L13.5295 46.8418C14.3523 48.2669 13.7476 50.0908 12.2364 50.7422L9.444 51.9457C8.30603 52.4362 6.98109 51.9969 6.3615 50.9238C5.74191 49.8506 6.02398 48.4836 7.01773 47.7433Z" fill="#656B6C" stroke="#7D7D7D" stroke-width="0.5"/>
<path d="M50.098 22.04C51.4955 21.4376 53.1226 21.9771 53.8835 23.295L54.0496 23.5826C54.8104 24.9005 54.4641 26.5794 53.2437 27.4885L49.729 30.1067C48.2893 31.1792 46.2363 30.7556 45.3387 29.2009L44.6625 28.0297C43.7649 26.475 44.4245 24.4853 46.0732 23.7747L50.098 22.04Z" fill="#3E3F40"/>
<path d="M49.7003 22.6441C51.0236 22.0737 52.5644 22.5845 53.2849 23.8325V23.8325C54.0054 25.0804 53.6774 26.6701 52.5218 27.531L49.8009 29.5578C48.3612 30.6303 46.3082 30.2067 45.4106 28.652L45.1739 28.242C44.2763 26.6873 44.9359 24.6976 46.5846 23.987L49.7003 22.6441Z" fill="#484C4D"/>
<path d="M52.2042 27.2581L49.7657 29.0746C48.446 30.0577 46.5641 29.6694 45.7413 28.2442L45.6924 28.1596C44.8696 26.7344 45.4743 24.9105 46.9855 24.2592L49.7779 23.0556C50.9159 22.5652 52.2408 23.0044 52.8604 24.0776C53.48 25.1507 53.1979 26.5178 52.2042 27.2581Z" fill="#656B6C" stroke="#7D7D7D" stroke-width="0.5"/>
<path d="M5.97793 27.4885C4.75754 26.5794 4.41116 24.9006 5.17205 23.5827L5.33813 23.295C6.09902 21.9771 7.72613 21.4377 9.12363 22.04L13.1484 23.7747C14.7971 24.4853 15.4567 26.475 14.5591 28.0297L13.8829 29.2009C12.9853 30.7556 10.9323 31.1792 9.49264 30.1067L5.97793 27.4885Z" fill="#3E3F40"/>
<path d="M6.69983 27.531C5.54423 26.6702 5.21622 25.0804 5.93672 23.8325V23.8325C6.65722 22.5846 8.19795 22.0738 9.52127 22.6441L12.637 23.987C14.2856 24.6976 14.9453 26.6873 14.0477 28.242L13.811 28.652C12.9133 30.2067 10.8604 30.6303 9.42069 29.5579L6.69983 27.531Z" fill="#484C4D"/>
<path d="M9.44381 23.0557L12.2362 24.2592C13.7474 24.9105 14.3521 26.7344 13.5293 28.1596L13.4804 28.2442C12.6576 29.6694 10.7757 30.0577 9.45601 29.0746L7.01753 27.2581C6.02378 26.5178 5.74172 25.1508 6.36131 24.0776C6.98089 23.0044 8.30583 22.5652 9.44381 23.0557Z" fill="#656B6C" stroke="#7D7D7D" stroke-width="0.5"/>
<path d="M53.2438 47.5129C54.4641 48.422 54.8105 50.1008 54.0496 51.4187L53.8835 51.7064C53.1227 53.0243 51.4956 53.5637 50.098 52.9614L46.0732 51.2267C44.4246 50.5161 43.765 48.5264 44.6626 46.9717L45.3388 45.8005C46.2364 44.2458 48.2894 43.8222 49.729 44.8947L53.2438 47.5129Z" fill="#3E3F40"/>
<path d="M52.5216 47.4704C53.6772 48.3312 54.0052 49.9209 53.2847 51.1689V51.1689C52.5642 52.4168 51.0235 52.9276 49.7002 52.3573L46.5844 51.0144C44.9358 50.3038 44.2761 48.3141 45.1738 46.7594L45.4105 46.3494C46.3081 44.7946 48.3611 44.3711 49.8007 45.4435L52.5216 47.4704Z" fill="#484C4D"/>
<path d="M49.7779 51.9457L46.9855 50.7422C45.4743 50.0908 44.8696 48.2669 45.6924 46.8418L45.7413 46.7571C46.5641 45.332 48.446 44.9437 49.7657 45.9268L52.2041 47.7433C53.1979 48.4836 53.48 49.8506 52.8604 50.9238C52.2408 51.9969 50.9158 52.4362 49.7779 51.9457Z" fill="#656B6C" stroke="#7D7D7D" stroke-width="0.5"/>
<path d="M19.5987 61.1337C18.6896 62.3541 17.0108 62.7005 15.6929 61.9396L15.4052 61.7735C14.0873 61.0126 13.5479 59.3855 14.1502 57.988L15.8849 53.9632C16.5955 52.3146 18.5852 51.6549 20.1399 52.5525L21.3111 53.2287C22.8658 54.1263 23.2894 56.1793 22.2169 57.619L19.5987 61.1337Z" fill="#3E3F40"/>
<path d="M19.6411 60.4116C18.7802 61.5672 17.1905 61.8952 15.9426 61.1747V61.1747C14.6946 60.4542 14.1838 58.9134 14.7542 57.5901L16.0971 54.4744C16.8077 52.8258 18.7974 52.1661 20.3521 53.0637L20.7621 53.3004C22.3168 54.1981 22.7404 56.251 21.6679 57.6907L19.6411 60.4116Z" fill="#484C4D"/>
<path d="M15.1658 57.6677L16.3694 54.8753C17.0207 53.364 18.8446 52.7594 20.2698 53.5822L20.3544 53.631C21.7796 54.4539 22.1679 56.3357 21.1848 57.6555L19.3683 60.0939C18.628 61.0877 17.2609 61.3697 16.1878 60.7502C15.1146 60.1306 14.6753 58.8056 15.1658 57.6677Z" fill="#656B6C" stroke="#7D7D7D" stroke-width="0.5"/>
<path d="M39.623 13.8677C40.5321 12.6473 42.2109 12.3009 43.5288 13.0618L43.8165 13.2279C45.1344 13.9887 45.6738 15.6159 45.0715 17.0134L43.3368 21.0382C42.6262 22.6868 40.6365 23.3464 39.0818 22.4488L37.9106 21.7726C36.3559 20.875 35.9323 18.822 37.0047 17.3824L39.623 13.8677Z" fill="#3E3F40"/>
<path d="M39.5804 14.5898C40.4412 13.4342 42.0309 13.1062 43.2789 13.8267V13.8267C44.5268 14.5472 45.0376 16.0879 44.4673 17.4112L43.1243 20.527C42.4138 22.1756 40.4241 22.8352 38.8693 21.9376L38.4593 21.7009C36.9046 20.8033 36.481 18.7503 37.5535 17.3106L39.5804 14.5898Z" fill="#484C4D"/>
<path d="M44.0559 17.3337L42.8523 20.1261C42.201 21.6373 40.3771 22.242 38.9519 21.4192L38.8673 21.3703C37.4421 20.5475 37.0538 18.6656 38.0369 17.3459L39.8534 14.9074C40.5937 13.9137 41.9608 13.6316 43.0339 14.2512C44.1071 14.8708 44.5463 16.1957 44.0559 17.3337Z" fill="#656B6C" stroke="#7D7D7D" stroke-width="0.5"/>
</g>
<circle cx="29.8608" cy="37.5" r="13.5" fill="#C4C4C4"/>
<circle cx="29.8608" cy="37.5" r="14" stroke="black" stroke-opacity="0.5"/>
<ellipse cx="29.3608" cy="37.5" rx="12" ry="12.5" fill="#B9BABA"/>
<path d="M29.3608 50.5C36.2834 50.5 41.8608 44.6603 41.8608 37.5C41.8608 30.3397 36.2834 24.5 29.3608 24.5C22.4382 24.5 16.8608 30.3397 16.8608 37.5C16.8608 44.6603 22.4382 50.5 29.3608 50.5Z" stroke="black" stroke-opacity="0.1"/>
<circle cx="29.8608" cy="37.5" r="11.5" fill="#3C4243"/>
<circle cx="29.8608" cy="37.5" r="12" stroke="black" stroke-opacity="0.8"/>
<circle cx="29.8608" cy="37.5" r="10.5" fill="#0E0E0E"/>
<circle cx="29.8608" cy="37.5" r="11" stroke="#B6B6B6" stroke-opacity="0.5"/>
<ellipse cx="29.3608" cy="37.5" rx="10" ry="10.5" fill="#3C4243"/>
<path d="M49.8608 37.5C49.8608 48.5344 40.6941 57.5 29.3608 57.5C18.0276 57.5 8.86084 48.5344 8.86084 37.5C8.86084 26.4656 18.0276 17.5 29.3608 17.5C40.6941 17.5 49.8608 26.4656 49.8608 37.5Z" stroke="black" stroke-opacity="0.5"/>
<rect x="24.3608" y="37" width="11" height="1" rx="0.5" fill="#3C4243"/>
<rect x="24.6108" y="37.25" width="10.5" height="0.5" rx="0.25" stroke="black" stroke-opacity="0.8" stroke-width="0.5"/>
<g filter="url(#filter0_d_81_430)">
<path d="M18.3608 37.5C18.3608 36.692 19.0506 36.0561 19.8559 36.1216L21.1901 36.2301C21.8515 36.2839 22.3608 36.8364 22.3608 37.5V37.5C22.3608 38.1636 21.8515 38.7161 21.1901 38.7699L19.8559 38.8784C19.0506 38.9439 18.3608 38.308 18.3608 37.5V37.5Z" fill="#181818"/>
</g>
<g filter="url(#filter1_d_81_430)">
<path d="M18.3608 37.5C18.3608 36.6991 19.0559 36.0754 19.8521 36.1617L20.193 36.1987C20.8574 36.2708 21.3608 36.8317 21.3608 37.5V37.5C21.3608 38.1683 20.8574 38.7292 20.193 38.8013L19.8521 38.8383C19.0559 38.9246 18.3608 38.3009 18.3608 37.5V37.5Z" fill="#3C4243"/>
</g>
<g filter="url(#filter2_d_81_430)">
<ellipse cx="20.3608" cy="37.5" rx="1" ry="0.5" fill="#3C4243"/>
<path d="M21.1108 37.5L21.1107 37.5014C21.1105 37.5021 21.1101 37.5036 21.1092 37.5061C21.1071 37.511 21.1023 37.5203 21.0914 37.5332C21.0686 37.5601 21.0258 37.5951 20.9561 37.6299C20.8167 37.6997 20.6066 37.75 20.3608 37.75C20.1151 37.75 19.905 37.6997 19.7655 37.6299C19.6959 37.5951 19.6531 37.5601 19.6303 37.5332C19.6194 37.5203 19.6145 37.511 19.6125 37.5061C19.6115 37.5036 19.6112 37.5021 19.611 37.5014L19.6108 37.5L19.611 37.4986C19.6112 37.4979 19.6115 37.4964 19.6125 37.4939C19.6145 37.489 19.6194 37.4797 19.6303 37.4668C19.6531 37.4399 19.6959 37.4049 19.7655 37.3701C19.905 37.3003 20.1151 37.25 20.3608 37.25C20.6066 37.25 20.8167 37.3003 20.9561 37.3701C21.0258 37.4049 21.0686 37.4399 21.0914 37.4668C21.1023 37.4797 21.1071 37.489 21.1092 37.4939C21.1101 37.4964 21.1105 37.4979 21.1107 37.4986L21.1108 37.5Z" stroke="#FEFEFE" stroke-opacity="0.2" stroke-width="0.5"/>
</g>
<g filter="url(#filter3_d_81_430)">
<path d="M41.3608 37.5C41.3608 38.308 40.6711 38.9439 39.8658 38.8784L38.5316 38.7699C37.8702 38.7161 37.3608 38.1636 37.3608 37.5V37.5C37.3608 36.8364 37.8702 36.2839 38.5316 36.2301L39.8658 36.1216C40.6711 36.0561 41.3608 36.692 41.3608 37.5V37.5Z" fill="#181818"/>
</g>
<g filter="url(#filter4_d_81_430)">
<path d="M41.3608 37.5C41.3608 38.308 40.6711 38.9439 39.8658 38.8784L38.5316 38.7699C37.8702 38.7161 37.3608 38.1636 37.3608 37.5V37.5C37.3608 36.8364 37.8702 36.2839 38.5316 36.2301L39.8658 36.1216C40.6711 36.0561 41.3608 36.692 41.3608 37.5V37.5Z" fill="#3C4243"/>
</g>
<g filter="url(#filter5_d_81_430)">
<mask id="path-71-inside-1_81_430" fill="white">
<ellipse cx="39.3608" cy="37.5" rx="1" ry="0.5" transform="rotate(-180 39.3608 37.5)"/>
</mask>
<ellipse cx="39.3608" cy="37.5" rx="1" ry="0.5" transform="rotate(-180 39.3608 37.5)" fill="#3C4243"/>
<path d="M38.8608 37.5C38.8608 37.5744 38.8289 37.6191 38.8212 37.6283C38.8162 37.6342 38.8285 37.6181 38.8773 37.5937C38.9752 37.5447 39.1455 37.5 39.3608 37.5L39.3608 36.5C39.0239 36.5 38.6942 36.5672 38.4301 36.6992C38.196 36.8163 37.8608 37.0705 37.8608 37.5L38.8608 37.5ZM39.3608 37.5C39.5762 37.5 39.7464 37.5447 39.8443 37.5937C39.8932 37.6181 39.9055 37.6342 39.9005 37.6283C39.8928 37.6191 39.8608 37.5744 39.8608 37.5L40.8608 37.5C40.8608 37.0705 40.5257 36.8163 40.2916 36.6992C40.0275 36.5672 39.6978 36.5 39.3608 36.5L39.3608 37.5ZM39.8608 37.5C39.8608 37.4256 39.8928 37.3809 39.9005 37.3717C39.9055 37.3658 39.8932 37.3819 39.8443 37.4063C39.7464 37.4553 39.5762 37.5 39.3608 37.5L39.3608 38.5C39.6978 38.5 40.0275 38.4328 40.2916 38.3008C40.5257 38.1837 40.8608 37.9295 40.8608 37.5L39.8608 37.5ZM39.3608 37.5C39.1455 37.5 38.9752 37.4553 38.8773 37.4063C38.8285 37.3819 38.8162 37.3658 38.8212 37.3717C38.8289 37.3809 38.8608 37.4256 38.8608 37.5L37.8608 37.5C37.8608 37.9295 38.196 38.1837 38.4301 38.3008C38.6942 38.4328 39.0239 38.5 39.3608 38.5L39.3608 37.5Z" fill="#FEFEFE" fill-opacity="0.2" mask="url(#path-71-inside-1_81_430)"/>
</g>
<ellipse cx="163.361" cy="37.5" rx="25" ry="24.5" fill="#656B6C"/>
<path d="M187.361 37.5C187.361 50.4597 176.635 61 163.361 61C150.087 61 139.361 50.4597 139.361 37.5C139.361 24.5403 150.087 14 163.361 14C176.635 14 187.361 24.5403 187.361 37.5Z" stroke="black" stroke-opacity="0.5" stroke-width="2"/>
<mask id="mask1_81_430" style="mask-type:alpha" maskUnits="userSpaceOnUse" x="138" y="12" width="51" height="51">
<circle cx="163.576" cy="37.5007" r="24.2844" fill="#4E4F50" stroke="black"/>
</mask>
<g mask="url(#mask1_81_430)">
<path d="M160.431 12.0278C160.608 10.5163 161.888 9.37695 163.41 9.37695H163.742C165.264 9.37695 166.545 10.5164 166.722 12.0278L167.232 16.3807C167.441 18.1638 166.048 19.7299 164.253 19.7299H162.9C161.105 19.7299 159.712 18.1638 159.921 16.3807L160.431 12.0278Z" fill="#3E3F40"/>
<path d="M160.755 12.6744C160.923 11.2432 162.135 10.1643 163.576 10.1643V10.1643C165.017 10.1643 166.23 11.2432 166.398 12.6744L166.793 16.0442C167.002 17.8272 165.608 19.3933 163.813 19.3933H163.34C161.544 19.3933 160.151 17.8272 160.36 16.0442L160.755 12.6744Z" fill="#484C4D"/>
<path d="M166.003 12.8131L166.357 15.8331C166.548 17.4675 165.271 18.9032 163.625 18.9032H163.528C161.882 18.9032 160.605 17.4675 160.796 15.8331L161.15 12.8131C161.294 11.5823 162.337 10.6545 163.576 10.6545C164.816 10.6545 165.859 11.5823 166.003 12.8131Z" fill="#656B6C" stroke="#7D7D7D" stroke-width="0.5"/>
<path d="M166.722 62.9736C166.545 64.485 165.264 65.6244 163.742 65.6244H163.41C161.888 65.6244 160.608 64.485 160.431 62.9736L159.92 58.6206C159.712 56.8376 161.105 55.2715 162.9 55.2715H164.252C166.048 55.2715 167.441 56.8376 167.232 58.6206L166.722 62.9736Z" fill="#3E3F40"/>
<path d="M166.398 62.3269C166.23 63.7582 165.017 64.8371 163.576 64.8371V64.8371C162.135 64.8371 160.923 63.7582 160.755 62.3269L160.36 58.9572C160.151 57.1741 161.544 55.608 163.34 55.608H163.813C165.608 55.608 167.002 57.1741 166.793 58.9572L166.398 62.3269Z" fill="#484C4D"/>
<path d="M161.15 62.1883L160.796 59.1683C160.605 57.5338 161.882 56.0982 163.528 56.0982H163.625C165.271 56.0982 166.548 57.5338 166.357 59.1683L166.003 62.1883C165.859 63.4191 164.816 64.3469 163.577 64.3469C162.337 64.3469 161.295 63.4191 161.15 62.1883Z" fill="#656B6C" stroke="#7D7D7D" stroke-width="0.5"/>
<path d="M138.103 40.6464C136.592 40.4693 135.453 39.1886 135.453 37.6668L135.453 37.3346C135.453 35.8128 136.592 34.5321 138.103 34.355L142.456 33.8449C144.239 33.6359 145.806 35.0293 145.806 36.8245L145.806 38.1769C145.806 39.9721 144.239 41.3654 142.456 41.1565L138.103 40.6464Z" fill="#3E3F40"/>
<path d="M138.75 40.3221C137.319 40.1544 136.24 38.9417 136.24 37.5007V37.5007C136.24 36.0597 137.319 34.847 138.75 34.6792L142.12 34.2844C143.903 34.0754 145.469 35.4687 145.469 37.264L145.469 37.7374C145.469 39.5326 143.903 40.9259 142.12 40.717L138.75 40.3221Z" fill="#484C4D"/>
<path d="M138.889 35.0744L141.909 34.7205C143.543 34.529 144.979 35.8062 144.979 37.4518L144.979 37.5495C144.979 39.1952 143.543 40.4724 141.909 40.2809L138.889 39.927C137.658 39.7827 136.73 38.7398 136.73 37.5007C136.73 36.2615 137.658 35.2186 138.889 35.0744Z" fill="#656B6C" stroke="#7D7D7D" stroke-width="0.5"/>
<path d="M189.049 34.355C190.561 34.5321 191.7 35.8128 191.7 37.3346L191.7 37.6668C191.7 39.1885 190.561 40.4693 189.049 40.6464L184.696 41.1565C182.913 41.3654 181.347 39.9721 181.347 38.1769L181.347 36.8245C181.347 35.0293 182.913 33.6359 184.696 33.8449L189.049 34.355Z" fill="#3E3F40"/>
<path d="M188.402 34.6792C189.834 34.8469 190.913 36.0597 190.913 37.5007V37.5007C190.913 38.9417 189.834 40.1544 188.402 40.3221L185.033 40.717C183.25 40.9259 181.684 39.5326 181.684 37.7374L181.684 37.264C181.684 35.4687 183.25 34.0754 185.033 34.2843L188.402 34.6792Z" fill="#484C4D"/>
<path d="M188.264 39.927L185.244 40.2809C183.61 40.4724 182.174 39.1952 182.174 37.5495L182.174 37.4518C182.174 35.8062 183.61 34.529 185.244 34.7205L188.264 35.0744C189.495 35.2186 190.423 36.2615 190.423 37.5007C190.423 38.7399 189.495 39.7827 188.264 39.927Z" fill="#656B6C" stroke="#7D7D7D" stroke-width="0.5"/>
<path d="M148.116 17.0134C147.513 15.6159 148.053 13.9888 149.371 13.2279L149.658 13.0618C150.976 12.3009 152.655 12.6473 153.564 13.8677L156.182 17.3824C157.255 18.8221 156.831 20.875 155.277 21.7726L154.105 22.4488C152.551 23.3464 150.561 22.6868 149.85 21.0382L148.116 17.0134Z" fill="#3E3F40"/>
<path d="M148.72 17.4112C148.15 16.0879 148.66 14.5472 149.908 13.8267V13.8267C151.156 13.1062 152.746 13.4342 153.607 14.5898L155.634 17.3106C156.706 18.7503 156.283 20.8033 154.728 21.7009L154.318 21.9376C152.763 22.8352 150.773 22.1756 150.063 20.527L148.72 17.4112Z" fill="#484C4D"/>
<path d="M153.334 14.9074L155.15 17.3459C156.133 18.6656 155.745 20.5475 154.32 21.3703L154.235 21.4192C152.81 22.242 150.986 21.6373 150.335 20.1261L149.131 17.3337C148.641 16.1957 149.08 14.8708 150.153 14.2512C151.226 13.6316 152.594 13.9137 153.334 14.9074Z" fill="#656B6C" stroke="#7D7D7D" stroke-width="0.5"/>
<path d="M179.037 57.988C179.639 59.3855 179.1 61.0126 177.782 61.7735L177.494 61.9396C176.176 62.7005 174.498 62.3541 173.588 61.1337L170.97 57.619C169.898 56.1793 170.321 54.1263 171.876 53.2287L173.047 52.5525C174.602 51.6549 176.592 52.3146 177.302 53.9632L179.037 57.988Z" fill="#3E3F40"/>
<path d="M178.433 57.5902C179.003 58.9135 178.493 60.4542 177.245 61.1747V61.1747C175.997 61.8952 174.407 61.5672 173.546 60.4116L171.519 57.6907C170.447 56.251 170.87 54.1981 172.425 53.3005L172.835 53.0637C174.39 52.1661 176.379 52.8258 177.09 54.4744L178.433 57.5902Z" fill="#484C4D"/>
<path d="M173.819 60.094L172.002 57.6555C171.019 56.3358 171.407 54.4539 172.833 53.6311L172.917 53.5822C174.342 52.7594 176.166 53.3641 176.818 54.8753L178.021 57.6677C178.512 58.8057 178.072 60.1306 176.999 60.7502C175.926 61.3698 174.559 61.0877 173.819 60.094Z" fill="#656B6C" stroke="#7D7D7D" stroke-width="0.5"/>
<path d="M143.089 52.9614C141.692 53.5637 140.064 53.0243 139.304 51.7064L139.137 51.4187C138.377 50.1008 138.723 48.422 139.943 47.5129L143.458 44.8946C144.898 43.8222 146.951 44.2458 147.848 45.8005L148.524 46.9717C149.422 48.5264 148.762 50.5161 147.114 51.2267L143.089 52.9614Z" fill="#3E3F40"/>
<path d="M143.487 52.3572C142.164 52.9276 140.623 52.4168 139.902 51.1689V51.1689C139.182 49.9209 139.51 48.3312 140.665 47.4704L143.386 45.4435C144.826 44.371 146.879 44.7946 147.777 46.3493L148.013 46.7593C148.911 48.314 148.251 50.3038 146.603 51.0143L143.487 52.3572Z" fill="#484C4D"/>
<path d="M140.983 47.7433L143.422 45.9268C144.741 44.9437 146.623 45.332 147.446 46.7571L147.495 46.8418C148.318 48.2669 147.713 50.0908 146.202 50.7422L143.41 51.9457C142.272 52.4362 140.947 51.9969 140.327 50.9238C139.707 49.8506 139.99 48.4836 140.983 47.7433Z" fill="#656B6C" stroke="#7D7D7D" stroke-width="0.5"/>
<path d="M184.064 22.04C185.461 21.4376 187.088 21.9771 187.849 23.295L188.015 23.5826C188.776 24.9005 188.43 26.5794 187.209 27.4885L183.695 30.1067C182.255 31.1792 180.202 30.7556 179.304 29.2009L178.628 28.0297C177.73 26.475 178.39 24.4853 180.039 23.7747L184.064 22.04Z" fill="#3E3F40"/>
<path d="M183.666 22.6441C184.989 22.0737 186.53 22.5845 187.25 23.8325V23.8325C187.971 25.0804 187.643 26.6701 186.487 27.531L183.766 29.5578C182.327 30.6303 180.274 30.2067 179.376 28.652L179.139 28.242C178.242 26.6873 178.902 24.6976 180.55 23.987L183.666 22.6441Z" fill="#484C4D"/>
<path d="M186.17 27.2581L183.731 29.0746C182.412 30.0577 180.53 29.6694 179.707 28.2442L179.658 28.1596C178.835 26.7344 179.44 24.9105 180.951 24.2592L183.743 23.0556C184.881 22.5652 186.206 23.0044 186.826 24.0776C187.446 25.1507 187.164 26.5178 186.17 27.2581Z" fill="#656B6C" stroke="#7D7D7D" stroke-width="0.5"/>
<path d="M139.944 27.4885C138.723 26.5794 138.377 24.9006 139.138 23.5827L139.304 23.295C140.065 21.9771 141.692 21.4377 143.089 22.04L147.114 23.7747C148.763 24.4853 149.422 26.475 148.525 28.0297L147.848 29.2009C146.951 30.7556 144.898 31.1792 143.458 30.1067L139.944 27.4885Z" fill="#3E3F40"/>
<path d="M140.665 27.531C139.51 26.6702 139.182 25.0804 139.902 23.8325V23.8325C140.623 22.5846 142.164 22.0738 143.487 22.6441L146.603 23.987C148.251 24.6976 148.911 26.6873 148.013 28.242L147.777 28.652C146.879 30.2067 144.826 30.6303 143.386 29.5579L140.665 27.531Z" fill="#484C4D"/>
<path d="M143.409 23.0557L146.202 24.2592C147.713 24.9105 148.318 26.7344 147.495 28.1596L147.446 28.2442C146.623 29.6694 144.741 30.0577 143.422 29.0746L140.983 27.2581C139.989 26.5178 139.707 25.1508 140.327 24.0776C140.946 23.0044 142.271 22.5652 143.409 23.0557Z" fill="#656B6C" stroke="#7D7D7D" stroke-width="0.5"/>
<path d="M187.209 47.5129C188.43 48.422 188.776 50.1008 188.015 51.4187L187.849 51.7064C187.088 53.0243 185.461 53.5637 184.064 52.9614L180.039 51.2267C178.39 50.5161 177.731 48.5264 178.628 46.9717L179.304 45.8005C180.202 44.2458 182.255 43.8222 183.695 44.8947L187.209 47.5129Z" fill="#3E3F40"/>
<path d="M186.487 47.4704C187.643 48.3312 187.971 49.9209 187.25 51.1689V51.1689C186.53 52.4168 184.989 52.9276 183.666 52.3573L180.55 51.0144C178.901 50.3038 178.242 48.3141 179.139 46.7594L179.376 46.3494C180.274 44.7946 182.327 44.3711 183.766 45.4435L186.487 47.4704Z" fill="#484C4D"/>
<path d="M183.743 51.9457L180.951 50.7422C179.44 50.0908 178.835 48.2669 179.658 46.8418L179.707 46.7571C180.53 45.332 182.412 44.9437 183.731 45.9268L186.17 47.7433C187.163 48.4836 187.446 49.8506 186.826 50.9238C186.206 51.9969 184.881 52.4362 183.743 51.9457Z" fill="#656B6C" stroke="#7D7D7D" stroke-width="0.5"/>
<path d="M153.564 61.1337C152.655 62.3541 150.976 62.7005 149.658 61.9396L149.371 61.7735C148.053 61.0126 147.513 59.3855 148.116 57.988L149.85 53.9632C150.561 52.3146 152.551 51.6549 154.105 52.5525L155.277 53.2287C156.831 54.1263 157.255 56.1793 156.183 57.619L153.564 61.1337Z" fill="#3E3F40"/>
<path d="M153.607 60.4116C152.746 61.5672 151.156 61.8952 149.908 61.1747V61.1747C148.66 60.4542 148.149 58.9134 148.72 57.5901L150.063 54.4744C150.773 52.8258 152.763 52.1661 154.318 53.0637L154.728 53.3004C156.282 54.1981 156.706 56.251 155.634 57.6907L153.607 60.4116Z" fill="#484C4D"/>
<path d="M149.131 57.6677L150.335 54.8753C150.986 53.364 152.81 52.7594 154.235 53.5822L154.32 53.631C155.745 54.4539 156.133 56.3357 155.15 57.6555L153.334 60.0939C152.594 61.0877 151.226 61.3697 150.153 60.7502C149.08 60.1306 148.641 58.8056 149.131 57.6677Z" fill="#656B6C" stroke="#7D7D7D" stroke-width="0.5"/>
<path d="M173.589 13.8677C174.498 12.6473 176.176 12.3009 177.494 13.0618L177.782 13.2279C179.1 13.9887 179.639 15.6159 179.037 17.0134L177.302 21.0382C176.592 22.6868 174.602 23.3464 173.047 22.4488L171.876 21.7726C170.321 20.875 169.898 18.822 170.97 17.3824L173.589 13.8677Z" fill="#3E3F40"/>
<path d="M173.546 14.5898C174.407 13.4342 175.997 13.1062 177.244 13.8267V13.8267C178.492 14.5472 179.003 16.0879 178.433 17.4112L177.09 20.527C176.379 22.1756 174.39 22.8352 172.835 21.9376L172.425 21.7009C170.87 20.8033 170.447 18.7503 171.519 17.3106L173.546 14.5898Z" fill="#484C4D"/>
<path d="M178.021 17.3337L176.818 20.1261C176.167 21.6373 174.343 22.242 172.917 21.4192L172.833 21.3703C171.408 20.5475 171.019 18.6656 172.002 17.3459L173.819 14.9074C174.559 13.9137 175.926 13.6316 176.999 14.2512C178.073 14.8708 178.512 16.1957 178.021 17.3337Z" fill="#656B6C" stroke="#7D7D7D" stroke-width="0.5"/>
</g>
<circle cx="163.861" cy="37.5" r="13.5" fill="#C4C4C4"/>
<circle cx="163.861" cy="37.5" r="14" stroke="black" stroke-opacity="0.5"/>
<ellipse cx="163.361" cy="37.5" rx="12" ry="12.5" fill="#B9BABA"/>
<path d="M163.361 50.5C170.283 50.5 175.861 44.6603 175.861 37.5C175.861 30.3397 170.283 24.5 163.361 24.5C156.438 24.5 150.861 30.3397 150.861 37.5C150.861 44.6603 156.438 50.5 163.361 50.5Z" stroke="black" stroke-opacity="0.1"/>
<circle cx="163.861" cy="37.5" r="11.5" fill="#3C4243"/>
<circle cx="163.861" cy="37.5" r="12" stroke="black" stroke-opacity="0.8"/>
<circle cx="163.861" cy="37.5" r="10.5" fill="#0E0E0E"/>
<circle cx="163.861" cy="37.5" r="11" stroke="#B6B6B6" stroke-opacity="0.5"/>
<ellipse cx="163.361" cy="37.5" rx="10" ry="10.5" fill="#3C4243"/>
<path d="M183.861 37.5C183.861 48.5344 174.694 57.5 163.361 57.5C152.028 57.5 142.861 48.5344 142.861 37.5C142.861 26.4656 152.028 17.5 163.361 17.5C174.694 17.5 183.861 26.4656 183.861 37.5Z" stroke="black" stroke-opacity="0.5"/>
<rect x="158.361" y="37" width="11" height="1" rx="0.5" fill="#3C4243"/>
<rect x="158.611" y="37.25" width="10.5" height="0.5" rx="0.25" stroke="black" stroke-opacity="0.8" stroke-width="0.5"/>
<g filter="url(#filter6_d_81_430)">
<path d="M152.361 37.5C152.361 36.692 153.051 36.0561 153.856 36.1216L155.19 36.2301C155.851 36.2839 156.361 36.8364 156.361 37.5V37.5C156.361 38.1636 155.851 38.7161 155.19 38.7699L153.856 38.8784C153.051 38.9439 152.361 38.308 152.361 37.5V37.5Z" fill="#181818"/>
</g>
<g filter="url(#filter7_d_81_430)">
<path d="M152.361 37.5C152.361 36.6991 153.056 36.0754 153.852 36.1617L154.193 36.1987C154.857 36.2708 155.361 36.8317 155.361 37.5V37.5C155.361 38.1683 154.857 38.7292 154.193 38.8013L153.852 38.8383C153.056 38.9246 152.361 38.3009 152.361 37.5V37.5Z" fill="#3C4243"/>
</g>
<g filter="url(#filter8_d_81_430)">
<ellipse cx="154.361" cy="37.5" rx="1" ry="0.5" fill="#3C4243"/>
<path d="M155.111 37.5L155.111 37.5014C155.111 37.5021 155.11 37.5036 155.109 37.5061C155.107 37.511 155.102 37.5203 155.091 37.5332C155.069 37.5601 155.026 37.5951 154.956 37.6299C154.817 37.6997 154.607 37.75 154.361 37.75C154.115 37.75 153.905 37.6997 153.766 37.6299C153.696 37.5951 153.653 37.5601 153.63 37.5332C153.619 37.5203 153.615 37.511 153.613 37.5061C153.612 37.5036 153.611 37.5021 153.611 37.5014L153.611 37.5L153.611 37.4986C153.611 37.4979 153.612 37.4964 153.613 37.4939C153.615 37.489 153.619 37.4797 153.63 37.4668C153.653 37.4399 153.696 37.4049 153.766 37.3701C153.905 37.3003 154.115 37.25 154.361 37.25C154.607 37.25 154.817 37.3003 154.956 37.3701C155.026 37.4049 155.069 37.4399 155.091 37.4668C155.102 37.4797 155.107 37.489 155.109 37.4939C155.11 37.4964 155.111 37.4979 155.111 37.4986L155.111 37.5Z" stroke="#FEFEFE" stroke-opacity="0.2" stroke-width="0.5"/>
</g>
<g filter="url(#filter9_d_81_430)">
<path d="M175.361 37.5C175.361 38.308 174.671 38.9439 173.866 38.8784L172.532 38.7699C171.87 38.7161 171.361 38.1636 171.361 37.5V37.5C171.361 36.8364 171.87 36.2839 172.532 36.2301L173.866 36.1216C174.671 36.0561 175.361 36.692 175.361 37.5V37.5Z" fill="#181818"/>
</g>
<g filter="url(#filter10_d_81_430)">
<path d="M175.361 37.5C175.361 38.308 174.671 38.9439 173.866 38.8784L172.532 38.7699C171.87 38.7161 171.361 38.1636 171.361 37.5V37.5C171.361 36.8364 171.87 36.2839 172.532 36.2301L173.866 36.1216C174.671 36.0561 175.361 36.692 175.361 37.5V37.5Z" fill="#3C4243"/>
</g>
<g filter="url(#filter11_d_81_430)">
<mask id="path-130-inside-2_81_430" fill="white">
<ellipse cx="173.361" cy="37.5" rx="1" ry="0.5" transform="rotate(-180 173.361 37.5)"/>
</mask>
<ellipse cx="173.361" cy="37.5" rx="1" ry="0.5" transform="rotate(-180 173.361 37.5)" fill="#3C4243"/>
<path d="M172.861 37.5C172.861 37.5744 172.829 37.6191 172.821 37.6283C172.816 37.6342 172.829 37.6181 172.877 37.5937C172.975 37.5447 173.145 37.5 173.361 37.5L173.361 36.5C173.024 36.5 172.694 36.5672 172.43 36.6992C172.196 36.8163 171.861 37.0705 171.861 37.5L172.861 37.5ZM173.361 37.5C173.576 37.5 173.746 37.5447 173.844 37.5937C173.893 37.6181 173.906 37.6342 173.901 37.6283C173.893 37.6191 173.861 37.5744 173.861 37.5L174.861 37.5C174.861 37.0705 174.526 36.8163 174.292 36.6992C174.028 36.5672 173.698 36.5 173.361 36.5L173.361 37.5ZM173.861 37.5C173.861 37.4256 173.893 37.3809 173.901 37.3717C173.906 37.3658 173.893 37.3819 173.844 37.4063C173.746 37.4553 173.576 37.5 173.361 37.5L173.361 38.5C173.698 38.5 174.028 38.4328 174.292 38.3008C174.526 38.1837 174.861 37.9295 174.861 37.5L173.861 37.5ZM173.361 37.5C173.145 37.5 172.975 37.4553 172.877 37.4063C172.829 37.3819 172.816 37.3658 172.821 37.3717C172.829 37.3809 172.861 37.4256 172.861 37.5L171.861 37.5C171.861 37.9295 172.196 38.1837 172.43 38.3008C172.694 38.4328 173.024 38.5 173.361 38.5L173.361 37.5Z" fill="#FEFEFE" fill-opacity="0.2" mask="url(#path-130-inside-2_81_430)"/>
</g>
<rect x="59.3608" y="9" width="73" height="40" rx="4" fill="#DFE2E3"/>
<rect x="59.8608" y="9.5" width="72" height="39" rx="3.5" stroke="black" stroke-opacity="0.5"/>
<path d="M68.1807 13.5106C65.9494 12.3695 66.761 9 69.2672 9H122.454C124.961 9 125.772 12.3695 123.541 13.5106V13.5106C119.056 15.8041 114.091 17 109.055 17H82.6672C77.6302 17 72.6652 15.8041 68.1807 13.5106V13.5106Z" fill="#DFE2E3"/>
<path d="M69.2672 9.5H122.454C124.436 9.5 125.077 12.1634 123.313 13.0655C118.899 15.3229 114.012 16.5 109.055 16.5H82.6672C77.7094 16.5 72.8224 15.3229 68.4084 13.0655C66.6446 12.1634 67.2862 9.5 69.2672 9.5Z" stroke="black" stroke-opacity="0.5"/>
<path d="M69.3766 13.1481C67.2581 12.1734 67.9531 9 70.2851 9H121.437C123.769 9 124.464 12.1734 122.345 13.1481V13.1481C118.261 15.0271 113.819 16 109.323 16H82.3982C77.9028 16 73.4606 15.0271 69.3766 13.1481V13.1481Z" fill="#DFE2E3"/>
<path d="M70.2851 9.5H121.437C123.232 9.5 123.767 11.9434 122.136 12.6939C118.118 14.5427 113.747 15.5 109.323 15.5H82.3982C77.9749 15.5 73.604 14.5427 69.5856 12.6939C67.9544 11.9434 68.4895 9.5 70.2851 9.5Z" stroke="black" stroke-opacity="0.5"/>
<path d="M114.567 16.2249L114.555 16.2272L114.542 16.2288L113.863 16.3185L114.032 48.5H119.861V32.5269V24.2904V14.9828C119.861 14.8535 119.825 14.7276 119.759 14.6183L119.371 14.7993L119.118 14.9209L119.101 14.929L119.084 14.9359L118.529 15.1535L118.529 15.1535L118.526 15.1551L117.922 15.3862L117.907 15.3918L117.892 15.3965L117.087 15.6477L117.078 15.6505L117.069 15.6529L115.812 15.9946L115.792 16.0001L115.771 16.0039L114.567 16.2249Z" stroke="black" stroke-opacity="0.5"/>
<path d="M77.1547 16.2249L77.167 16.2272L77.1795 16.2288L77.8585 16.3185L77.6899 48.5H71.8608V32.5269V24.2904V14.9828C71.8608 14.8535 71.8965 14.7276 71.9628 14.6183L72.3509 14.7993L72.6036 14.9209L72.6204 14.929L72.6378 14.9359L73.1922 15.1535L73.1922 15.1535L73.1961 15.1551L73.7998 15.3862L73.8145 15.3918L73.8296 15.3965L74.6344 15.6477L74.6433 15.6505L74.6523 15.6529L75.9098 15.9946L75.93 16.0001L75.9506 16.0039L77.1547 16.2249Z" stroke="black" stroke-opacity="0.5"/>
<line x1="60.3608" y1="47.5" x2="132.361" y2="47.5" stroke="black" stroke-opacity="0.5"/>
<path d="M96.3608 8V49" stroke="black" stroke-opacity="0.5"/>
<circle cx="85.3608" cy="28" r="6" fill="#ACACAC"/>
<g filter="url(#filter12_dd_81_430)">
<circle cx="85.3608" cy="28" r="5" fill="url(#paint0_linear_81_430)"/>
</g>
<circle cx="85.8608" cy="27.5" r="3.5" fill="#505151"/>
<circle cx="85.8608" cy="27.5" r="2.5" fill="#272727"/>
<circle cx="85.8608" cy="27.5" r="2.5" fill="#272727"/>
<circle cx="85.3608" cy="28" r="2" fill="#363636"/>
<circle cx="85.3608" cy="28" r="2" fill="#202121"/>
<circle cx="106.361" cy="28" r="6" fill="#ACACAC"/>
<g filter="url(#filter13_dd_81_430)">
<circle cx="106.361" cy="28" r="5" fill="url(#paint1_linear_81_430)"/>
</g>
<circle cx="106.861" cy="27.5" r="3.5" fill="#505151"/>
<circle cx="106.861" cy="27.5" r="2.5" fill="#272727"/>
<circle cx="106.861" cy="27.5" r="2.5" fill="#272727"/>
<circle cx="106.361" cy="28" r="2" fill="#363636"/>
<circle cx="106.361" cy="28" r="2" fill="#202121"/>
<rect x="61.8608" y="38.5" width="68" height="1" fill="#696969" stroke="#383838"/>
<rect x="64.3608" y="38" width="0" height="2" fill="#696969" stroke="#383838"/>
<rect x="72.8608" y="38.5" width="8" height="1" fill="#696969" stroke="#383838"/>
<rect x="93.8608" y="38.5" width="4" height="1" fill="#696969" stroke="#383838"/>
<rect x="110.861" y="38.5" width="8" height="1" fill="#696969" stroke="#383838"/>
<rect x="127.611" y="38.25" width="0.5" height="1.5" fill="#696969" stroke="#383838" stroke-width="0.5"/>
<rect x="61.8608" y="41.5" width="68" height="1" fill="#696969" stroke="#383838"/>
<rect x="64.3608" y="41" width="0" height="2" fill="#696969" stroke="#383838"/>
<rect x="72.8608" y="41.5" width="8" height="1" fill="#696969" stroke="#383838"/>
<rect x="93.8608" y="41.5" width="4" height="1" fill="#696969" stroke="#383838"/>
<rect x="110.861" y="41.5" width="8" height="1" fill="#696969" stroke="#383838"/>
<rect x="127.611" y="41.25" width="0.5" height="1.5" fill="#696969" stroke="#383838" stroke-width="0.5"/>
<rect x="61.8608" y="44.5" width="68" height="1" fill="#696969" stroke="#383838"/>
<rect x="64.3608" y="44" width="0" height="1" fill="#696969" stroke="#383838"/>
<rect x="72.6108" y="44.25" width="8.5" height="0.5" fill="#696969" stroke="#383838" stroke-width="0.5"/>
<rect x="93.6108" y="44.25" width="4.5" height="0.5" fill="#696969" stroke="#383838" stroke-width="0.5"/>
<rect x="110.611" y="44.25" width="8.5" height="0.5" fill="#696969" stroke="#383838" stroke-width="0.5"/>
<rect x="127.611" y="44.25" width="0.5" height="0.5" fill="#696969" stroke="#383838" stroke-width="0.5"/>
<path d="M91.196 4H78.2178C77.5036 4 77.128 4.84695 77.6075 5.37624C78.544 6.4102 79.8741 7 81.2692 7H88.1917C89.4255 7 90.6294 6.61962 91.6392 5.91069L91.7706 5.81845C92.5702 5.25708 92.173 4 91.196 4Z" fill="#696969"/>
<path d="M130.647 4H117.144C116.117 4 115.757 5.36203 116.65 5.86937L117.26 6.21622C118.164 6.72992 119.185 7 120.225 7H127.615C128.94 7 130.224 6.54449 131.253 5.70987C131.957 5.13877 131.553 4 130.647 4Z" fill="#696969"/>
<path d="M60.5753 6H74.6621C75.6183 6 75.8612 4.67383 74.967 4.33499C74.3825 4.1135 73.7627 4 73.1376 4H62.6076C61.6759 4 60.7886 4.3978 60.1688 5.09335C59.856 5.44431 60.1052 6 60.5753 6Z" fill="#696969"/>
<path d="M113.299 7H93.4886C92.515 7 92.1155 5.75027 92.9084 5.18548L93.0103 5.1129C94.0267 4.38902 95.2434 4 96.4912 4H110.16C111.13 4 112.086 4.23528 112.945 4.68566L113.763 5.11428C114.688 5.59934 114.344 7 113.299 7Z" fill="#696969"/>
<line x1="77.3608" y1="5.5" x2="91.3608" y2="5.5" stroke="black" stroke-opacity="0.5"/>
<line x1="116.361" y1="5.5" x2="130.361" y2="5.5" stroke="black" stroke-opacity="0.5"/>
<line x1="60.3608" y1="4.5" x2="75.3608" y2="4.5" stroke="black" stroke-opacity="0.5"/>
<line x1="94.3608" y1="5.5" x2="111.361" y2="5.5" stroke="black" stroke-opacity="0.5"/>
<line x1="94.8608" y1="4" x2="94.8608" y2="7" stroke="black" stroke-opacity="0.5"/>
<line x1="111.861" y1="4" x2="111.861" y2="7" stroke="black" stroke-opacity="0.5"/>
<line x1="4.26499" y1="11.4655" x2="16.1139" y2="16.4005" stroke="black" stroke-opacity="0.5"/>
<line x1="1.14332" y1="16.383" x2="5.15677" y2="17.5838" stroke="black" stroke-opacity="0.5"/>
<line x1="43.1871" y1="1.67555" x2="47.0157" y2="3.37604" stroke="black" stroke-opacity="0.5"/>
<line x1="101.861" y1="1" x2="101.861" y2="4" stroke="black" stroke-opacity="0.5"/>
<line x1="122.861" y1="1" x2="122.861" y2="4" stroke="black" stroke-opacity="0.5"/>
<line x1="101.861" y1="7" x2="101.861" y2="9" stroke="black" stroke-opacity="0.5"/>
<line x1="122.861" y1="7" x2="122.861" y2="9" stroke="black" stroke-opacity="0.5"/>
<line y1="-0.5" x2="3.00269" y2="-0.5" transform="matrix(-0.356334 0.934359 -0.880045 -0.47489 165.964 1.14221)" stroke="black" stroke-opacity="0.5"/>
<line x1="183.647" y1="11.3947" x2="180.038" y2="12.8674" stroke="black" stroke-opacity="0.5"/>
<line y1="-0.5" x2="3.26762" y2="-0.5" transform="matrix(-0.36765 0.929964 -0.871317 -0.490721 170.914 2.545)" stroke="black" stroke-opacity="0.5"/>
<line y1="-0.5" x2="3.19312" y2="-0.5" transform="matrix(-0.915783 0.401673 -0.662465 -0.749093 185.233 16.1572)" stroke="black" stroke-opacity="0.5"/>
<line x1="46.3687" y1="1.23752" x2="50.1973" y2="2.938" stroke="black" stroke-opacity="0.5"/>
<line x1="1.0351" y1="41.4831" x2="4.85031" y2="39.7223" stroke="black" stroke-opacity="0.5"/>
<line x1="120.861" y1="49" x2="120.861" y2="56" stroke="black" stroke-opacity="0.5"/>
<line x1="96.8608" y1="49" x2="96.8608" y2="56" stroke="black" stroke-opacity="0.5"/>
<path d="M91.1769 16.2131L130.361 9H61.0354H60.3656L59.3608 10.6393V46.459L59.8632 47.9344L61.6214 49H78.283V16.2131H91.1769Z" fill="#E2E7EA" style="mix-blend-mode:multiply"/>
<defs>
<filter id="filter0_d_81_430" x="18.3608" y="36.117" width="4" height="2.76607" filterUnits="userSpaceOnUse" color-interpolation-filters="sRGB">
<feFlood flood-opacity="0" result="BackgroundImageFix"/>
<feColorMatrix in="SourceAlpha" type="matrix" values="0 0 0 0 0 0 0 0 0 0 0 0 0 0 0 0 0 0 127 0" result="hardAlpha"/>
<feOffset/>
<feComposite in2="hardAlpha" operator="out"/>
<feColorMatrix type="matrix" values="0 0 0 0 0 0 0 0 0 0 0 0 0 0 0 0 0 0 0.8 0"/>
<feBlend mode="normal" in2="BackgroundImageFix" result="effect1_dropShadow_81_430"/>
<feBlend mode="normal" in="SourceGraphic" in2="effect1_dropShadow_81_430" result="shape"/>
</filter>
<filter id="filter1_d_81_430" x="18.3608" y="36.1537" width="3" height="2.69254" filterUnits="userSpaceOnUse" color-interpolation-filters="sRGB">
<feFlood flood-opacity="0" result="BackgroundImageFix"/>
<feColorMatrix in="SourceAlpha" type="matrix" values="0 0 0 0 0 0 0 0 0 0 0 0 0 0 0 0 0 0 127 0" result="hardAlpha"/>
<feOffset/>
<feComposite in2="hardAlpha" operator="out"/>
<feColorMatrix type="matrix" values="0 0 0 0 0 0 0 0 0 0 0 0 0 0 0 0 0 0 0.8 0"/>
<feBlend mode="normal" in2="BackgroundImageFix" result="effect1_dropShadow_81_430"/>
<feBlend mode="normal" in="SourceGraphic" in2="effect1_dropShadow_81_430" result="shape"/>
</filter>
<filter id="filter2_d_81_430" x="19.3608" y="37" width="2" height="1.5" filterUnits="userSpaceOnUse" color-interpolation-filters="sRGB">
<feFlood flood-opacity="0" result="BackgroundImageFix"/>
<feColorMatrix in="SourceAlpha" type="matrix" values="0 0 0 0 0 0 0 0 0 0 0 0 0 0 0 0 0 0 127 0" result="hardAlpha"/>
<feOffset dy="0.5"/>
<feComposite in2="hardAlpha" operator="out"/>
<feColorMatrix type="matrix" values="0 0 0 0 0 0 0 0 0 0 0 0 0 0 0 0 0 0 0.8 0"/>
<feBlend mode="normal" in2="BackgroundImageFix" result="effect1_dropShadow_81_430"/>
<feBlend mode="normal" in="SourceGraphic" in2="effect1_dropShadow_81_430" result="shape"/>
</filter>
<filter id="filter3_d_81_430" x="37.3608" y="36.117" width="4" height="2.76607" filterUnits="userSpaceOnUse" color-interpolation-filters="sRGB">
<feFlood flood-opacity="0" result="BackgroundImageFix"/>
<feColorMatrix in="SourceAlpha" type="matrix" values="0 0 0 0 0 0 0 0 0 0 0 0 0 0 0 0 0 0 127 0" result="hardAlpha"/>
<feOffset/>
<feComposite in2="hardAlpha" operator="out"/>
<feColorMatrix type="matrix" values="0 0 0 0 0 0 0 0 0 0 0 0 0 0 0 0 0 0 0.8 0"/>
<feBlend mode="normal" in2="BackgroundImageFix" result="effect1_dropShadow_81_430"/>
<feBlend mode="normal" in="SourceGraphic" in2="effect1_dropShadow_81_430" result="shape"/>
</filter>
<filter id="filter4_d_81_430" x="37.3608" y="36.117" width="4" height="2.76607" filterUnits="userSpaceOnUse" color-interpolation-filters="sRGB">
<feFlood flood-opacity="0" result="BackgroundImageFix"/>
<feColorMatrix in="SourceAlpha" type="matrix" values="0 0 0 0 0 0 0 0 0 0 0 0 0 0 0 0 0 0 127 0" result="hardAlpha"/>
<feOffset/>
<feComposite in2="hardAlpha" operator="out"/>
<feColorMatrix type="matrix" values="0 0 0 0 0 0 0 0 0 0 0 0 0 0 0 0 0 0 0.8 0"/>
<feBlend mode="normal" in2="BackgroundImageFix" result="effect1_dropShadow_81_430"/>
<feBlend mode="normal" in="SourceGraphic" in2="effect1_dropShadow_81_430" result="shape"/>
</filter>
<filter id="filter5_d_81_430" x="38.3608" y="37" width="2" height="1.5" filterUnits="userSpaceOnUse" color-interpolation-filters="sRGB">
<feFlood flood-opacity="0" result="BackgroundImageFix"/>
<feColorMatrix in="SourceAlpha" type="matrix" values="0 0 0 0 0 0 0 0 0 0 0 0 0 0 0 0 0 0 127 0" result="hardAlpha"/>
<feOffset dy="0.5"/>
<feComposite in2="hardAlpha" operator="out"/>
<feColorMatrix type="matrix" values="0 0 0 0 0 0 0 0 0 0 0 0 0 0 0 0 0 0 0.8 0"/>
<feBlend mode="normal" in2="BackgroundImageFix" result="effect1_dropShadow_81_430"/>
<feBlend mode="normal" in="SourceGraphic" in2="effect1_dropShadow_81_430" result="shape"/>
</filter>
<filter id="filter6_d_81_430" x="152.361" y="36.117" width="4" height="2.76607" filterUnits="userSpaceOnUse" color-interpolation-filters="sRGB">
<feFlood flood-opacity="0" result="BackgroundImageFix"/>
<feColorMatrix in="SourceAlpha" type="matrix" values="0 0 0 0 0 0 0 0 0 0 0 0 0 0 0 0 0 0 127 0" result="hardAlpha"/>
<feOffset/>
<feComposite in2="hardAlpha" operator="out"/>
<feColorMatrix type="matrix" values="0 0 0 0 0 0 0 0 0 0 0 0 0 0 0 0 0 0 0.8 0"/>
<feBlend mode="normal" in2="BackgroundImageFix" result="effect1_dropShadow_81_430"/>
<feBlend mode="normal" in="SourceGraphic" in2="effect1_dropShadow_81_430" result="shape"/>
</filter>
<filter id="filter7_d_81_430" x="152.361" y="36.1537" width="3" height="2.69254" filterUnits="userSpaceOnUse" color-interpolation-filters="sRGB">
<feFlood flood-opacity="0" result="BackgroundImageFix"/>
<feColorMatrix in="SourceAlpha" type="matrix" values="0 0 0 0 0 0 0 0 0 0 0 0 0 0 0 0 0 0 127 0" result="hardAlpha"/>
<feOffset/>
<feComposite in2="hardAlpha" operator="out"/>
<feColorMatrix type="matrix" values="0 0 0 0 0 0 0 0 0 0 0 0 0 0 0 0 0 0 0.8 0"/>
<feBlend mode="normal" in2="BackgroundImageFix" result="effect1_dropShadow_81_430"/>
<feBlend mode="normal" in="SourceGraphic" in2="effect1_dropShadow_81_430" result="shape"/>
</filter>
<filter id="filter8_d_81_430" x="153.361" y="37" width="2" height="1.5" filterUnits="userSpaceOnUse" color-interpolation-filters="sRGB">
<feFlood flood-opacity="0" result="BackgroundImageFix"/>
<feColorMatrix in="SourceAlpha" type="matrix" values="0 0 0 0 0 0 0 0 0 0 0 0 0 0 0 0 0 0 127 0" result="hardAlpha"/>
<feOffset dy="0.5"/>
<feComposite in2="hardAlpha" operator="out"/>
<feColorMatrix type="matrix" values="0 0 0 0 0 0 0 0 0 0 0 0 0 0 0 0 0 0 0.8 0"/>
<feBlend mode="normal" in2="BackgroundImageFix" result="effect1_dropShadow_81_430"/>
<feBlend mode="normal" in="SourceGraphic" in2="effect1_dropShadow_81_430" result="shape"/>
</filter>
<filter id="filter9_d_81_430" x="171.361" y="36.117" width="4" height="2.76607" filterUnits="userSpaceOnUse" color-interpolation-filters="sRGB">
<feFlood flood-opacity="0" result="BackgroundImageFix"/>
<feColorMatrix in="SourceAlpha" type="matrix" values="0 0 0 0 0 0 0 0 0 0 0 0 0 0 0 0 0 0 127 0" result="hardAlpha"/>
<feOffset/>
<feComposite in2="hardAlpha" operator="out"/>
<feColorMatrix type="matrix" values="0 0 0 0 0 0 0 0 0 0 0 0 0 0 0 0 0 0 0.8 0"/>
<feBlend mode="normal" in2="BackgroundImageFix" result="effect1_dropShadow_81_430"/>
<feBlend mode="normal" in="SourceGraphic" in2="effect1_dropShadow_81_430" result="shape"/>
</filter>
<filter id="filter10_d_81_430" x="171.361" y="36.117" width="4" height="2.76607" filterUnits="userSpaceOnUse" color-interpolation-filters="sRGB">
<feFlood flood-opacity="0" result="BackgroundImageFix"/>
<feColorMatrix in="SourceAlpha" type="matrix" values="0 0 0 0 0 0 0 0 0 0 0 0 0 0 0 0 0 0 127 0" result="hardAlpha"/>
<feOffset/>
<feComposite in2="hardAlpha" operator="out"/>
<feColorMatrix type="matrix" values="0 0 0 0 0 0 0 0 0 0 0 0 0 0 0 0 0 0 0.8 0"/>
<feBlend mode="normal" in2="BackgroundImageFix" result="effect1_dropShadow_81_430"/>
<feBlend mode="normal" in="SourceGraphic" in2="effect1_dropShadow_81_430" result="shape"/>
</filter>
<filter id="filter11_d_81_430" x="172.361" y="37" width="2" height="1.5" filterUnits="userSpaceOnUse" color-interpolation-filters="sRGB">
<feFlood flood-opacity="0" result="BackgroundImageFix"/>
<feColorMatrix in="SourceAlpha" type="matrix" values="0 0 0 0 0 0 0 0 0 0 0 0 0 0 0 0 0 0 127 0" result="hardAlpha"/>
<feOffset dy="0.5"/>
<feComposite in2="hardAlpha" operator="out"/>
<feColorMatrix type="matrix" values="0 0 0 0 0 0 0 0 0 0 0 0 0 0 0 0 0 0 0.8 0"/>
<feBlend mode="normal" in2="BackgroundImageFix" result="effect1_dropShadow_81_430"/>
<feBlend mode="normal" in="SourceGraphic" in2="effect1_dropShadow_81_430" result="shape"/>
</filter>
<filter id="filter12_dd_81_430" x="79.8608" y="22.5" width="11" height="11" filterUnits="userSpaceOnUse" color-interpolation-filters="sRGB">
<feFlood flood-opacity="0" result="BackgroundImageFix"/>
<feColorMatrix in="SourceAlpha" type="matrix" values="0 0 0 0 0 0 0 0 0 0 0 0 0 0 0 0 0 0 127 0" result="hardAlpha"/>
<feOffset dx="-0.5" dy="-0.5"/>
<feComposite in2="hardAlpha" operator="out"/>
<feColorMatrix type="matrix" values="0 0 0 0 1 0 0 0 0 1 0 0 0 0 1 0 0 0 1 0"/>
<feBlend mode="normal" in2="BackgroundImageFix" result="effect1_dropShadow_81_430"/>
<feColorMatrix in="SourceAlpha" type="matrix" values="0 0 0 0 0 0 0 0 0 0 0 0 0 0 0 0 0 0 127 0" result="hardAlpha"/>
<feOffset dx="0.5" dy="0.5"/>
<feComposite in2="hardAlpha" operator="out"/>
<feColorMatrix type="matrix" values="0 0 0 0 0 0 0 0 0 0 0 0 0 0 0 0 0 0 0.25 0"/>
<feBlend mode="normal" in2="effect1_dropShadow_81_430" result="effect2_dropShadow_81_430"/>
<feBlend mode="normal" in="SourceGraphic" in2="effect2_dropShadow_81_430" result="shape"/>
</filter>
<filter id="filter13_dd_81_430" x="100.861" y="22.5" width="11" height="11" filterUnits="userSpaceOnUse" color-interpolation-filters="sRGB">
<feFlood flood-opacity="0" result="BackgroundImageFix"/>
<feColorMatrix in="SourceAlpha" type="matrix" values="0 0 0 0 0 0 0 0 0 0 0 0 0 0 0 0 0 0 127 0" result="hardAlpha"/>
<feOffset dx="-0.5" dy="-0.5"/>
<feComposite in2="hardAlpha" operator="out"/>
<feColorMatrix type="matrix" values="0 0 0 0 1 0 0 0 0 1 0 0 0 0 1 0 0 0 1 0"/>
<feBlend mode="normal" in2="BackgroundImageFix" result="effect1_dropShadow_81_430"/>
<feColorMatrix in="SourceAlpha" type="matrix" values="0 0 0 0 0 0 0 0 0 0 0 0 0 0 0 0 0 0 127 0" result="hardAlpha"/>
<feOffset dx="0.5" dy="0.5"/>
<feComposite in2="hardAlpha" operator="out"/>
<feColorMatrix type="matrix" values="0 0 0 0 0 0 0 0 0 0 0 0 0 0 0 0 0 0 0.25 0"/>
<feBlend mode="normal" in2="effect1_dropShadow_81_430" result="effect2_dropShadow_81_430"/>
<feBlend mode="normal" in="SourceGraphic" in2="effect2_dropShadow_81_430" result="shape"/>
</filter>
<linearGradient id="paint0_linear_81_430" x1="84.2056" y1="23.1775" x2="86.8926" y2="32.7885" gradientUnits="userSpaceOnUse">
<stop stop-color="#E9E9E9"/>
<stop offset="1" stop-color="#9FA3A5"/>
</linearGradient>
<linearGradient id="paint1_linear_81_430" x1="105.206" y1="23.1775" x2="107.893" y2="32.7885" gradientUnits="userSpaceOnUse">
<stop stop-color="#E9E9E9"/>
<stop offset="1" stop-color="#9FA3A5"/>
</linearGradient>
</defs>
</svg>
