<svg width="234" height="62" viewBox="0 0 234 62" fill="none" xmlns="http://www.w3.org/2000/svg">
<path d="M91.9507 52.4392L96.095 56.5821H135.91L140.043 52.4564L91.9507 52.4392Z" fill="#444444" stroke="#020E24" stroke-width="1.2" stroke-miterlimit="10"/>
<path d="M142.112 53.6826L142.25 53.7514L142.387 53.8144L142.525 53.8832L142.657 53.9462C142.704 53.9657 142.75 53.9887 142.794 54.015L142.932 54.078C142.978 54.078 143.023 54.1239 143.069 54.1468L143.207 54.2098L143.344 54.2728L143.482 54.3416L143.614 54.4046L143.751 54.4734C143.799 54.4909 143.845 54.512 143.889 54.5364L144.027 54.6052L144.164 54.6682L144.302 54.737L144.439 54.8C144.485 54.8195 144.529 54.8425 144.571 54.8688C144.618 54.8863 144.664 54.9074 144.709 54.9318C144.756 54.9513 144.802 54.9742 144.846 55.0006L144.984 55.0636L145.121 55.1266L145.259 55.1954L145.397 55.2584L145.528 55.3272C145.576 55.3447 145.622 55.3658 145.666 55.3902L145.803 55.459L145.941 55.522L146.079 55.5908L146.216 55.6538L146.354 55.7226L146.491 55.7856C146.536 55.8062 146.58 55.8292 146.623 55.8543C146.671 55.8719 146.717 55.8929 146.761 55.9174C146.812 55.9174 146.852 55.9632 146.898 55.9804L147.036 56.0492L147.173 56.1122L147.311 56.181L147.449 56.244L147.58 56.3127C147.628 56.3303 147.674 56.3514 147.718 56.3758L147.856 56.4446L147.993 56.5076L148.131 56.5763L148.268 56.6394C148.314 56.6394 148.36 56.6852 148.406 56.7081L148.538 56.7712C148.589 56.7712 148.629 56.817 148.675 56.8342L148.813 56.903L148.95 56.966L149.088 57.0347L149.226 57.0978L149.363 57.1666L149.501 57.2296C149.919 57.3962 150.266 57.7034 150.483 58.0984C150.699 58.4933 150.771 58.9513 150.686 59.3935C150.602 59.8358 150.365 60.2346 150.018 60.5215C149.671 60.8084 149.235 60.9655 148.784 60.9656H147.042C146.745 60.9631 146.453 60.8926 146.188 60.7593L146.05 60.6906L145.912 60.6275L145.775 60.5588L145.643 60.4958C145.596 60.4782 145.55 60.4571 145.505 60.4327L145.368 60.3639L145.23 60.3009L145.093 60.2322L144.955 60.1691L144.818 60.1004L144.686 60.0373L144.548 59.9686C144.501 59.951 144.455 59.93 144.411 59.9055L144.273 59.8368L144.135 59.7738L143.998 59.705L143.86 59.6419L143.723 59.5789L143.591 59.5102C143.544 59.4926 143.498 59.4716 143.453 59.4471L143.316 59.3784L143.178 59.3154L143.041 59.2466L142.903 59.1835L142.765 59.1148L142.634 59.0518C142.586 59.0323 142.54 59.0093 142.496 58.983C142.449 58.9655 142.403 58.9444 142.359 58.92L142.221 58.8512L142.083 58.7882L141.946 58.7251L141.808 58.6564L141.676 58.5934L141.539 58.5246C141.491 58.5071 141.445 58.486 141.401 58.4615L141.264 58.3928L141.126 58.3298L140.989 58.261L140.851 58.198C140.805 58.1785 140.761 58.1555 140.719 58.1292C140.672 58.1117 140.626 58.0906 140.582 58.0662C140.534 58.0467 140.488 58.0237 140.444 57.9974L140.306 57.9344L140.169 57.8714L140.031 57.8026L139.894 57.7396L139.756 57.6708L139.624 57.6078L139.487 57.539C139.439 57.5215 139.393 57.5004 139.349 57.476L139.212 57.4072L139.074 57.3442L138.936 57.2754L138.799 57.2124C138.753 57.1929 138.709 57.1699 138.667 57.1436C138.62 57.1261 138.574 57.105 138.529 57.0806C138.478 57.0806 138.438 57.0348 138.392 57.0176L138.254 56.9488L138.117 56.8858L137.979 56.817L137.842 56.754L137.71 56.6852C137.662 56.6677 137.616 56.6466 137.572 56.6222L137.435 56.5534L137.297 56.4904L137.16 56.4216L137.022 56.3586C136.976 56.3586 136.93 56.3128 136.884 56.2898L136.747 56.2268L136.615 56.1638L136.477 56.095L136.34 56.032L136.202 55.9632L136.065 55.9002L135.927 55.8314L135.79 55.7684L135.658 55.6996C135.61 55.6821 135.564 55.661 135.52 55.6366C135.473 55.6171 135.427 55.5942 135.383 55.5678L135.245 55.5048L135.107 55.4361L134.97 55.373L134.832 55.31L134.7 55.2412C134.653 55.2237 134.607 55.2026 134.563 55.1782L134.425 55.1094L134.288 55.0464L134.15 54.9777L134.013 54.9146L133.875 54.8458L133.743 54.7828C133.696 54.7634 133.65 54.7404 133.606 54.7141C133.558 54.6965 133.512 54.6755 133.468 54.651L133.33 54.5823L133.193 54.5192L133.055 54.4562L132.918 54.3874L132.78 54.3244L132.648 54.2557C132.601 54.2381 132.555 54.2171 132.511 54.1926C132.229 54.0775 131.978 53.8991 131.777 53.6712H142.095L142.112 53.6826Z" fill="#777E80" stroke="#343535" stroke-width="0.5" stroke-miterlimit="10"/>
<path d="M90.0362 53.6826L89.8986 53.7514L89.7611 53.8144L89.6292 53.8832C89.5818 53.9007 89.5359 53.9218 89.4917 53.9462C89.4442 53.9657 89.3982 53.9887 89.3541 54.015L89.2165 54.078L89.079 54.1468L88.9414 54.2098L88.8038 54.2728L88.672 54.3416C88.6246 54.3591 88.5786 54.3802 88.5344 54.4046L88.3968 54.4734L88.2593 54.5364L88.1217 54.6052L87.9841 54.6682L87.8466 54.737L87.7147 54.8C87.6672 54.8195 87.6212 54.8425 87.5771 54.8688C87.5298 54.8863 87.4838 54.9074 87.4396 54.9318L87.302 55.0006L87.1644 55.0636L87.0269 55.1266L86.8893 55.1954L86.7517 55.2584L86.6199 55.3272C86.5725 55.3447 86.5265 55.3658 86.4823 55.3902L86.3448 55.459L86.2072 55.522L86.0696 55.5908L85.932 55.6538L85.7945 55.7226L85.6626 55.7856C85.6151 55.805 85.5691 55.828 85.5251 55.8543C85.4777 55.8719 85.4317 55.8929 85.3875 55.9174L85.2499 55.9804L85.1124 56.0492L84.9748 56.1122L84.8372 56.181L84.7054 56.244L84.5678 56.3127C84.5204 56.3303 84.4744 56.3514 84.4302 56.3758L84.2927 56.4446L84.1551 56.5076L84.0175 56.5763L83.88 56.6394L83.7424 56.7081L83.6106 56.7712C83.559 56.7712 83.5188 56.817 83.473 56.8342L83.3354 56.903L83.1978 56.966L83.0603 57.0347L82.9227 57.0978L82.7851 57.1666L82.6533 57.2296C82.2353 57.3961 81.8883 57.7028 81.6718 58.0971C81.4553 58.4914 81.3829 58.9488 81.467 59.3907C81.551 59.8326 81.7864 60.2315 82.1325 60.5188C82.4787 60.8062 82.9141 60.9641 83.3641 60.9656H85.1353C85.4301 60.9625 85.7203 60.8919 85.9836 60.7593L86.1212 60.6906L86.2588 60.6275L86.3963 60.5588L86.5339 60.4958L86.6657 60.4327L86.8033 60.3639C86.8507 60.3464 86.8967 60.3254 86.9409 60.3009L87.0785 60.2322L87.216 60.1691L87.3536 60.1004L87.4912 60.0373L87.623 59.9686C87.6704 59.951 87.7164 59.93 87.7606 59.9055C87.8081 59.8861 87.8541 59.8631 87.8981 59.8368L88.0357 59.7738L88.1733 59.705L88.3108 59.6419L88.4484 59.5789L88.586 59.5102L88.7178 59.4471L88.8554 59.3784L88.993 59.3154L89.1305 59.2466L89.2681 59.1835L89.4057 59.1148L89.5433 59.0518C89.5883 59.0311 89.6323 59.0082 89.6751 58.983C89.7225 58.9655 89.7685 58.9444 89.8127 58.92L89.9502 58.8512L90.0878 58.7882L90.2254 58.7251L90.3629 58.6564L90.5005 58.5934L90.6323 58.5246C90.6797 58.5071 90.7257 58.486 90.7699 58.4615L90.9075 58.3928L91.0451 58.3298L91.1826 58.261L91.3202 58.198L91.4578 58.1292L91.5896 58.0662C91.6371 58.0467 91.6831 58.0237 91.7272 57.9974C91.7745 57.9799 91.8205 57.9588 91.8647 57.9344L92.0023 57.8714L92.1399 57.8026L92.2775 57.7396L92.415 57.6708L92.5526 57.6078L92.6844 57.539C92.7318 57.5215 92.7778 57.5004 92.822 57.476L92.9596 57.4072L93.0971 57.3442L93.2347 57.2754L93.3723 57.2124L93.5098 57.1436L93.6417 57.0806C93.6933 57.0806 93.7334 57.0348 93.7793 57.0176L93.9168 56.9488L94.0544 56.8858L94.192 56.817L94.3295 56.754L94.4671 56.6852L94.5989 56.6222L94.7365 56.5534C94.7839 56.5359 94.8299 56.5148 94.8741 56.4904L95.0116 56.4216L95.1492 56.3586L95.2868 56.2898L95.4244 56.2268L95.5619 56.1638L95.6938 56.095C95.7411 56.0775 95.7871 56.0564 95.8313 56.032L95.9689 55.9632L96.1065 55.9002L96.244 55.8314L96.3816 55.7684L96.5192 55.6996L96.651 55.6366C96.6985 55.6171 96.7445 55.5942 96.7886 55.5678C96.836 55.5503 96.882 55.5293 96.9262 55.5048L97.0637 55.4361L97.2013 55.373L97.3389 55.31L97.4764 55.2412L97.6083 55.1782L97.7458 55.1094C97.7932 55.0919 97.8392 55.0709 97.8834 55.0464L98.021 54.9777L98.1586 54.9146L98.2961 54.8458L98.4337 54.7828C98.4794 54.7633 98.5234 54.7404 98.5655 54.7141C98.6129 54.6965 98.6589 54.6755 98.7031 54.651C98.7506 54.6316 98.7966 54.6086 98.8407 54.5823L98.9782 54.5192L99.1158 54.4562L99.2534 54.3874L99.3909 54.3244L99.5285 54.2557L99.6604 54.1926C99.9418 54.0775 100.193 53.8991 100.394 53.6712H90.0763L90.0362 53.6826Z" fill="#777E80" stroke="#343535" stroke-width="0.5" stroke-miterlimit="10"/>
<path d="M84.4247 54.015C81.8629 54.0134 79.328 53.493 76.973 52.485L58.768 44.7265C58.264 44.5422 57.8287 44.2075 57.5212 43.7679C57.2136 43.3282 57.0486 42.8048 57.0483 42.2683V30.7278C57.0471 30.2031 57.2039 29.6902 57.4984 29.2558C57.7928 28.8215 58.2112 28.4858 58.6992 28.2925L80.7791 19.451C82.0926 18.922 83.4959 18.6516 84.912 18.6545H140.123C176.298 18.6545 189.792 25.204 194.738 30.6877C197.547 33.8106 197.318 36.3204 197.306 36.4178C197.306 50.5884 150.493 53.866 148.498 53.9978H84.4247V54.015Z" fill="#DFE2E2"/>
<path d="M140.123 18.9983C198.802 18.9983 196.962 36.4006 196.962 36.4006C196.962 50.4451 148.475 53.6712 148.475 53.6712H84.4247C81.9008 53.6713 79.4031 53.1606 77.0819 52.1699L58.894 44.3999C58.4549 44.2385 58.0756 43.9467 57.8072 43.5636C57.5387 43.1805 57.3939 42.7245 57.3922 42.2568V30.7278C57.3932 30.2721 57.53 29.8269 57.7852 29.4493C58.0405 29.0716 58.4026 28.7786 58.8253 28.6077L80.9109 19.7604C82.187 19.2504 83.5491 18.9897 84.9234 18.9925H140.135L140.123 18.9983ZM140.135 18.305H84.9119C83.4529 18.303 82.0071 18.5812 80.653 19.1244L58.5673 27.9659C58.0156 28.1848 57.5427 28.5649 57.2104 29.0566C56.878 29.5483 56.7017 30.1287 56.7044 30.7221V42.2625C56.7052 42.8679 56.8905 43.4587 57.2356 43.9562C57.5807 44.4537 58.0692 44.8343 58.6361 45.0474L76.8068 52.8002C79.2148 53.8278 81.8064 54.3561 84.4247 54.3531H148.521C156.698 53.7303 164.828 52.6012 172.865 50.9723C189.287 47.4998 197.627 42.6006 197.65 36.4178C197.65 36.0396 197.736 33.5069 194.991 30.4585C189.998 24.9117 176.424 18.305 140.123 18.305H140.135Z" fill="#020F25"/>
<path d="M170.83 42.5892C158.036 48.4568 128.539 50.2159 128.539 50.2159H89.4345C87.7206 50.214 86.0185 49.9313 84.396 49.3793L63.7605 42.3427C63.1318 42.1277 62.586 41.7215 62.1996 41.1811C61.8131 40.6407 61.6053 39.993 61.6053 39.3287V37.1054L57.3865 36.7215V42.2683C57.3882 42.736 57.533 43.192 57.8014 43.5751C58.0699 43.9581 58.4491 44.25 58.8883 44.4113L77.1105 52.1699C79.4317 53.1606 81.9295 53.6713 84.4533 53.6712H148.475C148.475 53.6712 170.641 52.1985 185 46.8982L170.83 42.5892Z" fill="#787F81"/>
<path d="M139.728 20.1672C196.624 20.1672 194.842 36.3949 194.842 36.3949C194.842 49.4882 147.839 52.5022 147.839 52.5022H85.7087C83.2651 52.5012 80.8451 52.0243 78.5838 51.0984L60.9519 43.867C60.5313 43.7264 60.1651 43.4582 59.9041 43.0997C59.6432 42.7413 59.5005 42.3104 59.496 41.8672V31.106C59.5004 30.6757 59.6354 30.2569 59.8831 29.9049C60.1308 29.553 60.4795 29.2844 60.8831 29.1348L82.3154 20.9064C83.5535 20.4292 84.869 20.1844 86.196 20.1844H139.728V20.1672ZM139.728 19.8979H86.196C84.8339 19.8981 83.4835 20.1487 82.2122 20.6371L60.7971 28.8827C60.3383 29.0519 59.9421 29.3571 59.6614 29.7574C59.3807 30.1578 59.229 30.6343 59.2266 31.1232V41.8843C59.2272 42.3902 59.3862 42.8832 59.6812 43.2943C59.9762 43.7053 60.3925 44.0137 60.8717 44.1764L78.4921 51.402C80.7864 52.3474 83.2444 52.8322 85.7259 52.8289H147.827C149.776 52.7028 195.1 49.6486 195.128 36.4465C195.128 36.2173 195.26 34.0513 192.835 31.3466C188.164 26.1322 175.158 19.9208 139.728 19.9208V19.8979Z" fill="#020F25"/>
<path d="M89.2738 50.3592C87.5438 50.3591 85.8258 50.0725 84.1894 49.5111L63.554 42.4803C62.8961 42.2563 62.3249 41.8318 61.9209 41.2665C61.5168 40.7012 61.3001 40.0235 61.3013 39.3287V33.0256C61.302 32.3257 61.5242 31.6439 61.9361 31.0778C62.3479 30.5118 62.9282 30.0904 63.5941 29.874L82.659 23.4964C83.3076 23.2799 83.9871 23.1696 84.6709 23.1698H124.595C151.438 23.1698 164.146 26.8256 170.079 29.8912C176.573 33.2491 176.648 36.584 176.648 36.7272C176.648 47.368 130.373 50.2503 128.407 50.3706H89.2738V50.3592Z" fill="#DFE2E2"/>
<path d="M124.578 23.3016C176.487 23.3016 176.487 36.7158 176.487 36.7158C176.487 47.3451 128.378 50.2159 128.378 50.2159H89.2739C87.56 50.214 85.8579 49.9313 84.2354 49.3793L63.5999 42.3427C62.9712 42.1277 62.4254 41.7215 62.039 41.1811C61.6526 40.6407 61.4448 39.993 61.4447 39.3287V33.0256C61.4448 32.3582 61.6545 31.7077 62.0443 31.1659C62.4341 30.624 62.9843 30.2183 63.6172 30.0058L82.682 23.6339C83.3159 23.4222 83.9798 23.3138 84.6481 23.3131H124.572L124.578 23.3016ZM124.572 23.0265H84.6539C83.9544 23.025 83.2594 23.1373 82.5961 23.3589L63.5312 29.7365C62.8418 29.968 62.2426 30.41 61.8178 31.0001C61.3931 31.5902 61.1644 32.2986 61.1638 33.0256V39.3287C61.1635 40.0528 61.3899 40.7588 61.8114 41.3477C62.2329 41.9365 62.8283 42.3787 63.514 42.6121L84.1494 49.6486C85.8006 50.2147 87.5341 50.5032 89.2796 50.5024H128.384C130.379 50.3821 176.78 47.4884 176.78 36.7158C176.78 36.5725 176.705 33.1459 170.136 29.7537C161.607 25.3415 145.855 23.0151 124.583 23.0151L124.572 23.0265Z" fill="#020F25"/>
<path d="M46.2547 10.4776C71.2482 10.4776 91.5094 8.35597 91.5094 5.7388C91.5094 3.12163 71.2482 1 46.2547 1C21.2612 1 1 3.12163 1 5.7388C1 8.35597 21.2612 10.4776 46.2547 10.4776Z" fill="url(#paint0_linear_81_1353)" stroke="#323333" stroke-width="0.5" stroke-miterlimit="10"/>
<path d="M46.2548 9.03935C64.1729 9.03935 78.6984 7.56165 78.6984 5.73881C78.6984 3.91597 64.1729 2.43826 46.2548 2.43826C28.3367 2.43826 13.8113 3.91597 13.8113 5.73881C13.8113 7.56165 28.3367 9.03935 46.2548 9.03935Z" fill="url(#paint1_linear_81_1353)"/>
<path d="M106.057 23.3016H84.8143C84.1459 23.3023 83.4821 23.4107 82.8482 23.6225L63.7833 29.9943C63.1499 30.2061 62.5993 30.6116 62.2094 31.1536C61.8195 31.6956 61.6101 32.3465 61.6108 33.0141V39.3172C61.6109 39.9816 61.8187 40.6292 62.2051 41.1696C62.5916 41.7101 63.1374 42.1162 63.7661 42.3313L84.4016 49.3679C86.0241 49.9199 87.7261 50.2025 89.4401 50.2045H128.544C128.544 50.2045 145.976 49.1616 159.853 46.0158C148.761 45.2078 120.76 41.3629 106.057 23.3016Z" fill="#C6CCCF"/>
<path d="M103.524 19.9265H92.7764L96.0093 21.7774C96.1427 21.8569 96.2953 21.8985 96.4506 21.8977H100.291C100.446 21.8985 100.599 21.8569 100.732 21.7774L103.599 20.15C103.622 20.1361 103.641 20.1144 103.651 20.0885C103.66 20.0627 103.661 20.0342 103.652 20.008C103.643 19.9818 103.626 19.9594 103.603 19.9445C103.579 19.9297 103.551 19.9234 103.524 19.9265V19.9265Z" fill="#676A6A"/>
<path d="M104.653 20.0526L102.905 21.2789C102.844 21.3195 102.798 21.3788 102.774 21.4477C102.75 21.5166 102.749 21.5915 102.77 21.6612C102.792 21.7309 102.836 21.7916 102.896 21.8342C102.955 21.8768 103.027 21.8991 103.1 21.8977H119.224C119.298 21.8999 119.371 21.8776 119.431 21.8342C119.492 21.7908 119.536 21.7288 119.558 21.6577C119.579 21.5867 119.577 21.5105 119.55 21.441C119.524 21.3715 119.476 21.3125 119.413 21.2731L117.562 20.0411C117.445 19.9664 117.31 19.9267 117.172 19.9265H105.054C104.91 19.924 104.77 19.9683 104.653 20.0526V20.0526Z" fill="#676A6A"/>
<path d="M114.145 41.7984V38.1712C114.145 37.8855 114.032 37.6115 113.83 37.4095C113.628 37.2075 113.353 37.094 113.068 37.094H61.479V39.3287C61.4791 39.993 61.6869 40.6407 62.0733 41.1811C62.4598 41.7215 63.0055 42.1277 63.6343 42.3427L65.1877 42.8757H113.096C113.377 42.8682 113.644 42.7514 113.84 42.5502C114.036 42.3489 114.145 42.0792 114.145 41.7984V41.7984Z" fill="#9EA9AE" stroke="#020E24" stroke-width="0.5" stroke-miterlimit="10"/>
<path d="M119.041 20.2131L121.517 21.7717C121.652 21.8531 121.806 21.8966 121.964 21.8977H125.976C126.117 21.8982 126.255 21.8627 126.378 21.7946L129.244 20.2188C129.275 20.2028 129.3 20.1767 129.314 20.1448C129.328 20.1128 129.332 20.0769 129.323 20.043C129.314 20.0091 129.294 19.9791 129.266 19.958C129.238 19.9368 129.204 19.9257 129.169 19.9266H119.127C119.092 19.9254 119.059 19.9357 119.031 19.9556C119.003 19.9755 118.983 20.0041 118.973 20.0368C118.964 20.0694 118.965 20.1045 118.977 20.1364C118.989 20.1683 119.012 20.1952 119.041 20.2131Z" fill="#676A6A"/>
<path d="M113.286 25.9604H99.7693C99.3324 25.9604 98.9783 26.3144 98.9783 26.7511C98.9783 27.1878 99.3324 27.5419 99.7693 27.5419H113.286C113.722 27.5419 114.077 27.1878 114.077 26.7511C114.077 26.3144 113.722 25.9604 113.286 25.9604Z" fill="#444444" stroke="#020E24" stroke-width="0.5" stroke-miterlimit="10"/>
<path d="M113.286 28.3613H99.7693C99.3324 28.3613 98.9783 28.7153 98.9783 29.152C98.9783 29.5888 99.3324 29.9428 99.7693 29.9428H113.286C113.722 29.9428 114.077 29.5888 114.077 29.152C114.077 28.7153 113.722 28.3613 113.286 28.3613Z" fill="#444444" stroke="#020E24" stroke-width="0.5" stroke-miterlimit="10"/>
<path d="M113.286 30.957H99.7693C99.3324 30.957 98.9783 31.311 98.9783 31.7478C98.9783 32.1845 99.3324 32.5385 99.7693 32.5385H113.286C113.722 32.5385 114.077 32.1845 114.077 31.7478C114.077 31.311 113.722 30.957 113.286 30.957Z" fill="#444444" stroke="#020E24" stroke-width="0.5" stroke-miterlimit="10"/>
<path d="M113.286 33.2834H99.7693C99.3324 33.2834 98.9783 33.6375 98.9783 34.0742C98.9783 34.5109 99.3324 34.8649 99.7693 34.8649H113.286C113.722 34.8649 114.077 34.5109 114.077 34.0742C114.077 33.6375 113.722 33.2834 113.286 33.2834Z" fill="#444444" stroke="#020E24" stroke-width="0.5" stroke-miterlimit="10"/>
<path d="M85.1411 57.1264H83.3642C82.2942 57.1264 81.4268 57.9936 81.4268 59.0632C81.4268 60.1329 82.2942 61 83.3642 61H85.1411C86.2112 61 87.0786 60.1329 87.0786 59.0632C87.0786 57.9936 86.2112 57.1264 85.1411 57.1264Z" fill="#777E80" stroke="#343535" stroke-width="0.5" stroke-miterlimit="10"/>
<path d="M81.2033 27.5419H74.0324C73.4911 27.5419 73.0522 27.9806 73.0522 28.5217V33.0944C73.0522 33.6355 73.4911 34.0742 74.0324 34.0742H81.2033C81.7446 34.0742 82.1834 33.6355 82.1834 33.0944V28.5217C82.1834 27.9806 81.7446 27.5419 81.2033 27.5419Z" fill="#676A6A"/>
<path d="M97.9982 49.2361V44.652C97.9982 44.3161 97.8647 43.994 97.6272 43.7565C97.3896 43.5191 97.0674 43.3856 96.7314 43.3856H87.9556C87.5981 43.3862 87.2441 43.3144 86.9151 43.1746C86.586 43.0347 86.2887 42.8297 86.0411 42.5719L55.4089 10.8672C55.1446 10.595 54.8283 10.3786 54.4788 10.2309C54.1292 10.0833 53.7535 10.0074 53.374 10.0077H47.877V17.4569L80.0797 49.6486C80.579 50.1428 81.2516 50.4224 81.9541 50.4279L96.7085 50.4795C96.8749 50.4825 97.0402 50.4528 97.195 50.3919C97.3499 50.3311 97.4913 50.2403 97.611 50.1249C97.7308 50.0094 97.8266 49.8715 97.8931 49.7189C97.9595 49.5664 97.9952 49.4024 97.9982 49.2361V49.2361Z" fill="#DFE2E2" stroke="#343535" stroke-width="1.2" stroke-miterlimit="10"/>
<path d="M187.745 10.4776C212.739 10.4776 233 8.35597 233 5.7388C233 3.12163 212.739 1 187.745 1C162.752 1 142.49 3.12163 142.49 5.7388C142.49 8.35597 162.752 10.4776 187.745 10.4776Z" fill="url(#paint2_linear_81_1353)" stroke="#323333" stroke-width="0.5" stroke-miterlimit="10"/>
<path d="M187.745 9.03935C205.663 9.03935 220.189 7.56165 220.189 5.73881C220.189 3.91597 205.663 2.43826 187.745 2.43826C169.827 2.43826 155.302 3.91597 155.302 5.73881C155.302 7.56165 169.827 9.03935 187.745 9.03935Z" fill="url(#paint3_linear_81_1353)"/>
<path d="M83.8973 48.3364L49.9176 14.7064H47.877V17.4683L80.0797 49.6601C80.579 50.1542 81.2516 50.4339 81.9541 50.4394L96.7085 50.491C96.8753 50.4917 97.0407 50.4595 97.195 50.3962C97.3494 50.3329 97.4897 50.2398 97.6079 50.1221C97.7262 50.0044 97.82 49.8646 97.884 49.7106C97.9481 49.5565 97.981 49.3914 97.981 49.2246V49.1444L85.7488 49.0985C85.0557 49.0959 84.3912 48.8224 83.8973 48.3364V48.3364Z" fill="#7C7B7C" stroke="#343535" stroke-width="0.5" stroke-miterlimit="10"/>
<path d="M135.761 33.2777V28.6936C135.761 28.5273 135.794 28.3626 135.858 28.209C135.921 28.0554 136.015 27.9158 136.132 27.7982C136.25 27.6806 136.39 27.5873 136.543 27.5237C136.697 27.46 136.862 27.4273 137.028 27.4273H145.082L180.471 9.44618C181.126 9.22664 181.821 9.15424 182.506 9.23417H191.844V14.0303L151.054 34.481L137.057 34.5383C136.888 34.5429 136.721 34.5137 136.564 34.4524C136.407 34.3911 136.263 34.299 136.143 34.1815C136.022 34.064 135.926 33.9234 135.86 33.7682C135.795 33.613 135.761 33.4462 135.761 33.2777V33.2777Z" fill="#DFE2E2" stroke="#343535" stroke-width="1.2" stroke-miterlimit="10"/>
<path d="M147.787 33.2204L135.75 33.272C135.75 33.4385 135.783 33.6034 135.847 33.7571C135.911 33.9108 136.005 34.0502 136.123 34.1675C136.241 34.2847 136.382 34.3773 136.536 34.4399C136.69 34.5026 136.855 34.5341 137.022 34.5326L151.02 34.4753L191.844 14.0303V12.7353L188.605 12.7696L147.787 33.2204Z" fill="#7C7B7C" stroke="#343535" stroke-width="0.5" stroke-miterlimit="10"/>
<path d="M178.281 38.4405C178.021 38.3812 177.788 38.2358 177.621 38.0278C177.453 37.8199 177.361 37.5615 177.359 37.2945V35.8333C177.361 35.5664 177.453 35.308 177.621 35.1C177.788 34.892 178.021 34.7466 178.281 34.6873L187.963 32.5786H187.997C188.032 32.5786 191.568 33.5012 191.597 36.5496C191.626 39.598 188.032 40.5206 187.997 40.5263H187.963L178.281 38.4405Z" fill="#F7D766"/>
<path d="M187.963 32.7276C187.963 32.7276 191.402 33.5929 191.454 36.5668C191.505 39.5407 187.963 40.4002 187.963 40.4002L178.31 38.2973C178.082 38.2466 177.877 38.1197 177.73 37.9375C177.583 37.7553 177.503 37.5285 177.502 37.2945V35.8333C177.503 35.5993 177.583 35.3726 177.73 35.1904C177.877 35.0081 178.082 34.8813 178.31 34.8306L187.963 32.7276V32.7276ZM187.963 32.4354H187.9L178.247 34.5383C177.955 34.6043 177.695 34.7671 177.507 35.0002C177.32 35.2333 177.217 35.5229 177.215 35.8219V37.2831C177.217 37.5821 177.32 37.8717 177.507 38.1047C177.695 38.3378 177.955 38.5006 178.247 38.5666L187.9 40.6695H187.963H188.032C188.066 40.6695 191.706 39.7126 191.74 36.5553C191.775 33.398 188.066 32.4468 188.032 32.4411H187.963V32.4354Z" fill="#343535"/>
<path d="M160.827 57.0061H159.205L158.322 58.1922C158.242 58.2987 158.138 58.3851 158.019 58.4447C157.9 58.5043 157.768 58.5356 157.635 58.536H74.1183C73.9852 58.5343 73.8541 58.5025 73.735 58.443C73.6159 58.3834 73.5118 58.2977 73.4305 58.1922L72.5248 57.0061H70.9084C70.836 57.0064 70.7651 57.0268 70.7037 57.065C70.6422 57.1033 70.5927 57.1579 70.5605 57.2228C70.5284 57.2876 70.515 57.3601 70.5217 57.4321C70.5285 57.5042 70.5552 57.573 70.5988 57.6307L72.7828 60.4957C72.8611 60.5976 72.9618 60.68 73.0771 60.7366C73.1924 60.7933 73.3192 60.8226 73.4477 60.8223H158.282C158.41 60.8226 158.536 60.7932 158.65 60.7365C158.765 60.6798 158.864 60.5974 158.942 60.4957L161.131 57.6307C161.175 57.5734 161.201 57.5051 161.208 57.4336C161.215 57.362 161.202 57.2899 161.171 57.2253C161.139 57.1606 161.091 57.106 161.03 57.0673C160.969 57.0286 160.899 57.0074 160.827 57.0061V57.0061Z" fill="#444444" stroke="#020E24" stroke-width="1.2" stroke-miterlimit="10"/>
<path d="M151.415 35.4609H120.113V36.8648H151.415V35.4609Z" fill="#9A9B9B"/>
<path d="M151.272 35.6041V36.7502H120.256V35.6041H151.272ZM151.559 35.3176H119.969V37.0367H151.559V35.3176Z" fill="#020F25"/>
<path d="M177.393 36.5668H120.256" stroke="#020F25" stroke-width="0.5"/>
<path d="M193.082 7.58963H182.403V8.35746H193.082V7.58963Z" fill="#CECECE" stroke="#020E24" stroke-width="0.5" stroke-miterlimit="10"/>
<path d="M187.745 6.58113C190.696 6.58113 193.087 6.27841 193.087 5.90498C193.087 5.53155 190.696 5.22882 187.745 5.22882C184.795 5.22882 182.403 5.53155 182.403 5.90498C182.403 6.27841 184.795 6.58113 187.745 6.58113Z" fill="#494949"/>
<path d="M188.525 5.7388H186.96V8.35746H188.525V5.7388Z" fill="#323333"/>
<path d="M192.852 17.4683H182.638C182.279 17.4683 181.935 17.3259 181.681 17.0723C181.428 16.8186 181.285 16.4747 181.285 16.116V9.18258C181.285 9.11862 181.298 9.0553 181.322 8.99621C181.347 8.93711 181.383 8.88342 181.428 8.83819C181.473 8.79297 181.527 8.75708 181.586 8.73261C181.645 8.70813 181.708 8.69554 181.772 8.69554H193.718C193.846 8.69704 193.969 8.74901 194.059 8.84019C194.149 8.93137 194.2 9.05439 194.2 9.18258V16.0988C194.203 16.2776 194.17 16.4552 194.104 16.6212C194.037 16.7872 193.939 16.9384 193.813 17.0659C193.688 17.1933 193.538 17.2946 193.373 17.3637C193.208 17.4328 193.031 17.4684 192.852 17.4683V17.4683Z" fill="#C0BFBF" stroke="#020F25" stroke-width="0.5"/>
<path d="M51.5971 7.58963H40.9182V8.35746H51.5971V7.58963Z" fill="#CECECE" stroke="#020E24" stroke-width="0.5" stroke-miterlimit="10"/>
<path d="M46.2546 6.58113C49.2051 6.58113 51.5969 6.27841 51.5969 5.90498C51.5969 5.53155 49.2051 5.22882 46.2546 5.22882C43.3042 5.22882 40.9124 5.53155 40.9124 5.90498C40.9124 6.27841 43.3042 6.58113 46.2546 6.58113Z" fill="#494949"/>
<path d="M47.04 5.7388H45.4751V8.35746H47.04V5.7388Z" fill="#323333"/>
<path d="M51.3619 17.4683H41.1531C40.7943 17.4683 40.4502 17.3259 40.1965 17.0723C39.9428 16.8186 39.8003 16.4747 39.8003 16.116V9.18258C39.8003 9.0534 39.8516 8.92954 39.943 8.83819C40.0344 8.74685 40.1583 8.69554 40.2875 8.69554H52.2274C52.3566 8.69554 52.4806 8.74685 52.5719 8.83819C52.6633 8.92954 52.7147 9.0534 52.7147 9.18258V16.0988C52.7177 16.2781 52.6849 16.4561 52.6182 16.6225C52.5516 16.7889 52.4523 16.9404 52.3263 17.0679C52.2003 17.1955 52.0501 17.2966 51.8845 17.3653C51.7189 17.4341 51.5412 17.4691 51.3619 17.4683V17.4683Z" fill="#C0BFBF" stroke="#020F25" stroke-width="0.5"/>
<defs>
<linearGradient id="paint0_linear_81_1353" x1="46.2547" y1="10.4776" x2="46.2547" y2="1" gradientUnits="userSpaceOnUse">
<stop stop-color="#E9E9E9"/>
<stop offset="1" stop-color="#A9ADB6"/>
</linearGradient>
<linearGradient id="paint1_linear_81_1353" x1="46.2548" y1="9.03935" x2="46.2548" y2="2.43253" gradientUnits="userSpaceOnUse">
<stop stop-color="#E9E9E9"/>
<stop offset="1" stop-color="white"/>
</linearGradient>
<linearGradient id="paint2_linear_81_1353" x1="187.745" y1="10.4776" x2="187.745" y2="0.856747" gradientUnits="userSpaceOnUse">
<stop stop-color="#E9E9E9"/>
<stop offset="1" stop-color="#A9ADB6"/>
</linearGradient>
<linearGradient id="paint3_linear_81_1353" x1="187.745" y1="9.03935" x2="187.745" y2="2.43253" gradientUnits="userSpaceOnUse">
<stop stop-color="#E9E9E9"/>
<stop offset="1" stop-color="white"/>
</linearGradient>
</defs>
</svg>
